# Blender v2.80 (sub 75) OBJ File: 'Graflex.blend'
# www.blender.org
mtllib Graflex.mtl
o Plane.002_Plane.001
v 0.100000 -0.000000 -0.100000
v 0.100000 -0.000000 0.100000
v -0.100000 -0.000000 -0.100000
v -0.100000 -0.000000 0.100000
v -0.130000 -2.015911 -0.050000
v -0.130000 -2.015911 0.050000
v -0.130000 -1.216402 0.050000
v -0.130000 -1.216402 -0.050000
v -0.230000 -2.015911 -0.050000
v -0.230000 -2.015911 0.050000
v -0.230000 -1.216402 0.050000
v -0.230000 -1.216402 -0.050000
v 0.130000 -2.015911 -0.050000
v 0.130000 -2.015911 0.050000
v 0.130000 -1.216402 0.050000
v 0.130000 -1.216402 -0.050000
v 0.230000 -2.015911 -0.050000
v 0.230000 -2.015911 0.050000
v 0.230000 -1.216402 0.050000
v 0.230000 -1.216402 -0.050000
v -0.050000 0.138000 -0.150000
v -0.150000 0.138000 -0.150000
v -0.050000 0.138000 0.150000
v -0.150000 0.138000 0.150000
v -0.050000 0.138000 0.050000
v -0.050000 0.138000 -0.050000
v 0.150000 -0.162000 -0.150000
v 0.150000 -0.162000 0.150000
v 0.050000 -0.162000 -0.150000
v 0.050000 -0.162000 0.150000
v 0.050000 -0.162000 -0.050000
v 0.050000 -0.162000 0.050000
v -0.050000 -0.162000 -0.050000
v -0.050000 -0.162000 0.050000
v -0.150000 -2.065911 -0.150000
v 0.150000 -2.065911 -0.150000
v 0.150000 -0.162000 -0.150000
v -0.150000 -2.065911 0.150000
v 0.150000 -2.065911 0.150000
v 0.150000 -0.162000 0.150000
v -0.050000 -1.216402 -0.130000
v 0.050000 -1.216402 -0.130000
v -0.050000 -2.015911 -0.130000
v 0.050000 -2.015911 -0.130000
v -0.050000 -1.216402 0.130000
v 0.050000 -1.216402 0.130000
v -0.050000 -2.015911 0.130000
v 0.050000 -2.015911 0.130000
v -0.050000 -1.216402 0.230000
v 0.050000 -1.216402 0.230000
v -0.050000 -2.015911 0.230000
v 0.050000 -2.015911 0.230000
v -0.050000 -1.216402 -0.230000
v 0.050000 -1.216402 -0.230000
v -0.050000 -2.015911 -0.230000
v 0.050000 -2.015911 -0.230000
v 0.050000 -0.162000 -0.150000
v -0.050000 -0.162000 -0.150000
v 0.050000 -0.162000 0.150000
v -0.050000 -0.162000 0.150000
v 0.050000 -0.162000 -0.050000
v 0.050000 -0.162000 0.050000
v -0.050000 -0.162000 -0.050000
v -0.050000 -0.162000 0.050000
v -0.050000 0.138000 -0.150000
v -0.150000 0.138000 -0.150000
v -0.050000 0.138000 0.150000
v -0.150000 0.138000 0.150000
v -0.050000 0.138000 0.050000
v -0.050000 0.138000 -0.050000
v 0.100000 -0.312000 -0.050000
v 0.100000 -0.312000 0.050000
v 0.100000 -0.412000 0.050000
v 0.100000 -0.412000 -0.050000
v 0.200000 -0.312000 -0.050000
v 0.200000 -0.312000 0.050000
v 0.200000 -0.412000 -0.050000
v 0.200000 -0.412000 0.050000
v -0.250000 -0.002000 -0.050000
v -0.250000 -0.002000 0.050000
v -0.250000 -0.162000 0.050000
v -0.250000 -0.162000 -0.050000
v -0.150000 -0.002000 -0.050000
v -0.150000 -0.002000 0.050000
v -0.150000 -0.162000 -0.050000
v -0.150000 -0.162000 0.050000
v 0.050000 -0.162000 -0.050000
v -0.050000 -0.162000 -0.050000
v -0.050000 0.138000 -0.050000
v 0.050000 -0.162000 0.050000
v -0.050000 -0.162000 0.050000
v -0.050000 0.138000 0.050000
v -0.120000 -0.310000 -0.050000
v -0.120000 -0.310000 0.050000
v -0.120000 -0.210000 0.050000
v -0.120000 -0.210000 -0.050000
v -0.220000 -0.310000 -0.050000
v -0.220000 -0.310000 0.050000
v -0.220000 -0.210000 -0.050000
v -0.220000 -0.210000 0.050000
v -0.050000 -0.725665 0.150000
v -0.050000 -1.126157 0.150000
v -0.050000 -0.725665 0.250000
v -0.050000 -1.126157 0.250000
v 0.050000 -0.725665 0.150000
v 0.050000 -1.126157 0.150000
v 0.050000 -0.725665 0.250000
v 0.050000 -1.126157 0.250000
v 0.100000 -0.000000 -0.100000
v 0.100000 -0.162000 -0.100000
v -0.100000 -0.000000 -0.100000
v -0.100000 -0.162000 -0.100000
v -0.100000 -0.000000 -0.100000
v -0.100000 -0.000000 0.100000
v -0.100000 -0.162000 -0.100000
v -0.100000 -0.162000 0.100000
v 0.100000 -0.000000 0.100000
v 0.100000 -0.162000 0.100000
v -0.100000 -0.000000 0.100000
v -0.100000 -0.162000 0.100000
v 0.100000 -0.000000 -0.100000
v 0.100000 -0.000000 0.100000
v 0.100000 -0.162000 0.100000
v 0.100000 -0.162000 -0.100000
vt 0.750000 0.312500
vt 0.718750 0.312500
vt 0.718750 0.062500
vt 0.750000 0.062500
vt 0.687500 0.062500
vt 0.687500 0.312500
vt 0.656250 0.062500
vt 0.656250 0.312500
vt 0.687500 0.343750
vt 0.718750 0.343750
vt 0.718750 0.031250
vt 0.687500 0.031250
vt 0.625000 0.312500
vt 0.593750 0.312500
vt 0.593750 0.062500
vt 0.625000 0.062500
vt 0.562500 0.062500
vt 0.562500 0.312500
vt 0.593750 0.031250
vt 0.562500 0.031250
vt 0.562500 0.343750
vt 0.593750 0.343750
vt 0.531250 0.062500
vt 0.531250 0.312500
vt 0.625000 0.875000
vt 0.687500 0.875000
vt 0.687500 0.812500
vt 0.625000 0.812500
vt 0.875000 0.406250
vt 0.843750 0.406250
vt 0.843750 0.375000
vt 0.843750 0.343750
vt 0.750000 0.437500
vt 0.750000 0.687500
vt 0.718750 0.687500
vt 0.718750 0.437500
vt 0.625000 0.687500
vt 0.593750 0.687500
vt 0.593750 0.437500
vt 0.625000 0.437500
vt 0.687500 0.687500
vt 0.687500 0.437500
vt 0.687500 0.718750
vt 0.718750 0.718750
vt 0.718750 0.406250
vt 0.687500 0.406250
vt 0.875000 0.156250
vt 0.875000 0.187500
vt 0.843750 0.187500
vt 0.843750 0.156250
vt 0.906250 0.875000
vt 0.906250 0.843750
vt 0.781250 0.843750
vt 0.781250 0.875000
vt 0.593750 0.406250
vt 0.562500 0.437500
vt 0.562500 0.406250
vt 0.562500 0.718750
vt 0.562500 0.687500
vt 0.593750 0.718750
vt 0.531250 0.437500
vt 0.531250 0.687500
vt 0.281250 0.031250
vt 0.375000 0.031250
vt 0.375000 0.718750
vt 0.281250 0.718750
vt 0.812500 0.625000
vt 0.906250 0.625000
vt 0.906250 0.656250
vt 0.812500 0.656250
vt 0.343750 0.875000
vt 0.343750 0.906250
vt 0.312500 0.906250
vt 0.312500 0.875000
vt 0.031250 0.875000
vt 0.125000 0.875000
vt 0.125000 0.906250
vt 0.031250 0.906250
vt 0.656250 0.437500
vt 0.656250 0.687500
vt 0.125000 0.125000
vt 0.125000 0.718750
vt 0.093750 0.718750
vt 0.031250 0.125000
vt 0.906250 0.093750
vt 0.875000 0.093750
vt 0.875000 0.062500
vt 0.906250 0.062500
vt 0.843750 0.125000
vt 0.843750 0.093750
vt 0.875000 0.125000
vt 0.812500 0.062500
vt 0.843750 0.062500
vt 0.812500 0.093750
vt 0.843750 0.250000
vt 0.843750 0.218750
vt 0.875000 0.218750
vt 0.875000 0.250000
vt 0.562500 0.875000
vt 0.625000 0.875000
vt 0.625000 0.937500
vt 0.562500 0.937500
vt 0.312500 0.812500
vt 0.312500 0.781250
vt 0.343750 0.781250
vt 0.343750 0.812500
vt 0.812500 0.187500
vt 0.812500 0.218750
vt 0.281250 0.875000
vt 0.281250 0.812500
vt 0.750000 0.906250
vt 0.843750 0.906250
vt 0.843750 0.968750
vt 0.375000 0.968750
vt 0.281250 0.968750
vt 0.375000 0.937500
vt 0.906250 0.500000
vt 0.906250 0.468750
vt 0.812500 0.468750
vt 0.812500 0.500000
vt 0.375000 0.812500
vt 0.375000 0.875000
vt 0.875000 0.031250
vt 0.843750 0.031250
vt 0.125000 0.718750
vt 0.218750 0.125000
vt 0.218750 0.718750
vt 0.906250 0.218750
vt 0.906250 0.187500
vt 0.906250 0.562500
vt 0.906250 0.593750
vt 0.875000 0.593750
vt 0.843750 0.593750
vt 0.437500 0.125000
vt 0.468750 0.125000
vt 0.468750 0.718750
vt 0.906250 0.781250
vt 0.781250 0.781250
vt 0.781250 0.812500
vt 0.906250 0.812500
vt 0.125000 0.031250
vt 0.218750 0.031250
vt 0.937500 0.843750
vt 0.937500 0.812500
vt 0.812500 0.343750
vt 0.812500 0.375000
vt 0.750000 0.843750
vt 0.750000 0.812500
vt 0.562500 0.812500
vt 0.625000 0.812500
vt 0.625000 0.750000
vt 0.562500 0.750000
vt 0.500000 0.875000
vt 0.562500 0.875000
vt 0.562500 0.812500
vt 0.500000 0.812500
vt 0.875000 0.312500
vt 0.843750 0.312500
vt 0.031250 0.812500
vt 0.062500 0.812500
vt 0.468750 0.125000
vt 0.812500 0.562500
vt 0.812500 0.593750
vt 0.406250 0.031250
vt 0.437500 0.125000
vt 0.562500 0.875000
vt 0.625000 0.875000
vt 0.625000 0.812500
vt 0.562500 0.812500
vn 0.0000 -0.0000 1.0000
vn -1.0000 0.0000 0.0000
vn 0.0000 0.0000 -1.0000
vn 0.0000 1.0000 0.0000
vn 0.0000 -1.0000 0.0000
vn 1.0000 0.0000 0.0000
vn 0.9487 0.3162 0.0000
usemtl MAT_DIFFUSE_CUTOUT
s off
f 7/1/1 11/2/1 10/3/1 6/4/1
f 9/5/2 10/3/2 11/2/2 12/6/2
f 5/7/3 9/5/3 12/6/3 8/8/3
f 8/9/4 12/6/4 11/2/4 7/10/4
f 6/11/5 10/3/5 9/5/5 5/12/5
f 14/13/1 18/14/1 19/15/1 15/16/1
f 20/17/6 19/15/6 18/14/6 17/18/6
f 15/19/4 19/15/4 20/17/4 16/20/4
f 13/21/5 17/18/5 18/14/5 14/22/5
f 16/23/3 20/17/3 17/18/3 13/24/3
f 119/25/1 120/26/1 118/27/1 117/28/1
f 27/29/4 29/30/4 31/31/4 32/32/4
f 45/33/2 47/34/2 51/35/2 49/36/2
f 41/37/2 53/38/2 55/39/2 43/40/2
f 49/36/1 51/35/1 52/41/1 50/42/1
f 48/43/5 52/41/5 51/35/5 47/44/5
f 45/45/4 49/36/4 50/42/4 46/46/4
f 93/47/3 97/48/3 99/49/3 96/50/3
f 105/51/6 107/52/6 108/53/6 106/54/6
f 43/55/5 55/39/5 56/56/5 44/57/5
f 42/58/4 54/59/4 53/38/4 41/60/4
f 44/61/6 56/56/6 54/59/6 42/62/6
f 68/63/2 66/64/2 35/65/2 38/66/2
f 63/67/6 70/68/6 69/69/6 64/70/6
f 80/71/4 84/72/4 83/73/4 79/74/4
f 70/75/7 61/76/7 57/77/7 65/78/7
f 46/79/6 50/42/6 52/41/6 48/80/6
f 39/81/1 28/82/1 30/83/1 38/84/1
f 74/85/5 77/86/5 78/87/5 73/88/5
f 71/89/3 75/90/3 77/86/3 74/91/3
f 72/92/4 76/93/4 75/90/4 71/94/4
f 95/95/1 100/96/1 98/97/1 94/98/1
f 113/99/6 114/100/6 116/101/6 115/102/6
f 82/103/5 85/104/5 86/105/5 81/106/5
f 97/48/2 98/97/2 100/96/2 99/49/2
f 96/107/4 99/49/4 100/96/4 95/108/4
f 79/74/3 83/109/3 85/110/3 82/103/3
f 89/111/1 88/112/1 87/113/1
f 91/114/3 92/115/3 90/116/3
f 59/117/7 62/118/7 69/119/7 67/120/7
f 81/106/1 86/121/1 84/122/1 80/71/1
f 73/123/1 78/87/1 76/93/1 72/124/1
f 56/56/3 55/39/3 53/38/3 54/59/3
f 40/125/6 39/81/6 36/126/6 37/127/6
f 94/128/5 98/97/5 97/48/5 93/129/5
f 24/130/4 23/131/4 25/132/4 26/133/4
f 29/134/3 27/135/3 36/136/3 35/65/3
f 81/106/2 80/71/2 79/74/2 82/103/2
f 101/137/2 102/138/2 104/139/2 103/140/2
f 38/141/5 35/142/5 36/126/5 39/81/5
f 107/52/4 105/143/4 101/144/4 103/140/4
f 34/145/4 32/32/4 31/31/4 33/146/4
f 106/147/5 108/53/5 104/139/5 102/148/5
f 121/149/6 122/150/6 123/151/6 124/152/6
f 112/153/3 111/154/3 109/155/3 110/156/3
f 75/90/6 76/93/6 78/87/6 77/86/6
f 28/157/4 27/29/4 32/32/4 30/158/4
f 108/53/1 107/52/1 103/140/1 104/139/1
f 24/159/1 38/84/1 30/83/1 23/160/1
f 27/135/1 37/161/1 36/136/1
f 22/162/4 24/130/4 26/133/4 21/163/4
f 65/164/1 57/165/1 29/134/1
f 35/65/3 66/64/3 65/164/3 29/134/3
f 39/81/1 40/125/1 28/82/1
f 3/166/4 4/167/4 2/168/4 1/169/4
l 64 60
l 58 63
