# This file uses centimeters as units for non-parametric coordinates.

mtllib tuskenCyclerModel.mtl
g default
v -0.075116 1.610726 0.927753
v 0.075116 1.610726 0.927753
v -0.075116 1.760958 0.927753
v 0.075116 1.760958 0.927753
v -0.075116 1.760958 -4.569617
v 0.075116 1.760958 -4.569617
v -0.075116 1.610726 -4.569617
v 0.075116 1.610726 -4.569617
v -0.059937 1.498261 0.917592
v 0.059937 1.498261 0.917592
v -0.059937 1.618135 0.917592
v 0.059937 1.618135 0.917592
v -0.059937 1.618135 -3.995922
v 0.059937 1.618135 -3.995922
v -0.059937 1.498261 -3.995922
v 0.059937 1.498261 -3.995922
v -0.140978 1.384577 1.648379
v 0.140978 1.384577 1.648379
v -0.140978 1.701077 1.641462
v 0.140978 1.701077 1.641462
v -0.140978 1.735661 -1.136727
v 0.140978 1.735661 -1.136727
v -0.140978 1.426077 -0.893483
v 0.140978 1.426077 -0.893483
v -0.140978 1.135430 2.264840
v 0.140978 1.135430 2.264839
v 0.140978 1.527896 2.363219
v -0.140978 1.527896 2.363219
v -0.129933 0.561777 3.011348
v 0.129933 0.561777 3.011347
v 0.129868 2.004871 3.019811
v -0.129868 2.004871 3.019811
v -0.128240 0.626976 3.162709
v 0.128240 0.626976 3.162709
v 0.128240 1.918922 3.191157
v -0.128240 1.918922 3.191158
v 0.128240 1.546911 3.002388
v -0.128240 1.546911 3.002389
v 0.128240 0.952075 3.053908
v -0.128240 0.952075 3.053909
v -0.207013 1.430949 -4.281786
v 0.207013 1.430949 -4.281786
v -0.207013 1.430949 -4.350965
v 0.207013 1.430949 -4.350965
v -0.207013 1.497247 -4.281786
v -0.207013 1.497247 -4.350965
v 0.207013 1.497247 -4.281786
v 0.207013 1.497247 -4.350965
v -0.064404 1.589329 -4.281786
v -0.064404 1.589329 -4.350965
v 0.064404 1.589329 -4.281786
v 0.064404 1.589329 -4.350965
v -0.064404 1.643089 -4.281786
v -0.064404 1.643089 -4.350965
v 0.064404 1.643089 -4.281786
v 0.064404 1.643089 -4.350965
v -0.069305 1.053216 1.725708
v 0.069305 1.053216 1.725708
v -0.069305 1.053216 1.221673
v 0.069305 1.053216 1.221673
v -0.069305 1.400184 1.221673
v 0.069305 1.400184 1.221673
v -0.069305 1.302217 1.750200
v 0.069305 1.302217 1.750200
v -0.069305 1.302217 1.880824
v 0.069305 1.302217 1.880824
v -0.023496 1.171438 1.550901
v 0.023496 1.171438 1.550901
v -0.023496 1.393755 1.648604
v 0.023496 1.393755 1.648604
v -0.023496 1.393755 1.454695
v 0.023496 1.393755 1.454695
v 0.023496 1.329368 1.568981
v -0.023496 1.329368 1.568981
v -0.023496 1.329999 1.521603
v 0.023496 1.329999 1.521603
v 0.059382 1.847775 -0.071925
v 0.203739 1.703417 -0.071925
v 0.203739 1.992132 -0.071925
v 0.348097 1.847775 -0.071925
v 0.203739 1.992132 -1.232013
v 0.348097 1.847775 -1.232013
v 0.059382 1.847775 -1.232013
v 0.203739 1.703417 -1.232013
v 0.130517 1.847774 -0.071925
v 0.203739 1.774553 -0.071925
v 0.276961 1.847774 -0.071925
v 0.203739 1.920996 -0.071925
v 0.130517 1.847774 0.466766
v 0.203739 1.774553 0.466766
v 0.276961 1.847774 0.466766
v 0.203739 1.920996 0.466766
v 0.060154 1.847774 0.466766
v 0.203739 1.704189 0.466766
v 0.347323 1.847774 0.466766
v 0.203739 1.991358 0.466766
v 0.060154 1.847774 0.525659
v 0.203739 1.704189 0.525659
v 0.347323 1.847774 0.525659
v 0.203739 1.991358 0.525659
v 0.134825 1.847774 0.525659
v 0.203739 1.778860 0.525659
v 0.272652 1.847774 0.525659
v 0.203739 1.916688 0.525659
v 0.134825 1.847774 0.835609
v 0.203739 1.778860 0.835609
v 0.272652 1.847774 0.835609
v 0.203739 1.916688 0.835609
v 0.153184 1.862541 -0.669575
v -0.004904 1.705055 -0.669575
v 0.218505 1.797220 -0.669575
v 0.060417 1.639733 -0.669575
v 0.153184 1.862541 0.417563
v -0.004904 1.705055 0.417563
v 0.218505 1.797220 0.417563
v 0.060417 1.639733 0.417563
vt 0.351373 0.211053
vt 0.656059 0.211053
vt 0.687899 0.250299
vt 0.351373 0.250299
vt 0.658355 0.437483
vt 0.351569 0.437483
vt 0.351569 0.398711
vt 0.688276 0.398711
vt 0.264645 0.229106
vt 0.275903 0.180408
vt 0.275937 0.468095
vt 0.264679 0.419081
vt 0.186053 0.358663
vt 0.184724 0.538327
vt 0.166526 0.529971
vt 0.179223 0.489672
vt 0.187152 0.415702
vt 0.165191 0.369092
vt 0.186019 0.290028
vt 0.165158 0.279599
vt 0.187171 0.232801
vt 0.179995 0.158831
vt 0.166493 0.118532
vt 0.184691 0.110176
vt 0.351373 0.281553
vt 0.687899 0.281553
vt 0.656059 0.179315
vt 0.351373 0.179315
vt 0.265794 0.281553
vt 0.265794 0.250299
vt 0.727128 0.250574
vt 0.727128 0.281828
vt 0.249999 0.070735
vt 0.249999 0.102279
vt 0.163849 0.102279
vt 0.163849 0.070735
vt 0.062914 0.102279
vt 0.062914 0.070735
vt 0.039397 0.102279
vt 0.039397 0.070735
vt 0.102103 0.117486
vt 0.132929 0.117486
vt 0.132929 0.156740
vt 0.102103 0.156740
vt 0.132929 0.234298
vt 0.102103 0.234298
vt 0.132929 0.281460
vt 0.102103 0.281460
vt 0.335623 0.304805
vt 0.335623 0.336164
vt 0.257823 0.336164
vt 0.257823 0.304805
vt 0.234453 0.336164
vt 0.234453 0.304805
vt 0.398895 0.469094
vt 0.398895 0.453079
vt 0.460737 0.453079
vt 0.460737 0.469094
vt 0.367091 0.453079
vt 0.367091 0.469094
vt 0.351725 0.469094
vt 0.351725 0.453079
vt 0.499571 0.453079
vt 0.499571 0.469094
vt 0.402005 0.481749
vt 0.405402 0.500137
vt 0.399908 0.500064
vt 0.413162 0.507532
vt 0.390674 0.507532
vt 0.449393 0.481292
vt 0.451530 0.499960
vt 0.445930 0.500035
vt 0.460942 0.507571
vt 0.438021 0.507571
vt 0.453032 0.523674
vt 0.453032 0.515847
vt 0.433977 0.515847
vt 0.433977 0.523674
vt 0.418298 0.515847
vt 0.418298 0.523674
vt 0.473171 0.523674
vt 0.473171 0.515847
vt 0.488615 0.523674
vt 0.488615 0.515847
vt 0.288989 0.117633
vt 0.960932 0.117633
vt 0.960932 0.133019
vt 0.288989 0.133019
vt 0.960932 0.164275
vt 0.288989 0.164275
vt 0.288989 0.148570
vt 0.960932 0.148570
vt 0.960932 0.102205
vt 0.288989 0.102205
vt 0.297295 0.070715
vt 0.898445 0.070715
vt 0.898445 0.086022
vt 0.297295 0.086022
vt 0.898445 0.054696
vt 0.297295 0.054696
vt 0.297295 0.039199
vt 0.898445 0.039199
vt 0.734365 0.015976
vt 0.734365 0.023720
vt 0.726605 0.023720
vt 0.726605 0.015976
vt 0.707232 0.023720
vt 0.707232 0.015976
vt 0.699280 0.023720
vt 0.699280 0.015976
vt 0.781179 0.023720
vt 0.781179 0.015976
vt 0.788894 0.015976
vt 0.788894 0.023720
vt 0.808858 0.015976
vt 0.808858 0.023720
vt 0.816299 0.015976
vt 0.816299 0.023720
vt 0.476666 0.570306
vt 0.476666 0.554725
vt 0.492290 0.554725
vt 0.492290 0.570306
vt 0.984460 0.632654
vt 0.984460 0.663872
vt 0.953033 0.663872
vt 0.953033 0.632654
vt 0.757865 0.570191
vt 0.757865 0.539434
vt 0.788908 0.539434
vt 0.788908 0.570191
vt 0.781134 0.562705
vt 0.781134 0.547044
vt 0.765472 0.547044
vt 0.765472 0.562705
vt 0.609456 0.546844
vt 0.609456 0.578126
vt 0.640553 0.578126
vt 0.640553 0.546844
vt 0.633085 0.554514
vt 0.633085 0.570366
vt 0.617233 0.570366
vt 0.617233 0.554514
vt 0.570717 0.609261
vt 0.601707 0.609261
vt 0.601707 0.578126
vt 0.570717 0.578126
vt 0.578757 0.586308
vt 0.593596 0.586308
vt 0.593596 0.601148
vt 0.578757 0.601148
vt 0.609176 0.476579
vt 0.609176 0.453151
vt 0.624756 0.453151
vt 0.624756 0.476579
vt 0.640829 0.476691
vt 0.640828 0.453559
vt 0.656082 0.453559
vt 0.656082 0.476691
vt 0.788908 0.601395
vt 0.953033 0.570191
vt 0.953033 0.601395
vt 0.953033 0.539434
vt 0.788908 0.632654
vt 0.788908 0.663872
vt 0.741667 0.586094
vt 0.741667 0.539021
vt 0.655910 0.539021
vt 0.655910 0.586094
vt 0.741667 0.554792
vt 0.655910 0.554792
vt 0.741667 0.570288
vt 0.655910 0.570288
vt 0.609456 0.609261
vt 0.601707 0.546844
vt 0.609456 0.640733
vt 0.601707 0.640733
vt 0.609456 0.515626
vt 0.601707 0.515626
vt 0.538963 0.585996
vt 0.538963 0.538785
vt 0.492290 0.538785
vt 0.492290 0.585996
vt 0.538963 0.554725
vt 0.538963 0.570306
vt 0.976682 0.102205
vt 0.976682 0.117633
vt 0.273360 0.133019
vt 0.273360 0.148570
vt 0.914300 0.039199
vt 0.914300 0.054696
vt 0.492290 0.601795
vt 0.538963 0.601795
vt 0.655910 0.601403
vt 0.741667 0.601403
vn 0.000000 0.000000 1.000000
vn 0.000000 0.000000 1.000000
vn 0.000000 0.000000 1.000000
vn 0.000000 0.000000 1.000000
vn 0.000000 1.000000 0.000000
vn 0.000000 1.000000 0.000000
vn 0.000000 1.000000 0.000000
vn 0.000000 1.000000 0.000000
vn 0.000000 0.000000 -1.000000
vn 0.000000 0.000000 -1.000000
vn 0.000000 0.000000 -1.000000
vn 0.000000 0.000000 -1.000000
vn 0.000000 -1.000000 0.000000
vn 0.000000 -1.000000 0.000000
vn 0.000000 -1.000000 0.000000
vn 0.000000 -1.000000 0.000000
vn 1.000000 0.000000 0.000000
vn 1.000000 0.000000 0.000000
vn 1.000000 0.000000 0.000000
vn 1.000000 0.000000 0.000000
vn -1.000000 0.000000 0.000000
vn -1.000000 0.000000 0.000000
vn -1.000000 0.000000 0.000000
vn -1.000000 0.000000 0.000000
vn 0.000000 0.000000 1.000000
vn 0.000000 0.000000 1.000000
vn 0.000000 0.000000 1.000000
vn 0.000000 0.000000 1.000000
vn 0.000000 1.000000 0.000000
vn 0.000000 1.000000 0.000000
vn 0.000000 1.000000 0.000000
vn 0.000000 1.000000 0.000000
vn 0.000000 0.000000 -1.000000
vn 0.000000 0.000000 -1.000000
vn 0.000000 0.000000 -1.000000
vn 0.000000 0.000000 -1.000000
vn 0.000000 -1.000000 0.000000
vn 0.000000 -1.000000 0.000000
vn 0.000000 -1.000000 0.000000
vn 0.000000 -1.000000 0.000000
vn 1.000000 0.000000 0.000000
vn 1.000000 0.000000 0.000000
vn 1.000000 0.000000 0.000000
vn 1.000000 0.000000 0.000000
vn -1.000000 0.000000 0.000000
vn -1.000000 0.000000 0.000000
vn -1.000000 0.000000 0.000000
vn -1.000000 0.000000 0.000000
vn 0.000001 0.317368 0.948303
vn 0.000001 0.317368 0.948303
vn 0.000002 0.171686 0.985152
vn 0.000002 0.171686 0.985152
vn 0.000000 0.999923 0.012447
vn 0.000000 0.999923 0.012447
vn 0.000000 0.999923 0.012447
vn 0.000000 0.999923 0.012447
vn 0.000000 -0.617821 -0.786319
vn 0.000000 -0.617821 -0.786319
vn 0.000000 -0.617821 -0.786319
vn 0.000000 -0.617821 -0.786319
vn 0.000000 -0.999867 -0.016324
vn 0.000000 -0.999867 -0.016324
vn 0.000000 -0.999867 -0.016324
vn 0.000000 -0.999867 -0.016324
vn 1.000000 0.000000 0.000000
vn 1.000000 0.000000 0.000000
vn 1.000000 0.000000 0.000000
vn 1.000000 0.000000 0.000000
vn -1.000000 -0.000000 0.000000
vn -1.000000 -0.000000 0.000000
vn -1.000000 -0.000000 0.000000
vn -1.000000 -0.000000 0.000000
vn -0.000000 -0.927141 -0.374712
vn -0.000000 -0.927141 -0.374712
vn -0.000000 -0.927141 -0.374712
vn -0.000000 -0.927141 -0.374712
vn 1.000000 0.000000 0.000000
vn 1.000000 0.000000 0.000000
vn 1.000000 0.000000 0.000000
vn 1.000000 0.000000 0.000000
vn 0.000000 0.972400 0.233322
vn 0.000000 0.972400 0.233322
vn 0.000000 0.972400 0.233322
vn 0.000000 0.972400 0.233322
vn -1.000000 0.000000 0.000000
vn -1.000000 0.000000 0.000000
vn -1.000000 0.000000 0.000000
vn -1.000000 0.000000 0.000000
vn -0.000001 -0.792924 -0.609321
vn -0.000001 -0.792924 -0.609321
vn -0.000001 -0.792924 -0.609321
vn -0.000001 -0.792924 -0.609321
vn -0.000001 0.809056 -0.587731
vn -0.000001 0.809056 -0.587731
vn -0.000001 0.809056 -0.587731
vn -0.000001 0.809056 -0.587731
vn -0.999853 -0.000818 0.017117
vn -0.999853 -0.000818 0.017117
vn -0.999853 -0.000818 0.017117
vn -0.999853 -0.000818 0.017117
vn -0.999853 -0.000818 0.017117
vn -0.999853 -0.000818 0.017117
vn -0.999853 -0.000818 0.017117
vn -0.999853 -0.000818 0.017117
vn 0.000000 -0.918419 0.395608
vn 0.000000 -0.918419 0.395608
vn 0.000000 -0.918419 0.395609
vn 0.000000 -0.918419 0.395609
vn 0.999853 -0.000818 0.017117
vn 0.999853 -0.000818 0.017117
vn 0.999853 -0.000818 0.017117
vn 0.999853 -0.000818 0.017117
vn 0.999853 -0.000818 0.017117
vn 0.999853 -0.000818 0.017117
vn 0.999853 -0.000818 0.017117
vn 0.999853 -0.000818 0.017117
vn 0.000001 0.893851 0.448364
vn 0.000001 0.893851 0.448364
vn 0.000001 0.893851 0.448364
vn 0.000001 0.893851 0.448364
vn 0.000002 -0.140546 0.990074
vn 0.000002 -0.140546 0.990074
vn 0.000002 -0.452506 0.891762
vn 0.000002 -0.452506 0.891761
vn 0.000000 1.000000 0.000000
vn 0.000000 1.000000 0.000000
vn 0.000000 1.000000 0.000000
vn 0.000000 1.000000 0.000000
vn 1.000000 0.000000 0.000000
vn 1.000000 0.000000 0.000000
vn 1.000000 0.000000 0.000000
vn 1.000000 0.000000 0.000000
vn -1.000000 0.000000 0.000000
vn -1.000000 0.000000 0.000000
vn -1.000000 0.000000 0.000000
vn -1.000000 0.000000 0.000000
vn 0.542445 -0.840091 0.000000
vn 0.542445 -0.840091 0.000000
vn 0.542445 -0.840091 0.000000
vn 0.542445 -0.840091 0.000000
vn -0.542445 -0.840091 0.000000
vn -0.542445 -0.840091 0.000000
vn -0.542445 -0.840091 0.000000
vn -0.542445 -0.840091 0.000000
vn 1.000000 0.000000 0.000000
vn 1.000000 0.000000 0.000000
vn 1.000000 0.000000 0.000000
vn 1.000000 0.000000 0.000000
vn -1.000000 0.000000 0.000000
vn -1.000000 0.000000 0.000000
vn -1.000000 0.000000 0.000000
vn -1.000000 0.000000 0.000000
vn 0.000000 1.000000 0.000000
vn 0.000000 1.000000 0.000000
vn 0.000000 1.000000 0.000000
vn 0.000000 1.000000 0.000000
vn 0.000000 0.000000 1.000000
vn 0.000000 0.000000 1.000000
vn 0.000000 0.000000 1.000000
vn 0.000000 0.000000 1.000000
vn 0.000000 0.097889 -0.995197
vn 0.000000 0.097889 -0.995197
vn 0.000000 0.097889 -0.995197
vn 0.000000 0.097889 -0.995197
vn 0.000000 1.000000 0.000000
vn 0.000000 1.000000 0.000000
vn 0.000000 1.000000 0.000000
vn 0.000000 1.000000 0.000000
vn 0.000000 -0.113735 0.993511
vn 0.000000 -0.113735 0.993511
vn 0.000000 -0.402336 0.915492
vn 0.000000 -0.402336 0.915492
vn 0.000000 1.000000 0.000000
vn 0.000000 1.000000 0.000000
vn 0.000000 1.000000 0.000000
vn 0.000000 1.000000 0.000000
vn 0.000000 -0.181701 -0.983354
vn 0.000000 -0.397154 -0.917752
vn 0.000000 -0.397154 -0.917752
vn 0.000000 -0.181701 -0.983354
vn 1.000000 -0.000000 0.000000
vn 1.000000 0.000000 0.000000
vn 1.000000 0.000000 0.000000
vn -1.000000 -0.000000 0.000000
vn -1.000000 0.000000 0.000000
vn -1.000000 0.000000 0.000000
vn 0.000000 -0.777577 0.628788
vn 0.000000 -0.777577 0.628788
vn -1.000000 0.000000 0.000000
vn -1.000000 0.000000 0.000000
vn 0.000000 -0.723956 -0.689846
vn 0.000000 -0.723956 -0.689846
vn 1.000000 0.000000 0.000000
vn 1.000000 0.000000 0.000000
vn 0.000000 0.000000 1.000000
vn 0.000000 0.000000 1.000000
vn 0.000000 0.000000 1.000000
vn 0.000000 0.000000 1.000000
vn 0.707107 0.707107 0.000000
vn 0.707107 0.707107 0.000000
vn 0.707107 0.707107 0.000000
vn 0.707107 0.707107 0.000000
vn 0.000000 0.000000 -1.000000
vn 0.000000 0.000000 -1.000000
vn 0.000000 0.000000 -1.000000
vn 0.000000 0.000000 -1.000000
vn -0.707107 -0.707107 0.000000
vn -0.707107 -0.707107 0.000000
vn -0.707107 -0.707107 0.000000
vn -0.707107 -0.707107 0.000000
vn 0.707107 -0.707107 0.000000
vn 0.707107 -0.707107 0.000000
vn 0.707107 -0.707107 0.000000
vn 0.707107 -0.707107 0.000000
vn -0.707107 0.707107 0.000000
vn -0.707107 0.707107 0.000000
vn -0.707107 0.707107 0.000000
vn -0.707107 0.707107 0.000000
vn 0.000000 0.000000 1.000000
vn 0.000000 0.000000 1.000000
vn 0.000000 0.000000 1.000000
vn 0.000000 0.000000 1.000000
vn 0.000000 0.000000 1.000000
vn 0.000000 0.000000 1.000000
vn 0.000000 0.000000 1.000000
vn 0.000000 0.000000 1.000000
vn -0.707107 -0.707107 0.000000
vn -0.707107 -0.707107 0.000000
vn -0.707107 -0.707107 0.000000
vn -0.707107 -0.707107 0.000000
vn 0.707107 -0.707107 0.000000
vn 0.707107 -0.707107 0.000000
vn 0.707107 -0.707107 0.000000
vn 0.707107 -0.707107 0.000000
vn 0.707107 0.707107 0.000000
vn 0.707107 0.707107 0.000000
vn 0.707107 0.707107 0.000000
vn 0.707107 0.707107 0.000000
vn -0.707107 0.707107 0.000000
vn -0.707107 0.707107 0.000000
vn -0.707107 0.707107 0.000000
vn -0.707107 0.707107 0.000000
vn 0.000000 0.000000 -1.000000
vn 0.000000 0.000000 -1.000000
vn 0.000000 0.000000 -1.000000
vn 0.000000 0.000000 -1.000000
vn 0.000000 0.000000 -1.000000
vn 0.000000 0.000000 -1.000000
vn 0.000000 0.000000 -1.000000
vn 0.000000 0.000000 -1.000000
vn -0.707107 -0.707107 0.000000
vn -0.707107 -0.707107 0.000000
vn -0.707107 -0.707107 0.000000
vn -0.707107 -0.707107 0.000000
vn 0.707107 -0.707107 0.000000
vn 0.707107 -0.707107 0.000000
vn 0.707107 -0.707107 0.000000
vn 0.707107 -0.707107 0.000000
vn 0.707107 0.707107 0.000000
vn 0.707107 0.707107 0.000000
vn 0.707107 0.707107 0.000000
vn 0.707107 0.707107 0.000000
vn -0.707107 0.707107 0.000000
vn -0.707107 0.707107 0.000000
vn -0.707107 0.707107 0.000000
vn -0.707107 0.707107 0.000000
vn 0.000000 0.000000 1.000000
vn 0.000000 0.000000 1.000000
vn 0.000000 0.000000 1.000000
vn 0.000000 0.000000 1.000000
vn 0.000000 0.000000 1.000000
vn 0.000000 0.000000 1.000000
vn 0.000000 0.000000 1.000000
vn 0.000000 0.000000 1.000000
vn -0.707107 -0.707107 0.000000
vn -0.707107 -0.707107 0.000000
vn -0.707107 -0.707107 0.000000
vn -0.707107 -0.707107 0.000000
vn 0.707107 -0.707107 0.000000
vn 0.707107 -0.707107 0.000000
vn 0.707107 -0.707107 0.000000
vn 0.707107 -0.707107 0.000000
vn 0.707107 0.707107 0.000000
vn 0.707107 0.707107 0.000000
vn 0.707107 0.707107 0.000000
vn 0.707107 0.707107 0.000000
vn -0.707107 0.707107 0.000000
vn -0.707107 0.707107 0.000000
vn -0.707107 0.707107 0.000000
vn -0.707107 0.707107 0.000000
vn -0.000000 0.000000 1.000000
vn -0.000000 0.000000 1.000000
vn -0.000000 0.000000 1.000000
vn -0.000000 0.000000 1.000000
vn -0.000000 0.000000 1.000000
vn -0.000000 0.000000 1.000000
vn -0.000000 0.000000 1.000000
vn -0.000000 0.000000 1.000000
g group7
usemtl lambert3SG
f 1/188/1 2/187/2 4/88/3 3/91/4
f 3/91/5 4/88/6 6/87/7 5/92/8
f 5/185/9 6/186/10 8/86/11 7/93/12
f 7/93/13 8/86/14 2/85/15 1/94/16
f 2/85/17 8/86/18 6/87/19 4/88/20
f 7/89/21 1/90/22 3/91/23 5/92/24
f 9//25 10//26 12//27 11//28
f 11//29 12//30 14//31 13//32
f 13/102/33 14/189/34 16/190/35 15/99/36
f 15/99/37 16/96/38 10/95/39 9/100/40
f 10/95/41 16/96/42 14/97/43 12/98/44
f 15/99/45 9/100/46 11/101/47 13/102/48
f 33/41/49 34/42/50 39/43/51 40/44/52
f 19/25/53 20/4/54 22/3/55 21/26/56
f 21/26/57 22/3/58 24/31/59 23/32/60
f 23/27/61 24/2/62 18/1/63 17/28/64
f 18/1/65 24/2/66 22/3/67 20/4/68
f 23/5/69 17/6/70 19/7/71 21/8/72
f 17/33/73 18/34/74 26/35/75 25/36/76
f 18/1/77 20/4/78 27/9/79 26/10/80
f 20/4/81 19/25/82 28/29/83 27/30/84
f 19/7/85 17/6/86 25/11/87 28/12/88
f 25/36/89 26/35/90 30/37/91 29/38/92
f 27/49/93 28/50/94 32/51/95 31/52/96
f 32/13/97 28/12/98 25/11/99 29/14/100 33/15/101 40/16/102 38/17/103 36/18/104
f 29/38/105 30/37/106 34/39/107 33/40/108
f 31/19/109 35/20/110 37/21/111 39/22/112 34/23/113 30/24/114 26/10/115 27/9/116
f 31/52/117 32/51/118 36/53/119 35/54/120
f 38/46/121 37/45/122 35/47/123 36/48/124
f 40/44/52 39/43/51 37/45/122 38/46/121
f 41/103/125 42/112/126 44/111/127 43/104/128
f 41/103/129 43/104/130 46/105/131 45/106/132
f 44/111/133 42/112/134 47/113/135 48/114/136
f 45/106/137 46/105/138 50/107/139 49/108/140
f 48/114/141 47/113/142 51/115/143 52/116/144
f 49/108/145 50/107/146 54/109/147 53/110/148
f 52/116/149 51/115/150 55/117/151 56/118/152
f 57/55/153 58/56/154 60/57/155 59/58/156
f 59/58/157 60/57/158 62/63/159 61/64/160
f 58/56/161 57/55/162 63/60/163 64/59/164
f 64/59/165 63/60/166 65/61/167 66/62/168
f 67/75/169 68/76/170 73/77/171 74/78/172
f 69//173 70//174 72//175 71//176
f 67/75/177 75/81/178 76/82/179 68/76/180
f 68/65/181 76/66/182 73/67/183
f 67/70/184 74/71/185 75/72/186
f 74/78/172 73/77/171 70/79/187 69/80/188
f 75/72/186 74/71/185 69/73/189 71/74/190
f 71/83/191 72/84/192 76/82/179 75/81/178
f 73/67/183 76/66/182 72/68/193 70/69/194
f 105/119/195 106/120/196 107/121/197 108/122/198
f 79/159/199 80/130/200 82/160/201 81/161/202
f 81/123/203 82/124/204 84/125/205 83/126/206
f 83/126/207 84/125/208 78/164/209 77/163/210
f 78/129/211 84/162/212 82/160/213 80/130/214
f 83/126/215 77/163/216 79/159/217 81/161/218
f 79/127/219 77/128/220 78/129/221 80/130/222 87/131/223 86/132/224 85/133/225 88/134/226
f 85/165/227 86/194/228 90/193/229 89/168/230
f 86/166/231 87/169/232 91/170/233 90/167/234
f 87/169/235 88/171/236 92/172/237 91/170/238
f 88/171/239 85/165/240 89/168/241 92/172/242
f 95/135/243 94/136/244 93/137/245 96/138/246 92/139/247 89/140/248 90/141/249 91/142/250
f 93/173/251 94/136/252 98/145/253 97/144/254
f 94/136/255 95/135/256 99/174/257 98/145/258
f 95/135/259 96/177/260 100/178/261 99/174/262
f 96/175/263 93/173/264 97/144/265 100/176/266
f 100/143/267 97/144/268 98/145/269 99/146/270 103/147/271 102/148/272 101/149/273 104/150/274
f 101/179/275 102/192/276 106/191/277 105/182/278
f 102/180/279 103/183/280 107/121/281 106/181/282
f 103/183/283 104/184/284 108/122/285 107/121/286
f 104/184/287 101/179/288 105/182/289 108/122/290
f 109/151/291 110/152/292 112/153/293 111/154/294
f 113/155/295 114/156/296 116/157/297 115/158/298
