# Blender v3.0.1 OBJ File: 'workbench.blend'
# www.blender.org
mtllib workbench.mtl
o Cube.001
v 0.100000 0.000000 -0.700000
v 0.100000 0.000000 0.700000
v 0.100000 1.000000 0.700000
v 0.100000 1.000000 -0.700000
v 3.100000 1.000000 -0.700000
v 3.100000 0.000000 -0.700000
v 3.100000 0.000000 0.700000
v 3.100000 1.000000 0.700000
v 0.000000 1.000000 0.800000
v 0.000000 1.000000 -0.800000
v 0.000000 1.300000 0.800000
v 0.000000 1.300000 -0.800000
v 3.200000 1.000000 -0.800000
v 3.200000 1.000000 0.800000
v 3.200000 1.300000 -0.800000
v 3.200000 1.300000 0.800000
vt 0.250000 0.328125
vt 0.140625 0.328125
vt 0.140625 0.250000
vt 0.250000 0.250000
vt 0.609375 0.250000
vt 0.609375 0.328125
vt 0.500000 0.328125
vt 0.500000 0.250000
vt 0.679688 0.445312
vt 0.929688 0.445312
vt 0.929688 0.570312
vt 0.679688 0.570312
vt 0.679688 0.421875
vt 0.929688 0.421875
vt 0.656250 0.570312
vt 0.656250 0.445312
vt 0.929688 0.593750
vt 0.679688 0.593750
vt 0.953125 0.445312
vt 0.953125 0.570312
vt 0.679688 0.296875
vt 0.929688 0.296875
vt 0.250000 0.062500
vt 0.500000 0.062500
vt 0.500000 0.140625
vt 0.250000 0.140625
vt 0.250000 0.250000
vt 0.250000 0.328125
vt 0.500000 0.328125
vt 0.500000 0.250000
vt 0.250000 0.140625
vt 0.500000 0.140625
vn 1.0000 0.0000 0.0000
vn -1.0000 0.0000 0.0000
vn 0.0000 1.0000 0.0000
vn 0.0000 0.0000 1.0000
vn 0.0000 0.0000 -1.0000
vn 0.0000 -1.0000 0.0000
usemtl Material
s off
f 5/1/1 8/2/1 7/3/1 6/4/1
f 2/5/2 3/6/2 4/7/2 1/8/2
f 11/9/3 16/10/3 15/11/3 12/12/3
f 9/13/4 14/14/4 16/10/4 11/9/4
f 10/15/2 9/16/2 11/9/2 12/12/2
f 12/12/5 15/11/5 13/17/5 10/18/5
f 14/19/1 13/20/1 15/11/1 16/10/1
f 9/13/6 10/21/6 13/22/6 14/14/6
f 2/23/4 7/24/4 8/25/4 3/26/4
f 1/27/5 4/28/5 5/29/5 6/30/5
f 1/8/6 6/4/6 7/31/6 2/32/6
o Cube_Cube.002
v 0.000000 1.300000 0.800000
v 0.000000 1.800000 0.800000
v 0.000000 1.300000 0.400000
v 0.000000 1.800000 0.600000
v 3.200000 1.300000 0.800000
v 3.200000 1.800000 0.800000
v 3.200000 1.300000 0.400000
v 3.200000 1.800000 0.600000
vt 0.539062 0.453125
vt 0.500000 0.453125
vt 0.500000 0.437500
vt 0.539062 0.421875
vt 0.250000 0.437500
vt 0.250000 0.398438
vt 0.500000 0.398438
vt 0.500000 0.437500
vt 0.210938 0.421875
vt 0.250000 0.437500
vt 0.250000 0.453125
vt 0.210938 0.453125
vt 0.250000 0.492188
vt 0.500000 0.492188
vn -1.0000 0.0000 0.0000
vn 0.0000 0.3714 -0.9285
vn 1.0000 -0.0000 0.0000
vn 0.0000 0.0000 1.0000
vn 0.0000 1.0000 0.0000
usemtl Material.002
s off
f 17/33/7 18/34/7 20/35/7 19/36/7
f 19/37/8 20/38/8 24/39/8 23/40/8
f 23/41/9 24/42/9 22/43/9 21/44/9
f 21/45/10 22/43/10 18/34/10 17/46/10
f 24/42/11 20/35/11 18/34/11 22/43/11
