# Blender v2.80 (sub 75) OBJ File: ''
# www.blender.org
mtllib jawaIonBlasterModel.mtl
o jawaIonBlasterModel
v 0.020668 0.412109 -0.317036
v -0.020668 0.412109 -0.317036
v -0.020668 0.545730 -0.305345
v 0.020668 0.545730 -0.305345
v -0.020668 0.545730 -0.141629
v 0.020668 0.545730 -0.141629
v -0.020668 0.412109 -0.146014
v 0.020668 0.412109 -0.146014
v 0.118558 -0.121670 0.200206
v -0.118558 -0.121670 0.200206
v -0.118558 0.165495 0.244695
v 0.118558 0.165495 0.244695
v -0.118558 0.184959 0.826598
v 0.118558 0.184959 0.826598
v -0.118558 0.006236 0.768207
v 0.118558 0.006236 0.768207
v 0.145465 0.433093 -0.212236
v -0.145465 0.433093 -0.212236
v -0.145465 0.470690 1.265465
v 0.145465 0.470690 1.265465
v -0.145465 0.169681 1.265465
v 0.145465 0.169681 1.265465
v -0.145465 0.132083 -0.212236
v 0.145465 0.132083 -0.212236
v -0.087609 -0.013036 -0.656123
v 0.087609 -0.013036 -0.656123
v -0.087609 0.232919 -0.655985
v 0.087609 0.232919 -0.655985
v -0.222712 0.384421 -0.263980
v -0.313001 0.384421 -0.263980
v -0.313001 0.474710 -0.263980
v -0.222712 0.474710 -0.263980
v -0.313001 0.474710 -0.173692
v -0.222712 0.474710 -0.173692
v -0.313001 0.384421 -0.173692
v -0.222712 0.384421 -0.173692
v -0.009348 0.437805 -0.239014
v -0.225600 0.408418 -0.239014
v -0.225600 0.455629 -0.239014
v -0.009348 0.526535 -0.239014
v -0.225600 0.455629 -0.197462
v -0.009348 0.526535 -0.197462
v -0.225600 0.408418 -0.197462
v -0.009348 0.437805 -0.197462
v 0.014392 0.069848 -0.030414
v -0.014392 0.069848 -0.030414
v -0.014392 0.147516 -0.018226
v 0.014392 0.147516 -0.018226
v -0.014392 0.147516 0.048067
v 0.014392 0.147516 0.048067
v -0.014392 0.058473 -0.001496
v 0.014392 0.058473 -0.001496
v 0.014392 -0.103213 -0.004746
v -0.014392 -0.103213 -0.004746
v -0.014392 -0.061776 -0.054789
v 0.014392 -0.061776 -0.054789
v -0.014392 -0.017089 -0.042120
v 0.014392 -0.017089 -0.042120
v -0.014392 -0.017089 -0.071039
v 0.014392 -0.017089 -0.071039
v 0.080994 0.404892 -0.222167
v -0.080994 0.404892 -0.222167
v -0.080994 0.566879 -0.142722
v 0.080994 0.566879 -0.142722
v -0.080994 0.566879 1.412325
v 0.080994 0.566879 1.412325
v 0.207507 0.693393 1.964182
v -0.207507 0.693393 1.964182
v -0.207507 0.278378 1.964182
v 0.207507 0.278378 1.964182
v 0.080994 0.404892 1.412325
v -0.080994 0.404892 1.412325
v -0.127125 0.613010 1.412325
v 0.127125 0.613010 1.412325
v -0.127125 0.358760 1.412325
v 0.127125 0.358760 1.412325
v -0.127125 0.613010 1.909425
v 0.127125 0.613010 1.909425
v -0.127125 0.358760 1.909425
v 0.127125 0.358760 1.909425
v -0.267726 0.753611 1.909426
v 0.267726 0.753611 1.909426
v -0.267726 0.218159 1.909426
v 0.267726 0.218159 1.909426
v -0.267726 0.753610 2.813673
v 0.267726 0.753610 2.813673
v -0.267726 0.218158 2.813673
v 0.267726 0.218158 2.813673
v 0.193206 0.357931 0.241031
v -0.193206 0.357931 0.241031
v -0.193206 0.614435 0.241031
v 0.193206 0.614435 0.241031
v -0.193206 0.614435 0.363693
v 0.193206 0.614435 0.363693
v -0.193206 0.357931 0.363693
v 0.193206 0.357931 0.363693
v 0.058168 0.140511 -0.207886
v -0.058168 0.140511 -0.207886
v -0.058168 0.004729 -0.207886
v 0.058168 0.004729 -0.207886
v -0.058168 -0.132503 -0.126323
v 0.058168 -0.132503 -0.126323
v -0.058168 -0.132503 0.110596
v 0.058168 -0.132503 0.110596
v -0.058168 -0.082012 0.215462
v 0.058168 -0.082012 0.215462
v 0.136128 -0.221012 -1.073128
v -0.136128 -0.221012 -1.073128
v -0.136128 0.197780 -1.203397
v 0.136128 0.197780 -1.203397
v -0.112508 0.239355 -0.629390
v 0.112508 0.239355 -0.629390
v -0.112508 -0.135090 -0.643248
v 0.112508 -0.135090 -0.643248
v -0.207507 0.693392 2.813673
v 0.207507 0.693392 2.813673
v -0.207507 0.278377 2.813673
v 0.207507 0.278377 2.813673
vt 0.093957 0.726627
vt 0.113306 0.734268
vt 0.093957 0.734268
vt 0.119214 0.726607
vt 0.143517 0.734339
vt 0.119214 0.734339
vt 0.179021 0.695230
vt 0.179021 0.695230
vt 0.179021 0.695230
vt 0.062654 0.726683
vt 0.087296 0.734350
vt 0.062654 0.734350
vt 0.142715 0.702970
vt 0.119163 0.722722
vt 0.117435 0.702970
vt 0.142711 0.757752
vt 0.119110 0.737960
vt 0.143360 0.737960
vt 0.465738 0.398301
vt 0.424527 0.367060
vt 0.465738 0.367060
vt 0.179021 0.695230
vt 0.179021 0.695230
vt 0.179021 0.695230
vt 0.593782 0.398492
vt 0.568202 0.367306
vt 0.593782 0.367306
vt 0.553995 0.398386
vt 0.473657 0.367270
vt 0.553995 0.367270
vt 0.553921 0.419840
vt 0.479876 0.442365
vt 0.473583 0.401749
vt 0.553949 0.345878
vt 0.479906 0.323354
vt 0.562207 0.320601
vt 0.391030 0.476707
vt 0.601198 0.515832
vt 0.391030 0.515832
vt 0.609942 0.663915
vt 0.656712 0.616988
vt 0.656712 0.663915
vt 0.601273 0.609356
vt 0.391115 0.570143
vt 0.601273 0.570143
vt 0.601306 0.617073
vt 0.391149 0.654699
vt 0.391149 0.611702
vt 0.601393 0.562124
vt 0.391238 0.524498
vt 0.601393 0.519127
vt 0.374727 0.570195
vt 0.312884 0.538904
vt 0.374727 0.531137
vt 0.374703 0.596181
vt 0.313025 0.610383
vt 0.313006 0.575741
vt 0.374505 0.460737
vt 0.313270 0.429486
vt 0.374505 0.421728
vt 0.374657 0.505282
vt 0.312979 0.491079
vt 0.374657 0.462886
vt 0.179021 0.695230
vt 0.179021 0.695230
vt 0.179021 0.695230
vt 0.046874 0.624930
vt 0.031197 0.640587
vt 0.031197 0.624930
vt 0.046874 0.640587
vt 0.062479 0.656208
vt 0.046874 0.656208
vt 0.062479 0.640587
vt 0.078146 0.624930
vt 0.078146 0.640587
vt 0.062479 0.687481
vt 0.046874 0.671852
vt 0.062479 0.671852
vt 0.062479 0.624930
vt 0.085963 0.687376
vt 0.088527 0.656279
vt 0.098723 0.687376
vt 0.101675 0.656279
vt 0.109266 0.687306
vt 0.101675 0.687306
vt 0.122383 0.656223
vt 0.124946 0.687321
vt 0.112186 0.687321
vt 0.132895 0.656103
vt 0.140673 0.687404
vt 0.132895 0.687404
vt 0.179021 0.695230
vt 0.179021 0.695230
vt 0.179021 0.695230
vt 0.179021 0.695230
vt 0.179021 0.695230
vt 0.179021 0.695230
vt 0.335974 0.381455
vt 0.328206 0.390699
vt 0.328206 0.381455
vt 0.179021 0.695230
vt 0.179021 0.695230
vt 0.179021 0.695230
vt 0.351604 0.390580
vt 0.359306 0.379779
vt 0.359306 0.390580
vt 0.335974 0.359473
vt 0.328206 0.366103
vt 0.328206 0.359473
vt 0.345659 0.380131
vt 0.343683 0.390648
vt 0.342244 0.381475
vt 0.365314 0.380123
vt 0.367290 0.390639
vt 0.359461 0.390639
vt 0.351604 0.379779
vt 0.359306 0.371495
vt 0.340861 0.371207
vt 0.335974 0.370689
vt 0.368729 0.381467
vt 0.370112 0.371200
vt 0.373527 0.371200
vt 0.351604 0.371495
vt 0.359306 0.360268
vt 0.339365 0.365929
vt 0.345275 0.361035
vt 0.328206 0.370689
vt 0.335974 0.366103
vt 0.371608 0.365922
vt 0.164261 0.718708
vt 0.187566 0.742013
vt 0.164261 0.742013
vt 0.190395 0.718734
vt 0.414225 0.742158
vt 0.190395 0.742158
vt 0.945477 0.828120
vt 0.882716 0.890736
vt 0.882716 0.828120
vt 0.179021 0.695230
vt 0.179021 0.695230
vt 0.179021 0.695230
vt 0.414225 0.695230
vt 0.179021 0.695230
vt 0.414225 0.765478
vt 0.461632 0.727266
vt 0.429737 0.734449
vt 0.436807 0.727266
vt 0.461632 0.702441
vt 0.468966 0.734449
vt 0.436807 0.702441
vt 0.468966 0.695299
vt 0.429737 0.695299
vt 0.546881 0.773431
vt 0.468966 0.773431
vt 0.546881 0.734449
vt 0.468966 0.812442
vt 0.546881 0.851593
vt 0.468966 0.851593
vt 0.546881 0.812442
vt 0.622118 0.746929
vt 0.570329 0.765487
vt 0.588770 0.746929
vt 0.622118 0.713581
vt 0.640671 0.765487
vt 0.588770 0.713581
vt 0.640671 0.695214
vt 0.570329 0.695214
vt 0.757900 0.835849
vt 0.640671 0.835849
vt 0.757900 0.765487
vt 0.640671 0.906220
vt 0.757900 0.976490
vt 0.640671 0.976490
vt 0.757900 0.906220
vt 0.257923 0.781279
vt 0.203611 0.820358
vt 0.203611 0.781279
vt 0.257923 0.820358
vt 0.273405 0.875076
vt 0.257923 0.875076
vt 0.312522 0.968582
vt 0.273405 0.914026
vt 0.312522 0.914026
vt 0.273405 0.968582
vt 0.257923 0.914026
vt 0.273405 0.781279
vt 0.312606 0.328116
vt 0.328101 0.343634
vt 0.312606 0.343634
vt 0.328101 0.328116
vt 0.343660 0.343634
vt 0.343660 0.328116
vt 0.374974 0.343634
vt 0.374974 0.328116
vt 0.390491 0.343634
vt 0.171591 0.538323
vt 0.109495 0.501113
vt 0.171591 0.501096
vt 0.102034 0.538336
vt 0.031378 0.504359
vt 0.102034 0.501113
vt 0.294465 0.534638
vt 0.244378 0.504540
vt 0.294464 0.504539
vt 0.235791 0.534941
vt 0.177296 0.501096
vt 0.235791 0.504377
vt 0.236088 0.557192
vt 0.159612 0.602638
vt 0.177398 0.545461
vt 0.236102 0.481851
vt 0.159623 0.436404
vt 0.237994 0.430728
vt 0.828215 0.976490
vt 0.820316 0.914093
vt 0.828215 0.906220
vt 0.765873 0.968535
vt 0.820316 0.968535
vt 0.765873 0.914093
vt 0.773369 0.765550
vt 0.773369 0.828120
vt 0.773369 0.702987
vt 0.882716 0.765550
vt 0.773369 0.640824
vt 0.882716 0.702987
vt 0.773369 0.890736
vt 0.113306 0.726627
vt 0.143517 0.726607
vt 0.179021 0.695230
vt 0.087296 0.726683
vt 0.143363 0.722722
vt 0.117378 0.757753
vt 0.424527 0.398301
vt 0.179021 0.695230
vt 0.568202 0.398492
vt 0.473657 0.398386
vt 0.562180 0.445118
vt 0.473614 0.363969
vt 0.601198 0.476707
vt 0.609942 0.616988
vt 0.391115 0.609356
vt 0.601306 0.660069
vt 0.391237 0.567494
vt 0.312884 0.562428
vt 0.374703 0.638576
vt 0.313270 0.452980
vt 0.312959 0.525721
vt 0.179021 0.695230
vt 0.046874 0.687481
vt 0.081738 0.656279
vt 0.109266 0.656279
vt 0.129172 0.656223
vt 0.140673 0.656103
vt 0.179021 0.695230
vt 0.179021 0.695230
vt 0.335974 0.390699
vt 0.179021 0.695230
vt 0.351513 0.390648
vt 0.337446 0.371207
vt 0.351604 0.360268
vt 0.365698 0.361029
vt 0.187566 0.718708
vt 0.414225 0.718734
vt 0.945477 0.890736
vt 0.179109 0.765478
vt 0.546881 0.695299
vt 0.757900 0.695214
vt 0.273405 0.820358
vt 0.257923 0.968582
vt 0.390491 0.328116
vt 0.109495 0.538336
vt 0.031378 0.535120
vt 0.244378 0.534638
vt 0.177296 0.538323
vt 0.237980 0.608314
vt 0.177409 0.493583
vt 0.882716 0.640824
vn 0.0000 0.0872 -0.9962
vn 0.0000 1.0000 0.0000
vn 0.0000 -0.0328 0.9995
vn 0.0000 -1.0000 0.0000
vn -1.0000 0.0000 0.0000
vn 1.0000 0.0000 0.0000
vn 0.0000 0.1531 -0.9882
vn 0.0000 0.9994 -0.0334
vn 0.0000 -0.3106 0.9506
vn 0.0000 -0.9756 0.2197
vn 0.0000 0.9997 -0.0254
vn 0.0000 -0.0000 1.0000
vn 0.0000 -0.9997 0.0254
vn 0.0000 -0.9505 0.3107
vn -0.9916 0.0000 -0.1293
vn -0.9916 0.0001 -0.1293
vn 0.0000 0.9115 -0.4112
vn 0.9916 0.0000 -0.1293
vn 0.0000 0.0006 -1.0000
vn 0.0000 0.0000 -1.0000
vn -0.3116 0.9502 0.0000
vn 0.1347 -0.9909 0.0000
vn 0.0000 0.1550 -0.9879
vn 0.0000 -0.4864 0.8738
vn 0.0000 -0.7702 -0.6378
vn 0.0000 -0.4735 0.8808
vn 0.0000 0.4234 -0.9060
vn 0.0000 0.3981 0.9173
vn 0.0000 -0.3417 -0.9398
vn 0.0000 0.4403 -0.8978
vn 0.0000 0.5109 0.8596
vn 0.0000 0.9010 -0.4338
vn 0.0000 -0.2970 -0.9549
vn 0.0000 0.9974 -0.0722
vn 0.0000 -0.0370 0.9993
vn 0.0000 -0.9806 0.1960
vn -0.9990 0.0056 0.0455
vn -0.9989 0.0081 0.0469
vn -0.9985 0.0161 0.0517
vn 0.9990 0.0056 0.0455
vn 0.9989 0.0081 0.0469
vn 0.9991 -0.0015 0.0412
vn 0.9916 0.0001 -0.1293
vn -0.9991 -0.0015 0.0412
vn 0.9985 0.0161 0.0517
usemtl MAT_DIFFUSE_CUTOUT
s 1
f 2/1/1 4/2/1 1/3/1
f 3/4/2 6/5/2 4/6/2
f 5/7/3 8/8/3 6/9/3
f 7/10/4 1/11/4 8/12/4
f 7/13/5 3/14/5 2/15/5
f 8/16/6 4/17/6 6/18/6
f 10/19/7 12/20/7 9/21/7
f 11/22/8 14/23/8 12/24/8
f 13/25/9 16/26/9 14/27/9
f 15/28/10 9/29/10 16/30/10
f 15/31/5 11/32/5 10/33/5
f 16/34/6 12/35/6 14/36/6
f 18/37/11 20/38/11 17/39/11
f 19/40/12 22/41/12 20/42/12
f 21/43/13 24/44/13 22/45/13
f 21/46/5 18/47/5 23/48/5
f 22/49/6 17/50/6 20/51/6
f 23/52/14 26/53/14 24/54/14
f 23/55/15 27/56/15 25/57/16
f 17/58/17 27/59/17 18/60/17
f 24/61/18 28/62/18 17/63/18
f 27/64/19 26/65/19 25/66/19
f 30/67/20 32/68/20 29/69/20
f 31/70/2 34/71/2 32/72/2
f 33/73/12 36/74/12 34/75/12
f 35/76/4 29/77/4 36/78/4
f 35/79/5 31/70/5 30/67/5
f 29/77/6 34/71/6 36/78/6
f 37/80/20 39/81/20 40/82/20
f 39/83/21 42/84/21 40/85/21
f 41/86/12 44/87/12 42/88/12
f 43/89/22 37/90/22 44/91/22
f 43/92/5 39/93/5 38/94/5
f 37/95/6 42/96/6 44/97/6
f 46/98/23 48/99/23 45/100/23
f 47/101/2 50/102/2 48/103/2
f 49/104/24 52/105/24 50/106/24
f 54/107/25 56/108/25 53/109/25
f 51/110/5 47/111/5 46/112/5
f 52/113/6 48/114/6 50/115/6
f 51/116/26 58/117/26 52/105/26
f 46/112/5 57/118/5 51/110/5
f 45/100/27 59/119/27 46/98/27
f 45/120/6 58/121/6 60/122/6
f 57/123/28 53/124/28 58/117/28
f 57/118/5 55/125/5 54/126/5
f 60/127/29 55/128/29 59/119/29
f 58/121/6 56/129/6 60/122/6
f 62/130/30 64/131/30 61/132/30
f 63/133/2 66/134/2 64/135/2
f 68/136/12 70/137/12 67/138/12
f 72/139/4 61/140/4 71/141/4
f 72/142/5 63/133/5 62/143/5
f 71/144/6 64/135/6 66/134/6
f 65/145/20 74/146/20 66/147/20
f 72/148/20 73/149/20 65/145/20
f 71/150/20 75/151/20 72/148/20
f 71/150/20 74/146/20 76/152/20
f 73/149/2 78/153/2 74/154/2
f 75/151/5 77/155/5 73/149/5
f 76/156/4 79/157/4 75/158/4
f 74/154/6 80/159/6 76/156/6
f 77/160/20 82/161/20 78/162/20
f 79/163/20 81/164/20 77/160/20
f 80/165/20 83/166/20 79/163/20
f 80/165/20 82/161/20 84/167/20
f 81/164/2 86/168/2 82/169/2
f 83/166/5 85/170/5 81/164/5
f 84/171/4 87/172/4 83/173/4
f 82/169/6 88/174/6 84/171/6
f 90/175/20 92/176/20 89/177/20
f 91/178/2 94/179/2 92/180/2
f 93/181/12 96/182/12 94/183/12
f 95/184/4 89/185/4 96/182/4
f 95/186/5 91/178/5 90/175/5
f 89/185/6 94/179/6 96/182/6
f 98/187/12 100/188/12 97/189/12
f 99/190/31 102/191/31 100/188/31
f 101/192/2 104/193/2 102/191/2
f 103/194/32 106/195/32 104/193/32
f 108/196/33 110/197/33 107/198/33
f 109/199/34 112/200/34 110/201/34
f 111/202/35 114/203/35 112/204/35
f 113/205/36 107/206/36 114/207/36
f 113/208/37 109/209/38 108/210/39
f 114/211/40 110/212/41 112/213/42
f 85/214/12 116/215/12 86/216/12
f 85/214/12 117/217/12 115/218/12
f 88/174/12 117/217/12 87/172/12
f 86/216/12 118/219/12 88/174/12
f 115/220/4 67/138/4 116/221/4
f 117/222/6 68/223/6 115/220/6
f 118/224/2 69/225/2 117/222/2
f 116/221/5 70/137/5 118/226/5
f 2/1/1 3/227/1 4/2/1
f 3/4/2 5/228/2 6/5/2
f 5/7/3 7/229/3 8/8/3
f 7/10/4 2/230/4 1/11/4
f 7/13/5 5/231/5 3/14/5
f 8/16/6 1/232/6 4/17/6
f 10/19/7 11/233/7 12/20/7
f 11/22/8 13/234/8 14/23/8
f 13/25/9 15/235/9 16/26/9
f 15/28/10 10/236/10 9/29/10
f 15/31/5 13/237/5 11/32/5
f 16/34/6 9/238/6 12/35/6
f 18/37/11 19/239/11 20/38/11
f 19/40/12 21/240/12 22/41/12
f 21/43/13 23/241/13 24/44/13
f 21/46/5 19/242/5 18/47/5
f 22/49/6 24/243/6 17/50/6
f 23/52/14 25/244/14 26/53/14
f 23/55/15 18/245/15 27/56/15
f 17/58/17 28/246/17 27/59/17
f 24/61/18 26/247/43 28/62/18
f 27/64/19 28/248/19 26/65/19
f 30/67/20 31/70/20 32/68/20
f 31/70/2 33/73/2 34/71/2
f 33/73/12 35/79/12 36/74/12
f 35/76/4 30/249/4 29/77/4
f 35/79/5 33/73/5 31/70/5
f 29/77/6 32/72/6 34/71/6
f 37/80/20 38/250/20 39/81/20
f 39/83/21 41/251/21 42/84/21
f 41/86/12 43/252/12 44/87/12
f 43/89/22 38/253/22 37/90/22
f 43/92/5 41/254/5 39/93/5
f 37/95/6 40/255/6 42/96/6
f 46/98/23 47/256/23 48/99/23
f 47/101/2 49/257/2 50/102/2
f 49/104/24 51/116/24 52/105/24
f 54/107/25 55/128/25 56/108/25
f 51/110/5 49/258/5 47/111/5
f 52/113/6 45/120/6 48/114/6
f 51/116/26 57/123/26 58/117/26
f 46/112/5 59/259/5 57/118/5
f 45/100/27 60/127/27 59/119/27
f 45/120/6 52/113/6 58/121/6
f 57/123/28 54/260/28 53/124/28
f 57/118/5 59/259/5 55/125/5
f 60/127/29 56/108/29 55/128/29
f 58/121/6 53/261/6 56/129/6
f 62/130/30 63/262/30 64/131/30
f 63/133/2 65/263/2 66/134/2
f 68/136/12 69/264/12 70/137/12
f 72/139/4 62/143/4 61/140/4
f 72/142/5 65/263/5 63/133/5
f 71/144/6 61/265/6 64/135/6
f 65/145/20 73/149/20 74/146/20
f 72/148/20 75/151/20 73/149/20
f 71/150/20 76/152/20 75/151/20
f 71/150/20 66/147/20 74/146/20
f 73/149/2 77/155/2 78/153/2
f 75/151/5 79/266/5 77/155/5
f 76/156/4 80/159/4 79/157/4
f 74/154/6 78/153/6 80/159/6
f 77/160/20 81/164/20 82/161/20
f 79/163/20 83/166/20 81/164/20
f 80/165/20 84/167/20 83/166/20
f 80/165/20 78/162/20 82/161/20
f 81/164/2 85/170/2 86/168/2
f 83/166/5 87/267/5 85/170/5
f 84/171/4 88/174/4 87/172/4
f 82/169/6 86/168/6 88/174/6
f 90/175/20 91/178/20 92/176/20
f 91/178/2 93/268/2 94/179/2
f 93/181/12 95/184/12 96/182/12
f 95/184/4 90/269/4 89/185/4
f 95/186/5 93/268/5 91/178/5
f 89/185/6 92/180/6 94/179/6
f 98/187/12 99/190/12 100/188/12
f 99/190/31 101/192/31 102/191/31
f 101/192/2 103/194/2 104/193/2
f 103/194/32 105/270/32 106/195/32
f 108/196/33 109/271/33 110/197/33
f 109/199/34 111/272/34 112/200/34
f 111/202/35 113/273/35 114/203/35
f 113/205/36 108/274/36 107/206/36
f 113/208/37 111/275/44 109/209/38
f 114/211/40 107/276/45 110/212/41
f 85/214/12 115/218/12 116/215/12
f 85/214/12 87/172/12 117/217/12
f 88/174/12 118/219/12 117/217/12
f 86/216/12 116/215/12 118/219/12
f 115/220/4 68/223/4 67/138/4
f 117/222/6 69/225/6 68/223/6
f 118/224/2 70/277/2 69/225/2
f 116/221/5 67/138/5 70/137/5
