# This file uses centimeters as units for non-parametric coordinates.

mtllib jawaIonBlasterModel.mtl
g jawaIonBlasterModel_default1
v 0.020668 0.378671 -0.336669
v -0.020668 0.378671 -0.336669
v 0.020668 0.512292 -0.324978
v -0.020668 0.512292 -0.324978
v 0.020668 0.512292 -0.161262
v -0.020668 0.512292 -0.161262
v 0.020668 0.378671 -0.165647
v -0.020668 0.378671 -0.165647
v 0.118558 -0.155108 0.180573
v -0.118558 -0.155108 0.180573
v 0.118558 0.132057 0.225062
v -0.118558 0.132057 0.225062
v 0.118558 0.151521 0.806965
v -0.118558 0.151521 0.806965
v 0.118558 -0.027202 0.748574
v -0.118558 -0.027202 0.748574
v 0.145465 0.098645 -0.231869
v -0.145465 0.098645 -0.231869
v 0.145465 0.399655 -0.231869
v -0.145465 0.399655 -0.231869
v 0.145465 0.437252 1.245832
v -0.145465 0.437252 1.245832
v 0.145465 0.136243 1.245832
v -0.145465 0.136243 1.245832
v 0.087609 -0.046474 -0.675756
v -0.087609 -0.046474 -0.675756
v -0.087609 0.199481 -0.675618
v 0.087609 0.199481 -0.675618
v -0.222712 0.350983 -0.283613
v -0.313001 0.350983 -0.283613
v -0.222712 0.441272 -0.283613
v -0.313001 0.441272 -0.283613
v -0.222712 0.441272 -0.193325
v -0.313001 0.441272 -0.193325
v -0.222712 0.350983 -0.193325
v -0.313001 0.350983 -0.193325
v -0.009348 0.404367 -0.258647
v -0.225600 0.374980 -0.258647
v -0.009348 0.493097 -0.258647
v -0.225600 0.422191 -0.258647
v -0.009348 0.493097 -0.217095
v -0.225600 0.422191 -0.217095
v -0.009348 0.404367 -0.217095
v -0.225600 0.374980 -0.217095
v 0.014392 0.036410 -0.050047
v -0.014392 0.036410 -0.050047
v 0.014392 0.114078 -0.037859
v -0.014392 0.114078 -0.037859
v 0.014392 0.114078 0.028434
v -0.014392 0.114078 0.028434
v 0.014392 0.025035 -0.021129
v -0.014392 0.025035 -0.021129
v 0.014392 -0.050527 -0.061753
v -0.014392 -0.050527 -0.061753
v -0.014392 -0.050527 -0.090672
v 0.014392 -0.050527 -0.090672
v 0.014392 -0.136651 -0.024379
v -0.014392 -0.136651 -0.024379
v -0.014392 -0.095214 -0.074422
v 0.014392 -0.095214 -0.074422
v 0.080994 0.371454 -0.241800
v -0.080994 0.371454 -0.241800
v 0.080994 0.533441 -0.162355
v -0.080994 0.533441 -0.162355
v 0.080994 0.533441 1.392692
v -0.080994 0.533441 1.392692
v 0.080994 0.371454 1.392692
v -0.080994 0.371454 1.392692
v 0.127125 0.579572 1.392692
v -0.127125 0.579572 1.392692
v -0.127125 0.325322 1.392692
v 0.127125 0.325322 1.392692
v 0.127125 0.579572 1.889792
v -0.127125 0.579572 1.889792
v -0.127125 0.325322 1.889792
v 0.127125 0.325322 1.889792
v 0.267726 0.720173 1.889793
v -0.267726 0.720173 1.889793
v -0.267726 0.184721 1.889793
v 0.267726 0.184721 1.889793
v 0.267726 0.720173 2.794041
v -0.267726 0.720173 2.794041
v -0.267726 0.184721 2.794041
v 0.267726 0.184721 2.794041
v 0.193206 0.324493 0.221398
v -0.193206 0.324493 0.221398
v 0.193206 0.580997 0.221398
v -0.193206 0.580997 0.221398
v 0.193206 0.580997 0.344060
v -0.193206 0.580997 0.344060
v 0.193206 0.324493 0.344060
v -0.193206 0.324493 0.344060
v 0.058168 0.107073 -0.227519
v -0.058168 0.107073 -0.227519
v 0.058168 -0.028709 -0.227519
v -0.058168 -0.028709 -0.227519
v 0.058168 -0.165941 -0.145956
v -0.058168 -0.165941 -0.145956
v 0.058168 -0.165941 0.090963
v -0.058168 -0.165941 0.090963
v 0.058168 -0.115450 0.195829
v -0.058168 -0.115450 0.195829
v 0.136128 -0.254450 -1.092761
v -0.136128 -0.254450 -1.092761
v 0.136128 0.164342 -1.223030
v -0.136128 0.164342 -1.223030
v 0.112508 0.205917 -0.649023
v -0.112508 0.205917 -0.649023
v 0.112508 -0.168528 -0.662881
v -0.112508 -0.168528 -0.662881
v 0.207507 0.659955 2.794041
v -0.207507 0.659955 2.794041
v -0.207507 0.244940 2.794041
v 0.207507 0.244940 2.794041
v 0.207507 0.659955 1.944549
v -0.207507 0.659955 1.944549
v -0.207507 0.244940 1.944549
v 0.207507 0.244940 1.944549
vt 0.179021 0.695230
vt 0.414225 0.695230
vt 0.414225 0.718734
vt 0.190395 0.718734
vt 0.414225 0.765478
vt 0.179109 0.765478
vt 0.190395 0.742158
vt 0.414225 0.742158
vt 0.164261 0.742013
vt 0.164261 0.718708
vt 0.187566 0.718708
vt 0.187566 0.742013
vt 0.117435 0.702970
vt 0.142715 0.702970
vt 0.143363 0.722722
vt 0.119163 0.722722
vt 0.142711 0.757752
vt 0.117378 0.757753
vt 0.119110 0.737960
vt 0.143360 0.737960
vt 0.119214 0.734339
vt 0.119214 0.726607
vt 0.143517 0.726607
vt 0.143517 0.734339
vt 0.062654 0.734350
vt 0.062654 0.726683
vt 0.087296 0.726683
vt 0.087296 0.734350
vt 0.093957 0.734268
vt 0.093957 0.726627
vt 0.113306 0.726627
vt 0.113306 0.734268
vt 0.257923 0.781279
vt 0.273405 0.781279
vt 0.273405 0.820358
vt 0.257923 0.820358
vt 0.273405 0.914026
vt 0.257923 0.914026
vt 0.257923 0.875076
vt 0.273405 0.875076
vt 0.273405 0.968582
vt 0.257923 0.968582
vt 0.203611 0.781279
vt 0.203611 0.820358
vt 0.312522 0.914026
vt 0.312522 0.968582
vt 0.468966 0.734449
vt 0.468966 0.695299
vt 0.546881 0.695299
vt 0.546881 0.734449
vt 0.468966 0.812442
vt 0.468966 0.773431
vt 0.546881 0.773431
vt 0.546881 0.812442
vt 0.468966 0.851593
vt 0.546881 0.851593
vt 0.436807 0.727266
vt 0.461632 0.727266
vt 0.429737 0.734449
vt 0.461632 0.702441
vt 0.436807 0.702441
vt 0.429737 0.695299
vt 0.640671 0.765487
vt 0.640671 0.695214
vt 0.757900 0.695214
vt 0.757900 0.765487
vt 0.640671 0.906220
vt 0.640671 0.835849
vt 0.757900 0.835849
vt 0.757900 0.906220
vt 0.640671 0.976490
vt 0.757900 0.976490
vt 0.588770 0.746929
vt 0.622118 0.746929
vt 0.570329 0.765487
vt 0.622118 0.713581
vt 0.588770 0.713581
vt 0.570329 0.695214
vt 0.391149 0.611702
vt 0.601306 0.617073
vt 0.601306 0.660069
vt 0.391149 0.654699
vt 0.601393 0.562124
vt 0.391237 0.567494
vt 0.391238 0.524498
vt 0.601393 0.519127
vt 0.391030 0.515832
vt 0.391030 0.476707
vt 0.601198 0.476707
vt 0.601198 0.515832
vt 0.601273 0.570143
vt 0.601273 0.609356
vt 0.391115 0.609356
vt 0.391115 0.570143
vt 0.656712 0.663915
vt 0.609942 0.663915
vt 0.609942 0.616988
vt 0.656712 0.616988
vt 0.374703 0.596181
vt 0.374703 0.638576
vt 0.313025 0.610383
vt 0.313006 0.575741
vt 0.374657 0.462886
vt 0.374657 0.505282
vt 0.312959 0.525721
vt 0.312979 0.491079
vt 0.374727 0.531137
vt 0.374727 0.570195
vt 0.312884 0.562428
vt 0.312884 0.538904
vt 0.374505 0.421728
vt 0.374505 0.460737
vt 0.313270 0.452980
vt 0.313270 0.429486
vt 0.177398 0.545461
vt 0.236088 0.557192
vt 0.237980 0.608314
vt 0.159612 0.602638
vt 0.236102 0.481851
vt 0.177409 0.493583
vt 0.159623 0.436404
vt 0.237994 0.430728
vt 0.102034 0.501113
vt 0.109495 0.538336
vt 0.031378 0.535120
vt 0.031378 0.504359
vt 0.235791 0.504377
vt 0.235791 0.534941
vt 0.177296 0.538323
vt 0.171591 0.501096
vt 0.294464 0.504539
vt 0.294465 0.534638
vt 0.244378 0.534638
vt 0.244378 0.504540
vt 0.473583 0.401749
vt 0.553921 0.419840
vt 0.562180 0.445118
vt 0.479876 0.442365
vt 0.553949 0.345878
vt 0.473614 0.363969
vt 0.479906 0.323354
vt 0.562207 0.320601
vt 0.553995 0.367270
vt 0.553995 0.398386
vt 0.473657 0.398386
vt 0.473657 0.367270
vt 0.465738 0.367060
vt 0.465738 0.398301
vt 0.424527 0.398301
vt 0.424527 0.367060
vt 0.593782 0.367306
vt 0.593782 0.398492
vt 0.568202 0.398492
vt 0.568202 0.367306
vt 0.101675 0.687306
vt 0.101675 0.656279
vt 0.109266 0.656279
vt 0.109266 0.687306
vt 0.132895 0.687404
vt 0.132895 0.656103
vt 0.140673 0.656103
vt 0.140673 0.687404
vt 0.085963 0.687376
vt 0.081738 0.656279
vt 0.088527 0.656279
vt 0.098723 0.687376
vt 0.112186 0.687321
vt 0.122383 0.656223
vt 0.129172 0.656223
vt 0.124946 0.687321
vt 0.046874 0.624930
vt 0.062479 0.624930
vt 0.062479 0.640587
vt 0.046874 0.640587
vt 0.062479 0.671852
vt 0.046874 0.671852
vt 0.046874 0.656208
vt 0.062479 0.656208
vt 0.062479 0.687481
vt 0.046874 0.687481
vt 0.031197 0.624930
vt 0.031197 0.640587
vt 0.078146 0.640587
vt 0.078146 0.624930
vt 0.171591 0.538323
vt 0.102034 0.538336
vt 0.177296 0.501096
vt 0.109495 0.501113
vt 0.342244 0.381475
vt 0.345659 0.380131
vt 0.351513 0.390648
vt 0.343683 0.390648
vt 0.337446 0.371207
vt 0.340861 0.371207
vt 0.339365 0.365929
vt 0.345275 0.361035
vt 0.365314 0.380123
vt 0.368729 0.381467
vt 0.367290 0.390639
vt 0.359461 0.390639
vt 0.370112 0.371200
vt 0.373527 0.371200
vt 0.365698 0.361029
vt 0.371608 0.365922
vt 0.328206 0.381455
vt 0.335974 0.381455
vt 0.335974 0.390699
vt 0.328206 0.390699
vt 0.328206 0.370689
vt 0.335974 0.370689
vt 0.328206 0.366103
vt 0.335974 0.366103
vt 0.328206 0.359473
vt 0.335974 0.359473
vt 0.359306 0.390580
vt 0.351604 0.390580
vt 0.351604 0.379779
vt 0.359306 0.379779
vt 0.351604 0.371495
vt 0.359306 0.371495
vt 0.351604 0.360268
vt 0.359306 0.360268
vt 0.343660 0.343634
vt 0.343660 0.328116
vt 0.374974 0.328116
vt 0.374974 0.343634
vt 0.328101 0.343634
vt 0.328101 0.328116
vt 0.390491 0.328116
vt 0.390491 0.343634
vt 0.312606 0.343634
vt 0.312606 0.328116
vt 0.828215 0.906220
vt 0.828215 0.976490
vt 0.820316 0.968535
vt 0.820316 0.914093
vt 0.765873 0.968535
vt 0.765873 0.914093
vt 0.773369 0.765550
vt 0.773369 0.702987
vt 0.882716 0.702987
vt 0.882716 0.765550
vt 0.773369 0.890736
vt 0.773369 0.828120
vt 0.882716 0.828120
vt 0.882716 0.890736
vt 0.773369 0.640824
vt 0.882716 0.640824
vt 0.945477 0.828120
vt 0.945477 0.890736
vn 0.000000 0.087164 -0.996194
vn 0.000000 0.087164 -0.996194
vn 0.000000 0.087164 -0.996194
vn 0.000000 0.087164 -0.996194
vn 0.000000 1.000000 0.000000
vn 0.000000 1.000000 0.000000
vn 0.000000 1.000000 0.000000
vn 0.000000 1.000000 0.000000
vn -0.000000 -0.032794 0.999462
vn -0.000000 -0.032794 0.999462
vn -0.000000 -0.032794 0.999462
vn -0.000000 -0.032794 0.999462
vn 0.000000 -1.000000 0.000000
vn 0.000000 -1.000000 0.000000
vn 0.000000 -1.000000 0.000000
vn 0.000000 -1.000000 0.000000
vn -1.000000 0.000000 -0.000000
vn -1.000000 0.000000 -0.000000
vn -1.000000 0.000000 -0.000000
vn -1.000000 0.000000 -0.000000
vn 1.000000 0.000000 0.000000
vn 1.000000 0.000000 0.000000
vn 1.000000 0.000000 0.000000
vn 1.000000 0.000000 0.000000
vn 0.000000 0.153098 -0.988211
vn 0.000000 0.153098 -0.988211
vn 0.000000 0.153098 -0.988211
vn 0.000000 0.153098 -0.988211
vn 0.000000 0.999441 -0.033430
vn 0.000000 0.999441 -0.033430
vn 0.000000 0.999441 -0.033430
vn 0.000000 0.999441 -0.033430
vn -0.000000 -0.310561 0.950554
vn -0.000000 -0.310561 0.950554
vn -0.000000 -0.310561 0.950554
vn -0.000000 -0.310561 0.950554
vn -0.000000 -0.975571 0.219684
vn -0.000000 -0.975571 0.219684
vn -0.000000 -0.975571 0.219684
vn -0.000000 -0.975571 0.219684
vn -1.000000 0.000000 -0.000000
vn -1.000000 0.000000 -0.000000
vn -1.000000 0.000000 -0.000000
vn -1.000000 0.000000 -0.000000
vn 1.000000 0.000000 0.000000
vn 1.000000 0.000000 0.000000
vn 1.000000 0.000000 0.000000
vn 1.000000 0.000000 0.000000
vn 0.000000 0.999676 -0.025435
vn 0.000000 0.999676 -0.025435
vn 0.000000 0.999676 -0.025435
vn 0.000000 0.999676 -0.025435
vn -0.000000 0.000000 1.000000
vn -0.000000 0.000000 1.000000
vn -0.000000 0.000000 1.000000
vn -0.000000 0.000000 1.000000
vn -0.000000 -0.999676 0.025435
vn -0.000000 -0.999676 0.025435
vn -0.000000 -0.999676 0.025435
vn -0.000000 -0.999676 0.025435
vn -1.000000 0.000000 -0.000000
vn -1.000000 0.000000 -0.000000
vn -1.000000 0.000000 -0.000000
vn -1.000000 0.000000 -0.000000
vn 1.000000 0.000000 0.000000
vn 1.000000 0.000000 0.000000
vn 1.000000 0.000000 0.000000
vn 1.000000 0.000000 0.000000
vn -0.000000 -0.950494 0.310744
vn -0.000000 -0.950494 0.310744
vn -0.000000 -0.950494 0.310744
vn -0.000000 -0.950494 0.310744
vn -0.991608 0.000033 -0.129278
vn -0.991608 0.000033 -0.129278
vn -0.991608 0.000033 -0.129278
vn -0.991608 0.000033 -0.129278
vn 0.000000 0.911548 -0.411195
vn 0.000000 0.911548 -0.411195
vn 0.000000 0.911548 -0.411195
vn 0.000000 0.911548 -0.411195
vn 0.991608 0.000033 -0.129278
vn 0.991608 0.000033 -0.129278
vn 0.991608 0.000033 -0.129278
vn 0.991608 0.000033 -0.129278
vn 0.000000 0.000563 -1.000000
vn 0.000000 0.000563 -1.000000
vn 0.000000 0.000563 -1.000000
vn 0.000000 0.000563 -1.000000
vn 0.000000 0.000000 -1.000000
vn 0.000000 0.000000 -1.000000
vn 0.000000 0.000000 -1.000000
vn 0.000000 0.000000 -1.000000
vn 0.000000 1.000000 0.000000
vn 0.000000 1.000000 0.000000
vn 0.000000 1.000000 0.000000
vn 0.000000 1.000000 0.000000
vn -0.000000 0.000000 1.000000
vn -0.000000 0.000000 1.000000
vn -0.000000 0.000000 1.000000
vn -0.000000 0.000000 1.000000
vn 0.000000 -1.000000 0.000000
vn 0.000000 -1.000000 0.000000
vn 0.000000 -1.000000 0.000000
vn 0.000000 -1.000000 0.000000
vn -1.000000 0.000000 -0.000000
vn -1.000000 0.000000 -0.000000
vn -1.000000 0.000000 -0.000000
vn -1.000000 0.000000 -0.000000
vn 1.000000 0.000000 0.000000
vn 1.000000 0.000000 0.000000
vn 1.000000 0.000000 0.000000
vn 1.000000 0.000000 0.000000
vn 0.000000 0.000000 -1.000000
vn 0.000000 0.000000 -1.000000
vn 0.000000 0.000000 -1.000000
vn 0.000000 0.000000 -1.000000
vn -0.311566 0.950224 -0.000000
vn -0.311566 0.950224 -0.000000
vn -0.311566 0.950224 -0.000000
vn -0.311566 0.950224 -0.000000
vn -0.000000 0.000000 1.000000
vn -0.000000 0.000000 1.000000
vn -0.000000 0.000000 1.000000
vn -0.000000 0.000000 1.000000
vn 0.134653 -0.990893 0.000000
vn 0.134653 -0.990893 0.000000
vn 0.134653 -0.990893 0.000000
vn 0.134653 -0.990893 0.000000
vn -1.000000 0.000000 -0.000000
vn -1.000000 0.000000 -0.000000
vn -1.000000 0.000000 -0.000000
vn -1.000000 0.000000 -0.000000
vn 1.000000 0.000000 0.000000
vn 1.000000 0.000000 0.000000
vn 1.000000 0.000000 0.000000
vn 1.000000 0.000000 0.000000
vn 0.000000 0.155022 -0.987911
vn 0.000000 0.155022 -0.987911
vn 0.000000 0.155022 -0.987911
vn 0.000000 0.155022 -0.987911
vn 0.000000 1.000000 0.000000
vn 0.000000 1.000000 0.000000
vn 0.000000 1.000000 0.000000
vn 0.000000 1.000000 0.000000
vn -0.000000 -0.486349 0.873765
vn -0.000000 -0.486349 0.873765
vn -0.000000 -0.486349 0.873765
vn -0.000000 -0.486349 0.873765
vn 0.000000 -0.770226 -0.637771
vn 0.000000 -0.770226 -0.637771
vn 0.000000 -0.770226 -0.637771
vn 0.000000 -0.770226 -0.637771
vn -1.000000 0.000000 -0.000000
vn -1.000000 0.000000 -0.000000
vn -1.000000 0.000000 -0.000000
vn -1.000000 0.000000 -0.000000
vn 1.000000 0.000000 0.000000
vn 1.000000 0.000000 0.000000
vn 1.000000 0.000000 0.000000
vn 1.000000 0.000000 0.000000
vn -0.000000 -0.473534 0.880775
vn -0.000000 -0.473534 0.880775
vn -0.000000 -0.473534 0.880775
vn -0.000000 -0.473534 0.880775
vn -1.000000 0.000000 -0.000000
vn -1.000000 0.000000 -0.000000
vn -1.000000 0.000000 -0.000000
vn -1.000000 0.000000 -0.000000
vn 0.000000 0.423349 -0.905967
vn 0.000000 0.423349 -0.905967
vn 0.000000 0.423349 -0.905967
vn 0.000000 0.423349 -0.905967
vn 1.000000 0.000000 0.000000
vn 1.000000 0.000000 0.000000
vn 1.000000 0.000000 0.000000
vn 1.000000 0.000000 0.000000
vn -0.000000 0.398094 0.917345
vn -0.000000 0.398094 0.917345
vn -0.000000 0.398094 0.917345
vn -0.000000 0.398094 0.917345
vn -1.000000 0.000000 -0.000000
vn -1.000000 0.000000 -0.000000
vn -1.000000 0.000000 -0.000000
vn -1.000000 0.000000 -0.000000
vn 0.000000 -0.341743 -0.939793
vn 0.000000 -0.341743 -0.939793
vn 0.000000 -0.341743 -0.939793
vn 0.000000 -0.341743 -0.939793
vn 1.000000 0.000000 0.000000
vn 1.000000 0.000000 0.000000
vn 1.000000 0.000000 0.000000
vn 1.000000 0.000000 0.000000
vn 0.000000 0.440331 -0.897835
vn 0.000000 0.440331 -0.897835
vn 0.000000 0.440331 -0.897835
vn 0.000000 0.440331 -0.897835
vn 0.000000 1.000000 0.000000
vn 0.000000 1.000000 0.000000
vn 0.000000 1.000000 0.000000
vn 0.000000 1.000000 0.000000
vn -0.000000 0.000000 1.000000
vn -0.000000 0.000000 1.000000
vn -0.000000 0.000000 1.000000
vn -0.000000 0.000000 1.000000
vn 0.000000 -1.000000 0.000000
vn 0.000000 -1.000000 0.000000
vn 0.000000 -1.000000 0.000000
vn 0.000000 -1.000000 0.000000
vn -1.000000 0.000000 -0.000000
vn -1.000000 0.000000 -0.000000
vn -1.000000 0.000000 -0.000000
vn -1.000000 0.000000 -0.000000
vn 1.000000 0.000000 0.000000
vn 1.000000 0.000000 0.000000
vn 1.000000 0.000000 0.000000
vn 1.000000 0.000000 0.000000
vn 0.000000 0.000000 -1.000000
vn 0.000000 0.000000 -1.000000
vn 0.000000 0.000000 -1.000000
vn 0.000000 0.000000 -1.000000
vn 0.000002 0.000000 -1.000000
vn 0.000002 0.000000 -1.000000
vn 0.000002 0.000000 -1.000000
vn 0.000002 0.000000 -1.000000
vn 0.000000 0.000000 -1.000000
vn 0.000000 0.000000 -1.000000
vn 0.000000 0.000000 -1.000000
vn 0.000000 0.000000 -1.000000
vn -0.000001 0.000000 -1.000000
vn -0.000001 0.000000 -1.000000
vn -0.000001 0.000000 -1.000000
vn -0.000001 0.000000 -1.000000
vn 0.000000 1.000000 0.000000
vn 0.000000 1.000000 0.000000
vn 0.000000 1.000000 0.000000
vn 0.000000 1.000000 0.000000
vn -1.000000 0.000000 -0.000000
vn -1.000000 0.000000 -0.000000
vn -1.000000 0.000000 -0.000000
vn -1.000000 0.000000 -0.000000
vn 0.000000 -1.000000 0.000000
vn 0.000000 -1.000000 0.000000
vn 0.000000 -1.000000 0.000000
vn 0.000000 -1.000000 0.000000
vn 1.000000 0.000000 0.000000
vn 1.000000 0.000000 0.000000
vn 1.000000 0.000000 0.000000
vn 1.000000 0.000000 0.000000
vn 0.000000 0.000001 -1.000000
vn 0.000000 0.000001 -1.000000
vn 0.000000 0.000001 -1.000000
vn 0.000000 0.000001 -1.000000
vn -0.000002 0.000000 -1.000000
vn -0.000002 0.000000 -1.000000
vn -0.000002 0.000000 -1.000000
vn -0.000002 0.000000 -1.000000
vn 0.000000 -0.000001 -1.000000
vn 0.000000 -0.000001 -1.000000
vn 0.000000 -0.000001 -1.000000
vn 0.000000 -0.000001 -1.000000
vn 0.000002 0.000000 -1.000000
vn 0.000002 0.000000 -1.000000
vn 0.000002 0.000000 -1.000000
vn 0.000002 0.000000 -1.000000
vn 0.000000 1.000000 0.000000
vn 0.000000 1.000000 0.000000
vn 0.000000 1.000000 0.000000
vn 0.000000 1.000000 0.000000
vn -1.000000 0.000000 -0.000000
vn -1.000000 0.000000 -0.000000
vn -1.000000 0.000000 -0.000000
vn -1.000000 0.000000 -0.000000
vn 0.000000 -1.000000 0.000000
vn 0.000000 -1.000000 0.000000
vn 0.000000 -1.000000 0.000000
vn 0.000000 -1.000000 0.000000
vn 1.000000 0.000000 0.000000
vn 1.000000 0.000000 0.000000
vn 1.000000 0.000000 0.000000
vn 1.000000 0.000000 0.000000
vn 0.000000 0.000000 -1.000000
vn 0.000000 0.000000 -1.000000
vn 0.000000 0.000000 -1.000000
vn 0.000000 0.000000 -1.000000
vn 0.000000 1.000000 0.000000
vn 0.000000 1.000000 0.000000
vn 0.000000 1.000000 0.000000
vn 0.000000 1.000000 0.000000
vn -0.000000 0.000000 1.000000
vn -0.000000 0.000000 1.000000
vn -0.000000 0.000000 1.000000
vn -0.000000 0.000000 1.000000
vn 0.000000 -1.000000 0.000000
vn 0.000000 -1.000000 0.000000
vn 0.000000 -1.000000 0.000000
vn 0.000000 -1.000000 0.000000
vn -1.000000 0.000000 -0.000000
vn -1.000000 0.000000 -0.000000
vn -1.000000 0.000000 -0.000000
vn -1.000000 0.000000 -0.000000
vn 1.000000 0.000000 0.000000
vn 1.000000 0.000000 0.000000
vn 1.000000 0.000000 0.000000
vn 1.000000 0.000000 0.000000
vn -0.000000 0.000000 1.000000
vn -0.000000 0.000000 1.000000
vn -0.000000 0.000000 1.000000
vn -0.000000 0.000000 1.000000
vn -0.000000 0.510913 0.859632
vn -0.000000 0.510913 0.859632
vn -0.000000 0.510913 0.859632
vn -0.000000 0.510913 0.859632
vn 0.000000 1.000000 0.000000
vn 0.000000 1.000000 0.000000
vn 0.000000 1.000000 0.000000
vn 0.000000 1.000000 0.000000
vn 0.000000 0.901002 -0.433816
vn 0.000000 0.901002 -0.433816
vn 0.000000 0.901002 -0.433816
vn 0.000000 0.901002 -0.433816
vn 0.000000 -0.297021 -0.954871
vn 0.000000 -0.297021 -0.954871
vn 0.000000 -0.297021 -0.954871
vn 0.000000 -0.297021 -0.954871
vn 0.000000 0.997387 -0.072241
vn 0.000000 0.997387 -0.072241
vn 0.000000 0.997387 -0.072241
vn 0.000000 0.997387 -0.072241
vn -0.000000 -0.036985 0.999316
vn -0.000000 -0.036985 0.999316
vn -0.000000 -0.036985 0.999316
vn -0.000000 -0.036985 0.999316
vn -0.000000 -0.980604 0.195999
vn -0.000000 -0.980604 0.195999
vn -0.000000 -0.980604 0.195999
vn -0.000000 -0.980604 0.195999
vn -0.998912 0.006772 0.046146
vn -0.998912 0.006772 0.046146
vn -0.998912 0.006772 0.046146
vn -0.998912 0.006772 0.046146
vn 0.998912 0.006772 0.046146
vn 0.998912 0.006772 0.046146
vn 0.998912 0.006772 0.046146
vn 0.998912 0.006772 0.046146
vn -0.000000 0.000000 1.000000
vn -0.000000 0.000000 1.000000
vn -0.000000 0.000000 1.000000
vn -0.000000 0.000000 1.000000
vn 0.000004 0.000000 1.000000
vn 0.000004 0.000000 1.000000
vn 0.000004 0.000000 1.000000
vn 0.000004 0.000000 1.000000
vn -0.000000 0.000000 1.000000
vn -0.000000 0.000000 1.000000
vn -0.000000 0.000000 1.000000
vn -0.000000 0.000000 1.000000
vn -0.000003 0.000000 1.000000
vn -0.000003 0.000000 1.000000
vn -0.000003 0.000000 1.000000
vn -0.000003 0.000000 1.000000
vn 0.000000 -1.000000 0.000000
vn 0.000000 -1.000000 0.000000
vn 0.000000 -1.000000 0.000000
vn 0.000000 -1.000000 0.000000
vn 1.000000 0.000000 0.000000
vn 1.000000 0.000000 0.000000
vn 1.000000 0.000000 0.000000
vn 1.000000 0.000000 0.000000
vn 0.000000 1.000000 0.000000
vn 0.000000 1.000000 0.000000
vn 0.000000 1.000000 0.000000
vn 0.000000 1.000000 0.000000
vn -1.000000 0.000000 -0.000000
vn -1.000000 0.000000 -0.000000
vn -1.000000 0.000000 -0.000000
vn -1.000000 0.000000 -0.000000
g pCube12 jawaIonBlasterModel_polySurface1
usemtl jawaIonBlasterModel_lambert2SG
f 1/29/1 2/30/2 4/31/3 3/32/4
f 3/21/5 4/22/6 6/23/7 5/24/8
f 5//9 6//10 8//11 7//12
f 7/25/13 8/26/14 2/27/15 1/28/16
f 2/13/17 8/14/18 6/15/19 4/16/20
f 7/17/21 1/18/22 3/19/23 5/20/24
f 9/147/25 10/148/26 12/149/27 11/150/28
f 11//29 12//30 14//31 13//32
f 13/151/33 14/152/34 16/153/35 15/154/36
f 15/143/37 16/144/38 10/145/39 9/146/40
f 10/135/41 16/136/42 14/137/43 12/138/44
f 15/139/45 9/140/46 11/141/47 13/142/48
f 19/87/49 20/88/50 22/89/51 21/90/52
f 21/95/53 22/96/54 24/97/55 23/98/56
f 23/91/57 24/92/58 18/93/59 17/94/60
f 18/79/61 24/80/62 22/81/63 20/82/64
f 23/83/65 17/84/66 19/85/67 21/86/68
f 17/107/69 18/108/70 26/109/71 25/110/72
f 18/99/73 20/100/74 27/101/75 26/102/76
f 20/111/77 19/112/78 28/113/79 27/114/80
f 19/103/81 17/104/82 25/105/83 28/106/84
f 26//85 27//86 28//87 25//88
f 29/181/89 30/171/90 32/174/91 31/182/92
f 31/177/93 32/174/94 34/173/95 33/178/96
f 33/183/97 34/173/98 36/172/99 35/184/100
f 35/175/101 36/179/102 30/180/103 29/176/104
f 30/171/105 36/172/106 34/173/107 32/174/108
f 35/175/109 29/176/110 31/177/111 33/178/112
f 37/163/113 38/164/114 40/165/115 39/166/116
f 39/155/117 40/156/118 42/157/119 41/158/120
f 41/167/121 42/168/122 44/169/123 43/170/124
f 43/159/125 44/160/126 38/161/127 37/162/128
f 38//129 44//130 42//131 40//132
f 43//133 37//134 39//135 41//136
f 45/205/137 46/206/138 48/207/139 47/208/140
f 47//141 48//142 50//143 49//144
f 49/215/145 50/216/146 52/217/147 51/218/148
f 57/213/149 58/214/150 59/212/151 60/211/152
f 46/189/153 52/190/154 50/191/155 48/192/156
f 51/197/157 45/198/158 47/199/159 49/200/160
f 51/218/161 52/217/162 54/219/163 53/220/164
f 52/190/165 46/189/166 55/193/167 54/194/168
f 46/206/169 45/205/170 56/209/171 55/210/172
f 45/198/173 51/197/174 53/201/175 56/202/176
f 53/220/177 54/219/178 58/221/179 57/222/180
f 54/194/181 55/193/182 59/195/183 58/196/184
f 55/210/185 56/209/186 60/211/187 59/212/188
f 56/202/189 53/201/190 57/203/191 60/204/192
f 61/9/193 62/10/194 64/11/195 63/12/196
f 63/7/197 64/4/198 66/3/199 65/8/200
f 115/245/201 116/249/202 117/250/203 118/246/204
f 67//205 68//206 62//207 61//208
f 62/1/209 68/2/210 66/3/211 64/4/212
f 67/5/213 61/6/214 63/7/215 65/8/216
f 65/57/217 66/58/218 70/47/219 69/59/220
f 66/58/221 68/60/222 71/48/223 70/47/224
f 68/60/225 67/61/226 72/62/227 71/48/228
f 67/61/229 65/57/230 69/59/231 72/62/232
f 69/52/233 70/47/234 74/50/235 73/53/236
f 70/47/237 71/48/238 75/49/239 74/50/240
f 71/55/241 72/51/242 76/54/243 75/56/244
f 72/51/245 69/52/246 73/53/247 76/54/248
f 73/73/249 74/74/250 78/63/251 77/75/252
f 74/74/253 75/76/254 79/64/255 78/63/256
f 75/76/257 76/77/258 80/78/259 79/64/260
f 76/77/261 73/73/262 77/75/263 80/78/264
f 77/68/265 78/63/266 82/66/267 81/69/268
f 78/63/269 79/64/270 83/65/271 82/66/272
f 79/71/273 80/67/274 84/70/275 83/72/276
f 80/67/277 77/68/278 81/69/279 84/70/280
f 85/43/281 86/33/282 88/36/283 87/44/284
f 87/39/285 88/36/286 90/35/287 89/40/288
f 89/45/289 90/46/290 92/41/291 91/37/292
f 91/37/293 92/41/294 86/42/295 85/38/296
f 86/33/297 92/34/298 90/35/299 88/36/300
f 91/37/301 85/38/302 87/39/303 89/40/304
f 93/231/305 94/232/306 96/228/307 95/227/308
f 95/227/309 96/228/310 98/224/311 97/223/312
f 97/223/313 98/224/314 100/225/315 99/226/316
f 99/226/317 100/225/318 102/229/319 101/230/320
f 103/130/321 104/185/322 106/124/323 105/188/324
f 105/123/325 106/186/326 108/125/327 107/126/328
f 107/131/329 108/132/330 110/133/331 109/134/332
f 109/127/333 110/128/334 104/129/335 103/187/336
f 104/115/337 110/116/338 108/117/339 106/118/340
f 109/119/341 103/120/342 105/121/343 107/122/344
f 81/233/345 82/234/346 112/235/347 111/236/348
f 82/234/349 83/72/350 113/237/351 112/235/352
f 83/72/353 84/70/354 114/238/355 113/237/356
f 84/70/357 81/233/358 111/236/359 114/238/360
f 111/244/361 112/239/362 116/242/363 115/245/364
f 112/239/365 113/240/366 117/241/367 116/242/368
f 113/240/369 114/247/370 118/248/371 117/241/372
f 114/243/373 111/244/374 115/245/375 118/246/376
