# Blender v2.80 (sub 75) OBJ File: 'large_pipes.blend'
# www.blender.org
mtllib corner_horizontal.mtl
o Cylinder.003_Cylinder.007
v -0.500000 0.707107 0.207107
v -0.500000 0.292893 0.207107
v -0.207107 0.707107 0.500000
v -0.207107 0.292893 0.500000
v -0.165685 0.334314 0.400000
v -0.165685 0.665685 0.400000
v -0.400000 0.334314 0.165685
v -0.400000 0.665685 0.165685
v -0.500000 0.707107 -0.500000
v -0.207107 1.000000 -0.500000
v -0.207107 1.000000 -0.207107
v 0.207107 1.000000 -0.500000
v 0.500000 0.707107 -0.500000
v 0.500000 0.292893 -0.500000
v 0.207107 -0.000000 -0.500000
v -0.207107 0.000000 -0.500000
v -0.207107 0.000000 -0.207107
v -0.500000 0.292893 -0.500000
v 0.400000 0.334314 -0.500000
v 0.400000 0.665685 -0.500000
v -0.165685 0.900000 -0.207107
v -0.165685 0.900000 -0.500000
v -0.400000 0.665685 -0.500000
v 0.186396 0.100000 -0.186396
v 0.165685 0.100000 -0.500000
v -0.400000 0.334314 -0.500000
v -0.165685 0.100000 -0.207107
v -0.165686 0.100000 -0.500000
v 0.186396 0.900000 -0.186396
v 0.165685 0.900000 -0.500000
v 0.500000 0.707107 0.500000
v 0.207107 1.000000 0.207107
v 0.500000 1.000000 0.207107
v 0.207107 1.000000 -0.207107
v 0.500000 1.000000 -0.207107
v 0.207107 -0.000000 -0.207107
v 0.500000 -0.000000 -0.207107
v 0.207107 -0.000000 0.207107
v 0.500000 -0.000000 0.207107
v 0.500000 0.292893 0.500000
v 0.500000 0.334315 -0.400000
v 0.400000 0.334314 -0.400000
v 0.500000 0.665685 -0.400000
v 0.400000 0.665685 -0.400000
v 0.500000 0.900000 0.165685
v 0.207107 0.900000 0.165685
v 0.500000 0.665685 0.400000
v 0.500000 0.100000 -0.165685
v 0.500000 0.334314 0.400000
v 0.500000 0.100000 0.165685
v 0.207107 0.100000 0.165686
v 0.500000 0.900000 -0.165685
vt 0.277573 0.652464
vt 0.277573 0.753608
vt 0.176429 0.753608
vt 0.176429 0.652464
vt 0.630842 0.743741
vt 0.630841 0.662826
vt 0.711757 0.662825
vt 0.711757 0.743741
vt 0.133144 0.123230
vt 0.045189 0.233254
vt 0.028125 0.062514
vt 0.128341 0.053913
vt 0.626946 0.208031
vt 0.556120 0.209408
vt 0.548952 0.106534
vt 0.623242 0.105847
vt 0.627001 0.005953
vt 0.194508 0.447891
vt 0.196210 0.535591
vt 0.106706 0.446172
vt 0.531156 0.034339
vt 0.227997 0.046932
vt 0.236625 0.120737
vt 0.288071 0.332920
vt 0.115618 0.307539
vt 0.230819 0.223554
vt 0.301342 0.231326
vt 0.627001 0.309820
vt 0.454166 0.307429
vt 0.727772 0.501563
vt 0.808687 0.501563
vt 0.818802 0.525981
vt 0.717658 0.525981
vt 0.527706 0.427766
vt 0.436241 0.348257
vt 0.598870 0.347910
vt 0.598117 0.429336
vt 0.595001 0.510259
vt 0.515424 0.514619
vt 0.266295 0.542538
vt 0.272976 0.461830
vt 0.598870 0.589485
vt 0.574961 0.590652
vt 0.400860 0.307681
vt 0.400860 0.332100
vt 0.319945 0.332100
vt 0.319945 0.307681
vt 0.669112 0.103108
vt 0.669112 0.184023
vt 0.644694 0.194137
vt 0.644694 0.092994
vt 0.262793 0.379605
vt 0.286386 0.383652
vt 0.716213 0.021474
vt 0.817358 0.021474
vt 0.807243 0.045892
vt 0.726328 0.045892
vt 0.874306 0.662825
vt 0.874306 0.743740
vt 0.446732 0.121978
vt 0.432998 0.053708
vt 0.326656 0.030705
vt 0.310479 0.129351
vt 0.428057 0.505719
vt 0.003766 0.753608
vt 0.003766 0.652464
vt 0.374006 0.243900
vt 0.334057 0.075472
vt 0.334057 0.556024
vt 0.372249 0.399063
vt 0.412930 0.574421
vt 0.864459 0.103108
vt 0.888877 0.092993
vt 0.492126 0.590757
vt 0.099988 0.376146
vt 0.180578 0.369496
vt 0.568076 0.613572
vt 0.400860 0.356518
vt 0.319945 0.356518
vt 0.038424 0.545306
vt 0.019470 0.384881
vt 0.257206 0.623458
vt 0.095810 0.603470
vt 0.258727 0.356022
vt 0.865903 0.363432
vt 0.808687 0.306216
vt 0.818802 0.281798
vt 0.890321 0.353318
vt 0.670556 0.444347
vt 0.646138 0.454462
vt 0.450237 0.652464
vt 0.450237 0.753608
vt 0.468293 0.743741
vt 0.468293 0.662826
vt 0.865903 0.444347
vt 0.890321 0.454462
vt 0.727772 0.306216
vt 0.670556 0.363432
vt 0.646138 0.353318
vt 0.717658 0.281798
vt 0.716213 0.265657
vt 0.726328 0.241239
vt 0.807243 0.241239
vt 0.817357 0.265657
vt 0.888877 0.194137
vt 0.864459 0.184023
vn -0.7071 -0.0000 0.7071
vn 0.7071 0.0000 -0.7071
vn -0.7071 -0.7071 0.0000
vn 0.0000 1.0000 0.0000
vn 0.7071 0.7071 0.0000
vn 0.0000 0.7071 -0.7071
vn -0.0000 -1.0000 0.0000
vn 0.0000 -0.7071 0.7071
vn -0.7071 0.7071 0.0000
vn -0.0000 0.0000 -1.0000
vn 0.7071 -0.7071 0.0000
vn -0.7142 -0.6990 0.0358
vn -1.0000 0.0000 0.0000
vn 1.0000 0.0000 -0.0000
vn -0.7142 0.6990 0.0358
vn 0.0000 -0.7071 -0.7071
vn 0.0000 0.0000 1.0000
vn 0.0000 0.7071 0.7071
vn -0.0358 -0.6990 0.7142
vn -0.0358 0.6990 0.7142
vn 0.3388 0.8778 -0.3388
vn 0.3388 -0.8778 -0.3388
vn -0.3574 0.8629 0.3574
vn -0.3574 -0.8629 0.3574
usemtl MAT_DIFFUSE_CUTOUT
s off
f 1/1/1 2/2/1 4/3/1 3/4/1
f 6/5/2 5/6/2 7/7/2 8/8/2
f 17/9/3 2/10/3 18/11/3 16/12/3
f 10/13/4 11/14/4 34/15/4 12/16/4
f 12/16/5 34/15/5 13/17/5
f 24/18/4 27/19/4 51/20/4
f 35/21/6 13/17/6 34/15/6
f 15/22/7 36/23/7 17/9/7 16/12/7
f 40/24/8 4/25/8 38/26/8 39/27/8
f 9/28/9 1/29/9 11/14/9 10/13/9
f 19/30/10 20/31/10 13/32/10 14/33/10
f 21/34/11 8/35/11 23/36/11 22/37/11
f 30/38/7 29/39/7 21/34/7 22/37/7
f 28/40/4 27/19/4 24/18/4 25/41/4
f 20/42/12 44/43/12 29/39/12 30/38/12
f 19/44/13 42/45/13 44/46/13 20/47/13
f 45/48/14 52/49/14 35/50/14 33/51/14
f 25/41/15 24/18/15 42/52/15 19/53/15
f 31/54/14 40/55/14 49/56/14 47/57/14
f 7/7/14 26/58/14 23/59/14 8/8/14
f 32/60/4 33/61/4 35/21/4 34/15/4
f 14/62/16 37/63/16 36/23/16
f 29/39/7 46/64/7 21/34/7
f 15/22/11 14/62/11 36/23/11
f 36/23/7 37/63/7 39/27/7 38/26/7
f 3/4/17 4/3/17 40/65/17 31/66/17
f 32/60/18 3/67/18 31/68/18 33/61/18
f 34/15/4 11/14/4 32/60/4
f 47/69/16 6/70/16 46/64/16 45/71/16
f 50/72/14 49/56/14 40/55/14 39/73/14
f 29/39/7 52/74/7 45/71/7 46/64/7
f 51/20/4 50/75/4 48/76/4 24/18/4
f 44/43/19 43/77/19 52/74/19 29/39/19
f 42/45/17 41/78/17 43/79/17 44/46/17
f 51/20/6 5/80/6 49/81/6 50/75/6
f 26/82/5 7/83/5 27/19/5 28/40/5
f 24/18/20 48/76/20 41/84/20 42/52/20
f 38/26/7 17/9/7 36/23/7
f 22/85/10 23/86/10 9/87/10 10/88/10
f 5/80/21 51/20/21 27/19/21 7/83/21
f 25/89/10 19/30/10 14/33/10 15/90/10
f 6/70/22 8/35/22 21/34/22 46/64/22
f 1/29/23 3/67/23 32/60/23 11/14/23
f 2/10/24 17/9/24 38/26/24 4/25/24
f 2/2/13 1/1/13 9/91/13 18/92/13
f 6/5/10 47/93/10 49/94/10 5/6/10
f 30/95/10 22/85/10 10/88/10 12/96/10
f 26/97/10 28/98/10 16/99/10 18/100/10
f 45/48/14 33/51/14 31/54/14 47/57/14
f 13/101/14 43/102/14 41/103/14 14/104/14
f 39/73/14 37/105/14 48/106/14 50/72/14
f 41/103/14 48/106/14 37/105/14 14/104/14
f 20/31/10 30/95/10 12/96/10 13/32/10
f 52/49/14 43/102/14 13/101/14 35/50/14
f 23/86/10 26/97/10 18/100/10 9/87/10
f 16/99/10 28/98/10 25/89/10 15/90/10
