# Blender v2.80 (sub 75) OBJ File: 'large_pipes.blend'
# www.blender.org
mtllib junction_horizontal.mtl
o Cylinder.004_Cylinder.008
v -0.207107 1.000000 -0.500000
v 0.207107 1.000000 -0.500000
v 0.500000 0.707107 -0.500000
v 0.500000 0.292893 -0.500000
v 0.400000 0.334314 -0.500000
v 0.400000 0.665685 -0.500000
v 0.186396 0.100000 -0.165685
v 0.165685 0.100000 -0.500000
v -0.400000 0.334314 -0.500000
v 0.186396 0.900000 -0.165685
v 0.165685 0.900000 -0.500000
v 0.500000 0.707107 0.500000
v 0.500000 1.000000 0.207107
v 0.207107 1.000000 -0.207107
v 0.500000 1.000000 -0.207107
v 0.207107 -0.000000 -0.207107
v 0.500000 -0.000000 -0.207107
v 0.500000 -0.000000 0.207107
v 0.500000 0.292893 0.500000
v 0.500000 0.334315 -0.400000
v 0.400000 0.334314 -0.400000
v 0.500000 0.665685 -0.400000
v 0.400000 0.665685 -0.400000
v 0.500000 0.900000 0.165685
v 0.500000 0.665685 0.400000
v 0.500000 0.100000 -0.165685
v 0.500000 0.334314 0.400000
v 0.500000 0.100000 0.165685
v 0.500000 0.900000 -0.165685
v 0.207107 0.000000 -0.500000
v -0.207107 -0.000000 -0.500000
v -0.500000 0.292893 -0.500000
v -0.500000 0.707107 -0.500000
v -0.400000 0.665685 -0.500000
v -0.186396 0.900000 -0.165685
v -0.165685 0.900000 -0.500000
v -0.186396 0.100000 -0.165685
v -0.165685 0.100000 -0.500000
v -0.500000 0.292893 0.500000
v -0.500000 -0.000000 0.207107
v -0.207106 -0.000000 -0.207107
v -0.500000 -0.000000 -0.207107
v -0.207107 1.000000 -0.207107
v -0.500000 1.000000 -0.207107
v -0.500000 1.000000 0.207107
v -0.500000 0.707107 0.500000
v -0.500000 0.665685 -0.400000
v -0.400000 0.665685 -0.400000
v -0.500000 0.334314 -0.400000
v -0.400000 0.334314 -0.400000
v -0.500000 0.100000 0.165685
v -0.500000 0.334314 0.400000
v -0.500000 0.900000 -0.165685
v -0.500000 0.665685 0.400000
v -0.500000 0.900000 0.165685
v -0.500000 0.100000 -0.165686
vt 0.688028 0.588324
vt 0.615357 0.588324
vt 0.688028 0.485551
vt 0.591133 0.519809
vt 0.228256 0.713260
vt 0.146037 0.713260
vt 0.135760 0.688449
vt 0.238533 0.688449
vt 0.923617 0.873764
vt 0.898810 0.874222
vt 0.839154 0.796699
vt 0.922102 0.791560
vt 0.349441 0.875088
vt 0.349441 0.850276
vt 0.431659 0.850276
vt 0.431659 0.875088
vt 0.895739 0.352193
vt 0.895739 0.269974
vt 0.920551 0.259697
vt 0.920551 0.362470
vt 0.718234 0.683066
vt 0.801183 0.688204
vt 0.741527 0.765727
vt 0.716720 0.765270
vt 0.847880 0.435141
vt 0.745107 0.435141
vt 0.755384 0.410330
vt 0.837602 0.410330
vt 0.486570 0.922468
vt 0.520828 0.825573
vt 0.589343 0.849797
vt 0.589343 0.922469
vt 0.697247 0.352193
vt 0.672436 0.362470
vt 0.890481 0.897593
vt 0.813034 0.869994
vt 0.349441 0.825465
vt 0.431659 0.825465
vt 0.827303 0.761498
vt 0.749856 0.789099
vt 0.087901 0.853615
vt 0.146037 0.911752
vt 0.135760 0.936564
vt 0.063089 0.863892
vt 0.286392 0.771397
vt 0.311204 0.761120
vt 0.087901 0.771397
vt 0.063089 0.761120
vt 0.228255 0.911752
vt 0.286392 0.853615
vt 0.311204 0.863893
vt 0.238533 0.936564
vt 0.847880 0.187026
vt 0.837602 0.211838
vt 0.755384 0.211838
vt 0.745107 0.187026
vt 0.672436 0.259697
vt 0.697247 0.269975
vt 0.692115 0.922469
vt 0.692116 0.849798
vt 0.794888 0.922469
vt 0.760631 0.825574
vt 0.716718 0.518643
vt 0.741525 0.518186
vt 0.801182 0.595708
vt 0.718234 0.600848
vt 0.349251 0.938940
vt 0.349251 0.914128
vt 0.431469 0.914128
vt 0.431469 0.938940
vt 0.552338 0.712985
vt 0.552338 0.630767
vt 0.577149 0.620489
vt 0.577149 0.723262
vt 0.922102 0.709342
vt 0.839154 0.704203
vt 0.898810 0.626680
vt 0.923617 0.627138
vt 0.504478 0.795933
vt 0.401706 0.795934
vt 0.411983 0.771122
vt 0.494201 0.771122
vt 0.688028 0.793869
vt 0.591133 0.759612
vt 0.615357 0.691096
vt 0.688028 0.691096
vt 0.353846 0.712985
vt 0.329034 0.723262
vt 0.749854 0.494814
vt 0.827302 0.522413
vt 0.349251 0.889317
vt 0.431469 0.889317
vt 0.813034 0.630908
vt 0.890481 0.603309
vt 0.504478 0.547818
vt 0.494201 0.572630
vt 0.411983 0.572630
vt 0.401706 0.547818
vt 0.329034 0.620489
vt 0.353846 0.630767
vt 0.079640 0.475767
vt 0.327755 0.475767
vt 0.327755 0.578540
vt 0.079640 0.578540
vt 0.079640 0.372994
vt 0.327755 0.372994
vt 0.079640 0.270222
vt 0.327755 0.270222
vt 0.079640 0.167449
vt 0.327755 0.167449
vt 0.079640 0.064676
vt 0.327755 0.064676
vt 0.359249 0.144471
vt 0.359249 0.062253
vt 0.607364 0.062253
vt 0.607364 0.144471
vt 0.359249 0.226689
vt 0.607364 0.226689
vt 0.359249 0.308907
vt 0.607364 0.308907
vt 0.359249 0.391125
vt 0.607364 0.391125
vt 0.359249 0.473344
vt 0.607364 0.473343
vn 0.7071 0.7071 0.0000
vn -0.0000 0.7071 -0.7071
vn -0.0000 0.0000 -1.0000
vn -0.7139 -0.6994 0.0340
vn -1.0000 0.0000 0.0000
vn 1.0000 0.0000 -0.0000
vn -0.7139 0.6994 0.0340
vn 0.0000 -0.7071 -0.7071
vn 0.7071 -0.7071 0.0000
vn 0.0000 -0.7071 0.7071
vn 0.0000 0.0000 1.0000
vn -0.0000 0.7071 0.7071
vn -0.7071 -0.7071 0.0000
vn 0.7139 0.6994 0.0340
vn 0.7139 -0.6994 0.0340
vn -0.7071 0.7071 -0.0000
vn 0.0000 1.0000 0.0000
vn 0.0000 -1.0000 -0.0000
usemtl MAT_DIFFUSE_CUTOUT
s off
f 2/1/1 14/2/1 3/3/1
f 15/4/2 3/3/2 14/2/2
f 5/5/3 6/6/3 3/7/3 4/8/3
f 6/9/4 23/10/4 10/11/4 11/12/4
f 5/13/5 21/14/5 23/15/5 6/16/5
f 24/17/6 29/18/6 15/19/6 13/20/6
f 8/21/7 7/22/7 21/23/7 5/24/7
f 12/25/6 19/26/6 27/27/6 25/28/6
f 4/29/8 17/30/8 16/31/8
f 30/32/9 4/29/9 16/31/9
f 28/33/6 27/27/6 19/26/6 18/34/6
f 23/10/10 22/35/10 29/36/10 10/11/10
f 21/14/11 20/37/11 22/38/11 23/15/11
f 7/22/12 26/39/12 20/40/12 21/23/12
f 36/41/3 34/42/3 33/43/3 1/44/3
f 8/45/3 5/5/3 4/8/3 30/46/3
f 11/47/3 36/41/3 1/44/3 2/48/3
f 9/49/3 38/50/3 31/51/3 32/52/3
f 24/17/6 13/20/6 12/25/6 25/28/6
f 3/53/6 22/54/6 20/55/6 4/56/6
f 18/34/6 17/57/6 26/58/6 28/33/6
f 20/55/6 26/58/6 17/57/6 4/56/6
f 6/6/3 11/47/3 2/48/3 3/7/3
f 29/18/6 22/54/6 3/53/6 15/19/6
f 34/42/3 9/49/3 32/52/3 33/43/3
f 31/51/3 38/50/3 8/45/3 30/46/3
f 31/59/13 41/60/13 32/61/13
f 42/62/8 32/61/8 41/60/8
f 9/63/14 50/64/14 37/65/14 38/66/14
f 34/67/6 48/68/6 50/69/6 9/70/6
f 51/71/5 56/72/5 42/73/5 40/74/5
f 36/75/15 35/76/15 48/77/15 34/78/15
f 39/79/5 46/80/5 54/81/5 52/82/5
f 33/83/2 44/84/2 43/85/2
f 1/86/16 33/83/16 43/85/16
f 55/87/5 54/81/5 46/80/5 45/88/5
f 50/64/12 49/89/12 56/90/12 37/65/12
f 48/68/11 47/91/11 49/92/11 50/69/11
f 35/76/10 53/93/10 47/94/10 48/77/10
f 51/71/5 40/74/5 39/79/5 52/82/5
f 32/95/5 49/96/5 47/97/5 33/98/5
f 45/88/5 44/99/5 53/100/5 55/87/5
f 47/97/5 53/100/5 44/99/5 33/98/5
f 56/72/5 49/96/5 32/95/5 42/73/5
f 1/86/17 43/85/17 14/2/17 2/1/17
f 38/66/17 37/65/17 7/22/17 8/21/17
f 31/59/18 30/32/18 16/31/18 41/60/18
f 11/12/18 10/11/18 35/76/18 36/75/18
f 18/101/18 40/102/18 42/103/18 17/104/18
f 19/105/10 39/106/10 40/102/10 18/101/10
f 12/107/11 46/108/11 39/106/11 19/105/11
f 13/109/12 45/110/12 46/108/12 12/107/12
f 15/111/17 44/112/17 45/110/17 13/109/17
f 28/113/17 26/114/17 56/115/17 51/116/17
f 27/117/2 28/113/2 51/116/2 52/118/2
f 25/119/3 27/117/3 52/118/3 54/120/3
f 24/121/8 25/119/8 54/120/8 55/122/8
f 29/123/18 24/121/18 55/122/18 53/124/18
