# Blender v2.80 (sub 75) OBJ File: 'large_pipes.blend'
# www.blender.org
mtllib pipe.mtl
o Cylinder
v -0.500000 0.000000 -0.207107
v -0.500000 1.000000 -0.207107
v -0.207107 0.000000 -0.500000
v -0.207107 1.000000 -0.500000
v 0.207107 0.000000 -0.500000
v 0.207107 1.000000 -0.500000
v 0.500000 -0.000000 -0.207107
v 0.500000 1.000000 -0.207107
v 0.500000 -0.000000 0.207107
v 0.500000 1.000000 0.207107
v 0.207107 0.000000 0.500000
v 0.207107 1.000000 0.500000
v -0.207107 0.000000 0.500000
v -0.207107 1.000000 0.500000
v -0.500000 0.000000 0.207107
v -0.500000 1.000000 0.207107
v 0.400000 1.000000 0.165685
v 0.400000 -0.000000 0.165685
v 0.400000 1.000000 -0.165685
v 0.400000 -0.000000 -0.165685
v -0.165685 1.000000 -0.400000
v -0.165685 0.000000 -0.400000
v -0.400000 1.000000 -0.165685
v -0.400000 0.000000 -0.165685
v 0.165685 1.000000 0.400000
v 0.165685 0.000000 0.400000
v -0.400000 1.000000 0.165685
v -0.400000 0.000000 0.165685
v -0.165685 1.000000 0.400000
v -0.165686 0.000000 0.400000
v 0.165686 1.000000 -0.400000
v 0.165685 0.000000 -0.400000
vt 0.328150 0.618958
vt 0.328150 0.536401
vt 0.577285 0.536402
vt 0.577285 0.618958
vt 0.063541 0.423484
vt 0.063541 0.320289
vt 0.312676 0.320289
vt 0.312676 0.423484
vt 0.328150 0.371289
vt 0.328150 0.288733
vt 0.577285 0.288733
vt 0.577285 0.371289
vt 0.328150 0.949182
vt 0.328150 0.866626
vt 0.577285 0.866626
vt 0.577285 0.949182
vt 0.312676 0.836265
vt 0.063541 0.836265
vt 0.063541 0.733070
vt 0.312676 0.733070
vt 0.063541 0.939460
vt 0.312676 0.939460
vt 0.791188 0.402203
vt 0.708632 0.402203
vt 0.698312 0.377290
vt 0.801507 0.377290
vt 0.791326 0.883178
vt 0.849702 0.824802
vt 0.874616 0.835122
vt 0.801646 0.908092
vt 0.708632 0.601511
vt 0.791188 0.601511
vt 0.801507 0.626425
vt 0.698312 0.626425
vt 0.328150 0.453845
vt 0.577285 0.453845
vt 0.063541 0.217094
vt 0.312676 0.217094
vt 0.874477 0.553455
vt 0.849564 0.543135
vt 0.791326 0.683870
vt 0.708770 0.683870
vt 0.698450 0.658957
vt 0.801646 0.658957
vt 0.708770 0.883178
vt 0.698450 0.908092
vt 0.874616 0.731927
vt 0.849702 0.742246
vt 0.650256 0.543135
vt 0.625342 0.553455
vt 0.625480 0.835122
vt 0.650394 0.824802
vt 0.650394 0.742246
vt 0.625480 0.731927
vt 0.650256 0.460579
vt 0.625342 0.450260
vt 0.063541 0.629874
vt 0.312676 0.629874
vt 0.328150 0.701514
vt 0.577285 0.701514
vt 0.063541 0.113898
vt 0.312676 0.113899
vt 0.063541 0.526679
vt 0.312676 0.526679
vt 0.328150 0.784070
vt 0.577285 0.784070
vt 0.849564 0.460579
vt 0.874477 0.450260
vn -0.0000 0.0000 1.0000
vn -1.0000 0.0000 0.0000
vn -0.7071 0.0000 -0.7071
vn 0.0000 -0.0000 -1.0000
vn 1.0000 -0.0000 0.0000
vn 0.7071 -0.0000 0.7071
vn -0.0000 -1.0000 -0.0000
vn 0.0000 1.0000 -0.0000
vn -0.7071 0.0000 0.7071
vn 0.7071 -0.0000 -0.7071
usemtl MAT_DIFFUSE_CUTOUT
s off
f 22/1/1 32/2/1 31/3/1 21/4/1
f 1/5/2 15/6/2 16/7/2 2/8/2
f 18/9/3 26/10/3 25/11/3 17/12/3
f 26/13/4 30/14/4 29/15/4 25/16/4
f 10/17/5 9/18/5 7/19/5 8/20/5
f 11/21/6 9/18/6 10/17/6 12/22/6
f 22/23/7 24/24/7 1/25/7 3/26/7
f 29/27/8 27/28/8 16/29/8 14/30/8
f 26/31/7 18/32/7 9/33/7 11/34/7
f 32/2/9 20/35/9 19/36/9 31/3/9
f 16/7/9 15/6/9 13/37/9 14/38/9
f 7/39/7 9/33/7 18/32/7 20/40/7
f 21/41/8 31/42/8 6/43/8 4/44/8
f 25/45/8 29/27/8 14/30/8 12/46/8
f 21/41/8 4/44/8 2/47/8 23/48/8
f 30/49/7 26/31/7 11/34/7 13/50/7
f 25/45/8 12/46/8 10/51/8 17/52/8
f 6/43/8 31/42/8 19/53/8 8/54/8
f 28/55/7 30/49/7 13/50/7 15/56/7
f 27/28/8 23/48/8 2/47/8 16/29/8
f 7/19/10 5/57/10 6/58/10 8/20/10
f 24/59/6 22/1/6 21/4/6 23/60/6
f 13/37/1 11/61/1 12/62/1 14/38/1
f 3/63/3 1/5/3 2/8/3 4/64/3
f 30/14/10 28/65/10 27/66/10 29/15/10
f 20/35/2 18/9/2 17/12/2 19/36/2
f 28/65/5 24/59/5 23/60/5 27/66/5
f 1/25/7 24/24/7 28/55/7 15/56/7
f 32/67/7 22/23/7 3/26/7 5/68/7
f 20/40/7 32/67/7 5/68/7 7/39/7
f 19/53/8 17/52/8 10/51/8 8/54/8
f 5/57/4 3/63/4 4/64/4 6/58/4
