# Blender v2.91.0 OBJ File: 'A280C_Feb13.blend'
# www.blender.org
mtllib A280C_Feb13.mtl
o A280C_Plane.001
v -0.131251 0.112501 1.125010
v -0.131251 -0.000000 0.337503
v -0.131251 0.112501 0.187502
v -0.131251 0.112501 -0.225002
v 0.131251 0.375003 1.237511
v 0.131251 0.375003 -1.200011
v 0.131251 0.862508 -1.200011
v 0.131251 0.375003 -0.637506
v 0.131251 0.112501 1.125010
v 0.131251 0.000000 0.337503
v 0.131251 0.112501 0.187502
v 0.131251 0.112501 -0.225002
v 0.131251 0.187502 -0.562505
v -0.131251 0.862508 2.700024
v -0.131251 0.450004 2.700024
v 0.131251 0.862508 2.700024
v 0.131251 0.450004 2.700024
v 0.131251 0.450004 1.575014
v -0.131251 0.375003 1.237512
v -0.131251 0.375003 -1.200011
v -0.131251 0.862508 -1.200011
v -0.131251 0.375003 -0.637506
v -0.131251 0.187502 -0.562505
v -0.131251 0.450004 1.575014
v -0.075001 0.900008 -0.750007
v 0.075001 0.900008 -0.750007
v -0.075001 0.900008 0.075001
v -0.075001 1.050009 -0.750007
v 0.075001 1.050009 -0.750007
v -0.075001 1.050009 0.075001
v 0.075001 1.050009 0.075001
v 0.075001 0.900008 0.075001
v -0.037500 0.900008 -0.600005
v 0.037500 0.900008 -0.600005
v -0.037500 0.900008 -0.075001
v -0.037500 0.825007 -0.600005
v 0.037500 0.825007 -0.600005
v -0.037500 0.825007 -0.075001
v 0.037500 0.825007 -0.075001
v 0.037500 0.900008 -0.075001
v -0.187502 1.050009 1.125010
v 0.187502 1.050009 1.125010
v -0.187502 1.050009 2.175020
v -0.187502 1.425013 1.125010
v 0.187502 1.425013 1.125010
v -0.187502 1.425013 2.175020
v 0.187502 1.425013 2.175020
v 0.187502 1.050009 2.175020
v -0.093751 -0.075001 -0.300003
v 0.093751 -0.075001 -0.300003
v -0.093751 0.187502 -0.562505
v -0.093751 0.150001 -0.187502
v 0.093751 0.150001 -0.187502
v 0.093751 0.187502 -0.562505
v 0.093751 -0.450004 -0.975009
v 0.093751 -0.600005 -0.675006
v -0.093751 -0.450004 -0.975009
v -0.093751 -0.600005 -0.675006
v -0.075001 0.525005 -1.200011
v -0.075001 0.675006 -1.200011
v 0.075001 0.525005 -1.200011
v -0.075001 0.525005 -2.100019
v -0.075001 0.675006 -2.100019
v 0.075001 0.525005 -2.100019
v 0.075001 0.675006 -2.100019
v 0.075001 0.675006 -1.200011
v -0.075001 0.712506 2.700024
v -0.075001 0.862669 2.700024
v 0.075001 0.712506 2.700024
v -0.075001 0.712506 3.000027
v -0.075001 0.862669 3.000027
v 0.075001 0.712506 3.000027
v 0.075001 0.862669 3.000027
v 0.075001 0.862669 2.700024
v -0.168752 0.450004 2.700024
v -0.168752 0.675006 2.700024
v 0.168751 0.450004 2.700024
v -0.112501 0.487504 3.000027
v -0.112501 0.675006 3.000027
v 0.112501 0.487504 3.000027
v 0.112501 0.675006 3.000027
v 0.168751 0.675006 2.700024
v -0.168752 0.675006 2.700024
v -0.112501 0.675006 3.000027
v 0.112501 0.675006 3.000027
v 0.168751 0.675006 2.700024
v -0.093751 0.693756 3.000027
v -0.093751 0.881258 3.000027
v 0.093751 0.693756 3.000027
v -0.093751 0.693756 3.375031
v -0.093751 0.881258 3.375031
v 0.093751 0.693756 3.375031
v 0.093751 0.881258 3.375031
v 0.093751 0.881258 3.000027
v -0.093751 0.675006 3.375030
v 0.093751 0.675006 3.375030
v -0.093751 0.675006 3.000027
v -0.093751 0.487504 3.375030
v 0.093751 0.487504 3.375030
v -0.093751 0.487504 3.000027
v 0.093751 0.487504 3.000027
v 0.093751 0.675006 3.000027
v -0.037500 0.645006 3.337530
v 0.037501 0.645006 3.337530
v -0.037500 0.645006 3.037527
v -0.037500 0.720006 3.337530
v 0.037501 0.720006 3.337530
v -0.037500 0.720006 3.037527
v 0.037501 0.720006 3.037527
v 0.037501 0.645006 3.037527
v -0.075001 0.675006 3.375031
v 0.075001 0.675006 3.375030
v -0.075001 0.525005 3.375031
v -0.075001 0.675006 4.575041
v 0.075001 0.675006 4.575041
v -0.075001 0.525005 4.575041
v 0.075001 0.525005 4.575041
v 0.075001 0.525005 3.375031
v -0.075001 0.675006 4.575041
v 0.075001 0.675006 4.575041
v -0.075001 0.525005 4.575041
v 0.075001 0.525005 4.575041
v -0.037500 0.675006 4.237538
v 0.037500 0.675006 4.237538
v -0.037500 0.675006 4.462540
v -0.037500 0.975009 4.350039
v 0.037500 0.975009 4.350039
v -0.037500 0.975009 4.462540
v 0.037500 0.975009 4.462540
v 0.037500 0.675006 4.462540
v -0.112501 1.125010 1.125010
v -0.112501 1.350012 1.125010
v 0.112501 1.125010 1.125010
v -0.112501 1.125010 0.675006
v -0.112501 1.350012 0.675006
v 0.112501 1.125010 0.675006
v 0.112501 1.350012 0.675006
v 0.112501 1.350012 1.125010
v -0.150001 1.087510 0.675006
v -0.150001 1.387512 0.675006
v 0.150001 1.087510 0.675006
v -0.150001 1.087510 0.375003
v -0.150001 1.387512 0.375003
v 0.150001 1.087510 0.375003
v 0.150001 1.387512 0.375003
v 0.150001 1.387512 0.675006
v -0.075001 1.162511 2.175020
v -0.075001 1.312512 2.175020
v 0.075001 1.162511 2.175020
v -0.075001 1.162511 2.475023
v -0.075001 1.312512 2.475023
v 0.075001 1.162511 2.475023
v 0.075001 1.312512 2.475023
v 0.075001 1.312512 2.175020
v 0.187502 0.150001 -2.100019
v 0.187502 0.150001 -2.175020
v 0.187502 1.050009 -2.100019
v -0.187502 0.150001 -2.100019
v -0.187502 0.150001 -2.175020
v -0.187502 1.050009 -2.100019
v -0.187502 1.050009 -2.175020
v 0.187502 1.050009 -2.175020
v 0.075001 -0.112501 -0.187502
v -0.075001 -0.187502 -0.225002
v 0.075001 -0.187502 -0.225002
v 0.075001 -0.075001 -0.300003
v 0.075001 0.000000 -0.262502
v 0.075001 -0.187502 0.150001
v -0.075001 0.000000 0.337503
v 0.075001 0.000000 0.337503
v 0.075001 0.075782 0.300003
v 0.075001 -0.112501 0.112501
v -0.075001 -0.112501 -0.187502
v -0.075001 -0.075001 -0.300003
v -0.075001 0.000000 -0.262502
v -0.075001 -0.187502 0.150001
v -0.075001 0.075782 0.300003
v -0.075001 -0.112501 0.112501
v -0.056250 -0.112501 -0.075001
v 0.056250 -0.112501 -0.075001
v -0.056250 -0.112501 -0.262502
v -0.056250 0.000000 -0.117716
v -0.056250 0.112388 -0.075001
v 0.056250 0.000000 -0.117716
v 0.056250 0.112389 -0.075001
v 0.056250 0.112613 -0.262502
v -0.056250 0.112613 -0.262502
v 0.056250 -0.112501 -0.262502
v -0.187502 0.375003 2.700024
v 0.187502 0.375003 2.700024
v -0.187502 0.375003 1.650015
v -0.187502 0.675006 2.700024
v 0.187502 0.675006 2.700024
v -0.187502 0.675006 1.650015
v 0.187502 0.675006 1.650015
v 0.187502 0.375003 1.650015
v -0.131251 0.862508 0.825007
v 0.131251 0.862508 0.825007
v -0.131251 0.862508 1.875017
v -0.131251 1.087510 0.825007
v 0.131251 1.087510 0.825007
v -0.131251 1.087510 1.875017
v 0.131251 1.087510 1.875017
v 0.131251 0.862508 1.875017
v -0.075001 1.050010 1.050009
v -0.075001 1.125010 1.050009
v 0.075001 1.050010 1.050009
v -0.075001 1.050010 0.900008
v -0.075001 1.125010 0.900008
v 0.075001 1.050010 0.900008
v 0.075001 1.125010 0.900008
v 0.075001 1.125010 1.050009
vt 0.125000 0.417969
vt 0.125000 0.367188
vt 0.183594 0.367188
vt 0.191406 0.347656
vt 0.226563 0.339844
vt 0.269531 0.339844
vt 0.285156 0.328125
vt 0.367188 0.339844
vt 0.378906 0.367188
vt 0.414063 0.375000
vt 0.531250 0.375000
vt 0.531250 0.417969
vt 0.937500 0.423828
vt 0.992188 0.423828
vt 0.992188 0.451172
vt 0.937500 0.451172
vt 0.828125 0.423828
vt 0.871094 0.423828
vt 0.871094 0.451172
vt 0.828125 0.451172
vt 0.687500 0.423828
vt 0.718750 0.423828
vt 0.718750 0.451172
vt 0.687500 0.451172
vt 0.998047 0.367188
vt 0.998047 0.417969
vt 0.970703 0.417969
vt 0.970703 0.367188
vt 0.914062 0.423828
vt 0.933594 0.423828
vt 0.933594 0.451172
vt 0.914062 0.451172
vt 0.800781 0.423828
vt 0.800781 0.451172
vt 0.875000 0.423828
vt 0.910156 0.423828
vt 0.910156 0.451172
vt 0.875000 0.451172
vt 0.804688 0.423828
vt 0.824219 0.423828
vt 0.824219 0.451172
vt 0.804688 0.451172
vt 0.533203 0.417969
vt 0.533203 0.375000
vt 0.560547 0.375000
vt 0.560547 0.417969
vt 0.968750 0.417969
vt 0.562500 0.417969
vt 0.562500 0.375000
vt 0.679688 0.375000
vt 0.714844 0.367188
vt 0.726562 0.339844
vt 0.808594 0.328125
vt 0.824219 0.339844
vt 0.867188 0.339844
vt 0.902344 0.347656
vt 0.910156 0.367188
vt 0.968750 0.367188
vt 0.648438 0.451172
vt 0.531250 0.451172
vt 0.531250 0.423828
vt 0.648438 0.423828
vt 0.968750 0.482422
vt 0.562500 0.482422
vt 0.562500 0.455078
vt 0.968750 0.455078
vt 0.683594 0.423828
vt 0.683594 0.451172
vt 0.937500 0.687500
vt 0.953125 0.687500
vt 0.953125 0.703125
vt 0.937500 0.703125
vt 0.937500 0.703125
vt 0.937500 0.718750
vt 0.851562 0.718750
vt 0.851562 0.703125
vt 0.750000 0.687500
vt 0.835938 0.687500
vt 0.835938 0.703125
vt 0.750000 0.703125
vt 0.937500 0.734375
vt 0.851562 0.734375
vt 0.851562 0.718750
vt 0.937500 0.718750
vt 0.851562 0.687500
vt 0.851562 0.703125
vt 0.906250 0.679688
vt 0.906250 0.671875
vt 0.914062 0.671875
vt 0.914062 0.679688
vt 0.789062 0.679688
vt 0.789062 0.671875
vt 0.843750 0.671875
vt 0.843750 0.679688
vt 0.851562 0.671875
vt 0.851562 0.679688
vt 0.570312 0.742188
vt 0.609375 0.742188
vt 0.609375 0.781250
vt 0.570312 0.781250
vt 0.312500 0.742188
vt 0.421875 0.742188
vt 0.421875 0.781250
vt 0.312500 0.781250
vt 0.421875 0.890625
vt 0.460938 0.781250
vt 0.460938 0.890625
vt 0.460938 0.742188
vt 0.460938 0.781250
vt 0.500000 0.781250
vt 0.500000 0.890625
vt 0.460938 0.890625
vt 0.843750 0.109375
vt 0.816406 0.136719
vt 0.773438 0.070313
vt 0.804688 0.054688
vt 0.861328 0.039062
vt 0.880859 0.039062
vt 0.880859 0.109375
vt 0.861328 0.109375
vt 0.880859 0.140625
vt 0.861328 0.140625
vt 0.855469 0.132812
vt 0.886719 0.132812
vt 0.898438 0.109375
vt 0.925781 0.136719
vt 0.937500 0.054688
vt 0.968750 0.070312
vt 0.990234 0.140625
vt 0.970703 0.140625
vt 0.970703 0.062500
vt 0.990234 0.062500
vt 0.884766 0.140625
vt 0.904297 0.140625
vt 0.904297 0.179688
vt 0.884766 0.179688
vt 0.703125 0.523438
vt 0.703125 0.539062
vt 0.601562 0.539062
vt 0.601562 0.523438
vt 0.726562 0.539062
vt 0.726562 0.554688
vt 0.828125 0.554688
vt 0.828125 0.539062
vt 0.726562 0.539062
vt 0.726562 0.523438
vt 0.828125 0.523438
vt 0.828125 0.539062
vt 0.726562 0.570312
vt 0.726562 0.554688
vt 0.828125 0.554688
vt 0.828125 0.570312
vt 0.148438 0.187500
vt 0.179688 0.187500
vt 0.179688 0.203125
vt 0.148438 0.203125
vt 0.210938 0.203125
vt 0.210938 0.234375
vt 0.195312 0.234375
vt 0.195312 0.203125
vt 0.226562 0.203125
vt 0.195312 0.203125
vt 0.195312 0.187500
vt 0.226562 0.187500
vt 0.179688 0.234375
vt 0.195312 0.234375
vt 0.148438 0.125000
vt 0.179688 0.128906
vt 0.179688 0.148438
vt 0.148438 0.148438
vt 0.256185 0.148438
vt 0.250065 0.179688
vt 0.226823 0.179688
vt 0.220378 0.148438
vt 0.203125 0.128906
vt 0.203125 0.148438
vt 0.234375 0.148438
vt 0.234375 0.125000
vt 0.181641 0.179688
vt 0.187500 0.148438
vt 0.210938 0.148438
vt 0.216797 0.179688
vt 0.023438 0.244141
vt 0.062500 0.244141
vt 0.062500 0.263672
vt 0.023438 0.263672
vt 0.148438 0.263672
vt 0.125000 0.263672
vt 0.125000 0.244141
vt 0.148438 0.244141
vt 0.107422 0.265625
vt 0.107422 0.304688
vt 0.087891 0.304688
vt 0.087891 0.265625
vt 0.085938 0.244141
vt 0.085938 0.263672
vt 0.064453 0.304688
vt 0.064453 0.265625
vt 0.083984 0.265625
vt 0.083984 0.304688
vt 0.062500 0.148438
vt 0.062500 0.128906
vt 0.085938 0.128906
vt 0.085938 0.148438
vt 0.083984 0.187500
vt 0.064453 0.187500
vt 0.064453 0.148438
vt 0.083984 0.148438
vt 0.023438 0.148438
vt 0.023438 0.128906
vt 0.107422 0.148438
vt 0.107422 0.187500
vt 0.087891 0.187500
vt 0.087891 0.148438
vt 0.125000 0.128906
vt 0.125000 0.148438
vt 0.085938 0.195312
vt 0.085938 0.203125
vt 0.078125 0.203125
vt 0.078125 0.195312
vt 0.085938 0.195312
vt 0.085938 0.203125
vt 0.046875 0.203125
vt 0.046875 0.195312
vt 0.117188 0.195312
vt 0.125000 0.195312
vt 0.125000 0.203125
vt 0.117188 0.203125
vt 0.289062 0.585938
vt 0.289062 0.601562
vt 0.164062 0.601562
vt 0.164062 0.585938
vt 0.023438 0.570312
vt 0.023438 0.554688
vt 0.148438 0.554688
vt 0.148438 0.570312
vt 0.289062 0.585938
vt 0.164062 0.585938
vt 0.164062 0.570312
vt 0.289062 0.570312
vt 0.289062 0.554688
vt 0.289062 0.570312
vt 0.164062 0.570312
vt 0.164062 0.554688
vt 0.164062 0.570312
vt 0.148438 0.570312
vt 0.148438 0.554688
vt 0.164062 0.554688
vt 0.078125 0.578125
vt 0.085938 0.578125
vt 0.085938 0.609375
vt 0.078125 0.609375
vt 0.046875 0.578125
vt 0.046875 0.609375
vt 0.035156 0.609375
vt 0.023438 0.578125
vt 0.054688 0.621094
vt 0.046875 0.621094
vt 0.054688 0.609375
vt 0.054688 0.578125
vt 0.066406 0.609375
vt 0.554688 0.804688
vt 0.554688 0.828125
vt 0.507812 0.828125
vt 0.507812 0.804688
vt 0.601562 0.875000
vt 0.578125 0.875000
vt 0.578125 0.828125
vt 0.601562 0.828125
vt 0.578125 0.828125
vt 0.578125 0.804688
vt 0.625000 0.804688
vt 0.625000 0.828125
vt 0.578125 0.875000
vt 0.554688 0.875000
vt 0.617188 0.703125
vt 0.617188 0.734375
vt 0.585938 0.734375
vt 0.585938 0.703125
vt 0.679688 0.765625
vt 0.648438 0.765625
vt 0.648438 0.734375
vt 0.679688 0.734375
vt 0.710938 0.734375
vt 0.679688 0.734375
vt 0.679688 0.703125
vt 0.710938 0.703125
vt 0.648438 0.734375
vt 0.648438 0.703125
vt 0.648438 0.765625
vt 0.617188 0.765625
vt 0.335938 0.804688
vt 0.367188 0.804688
vt 0.367188 0.820312
vt 0.335938 0.820312
vt 0.398438 0.820312
vt 0.398438 0.851562
vt 0.382812 0.851562
vt 0.382812 0.820312
vt 0.382812 0.804688
vt 0.382812 0.820312
vt 0.414062 0.820312
vt 0.414062 0.804688
vt 0.367188 0.851562
vt 0.382812 0.851562
vt 0.937500 0.617188
vt 0.937500 0.625000
vt 0.898438 0.625000
vt 0.898438 0.617188
vt 0.906250 0.617188
vt 0.898438 0.617188
vt 0.898438 0.523438
vt 0.906250 0.523438
vt 0.859375 0.617188
vt 0.859375 0.523438
vt 0.851562 0.523438
vt 0.851562 0.617188
vt 0.859375 0.625000
vt 0.898438 0.625000
vt 0.945312 0.617188
vt 0.945312 0.523438
vt 0.765625 0.257812
vt 0.781250 0.257812
vt 0.781250 0.273438
vt 0.765625 0.273438
vt 0.765625 0.226562
vt 0.781250 0.226562
vt 0.781250 0.218750
vt 0.781250 0.203125
vt 0.796875 0.203125
vt 0.796875 0.218750
vt 0.796875 0.257812
vt 0.781250 0.257812
vt 0.796875 0.285156
vt 0.781250 0.285156
vt 0.781250 0.222656
vt 0.765625 0.222656
vt 0.765625 0.203125
vt 0.781250 0.203125
vt 0.699219 0.195312
vt 0.695312 0.187500
vt 0.703125 0.175781
vt 0.742188 0.175781
vt 0.761719 0.195312
vt 0.757812 0.203125
vt 0.738281 0.183594
vt 0.707031 0.183594
vt 0.847656 0.195312
vt 0.839844 0.183594
vt 0.808594 0.183594
vt 0.789062 0.203125
vt 0.785156 0.195312
vt 0.804688 0.175781
vt 0.843750 0.175781
vt 0.851562 0.187500
vt 0.734375 0.210938
vt 0.734375 0.222656
vt 0.718750 0.222656
vt 0.718750 0.210938
vt 0.714844 0.222656
vt 0.718750 0.234375
vt 0.699219 0.234375
vt 0.699219 0.210938
vt 0.734375 0.234375
vt 0.738281 0.222656
vt 0.753906 0.210938
vt 0.753906 0.234375
vt 0.453125 0.171875
vt 0.453125 0.203125
vt 0.414062 0.203125
vt 0.414062 0.171875
vt 0.453125 0.203125
vt 0.492188 0.203125
vt 0.492188 0.312500
vt 0.453125 0.312500
vt 0.304688 0.171875
vt 0.304688 0.203125
vt 0.453125 0.312500
vt 0.414062 0.312500
vt 0.601562 0.171875
vt 0.601562 0.203125
vt 0.562500 0.203125
vt 0.562500 0.171875
vt 0.572266 0.671875
vt 0.599609 0.671875
vt 0.599609 0.695312
vt 0.572266 0.695312
vt 0.320312 0.671875
vt 0.429688 0.671875
vt 0.429688 0.695312
vt 0.320312 0.695312
vt 0.570312 0.726562
vt 0.460938 0.726562
vt 0.460938 0.695312
vt 0.570312 0.695312
vt 0.431641 0.671875
vt 0.458984 0.671875
vt 0.458984 0.695312
vt 0.431641 0.695312
vt 0.460938 0.671875
vt 0.570312 0.671875
vt 0.562500 0.789062
vt 0.562500 0.796875
vt 0.546875 0.796875
vt 0.546875 0.789062
vt 0.609375 0.796875
vt 0.593750 0.796875
vt 0.593750 0.789062
vt 0.609375 0.789062
vt 0.578125 0.796875
vt 0.578125 0.789062
vn -1.0000 0.0000 -0.0000
vn 0.0000 -1.0000 0.0000
vn 0.0000 -0.3939 0.9191
vn -0.0000 0.0000 -1.0000
vn -0.0000 -0.3714 -0.9285
vn 0.0000 -0.9899 0.1414
vn 0.0000 -0.9762 -0.2169
vn 0.0000 -0.8000 -0.6000
vn 0.0000 0.0000 1.0000
vn 1.0000 0.0000 -0.0000
vn -0.0000 1.0000 0.0000
vn 0.0000 -0.9762 0.2169
vn 0.0000 -0.5812 0.8137
vn -0.0000 -0.4472 0.8944
vn 0.0000 0.5433 -0.8396
vn 0.0000 -0.8944 -0.4472
vn -0.9829 -0.0000 0.1843
vn 0.0000 -0.9923 0.1240
vn 0.9829 0.0000 0.1843
vn 0.0000 0.3511 -0.9363
vn -0.0000 0.5547 0.8321
vn 0.0000 -0.5547 -0.8321
vn 0.0000 -0.7071 0.7071
vn -0.0000 0.7056 -0.7086
vn 0.0000 0.3550 0.9349
vn 0.0000 -0.3553 0.9348
usemtl MAT_DIFFUSE_CUTOUT
s off
f 21/1/1 20/2/1 22/3/1 23/4/1 4/5/1 3/6/1 2/7/1 1/8/1 19/9/1 24/10/1 15/11/1 14/12/1
f 22/13/2 20/14/2 6/15/2 8/16/2
f 3/17/2 4/18/2 12/19/2 11/20/2
f 19/21/3 1/22/3 9/23/3 5/24/3
f 20/25/4 21/26/4 7/27/4 6/28/4
f 23/29/5 22/30/5 8/31/5 13/32/5
f 1/22/6 2/33/6 10/34/6 9/23/6
f 4/35/7 23/36/7 13/37/7 12/38/7
f 2/39/8 3/40/8 11/41/8 10/42/8
f 14/43/9 15/44/9 17/45/9 16/46/9
f 7/47/10 16/48/10 17/49/10 18/50/10 5/51/10 9/52/10 10/53/10 11/54/10 12/55/10 13/56/10 8/57/10 6/58/10
f 18/59/2 17/60/2 15/61/2 24/62/2
f 21/63/11 14/64/11 16/65/11 7/66/11
f 19/67/12 5/68/12 18/59/12 24/62/12
f 26/69/4 25/70/4 28/71/4 29/72/4
f 25/73/2 26/74/2 32/75/2 27/76/2
f 25/77/1 27/78/1 30/79/1 28/80/1
f 28/81/11 30/82/11 31/83/11 29/84/11
f 27/78/9 32/85/9 31/86/9 30/79/9
f 32/85/10 26/69/10 29/72/10 31/86/10
f 34/87/4 37/88/4 36/89/4 33/90/4
f 33/91/1 36/92/1 38/93/1 35/94/1
f 35/94/9 38/93/9 39/95/9 40/96/9
f 34/87/10 40/96/10 39/95/10 37/88/10
f 42/97/4 41/98/4 44/99/4 45/100/4
f 41/101/1 43/102/1 46/103/1 44/104/1
f 44/105/11 46/103/11 47/106/11 45/107/11
f 43/102/9 48/108/9 47/106/9 46/103/9
f 48/108/10 42/97/10 45/100/10 47/106/10
f 41/109/2 42/110/2 48/111/2 43/112/2
f 49/113/1 51/114/1 57/115/1 58/116/1
f 58/117/13 56/118/13 50/119/13 49/120/13
f 50/119/14 53/121/14 52/122/14 49/120/14
f 52/123/1 51/114/1 49/113/1
f 53/124/10 50/125/10 54/126/10
f 50/125/10 56/127/10 55/128/10 54/126/10
f 51/129/15 54/130/15 55/131/15 57/132/15
f 57/133/16 55/134/16 56/135/16 58/136/16
f 59/137/1 60/138/1 63/139/1 62/140/1
f 61/141/2 59/142/2 62/143/2 64/144/2
f 66/145/10 61/146/10 64/147/10 65/148/10
f 60/149/11 66/150/11 65/151/11 63/152/11
f 67/153/1 70/154/1 71/155/1 68/156/1
f 69/157/2 72/158/2 70/159/2 67/160/2
f 74/161/10 73/162/10 72/163/10 69/164/10
f 68/165/11 71/155/11 73/162/11 74/166/11
f 75/167/17 78/168/17 79/169/17 76/170/17
f 77/171/18 80/172/18 78/173/18 75/174/18
f 79/169/9 78/168/9 80/175/9 81/176/9
f 82/177/19 81/176/19 80/175/19 77/178/19
f 83/179/11 84/180/11 85/181/11 86/182/11
f 87/183/1 90/184/1 91/185/1 88/186/1
f 88/187/4 94/188/4 89/189/4 87/190/4
f 89/191/2 92/192/2 90/193/2 87/194/2
f 91/185/9 90/184/9 92/195/9 93/196/9
f 94/188/10 93/196/10 92/195/10 89/189/10
f 88/197/11 91/198/11 93/199/11 94/200/11
f 95/201/9 98/202/9 99/203/9 96/204/9
f 102/205/11 97/206/11 95/207/11 96/208/11
f 97/209/1 100/210/1 98/202/1 95/201/1
f 101/211/2 99/212/2 98/213/2 100/214/2
f 96/204/10 99/203/10 101/215/10 102/216/10
f 104/217/9 107/218/9 106/219/9 103/220/9
f 103/221/1 106/222/1 108/223/1 105/224/1
f 110/225/4 105/226/4 108/227/4 109/228/4
f 110/225/10 109/228/10 107/218/10 104/217/10
f 112/229/11 111/230/11 114/231/11 115/232/11
f 111/233/1 113/234/1 116/235/1 114/236/1
f 118/237/2 117/238/2 116/239/2 113/240/2
f 118/241/10 112/242/10 115/243/10 117/244/10
f 120/245/9 119/246/9 121/247/9 122/248/9
f 124/249/20 123/250/20 126/251/20 127/252/20
f 125/253/1 128/254/1 126/255/1 123/256/1
f 127/257/11 126/258/11 128/254/11 129/259/11
f 130/260/9 129/259/9 128/254/9 125/253/9
f 130/260/10 124/249/10 127/261/10 129/259/10
f 131/262/1 132/263/1 135/264/1 134/265/1
f 133/266/2 131/267/2 134/268/2 136/269/2
f 138/270/10 133/271/10 136/272/10 137/273/10
f 132/263/11 138/270/11 137/274/11 135/275/11
f 139/276/1 140/277/1 143/278/1 142/279/1
f 141/280/2 139/281/2 142/282/2 144/283/2
f 143/284/4 145/285/4 144/286/4 142/287/4
f 146/288/10 141/289/10 144/286/10 145/285/10
f 140/277/11 146/288/11 145/290/11 143/291/11
f 140/277/9 139/276/9 141/289/9 146/288/9
f 147/292/1 150/293/1 151/294/1 148/295/1
f 149/296/2 152/297/2 150/298/2 147/299/2
f 151/294/9 150/293/9 152/300/9 153/301/9
f 154/302/10 153/301/10 152/300/10 149/303/10
f 148/304/11 151/294/11 153/301/11 154/305/11
f 156/306/2 155/307/2 158/308/2 159/309/2
f 162/310/10 157/311/10 155/312/10 156/313/10
f 160/314/9 158/315/9 155/312/9 157/311/9
f 159/316/1 158/315/1 160/314/1 161/317/1
f 161/318/11 160/314/11 157/311/11 162/319/11
f 161/320/4 162/310/4 156/313/4 159/321/4
f 173/322/21 163/323/21 167/324/21 175/325/21
f 163/323/11 173/322/11 178/326/11 172/327/11
f 164/328/22 174/329/22 166/330/22 165/331/22
f 165/331/2 168/332/2 176/333/2 164/328/2
f 168/332/23 170/334/23 169/335/23 176/333/23
f 172/336/24 178/337/24 177/338/24 171/339/24
f 175/340/1 174/341/1 164/342/1 176/343/1 169/344/1 177/345/1 178/346/1 173/347/1
f 167/348/10 163/349/10 172/350/10 171/351/10 170/352/10 168/353/10 165/354/10 166/355/10
f 180/356/25 184/357/25 182/358/25 179/359/25
f 179/359/1 182/360/1 183/361/1 187/362/1 181/363/1
f 184/357/26 185/364/26 183/361/26 182/358/26
f 185/364/10 184/365/10 180/356/10 188/366/10 186/367/10
f 190/368/9 193/369/9 192/370/9 189/371/9
f 191/372/2 196/373/2 190/374/2 189/375/2
f 191/376/1 189/371/1 192/370/1 194/377/1
f 195/378/11 194/379/11 192/370/11 193/369/11
f 191/380/4 194/381/4 195/382/4 196/383/4
f 196/383/10 195/382/10 193/369/10 190/368/10
f 198/384/4 197/385/4 200/386/4 201/387/4
f 197/388/1 199/389/1 202/390/1 200/391/1
f 200/392/11 202/393/11 203/394/11 201/395/11
f 199/396/9 204/397/9 203/398/9 202/399/9
f 204/400/10 198/401/10 201/395/10 203/394/10
f 205/402/1 206/403/1 209/404/1 208/405/1
f 209/406/4 211/407/4 210/408/4 208/409/4
f 212/410/10 207/411/10 210/408/10 211/407/10
f 206/403/9 205/402/9 207/411/9 212/410/9
