# Blender v2.80 (sub 75) OBJ File: 'crate_mos_eisley.blend'
# www.blender.org
mtllib crate_mos_eisley.mtl
o Cube_Cube.001
v -0.456354 0.043422 -0.179030
v -0.456354 0.928353 -0.179030
v 0.455223 0.043422 -0.179030
v 0.455223 0.928353 -0.179030
v -0.501249 0.454800 -0.024812
v 0.500118 0.454800 -0.024812
v -0.501249 0.454800 -0.117470
v -0.501249 0.188289 -0.163528
v 0.500118 0.188289 -0.163528
v 0.500118 0.454800 -0.117470
v -0.501249 -0.000206 -0.331326
v 0.500118 -0.000206 -0.331326
v -0.501249 -0.000206 -0.163528
v 0.500118 -0.000206 -0.163528
v -0.501249 0.944238 -0.024812
v -0.466419 0.979068 -0.024812
v -0.466419 0.979068 -0.445617
v -0.501249 0.944238 -0.445617
v -0.466419 0.944238 -0.480448
v 0.465288 0.979068 -0.024812
v 0.500118 0.944238 -0.024812
v 0.465288 0.979068 -0.445617
v 0.465288 0.944238 -0.480448
v 0.500118 0.944238 -0.445617
v -0.466419 0.188289 -0.480448
v -0.501249 0.144263 -0.445617
v 0.500118 0.144263 -0.445617
v 0.465288 0.188289 -0.480448
v -0.456354 0.043422 0.179030
v -0.456354 0.928353 0.179030
v 0.455223 0.043422 0.179030
v 0.455223 0.928353 0.179030
v -0.501249 0.454800 0.024812
v 0.500118 0.454800 0.024812
v -0.501249 0.454800 0.117470
v -0.501249 0.188289 0.163528
v 0.500118 0.188289 0.163528
v 0.500118 0.454800 0.117470
v -0.501249 -0.000206 0.331326
v 0.500118 -0.000206 0.331326
v -0.501249 -0.000206 0.163528
v 0.500118 -0.000206 0.163528
v -0.501249 0.944238 0.024812
v -0.466419 0.979068 0.024812
v -0.466419 0.979068 0.445617
v -0.501249 0.944238 0.445617
v -0.466419 0.944238 0.480448
v 0.465288 0.979068 0.024812
v 0.500118 0.944238 0.024812
v 0.465288 0.979068 0.445617
v 0.465288 0.944238 0.480448
v 0.500118 0.944238 0.445617
v -0.466419 0.188289 0.480448
v -0.501249 0.144263 0.445617
v 0.500118 0.144263 0.445617
v 0.465288 0.188289 0.480448
v -0.456354 0.043422 0.000000
v -0.456354 0.928353 0.000000
v 0.455223 0.043422 0.000000
v 0.455223 0.928353 0.000000
vt 0.688275 0.246292
vt 0.688275 0.000000
vt 0.738102 0.000000
vt 0.738102 0.246292
vt 0.590870 0.670449
vt 0.331560 0.670449
vt 0.331560 0.787567
vt 0.590870 0.787567
vt 0.600564 0.205016
vt 0.600564 0.179228
vt 0.321866 0.179228
vt 0.321866 0.205016
vt 0.456365 0.918227
vt 0.369937 0.826898
vt 0.382190 0.905408
vt 0.294357 0.806423
vt 0.158138 0.832212
vt 0.294357 0.923541
vt 0.590870 0.033315
vt 0.590870 0.656740
vt 0.590870 0.446347
vt 0.331560 0.446346
vt 0.331560 0.656740
vt 0.600564 0.280290
vt 0.321866 0.280290
vt 0.321866 0.379453
vt 0.600564 0.379453
vt 0.600564 0.332752
vt 0.321866 0.332752
vt 0.606293 0.826898
vt 0.599438 0.815025
vt 0.592584 0.826898
vt 0.308066 0.923541
vt 0.301212 0.935413
vt 0.294357 0.937250
vt 0.071710 0.923541
vt 0.083964 0.937250
vt 0.382190 0.813188
vt 0.592584 0.813188
vt 0.592584 0.944015
vt 0.606293 0.944015
vt 0.308066 0.806423
vt 0.738102 0.500000
vt 0.738102 0.746292
vt 0.688275 0.746292
vt 0.688275 0.500000
vt 0.688275 1.000000
vt 0.738103 1.000000
vt 0.329729 0.858707
vt 0.329729 0.905408
vt 0.456365 0.944015
vt 0.083964 0.845030
vt 0.031502 0.891731
vt 0.031502 0.845030
vt 0.158138 0.806423
vt 0.600564 0.430722
vt 0.321866 0.430722
vt 0.638448 0.246292
vt 0.638448 0.000000
vt 0.294114 0.142741
vt 0.294114 0.025624
vt 0.034804 0.025624
vt 0.034804 0.142741
vt 0.303807 0.608174
vt 0.025109 0.608174
vt 0.025110 0.633963
vt 0.303807 0.633963
vt 0.918520 0.377358
vt 0.905701 0.303183
vt 0.827191 0.290930
vt 0.822245 0.826142
vt 0.939362 0.826142
vt 0.848033 0.689923
vt 0.294114 0.779876
vt 0.034803 0.779876
vt 0.294114 0.156451
vt 0.034804 0.156450
vt 0.034803 0.366844
vt 0.294114 0.366844
vt 0.303807 0.532900
vt 0.025109 0.532900
vt 0.025109 0.433738
vt 0.025109 0.480439
vt 0.303807 0.480439
vt 0.303807 0.433738
vt 0.827191 0.527286
vt 0.827191 0.513577
vt 0.815318 0.520432
vt 0.939362 0.839851
vt 0.951235 0.832997
vt 0.953072 0.826142
vt 0.953072 0.615749
vt 0.939362 0.603495
vt 0.813481 0.303183
vt 0.813481 0.513577
vt 0.944308 0.513577
vt 0.944308 0.527286
vt 0.822245 0.839851
vt 0.638448 0.500000
vt 0.638448 0.746292
vt 0.638448 1.000000
vt 0.905701 0.250722
vt 0.859000 0.250722
vt 0.944308 0.377358
vt 0.907553 0.563287
vt 0.860852 0.615749
vt 0.860852 0.563287
vt 0.822245 0.689923
vt 0.303807 0.382468
vt 0.025109 0.382468
vt 0.331560 0.033315
vt 0.321867 0.043008
vt 0.600564 0.043009
vt 0.025110 0.770182
vt 0.303807 0.770182
vn -1.0000 0.0000 0.0000
vn 0.0000 1.0000 0.0000
vn 0.0000 -1.0000 0.0000
vn 1.0000 0.0000 0.0000
vn 0.0000 0.0000 1.0000
vn 0.0000 0.0000 -1.0000
vn -0.0000 -0.1703 0.9854
vn 0.0000 -0.6204 -0.7843
vn -0.5773 0.5773 -0.5774
vn 0.5774 0.5773 -0.5774
vn 0.0000 0.7071 -0.7071
vn 0.7071 0.0000 -0.7071
vn -0.7071 0.0000 -0.7071
vn -0.7071 0.7071 0.0000
vn 0.7071 0.7071 0.0000
vn -0.0000 -0.1703 -0.9854
vn 0.0000 -0.6204 0.7843
vn -0.5773 0.5773 0.5774
vn 0.5774 0.5773 0.5774
vn 0.0000 0.7071 0.7071
vn 0.7071 0.0000 0.7071
vn -0.7071 0.0000 0.7071
usemtl MAT_DIFFUSE_CUTOUT
s off
f 57/1/1 58/2/1 2/3/1 1/4/1
f 22/5/2 17/6/2 16/7/2 20/8/2
f 10/9/3 6/10/3 5/11/3 7/12/3
f 7/13/1 26/14/1 8/15/1
f 21/16/4 10/17/4 24/18/4
f 5/11/5 6/10/5 20/19/5
f 23/20/6 28/21/6 25/22/6 19/23/6
f 9/24/7 10/9/7 7/12/7 8/25/7
f 11/26/3 12/27/3 14/28/3 13/29/3
f 12/27/8 11/26/8 25/22/8
f 8/25/5 13/29/5 14/28/5 9/24/5
f 17/30/9 19/31/9 18/32/9
f 22/33/10 24/18/10 23/34/10
f 19/23/11 17/6/11 22/5/11 23/20/11
f 23/35/12 24/18/12 27/36/12 28/37/12
f 25/38/13 26/14/13 18/32/13 19/39/13
f 15/40/14 16/41/14 17/30/14 18/32/14
f 24/18/15 22/33/15 20/42/15 21/16/15
f 3/43/4 4/44/4 60/45/4 59/46/4
f 1/4/3 3/43/3 59/46/3 57/1/3
f 58/47/2 60/45/2 4/44/2 2/48/2
f 8/15/1 11/49/1 13/50/1
f 11/49/1 8/15/1 26/14/1
f 26/14/1 7/13/1 18/32/1
f 18/32/1 7/13/1 15/40/1
f 15/40/1 7/13/1 5/51/1
f 24/18/4 10/17/4 27/36/4
f 27/36/4 9/52/4 12/53/4
f 10/17/4 9/52/4 27/36/4
f 12/53/4 9/52/4 14/54/4
f 10/17/4 21/16/4 6/55/4
f 12/27/8 28/21/8 27/56/8
f 28/21/8 12/27/8 25/22/8
f 25/22/8 11/26/8 26/57/8
f 57/1/1 29/58/1 30/59/1 58/2/1
f 50/60/2 48/61/2 44/62/2 45/63/2
f 38/64/3 35/65/3 33/66/3 34/67/3
f 35/68/1 36/69/1 54/70/1
f 49/71/4 52/72/4 38/73/4
f 48/74/6 33/66/6 44/75/6
f 51/76/5 47/77/5 53/78/5 56/79/5
f 37/80/16 36/81/16 35/65/16 38/64/16
f 39/82/3 41/83/3 42/84/3 40/85/3
f 40/85/17 53/78/17 39/82/17
f 36/81/6 37/80/6 42/84/6 41/83/6
f 45/86/18 46/87/18 47/88/18
f 50/89/19 51/90/19 52/72/19
f 47/77/20 51/76/20 50/60/20 45/63/20
f 51/91/21 56/92/21 55/93/21 52/72/21
f 53/94/22 47/95/22 46/87/22 54/70/22
f 43/96/14 46/87/14 45/86/14 44/97/14
f 52/72/15 49/71/15 48/98/15 50/89/15
f 31/99/4 59/46/4 60/45/4 32/100/4
f 29/58/3 57/1/3 59/46/3 31/99/3
f 58/47/2 30/101/2 32/100/2 60/45/2
f 36/69/1 41/102/1 39/103/1
f 39/103/1 54/70/1 36/69/1
f 54/70/1 46/87/1 35/68/1
f 46/87/1 43/96/1 35/68/1
f 43/96/1 33/104/1 35/68/1
f 52/72/4 55/93/4 38/73/4
f 55/93/4 40/105/4 37/106/4
f 38/73/4 55/93/4 37/106/4
f 40/105/4 42/107/4 37/106/4
f 38/73/4 34/108/4 49/71/4
f 40/85/17 55/109/17 56/79/17
f 56/79/17 53/78/17 40/85/17
f 53/78/17 54/110/17 39/82/17
f 5/11/5 16/111/5 15/112/5
f 16/111/5 5/11/5 20/19/5
f 20/19/5 6/10/5 21/113/5
f 44/75/6 33/66/6 43/114/6
f 33/66/6 48/74/6 34/67/6
f 34/67/6 48/74/6 49/115/6
