# Blender v2.81 (sub 16) OBJ File: 'r5d4.blend'
# www.blender.org
o arm.l_Cube.075
v 8.049999 0.070075 -1.463849
v 8.049999 0.727860 -1.224435
v 8.049999 0.138479 -1.651787
v 8.049999 0.796264 -1.412373
v 8.250000 0.070075 -1.463849
v 8.250000 0.727860 -1.224435
v 8.250000 0.138479 -1.651787
v 8.250000 0.796264 -1.412373
vt 0.566667 0.600000
vt 0.566667 0.775000
vt 0.533333 0.775000
vt 0.533333 0.600000
vt 0.666667 0.600000
vt 0.666667 0.775000
vt 0.633333 0.775000
vt 0.633333 0.600000
vt 0.600000 0.775000
vt 0.600000 0.600000
vt 0.600000 0.775000
vt 0.633333 0.775000
vt 0.633333 0.825000
vt 0.600000 0.825000
vt 0.600000 0.825000
vt 0.566667 0.825000
vn -1.0000 0.0000 0.0000
vn 0.0000 0.3420 -0.9397
vn 1.0000 0.0000 0.0000
vn 0.0000 -0.3420 0.9397
vn 0.0000 -0.9397 -0.3420
vn 0.0000 0.9397 0.3420
s off
f 1/1/1 2/2/1 4/3/1 3/4/1
f 3/5/2 4/6/2 8/7/2 7/8/2
f 7/8/3 8/7/3 6/9/3 5/10/3
f 5/10/4 6/9/4 2/2/4 1/1/4
f 3/11/5 7/12/5 5/13/5 1/14/5
f 8/15/6 4/16/6 2/2/6 6/9/6
o body_Cube.076
v 7.400000 0.552876 -0.732997
v 7.400000 1.304630 -1.006613
v 7.400000 0.313462 -1.390781
v 7.400000 1.065216 -1.664397
v 8.100000 0.552876 -0.732997
v 8.100000 1.304630 -1.006613
v 8.100000 0.313462 -1.390781
v 8.100000 1.065216 -1.664397
vt 0.116667 0.150000
vt 0.116667 0.350000
vt 0.000000 0.350000
vt 0.000000 0.150000
vt 0.466667 0.150000
vt 0.466667 0.350000
vt 0.350000 0.350000
vt 0.350000 0.150000
vt 0.233333 0.350000
vt 0.233333 0.150000
vt 0.233333 0.350000
vt 0.350000 0.350000
vt 0.350000 0.525000
vt 0.233333 0.525000
vt 0.233333 0.525000
vt 0.116667 0.525000
vn -1.0000 0.0000 0.0000
vn 0.0000 -0.3420 -0.9397
vn 1.0000 -0.0000 0.0000
vn 0.0000 0.3420 0.9397
vn 0.0000 -0.9397 0.3420
vn 0.0000 0.9397 -0.3420
s off
f 9/17/7 10/18/7 12/19/7 11/20/7
f 11/21/8 12/22/8 16/23/8 15/24/8
f 15/24/9 16/23/9 14/25/9 13/26/9
f 13/26/10 14/25/10 10/18/10 9/17/10
f 11/27/11 15/28/11 13/29/11 9/30/11
f 16/31/12 12/32/12 10/18/12 14/25/12
o shoulder.l_Cube.077
v 8.050000 0.710758 -1.177450
v 8.050000 1.086636 -1.040642
v 8.050000 0.813364 -1.459358
v 8.050000 1.189242 -1.322550
v 8.249999 0.710758 -1.177450
v 8.249999 1.086636 -1.040642
v 8.249999 0.813364 -1.459358
v 8.249999 1.189242 -1.322550
vt 0.566667 0.825000
vt 0.566667 0.925000
vt 0.516667 0.925000
vt 0.516667 0.825000
vt 0.683333 0.825000
vt 0.683333 0.925000
vt 0.650000 0.925000
vt 0.650000 0.825000
vt 0.600000 0.925000
vt 0.600000 0.825000
vt 0.600000 0.925000
vt 0.633333 0.925000
vt 0.633333 1.000000
vt 0.600000 1.000000
vt 0.600000 1.000000
vt 0.566667 1.000000
vn -1.0000 0.0000 0.0000
vn 0.0000 0.3420 -0.9397
vn 1.0000 0.0000 0.0000
vn 0.0000 -0.3420 0.9397
vn 0.0000 -0.9397 -0.3420
vn 0.0000 0.9397 0.3420
s off
f 17/33/13 18/34/13 20/35/13 19/36/13
f 19/37/14 20/38/14 24/39/14 23/40/14
f 23/40/15 24/39/15 22/41/15 21/42/15
f 21/42/16 22/41/16 18/34/16 17/33/16
f 19/43/17 23/44/17 21/45/17 17/46/17
f 24/47/18 20/48/18 18/34/18 22/41/18
o foot.l_Cube.079
v 8.000000 0.000000 -1.300000
v 8.000000 0.200000 -1.400000
v 8.000000 0.000000 -1.800000
v 8.000000 0.200000 -1.700000
v 8.299999 0.000000 -1.300000
v 8.299999 0.200000 -1.400000
v 8.299999 0.000000 -1.800000
v 8.299999 0.200000 -1.700000
vt 0.550000 0.425000
vt 0.533333 0.475000
vt 0.483333 0.475000
vt 0.466667 0.425000
vt 0.733333 0.425000
vt 0.733333 0.475000
vt 0.683333 0.475000
vt 0.683333 0.425000
vt 0.666667 0.475000
vt 0.616667 0.475000
vt 0.600000 0.425000
vt 0.600000 0.475000
vt 0.550000 0.475000
vt 0.600000 0.475000
vt 0.650000 0.475000
vt 0.650000 0.575000
vt 0.600000 0.575000
vt 0.600000 0.550000
vt 0.550000 0.550000
vn -1.0000 -0.0000 0.0000
vn 0.0000 0.4472 -0.8944
vn 1.0000 0.0000 0.0000
vn 0.0000 0.4472 0.8944
vn 0.0000 -1.0000 0.0000
vn 0.0000 1.0000 0.0000
s off
f 25/49/19 26/50/19 28/51/19 27/52/19
f 27/53/20 28/54/20 32/55/20 31/56/20
f 31/56/21 32/57/21 30/58/21 29/59/21
f 29/59/22 30/60/22 26/61/22 25/49/22
f 27/62/23 31/63/23 29/64/23 25/65/23
f 32/66/24 28/67/24 26/61/24 30/60/24
o head_Cube.081
v 7.400000 1.351614 -1.023714
v 7.500000 1.693289 -1.254491
v 7.400000 1.112200 -1.681499
v 7.500000 1.522279 -1.724337
v 8.100000 1.351614 -1.023714
v 8.000000 1.693289 -1.254491
v 8.100000 1.112200 -1.681499
v 8.000000 1.522279 -1.724337
vt 0.116667 0.725000
vt 0.100000 0.825000
vt 0.016667 0.825000
vt -0.000000 0.725000
vt 0.466667 0.725000
vt 0.450000 0.825000
vt 0.366667 0.825000
vt 0.350000 0.725000
vt 0.233333 0.725000
vt 0.216667 0.825000
vt 0.133333 0.825000
vt 0.233333 0.825000
vt 0.350000 0.825000
vt 0.350000 1.000000
vt 0.233333 1.000000
vt 0.216667 0.950000
vt 0.133333 0.950000
vt 0.333333 0.825000
vt 0.250000 0.825000
vn -0.9701 0.2279 -0.0830
vn 0.0000 -0.1039 -0.9946
vn 0.0000 0.5597 0.8287
vn 0.0000 -0.9397 0.3420
vn 0.0000 0.9397 -0.3420
vn 0.9701 0.2279 -0.0830
s off
f 33/68/25 34/69/25 36/70/25 35/71/25
f 35/72/26 36/73/26 40/74/26 39/75/26
f 37/76/27 38/77/27 34/78/27 33/68/27
f 35/79/28 39/80/28 37/81/28 33/82/28
f 40/83/29 36/84/29 34/78/29 38/77/29
f 40/85/30 38/86/30 37/76/30 39/75/30
o minecraft_bloick.063_Cube.083
v 7.500000 0.424705 -0.792764
v 7.500000 0.518674 -0.826966
v 7.500000 0.253695 -1.262610
v 7.500000 0.347664 -1.296812
v 8.000000 0.424705 -0.792764
v 8.000000 0.518674 -0.826966
v 8.000000 0.253695 -1.262610
v 8.000000 0.347664 -1.296812
vt 0.150000 0.000000
vt 0.150000 0.025000
vt 0.066667 0.025000
vt 0.066667 0.000000
vt 0.400000 0.025000
vt 0.400000 0.000000
vt 0.316667 0.000000
vt 0.316667 0.025000
vt 0.233333 0.000000
vt 0.233333 0.025000
vt 0.233333 -0.000000
vt 0.233333 0.025000
vt 0.233333 0.025000
vt 0.316667 0.150000
vt 0.233333 0.150000
vt 0.233333 0.150000
vt 0.150000 0.150000
vn -1.0000 -0.0000 0.0000
vn 0.0000 -0.3420 -0.9397
vn 1.0000 0.0000 0.0000
vn 0.0000 0.3420 0.9397
vn 0.0000 -0.9397 0.3420
vn 0.0000 0.9397 -0.3420
s off
f 41/87/31 42/88/31 44/89/31 43/90/31
f 43/91/32 44/92/32 48/93/32 47/94/32
f 47/94/33 48/93/33 46/95/33 45/96/33
f 45/97/34 46/98/34 42/88/34 41/87/34
f 43/99/35 47/94/35 45/100/35 41/101/35
f 48/102/36 44/103/36 42/88/36 46/98/36
o foot.m_Cube.084
v 7.600000 0.000000 -0.750000
v 7.600000 0.200000 -0.850000
v 7.600000 0.000000 -1.150000
v 7.600000 0.200000 -1.050000
v 7.900000 0.000000 -0.750000
v 7.900000 0.200000 -0.850000
v 7.900000 0.000000 -1.150000
v 7.900000 0.200000 -1.050000
vt 0.550000 0.100000
vt 0.533333 0.150000
vt 0.500000 0.150000
vt 0.483333 0.100000
vt 0.716667 0.100000
vt 0.716667 0.150000
vt 0.666667 0.150000
vt 0.666667 0.100000
vt 0.650000 0.150000
vt 0.616667 0.150000
vt 0.600000 0.100000
vt 0.600000 0.150000
vt 0.550000 0.150000
vt 0.600000 0.150000
vt 0.650000 0.150000
vt 0.650000 0.250000
vt 0.600000 0.250000
vt 0.600000 0.200000
vt 0.550000 0.200000
vn -1.0000 0.0000 0.0000
vn 0.0000 0.4472 -0.8944
vn 1.0000 0.0000 0.0000
vn 0.0000 0.4472 0.8944
vn 0.0000 -1.0000 0.0000
vn 0.0000 1.0000 0.0000
s off
f 49/104/37 50/105/37 52/106/37 51/107/37
f 51/108/38 52/109/38 56/110/38 55/111/38
f 55/111/39 56/112/39 54/113/39 53/114/39
f 53/114/40 54/115/40 50/116/40 49/104/40
f 51/117/41 55/118/41 53/119/41 49/120/41
f 56/121/42 52/122/42 50/116/42 54/115/42
o arm.m_Cube.085
v 7.650000 0.129163 -0.884611
v 7.650000 0.505040 -1.021419
v 7.650000 0.094961 -0.978581
v 7.650000 0.470838 -1.115389
v 7.850000 0.129163 -0.884611
v 7.850000 0.505040 -1.021419
v 7.850000 0.094961 -0.978581
v 7.850000 0.470838 -1.115389
vt 0.566667 0.250000
vt 0.566667 0.350000
vt 0.550000 0.350000
vt 0.550000 0.250000
vt 0.650000 0.250000
vt 0.650000 0.350000
vt 0.616667 0.350000
vt 0.616667 0.250000
vt 0.600000 0.350000
vt 0.600000 0.250000
vt 0.600000 0.350000
vt 0.633333 0.350000
vt 0.633333 0.375000
vt 0.600000 0.375000
vt 0.600000 0.375000
vt 0.566667 0.375000
vn -1.0000 0.0000 0.0000
vn 0.0000 -0.3420 -0.9397
vn 1.0000 0.0000 0.0000
vn 0.0000 0.3420 0.9397
vn 0.0000 -0.9397 0.3420
vn 0.0000 0.9397 -0.3420
s off
f 57/123/43 58/124/43 60/125/43 59/126/43
f 59/127/44 60/128/44 64/129/44 63/130/44
f 63/130/45 64/129/45 62/131/45 61/132/45
f 61/132/46 62/131/46 58/124/46 57/123/46
f 59/133/47 63/134/47 61/135/47 57/136/47
f 64/137/48 60/138/48 58/124/48 62/131/48
o eye.l_Cube.086
v 7.550000 1.559034 -1.091585
v 7.550000 1.645637 -1.141585
v 7.550000 1.509035 -1.178188
v 7.550000 1.595637 -1.228188
v 7.650001 1.559034 -1.091585
v 7.650001 1.645637 -1.141585
v 7.650001 1.509035 -1.178188
v 7.650001 1.595637 -1.228188
vt 0.766667 0.275000
vt 0.783333 0.275000
vt 0.783333 0.300000
vt 0.766667 0.300000
vt 0.816667 0.275000
vt 0.833333 0.275000
vt 0.833333 0.300000
vt 0.816667 0.300000
vt 0.800000 0.275000
vt 0.816667 0.275000
vt 0.816667 0.300000
vt 0.800000 0.300000
vt 0.783333 0.275000
vt 0.800000 0.275000
vt 0.800000 0.300000
vt 0.783333 0.300000
vt 0.783333 0.275000
vt 0.800000 0.275000
vt 0.783333 0.275000
vt 0.783333 0.300000
vt 0.800000 0.300000
vt 0.800000 0.325000
vt 0.783333 0.325000
vn -1.0000 0.0000 0.0000
vn 0.0000 -0.5000 -0.8660
vn 1.0000 0.0000 0.0000
vn 0.0000 0.5000 0.8660
vn 0.0000 -0.8660 0.5000
vn 0.0000 0.8660 -0.5000
s off
f 65/139/49 66/140/49 68/141/49 67/142/49
f 67/143/50 68/144/50 72/145/50 71/146/50
f 71/147/51 72/148/51 70/149/51 69/150/51
f 69/151/52 70/152/52 66/153/52 65/154/52
f 67/155/53 71/147/53 69/156/53 65/157/53
f 72/158/54 68/159/54 66/160/54 70/161/54
o neck_Cube.090
v 7.450000 1.287529 -1.053597
v 7.450000 1.381498 -1.087799
v 7.450000 1.082317 -1.617413
v 7.450000 1.176286 -1.651615
v 8.050000 1.287529 -1.053597
v 8.050000 1.381498 -1.087799
v 8.050000 1.082317 -1.617413
v 8.050000 1.176286 -1.651615
vt 0.116667 0.525000
vt 0.116667 0.550000
vt -0.000000 0.550000
vt -0.000000 0.525000
vt 0.466667 0.525000
vt 0.466667 0.550000
vt 0.350000 0.550000
vt 0.350000 0.525000
vt 0.233333 0.550000
vt 0.233333 0.525000
vt 0.233333 0.550000
vt 0.350000 0.550000
vt 0.350000 0.725000
vt 0.233333 0.725000
vt 0.233333 0.725000
vt 0.116667 0.725000
vn -1.0000 0.0000 0.0000
vn 0.0000 -0.3420 -0.9397
vn 1.0000 -0.0000 0.0000
vn 0.0000 0.3420 0.9397
vn 0.0000 -0.9397 0.3420
vn 0.0000 0.9397 -0.3420
s off
f 73/162/55 74/163/55 76/164/55 75/165/55
f 75/166/56 76/167/56 80/168/56 79/169/56
f 79/169/57 80/168/57 78/170/57 77/171/57
f 77/171/58 78/170/58 74/163/58 73/162/58
f 75/172/59 79/173/59 77/174/59 73/175/59
f 80/176/60 76/177/60 74/163/60 78/170/60
o eye.m_Cube.091
v 7.700000 1.559034 -1.091585
v 7.700000 1.645637 -1.141585
v 7.700000 1.509035 -1.178188
v 7.700000 1.595637 -1.228188
v 7.800000 1.559034 -1.091585
v 7.800000 1.645637 -1.141585
v 7.800000 1.509035 -1.178188
v 7.800000 1.595637 -1.228188
vt 0.850000 0.300000
vt 0.833333 0.300000
vt 0.833333 0.275000
vt 0.850000 0.275000
vt 0.883333 0.275000
vt 0.900000 0.275000
vt 0.900000 0.300000
vt 0.883333 0.300000
vt 0.866667 0.275000
vt 0.883333 0.275000
vt 0.883333 0.300000
vt 0.866667 0.300000
vt 0.850000 0.275000
vt 0.866667 0.275000
vt 0.866667 0.300000
vt 0.866667 0.275000
vt 0.850000 0.275000
vt 0.850000 0.300000
vt 0.866667 0.300000
vt 0.866667 0.325000
vt 0.850000 0.325000
vn -1.0000 0.0000 0.0000
vn 0.0000 -0.5000 -0.8660
vn 1.0000 0.0000 0.0000
vn 0.0000 0.5000 0.8660
vn 0.0000 -0.8660 0.5000
vn 0.0000 0.8660 -0.5000
s off
f 81/178/61 82/179/61 84/180/61 83/181/61
f 83/182/62 84/183/62 88/184/62 87/185/62
f 87/186/63 88/187/63 86/188/63 85/189/63
f 85/190/64 86/191/64 82/192/64 81/178/64
f 83/181/65 87/186/65 85/193/65 81/194/65
f 88/195/66 84/196/66 82/197/66 86/198/66
o eye.r_Cube.092
v 7.849999 1.559034 -1.091585
v 7.849999 1.645637 -1.141585
v 7.849999 1.509035 -1.178188
v 7.849999 1.595637 -1.228188
v 7.950000 1.559034 -1.091585
v 7.950000 1.645637 -1.141585
v 7.950000 1.509035 -1.178188
v 7.950000 1.595637 -1.228188
vt 0.900000 0.275000
vt 0.916667 0.275000
vt 0.916667 0.300000
vt 0.900000 0.300000
vt 0.950000 0.275000
vt 0.966667 0.275000
vt 0.966667 0.300000
vt 0.950000 0.300000
vt 0.933333 0.300000
vt 0.933333 0.275000
vt 0.950000 0.275000
vt 0.916667 0.275000
vt 0.933333 0.300000
vt 0.916667 0.300000
vt 0.916667 0.275000
vt 0.933333 0.275000
vt 0.933333 0.275000
vt 0.916667 0.275000
vt 0.916667 0.300000
vt 0.933333 0.300000
vt 0.933333 0.325000
vt 0.916667 0.325000
vn -1.0000 0.0000 0.0000
vn 0.0000 -0.5000 -0.8660
vn 1.0000 -0.0000 0.0000
vn 0.0000 0.5000 0.8660
vn 0.0000 -0.8660 0.5000
vn 0.0000 0.8660 -0.5000
s off
f 89/199/67 90/200/67 92/201/67 91/202/67
f 91/203/68 92/204/68 96/205/68 95/206/68
f 95/206/69 96/207/69 94/208/69 93/209/69
f 93/210/70 94/208/70 90/211/70 89/212/70
f 91/213/71 95/214/71 93/215/71 89/216/71
f 96/217/72 92/218/72 90/219/72 94/220/72
o antenna_Cube.093
v 7.500000 1.543700 -1.519298
v 7.500000 1.731638 -1.587702
v 7.500000 1.509498 -1.613267
v 7.500000 1.697436 -1.681671
v 7.600000 1.543700 -1.519298
v 7.600000 1.731638 -1.587702
v 7.600000 1.509498 -1.613267
v 7.600000 1.697436 -1.681671
vt 0.833333 0.100000
vt 0.833333 0.150000
vt 0.850000 0.150000
vt 0.850000 0.100000
vt 0.883333 0.100000
vt 0.883333 0.150000
vt 0.900000 0.150000
vt 0.900000 0.100000
vt 0.866667 0.100000
vt 0.866667 0.150000
vt 0.883333 0.150000
vt 0.883333 0.100000
vt 0.850000 0.100000
vt 0.850000 0.150000
vt 0.866667 0.150000
vt 0.866667 0.100000
vt 0.866667 0.075000
vt 0.850000 0.075000
vt 0.850000 0.175000
vt 0.866667 0.175000
vn -1.0000 0.0000 0.0000
vn 0.0000 -0.3420 -0.9397
vn 1.0000 0.0000 0.0000
vn 0.0000 0.3420 0.9397
vn 0.0000 -0.9397 0.3420
vn 0.0000 0.9397 -0.3420
s off
f 97/221/73 98/222/73 100/223/73 99/224/73
f 99/225/74 100/226/74 104/227/74 103/228/74
f 103/229/75 104/230/75 102/231/75 101/232/75
f 101/233/76 102/234/76 98/235/76 97/236/76
f 99/224/77 103/229/77 101/237/77 97/238/77
f 104/230/78 100/223/78 98/239/78 102/240/78
o arm.r_Cube.062
v 7.250000 0.070075 -1.463849
v 7.250000 0.727860 -1.224435
v 7.250000 0.138479 -1.651787
v 7.250000 0.796264 -1.412373
v 7.449999 0.070075 -1.463849
v 7.449999 0.727860 -1.224435
v 7.449999 0.138479 -1.651787
v 7.449999 0.796264 -1.412373
vt 0.816667 0.600000
vt 0.816667 0.775000
vt 0.783333 0.775000
vt 0.783333 0.600000
vt 0.916667 0.600000
vt 0.916667 0.775000
vt 0.883333 0.775000
vt 0.883333 0.600000
vt 0.850000 0.775000
vt 0.850000 0.600000
vt 0.850000 0.775000
vt 0.883333 0.775000
vt 0.883333 0.825000
vt 0.850000 0.825000
vt 0.850000 0.825000
vt 0.816667 0.825000
vn -1.0000 0.0000 0.0000
vn 0.0000 0.3420 -0.9397
vn 1.0000 0.0000 0.0000
vn 0.0000 -0.3420 0.9397
vn 0.0000 -0.9397 -0.3420
vn 0.0000 0.9397 0.3420
s off
f 105/241/79 106/242/79 108/243/79 107/244/79
f 107/245/80 108/246/80 112/247/80 111/248/80
f 111/248/81 112/247/81 110/249/81 109/250/81
f 109/250/82 110/249/82 106/242/82 105/241/82
f 107/251/83 111/252/83 109/253/83 105/254/83
f 112/255/84 108/256/84 106/242/84 110/249/84
o shoulder.r_Cube.063
v 7.250000 0.710758 -1.177450
v 7.250000 1.086636 -1.040642
v 7.250000 0.813364 -1.459358
v 7.250000 1.189242 -1.322550
v 7.449999 0.710758 -1.177450
v 7.449999 1.086636 -1.040642
v 7.449999 0.813364 -1.459358
v 7.449999 1.189242 -1.322550
vt 0.816667 0.825000
vt 0.816667 0.925000
vt 0.766667 0.925000
vt 0.766667 0.825000
vt 0.933333 0.825000
vt 0.933333 0.925000
vt 0.900000 0.925000
vt 0.900000 0.825000
vt 0.850000 0.925000
vt 0.850000 0.825000
vt 0.850000 0.925000
vt 0.883333 0.925000
vt 0.883333 1.000000
vt 0.850000 1.000000
vt 0.850000 1.000000
vt 0.816667 1.000000
vn -1.0000 -0.0000 0.0000
vn 0.0000 0.3420 -0.9397
vn 1.0000 0.0000 0.0000
vn 0.0000 -0.3420 0.9397
vn 0.0000 -0.9397 -0.3420
vn 0.0000 0.9397 0.3420
s off
f 113/257/85 114/258/85 116/259/85 115/260/85
f 115/261/86 116/262/86 120/263/86 119/264/86
f 119/264/87 120/263/87 118/265/87 117/266/87
f 117/266/88 118/265/88 114/258/88 113/257/88
f 115/267/89 119/268/89 117/269/89 113/270/89
f 120/271/90 116/272/90 114/258/90 118/265/90
o foot.r_Cube.103
v 7.199999 0.000000 -1.300000
v 7.199999 0.200000 -1.400000
v 7.199999 0.000000 -1.800000
v 7.199999 0.200000 -1.700000
v 7.500000 0.000000 -1.300000
v 7.500000 0.200000 -1.400000
v 7.500000 0.000000 -1.800000
v 7.500000 0.200000 -1.700000
vt 0.816667 0.425000
vt 0.800000 0.475000
vt 0.750000 0.475000
vt 0.733333 0.425000
vt 1.000000 0.425000
vt 1.000000 0.475000
vt 0.950000 0.475000
vt 0.950000 0.425000
vt 0.933333 0.475000
vt 0.883333 0.475000
vt 0.866667 0.425000
vt 0.866667 0.475000
vt 0.816667 0.475000
vt 0.866667 0.475000
vt 0.916667 0.475000
vt 0.916667 0.575000
vt 0.866667 0.575000
vt 0.866667 0.550000
vt 0.816667 0.550000
vn -1.0000 -0.0000 0.0000
vn 0.0000 0.4472 -0.8944
vn 1.0000 -0.0000 0.0000
vn 0.0000 0.4472 0.8944
vn 0.0000 -1.0000 0.0000
vn 0.0000 1.0000 0.0000
s off
f 121/273/91 122/274/91 124/275/91 123/276/91
f 123/277/92 124/278/92 128/279/92 127/280/92
f 127/280/93 128/281/93 126/282/93 125/283/93
f 125/283/94 126/284/94 122/285/94 121/273/94
f 123/286/95 127/287/95 125/288/95 121/289/95
f 128/290/96 124/291/96 122/285/96 126/284/96
