<svg xmlns="http://www.w3.org/2000/svg" width="72" height="72"><g fill="#fff"><path d="M41.519 42.6v-6.9l10.68-1.859v17.04l-15.12 2.64c-3.66.66-7.02.6-10.02-.18s-5.34-2.34-7.08-4.68c-1.74-2.34-2.58-5.4-2.58-9.18a17.82 17.82 0 0 1 5.82-13.38c1.8-1.74 3.96-3.12 6.3-4.2 2.4-1.2 4.92-1.92 7.56-2.4l15.12-2.7v10.2l-10.68 1.8c-2.4.48-4.2.84-5.28 1.2-1.2.36-2.22.78-3.06 1.2-.9.54-1.74 1.2-2.4 2.16-.72.96-1.08 2.46-1.2 4.56.06 2.04.48 3.36 1.2 4.14a4.2 4.2 0 0 0 2.64 1.2c1.02.12 2.1.12 3.18 0 1.14 0 2.76-.24 4.92-.6"/><path d="M102 34c0-4.8-3.8-9.3-8.5-10.1L26.5 12c-4.7-.8-8.6 2.3-8.6 7v67c0 4.8 3.9 9.3 8.6 10.1l67 11.9c4.7.8 8.6-2.3 8.6-7zm-8.5 80.9-67-11.9a19.2 19.2 0 0 1-15.4-18.2v-67C11 9.3 18 3.6 26.5 5.1l67 11.9a19.2 19.2 0 0 1 15.4 18.2v67c0 8.5-6.9 14.2-15.4 12.7" style="display:inline" transform="matrix(.6 0 0 -.6 0 72)"/></g></svg>