<svg xmlns="http://www.w3.org/2000/svg" viewBox="0 0 160 160"><defs><clipPath id="a"><path d="M0 120h120V0H0z"/></clipPath></defs><path fill="#0d0d0d" d="M0 160h160V0H0z"/><g clip-path="url(#a)" transform="matrix(1.3333 0 0 -1.3333 0 160)"><path fill="#ffd400" d="M69.2 49v11.5L87 63.6V35.2l-25.2-4.4c-6.1-1.1-11.7-1-16.7.3s-8.9 3.9-11.8 7.8-4.3 9-4.3 15.3a29.7 29.7 0 0 0 9.7 22.3c3 2.9 6.6 5.2 10.5 7 4 2 8.2 3.2 12.6 4L87 92V75l-17.8-3c-4-.8-7-1.4-8.8-2-2-.6-3.7-1.3-5.1-2-1.5-.9-2.9-2-4-3.6-1.2-1.6-1.8-4.1-2-7.6.1-3.4.8-5.6 2-6.9a7 7 0 0 1 4.4-2c1.7-.2 3.5-.2 5.3 0 1.9 0 4.6.4 8.2 1"/><path fill="#ffd400" d="M102 34c0-4.8-3.8-9.3-8.5-10.1L26.5 12c-4.7-.8-8.6 2.3-8.6 7v67c0 4.8 3.9 9.3 8.6 10.1l67 11.9c4.7.8 8.6-2.3 8.6-7zm-8.5 80.9-67-11.9a19.2 19.2 0 0 1-15.4-18.2v-67C11 9.3 18 3.6 26.5 5.1l67 11.9a19.2 19.2 0 0 1 15.4 18.2v67c0 8.5-6.9 14.2-15.4 12.7"/></g></svg>
