# Blender v2.80 (sub 75) OBJ File: 'large_square_pipes.blend'
# www.blender.org
mtllib square_pipe.mtl
o NODE_CENTER
v -0.375000 0.125000 0.375000
v -0.375000 0.875000 0.375000
v -0.375000 0.125000 -0.375000
v -0.375000 0.875000 -0.375000
v 0.375000 0.125000 0.375000
v 0.375000 0.875000 0.375000
v 0.375000 0.125000 -0.375000
v 0.375000 0.875000 -0.375000
vt 0.562500 0.937500
vt 0.562500 0.562500
vt 0.937500 0.562500
vt 0.937500 0.937500
vt 0.562500 0.937500
vt 0.562500 0.562500
vt 0.937500 0.562500
vt 0.937500 0.937500
vt 0.562500 0.937500
vt 0.562500 0.562500
vt 0.937500 0.562500
vt 0.937500 0.937500
vt 0.562500 0.937500
vt 0.562500 0.562500
vt 0.937500 0.562500
vt 0.937500 0.937500
vt 0.937500 0.562500
vt 0.562500 0.562500
vt 0.937500 0.937500
vt 0.562500 0.937500
vn -1.0000 0.0000 0.0000
vn 0.0000 0.0000 -1.0000
vn 1.0000 0.0000 0.0000
vn 0.0000 0.0000 1.0000
vn 0.0000 -1.0000 0.0000
vn 0.0000 1.0000 0.0000
usemtl MAT_DIFFUSE_CUTOUT
s off
f 1/1/1 2/2/1 4/3/1 3/4/1
f 3/5/2 4/6/2 8/7/2 7/8/2
f 7/9/3 8/10/3 6/11/3 5/12/3
f 5/13/4 6/14/4 2/15/4 1/16/4
f 3/17/5 7/8/5 5/13/5 1/18/5
f 8/10/6 4/3/6 2/19/6 6/20/6
o NODE_NY
v -0.375000 0.125000 0.500000
v -0.375000 0.875000 0.500000
v -0.375000 0.125000 0.375000
v -0.375000 0.875000 0.375000
v 0.375000 0.125000 0.500000
v 0.375000 0.875000 0.500000
v 0.375000 0.125000 0.375000
v 0.375000 0.875000 0.375000
vt 0.437500 0.562500
vt 0.062500 0.562500
vt 0.062500 0.500000
vt 0.437500 0.500000
vt 0.437500 1.000000
vt 0.062500 1.000000
vt 0.062500 0.937500
vt 0.437500 0.937500
vt 0.500000 0.562500
vt 0.500000 0.937500
vt 0.000000 0.937500
vt 0.000000 0.562500
vn -1.0000 0.0000 0.0000
vn 1.0000 0.0000 0.0000
vn 0.0000 0.0000 1.0000
vn 0.0000 -1.0000 0.0000
vn 0.0000 1.0000 0.0000
usemtl MAT_DIFFUSE_CUTOUT
s off
f 9/21/7 10/22/7 12/23/7 11/24/7
f 15/25/8 16/26/8 14/27/8 13/28/8
f 13/28/9 14/27/9 10/22/9 9/21/9
f 11/29/10 15/30/10 13/28/10 9/21/10
f 16/31/11 12/32/11 10/22/11 14/27/11
o NODE_PZ
v -0.375000 0.875000 0.375000
v -0.375000 1.000000 0.375000
v -0.375000 0.875000 -0.375000
v -0.375000 1.000000 -0.375000
v 0.375000 0.875000 0.375000
v 0.375000 1.000000 0.375000
v 0.375000 0.875000 -0.375000
v 0.375000 1.000000 -0.375000
vt 0.000000 0.562500
vt 0.062500 0.562500
vt 0.062500 0.937500
vt 0.000000 0.937500
vt 0.062500 1.000000
vt 0.437500 0.937500
vt 0.437500 1.000000
vt 0.500000 0.937500
vt 0.437500 0.562500
vt 0.500000 0.562500
vt 0.437500 0.500000
vt 0.062500 0.500000
vn -1.0000 0.0000 0.0000
vn 0.0000 0.0000 -1.0000
vn 1.0000 0.0000 0.0000
vn 0.0000 0.0000 1.0000
vn 0.0000 1.0000 0.0000
usemtl MAT_DIFFUSE_CUTOUT
s off
f 17/33/12 18/34/12 20/35/12 19/36/12
f 19/37/13 20/35/13 24/38/13 23/39/13
f 23/40/14 24/38/14 22/41/14 21/42/14
f 21/43/15 22/41/15 18/34/15 17/44/15
f 24/38/16 20/35/16 18/34/16 22/41/16
o NODE_PY
v -0.375000 0.125000 -0.375000
v -0.375000 0.875000 -0.375000
v -0.375000 0.125000 -0.500000
v -0.375000 0.875000 -0.500000
v 0.375000 0.125000 -0.375000
v 0.375000 0.875000 -0.375000
v 0.375000 0.125000 -0.500000
v 0.375000 0.875000 -0.500000
vt 0.000000 0.937500
vt 0.000000 0.562500
vt 0.062500 0.562500
vt 0.062500 0.937500
vt 0.437500 0.562500
vt 0.437500 0.937500
vt 0.500000 0.562500
vt 0.500000 0.937500
vt 0.437500 1.000000
vt 0.062500 1.000000
vt 0.062500 0.500000
vt 0.437500 0.500000
vn -1.0000 0.0000 0.0000
vn 0.0000 0.0000 -1.0000
vn 1.0000 0.0000 0.0000
vn 0.0000 -1.0000 0.0000
vn 0.0000 1.0000 0.0000
usemtl MAT_DIFFUSE_CUTOUT
s off
f 25/45/17 26/46/17 28/47/17 27/48/17
f 27/48/18 28/47/18 32/49/18 31/50/18
f 31/50/19 32/49/19 30/51/19 29/52/19
f 27/48/20 31/50/20 29/53/20 25/54/20
f 32/49/21 28/47/21 26/55/21 30/56/21
o NODE_NZ
v -0.375000 -0.000000 0.375000
v -0.375000 0.125000 0.375000
v -0.375000 -0.000000 -0.375000
v -0.375000 0.125000 -0.375000
v 0.375000 -0.000000 0.375000
v 0.375000 0.125000 0.375000
v 0.375000 -0.000000 -0.375000
v 0.375000 0.125000 -0.375000
vt 0.437500 0.937500
vt 0.437500 1.000000
vt 0.062500 1.000000
vt 0.062500 0.937500
vt 0.000000 0.937500
vt 0.000000 0.562500
vt 0.062500 0.562500
vt 0.062500 0.500000
vt 0.437500 0.500000
vt 0.437500 0.562500
vt 0.500000 0.562500
vt 0.500000 0.937500
vn -1.0000 0.0000 0.0000
vn 0.0000 0.0000 -1.0000
vn 1.0000 0.0000 0.0000
vn 0.0000 0.0000 1.0000
vn 0.0000 -1.0000 0.0000
usemtl MAT_DIFFUSE_CUTOUT
s off
f 33/57/22 34/58/22 36/59/22 35/60/22
f 35/60/23 36/61/23 40/62/23 39/63/23
f 39/63/24 40/64/24 38/65/24 37/66/24
f 37/66/25 38/67/25 34/68/25 33/57/25
f 35/60/26 39/63/26 37/66/26 33/57/26
o NODE_NX
v -0.500000 0.125000 0.375000
v -0.500000 0.875000 0.375000
v -0.500000 0.125000 -0.375000
v -0.500000 0.875000 -0.375000
v -0.375000 0.125000 0.375000
v -0.375000 0.875000 0.375000
v -0.375000 0.125000 -0.375000
v -0.375000 0.875000 -0.375000
vt 0.062500 0.562500
vt 0.437500 0.562500
vt 0.437500 0.937500
vt 0.062500 0.937500
vt 0.437500 1.000000
vt 0.062500 1.000000
vt 0.062500 0.500000
vt 0.437500 0.500000
vt 0.000000 0.937500
vt 0.000000 0.562500
vt 0.500000 0.937500
vt 0.500000 0.562500
vn -1.0000 0.0000 0.0000
vn 0.0000 0.0000 -1.0000
vn 0.0000 0.0000 1.0000
vn 0.0000 -1.0000 0.0000
vn 0.0000 1.0000 0.0000
usemtl MAT_DIFFUSE_CUTOUT
s off
f 41/69/27 42/70/27 44/71/27 43/72/27
f 43/72/28 44/71/28 48/73/28 47/74/28
f 45/75/29 46/76/29 42/70/29 41/69/29
f 43/72/30 47/77/30 45/78/30 41/69/30
f 48/79/31 44/71/31 42/70/31 46/80/31
o NODE_PX
v 0.375000 0.125000 0.375000
v 0.375000 0.875000 0.375000
v 0.375000 0.125000 -0.375000
v 0.375000 0.875000 -0.375000
v 0.500000 0.125000 0.375000
v 0.500000 0.875000 0.375000
v 0.500000 0.125000 -0.375000
v 0.500000 0.875000 -0.375000
vt 0.500000 0.562500
vt 0.500000 0.937500
vt 0.437500 0.937500
vt 0.437500 0.562500
vt 0.062500 0.937500
vt 0.062500 0.562500
vt 0.000000 0.937500
vt 0.000000 0.562500
vt 0.437500 0.500000
vt 0.062500 0.500000
vt 0.437500 1.000000
vt 0.062500 1.000000
vn 0.0000 0.0000 -1.0000
vn 1.0000 0.0000 0.0000
vn 0.0000 0.0000 1.0000
vn 0.0000 -1.0000 0.0000
vn 0.0000 1.0000 0.0000
usemtl MAT_DIFFUSE_CUTOUT
s off
f 51/81/32 52/82/32 56/83/32 55/84/32
f 55/84/33 56/83/33 54/85/33 53/86/33
f 53/86/34 54/85/34 50/87/34 49/88/34
f 51/89/35 55/84/35 53/86/35 49/90/35
f 56/83/36 52/91/36 50/92/36 54/85/36
