# Blender v2.80 (sub 75) OBJ File: 'EE3.blend'
# www.blender.org
mtllib EE3.mtl
o EE3_Cube
v -0.150000 0.150000 -0.200000
v -0.150000 0.450000 -0.200000
v -0.150000 -0.150000 -0.500000
v -0.150000 -0.050000 -0.800000
v 0.150000 0.150000 -0.200000
v 0.150000 0.450000 -0.200000
v 0.150000 -0.150000 -0.500000
v 0.150000 -0.050000 -0.800000
v -0.150000 -0.450000 -0.900000
v -0.150000 -0.450000 -0.500000
v 0.150000 -0.450000 -0.500000
v 0.150000 -0.450000 -0.900000
v -0.150000 0.050000 -0.400000
v -0.150000 0.250000 -0.600000
v 0.150000 0.050000 -0.400000
v 0.150000 0.250000 -0.600000
v -0.200000 0.400000 3.300000
v -0.200000 0.800000 3.300000
v 0.200000 0.400000 3.300000
v 0.200000 0.800000 3.300000
v 0.200000 0.800000 1.200000
v -0.200000 0.400000 1.200000
v -0.200000 0.800000 1.200000
v 0.200000 0.400000 1.200000
v -0.250000 0.850000 0.500000
v -0.250000 0.350000 0.500000
v 0.250000 0.850000 0.500000
v 0.250000 0.350000 0.500000
v 0.250000 0.850000 1.200000
v -0.250000 0.350000 1.200000
v -0.250000 0.850000 1.200000
v 0.250000 0.350000 1.200000
v -0.200000 0.850000 -0.200000
v -0.200000 0.150000 -0.200000
v 0.200000 0.850000 -0.200000
v -0.200000 0.850000 0.500000
v -0.200000 0.150000 0.500000
v 0.200000 0.850000 0.500000
v 0.200000 0.150000 0.500000
v 0.200000 0.150000 -0.200000
v 0.050000 0.650000 -0.350000
v -0.050000 0.650000 -0.350000
v 0.050000 0.650000 -0.150000
v 0.050000 0.550000 -0.350000
v -0.050000 0.550000 -0.350000
v 0.050000 0.450000 -0.150000
v -0.050000 0.450000 -0.150000
v -0.050000 0.650000 -0.150000
v 0.050000 0.750000 1.800000
v 0.050000 0.750000 1.500000
v -0.050000 0.750000 1.800000
v 0.050000 0.950000 1.800000
v 0.050000 0.950000 1.500000
v -0.050000 0.950000 1.800000
v -0.050000 0.950000 1.500000
v -0.050000 0.750000 1.500000
v 0.100000 1.150000 -0.300000
v -0.100000 1.150000 -0.300000
v 0.100000 0.950000 -0.300000
v 0.100000 1.150000 2.300000
v -0.100000 1.150000 2.300000
v 0.100000 0.950000 2.300000
v -0.100000 0.950000 2.300000
v -0.100000 0.950000 -0.300000
v 0.050000 0.950000 0.200000
v -0.050000 0.950000 0.200000
v 0.050000 0.950000 0.500000
v 0.050000 0.850000 0.200000
v -0.050000 0.850000 0.200000
v 0.050000 0.850000 0.500000
v -0.050000 0.850000 0.500000
v -0.050000 0.950000 0.500000
v -0.100000 0.400000 -0.800000
v -0.100000 0.250000 -0.800000
v 0.100000 0.400000 -0.800000
v -0.100000 0.400000 -1.100000
v 0.100000 0.400000 -1.100000
v -0.100000 0.250000 -1.300000
v -0.100000 0.050000 -1.300000
v 0.100000 0.250000 -1.300000
v 0.100000 0.050000 -1.300000
v 0.100000 0.250000 -1.100000
v -0.100000 0.250000 -1.100000
v 0.100000 0.250000 -0.800000
v -0.100000 0.150000 -0.650000
v 0.100000 0.150000 -0.650000
v -0.100000 0.400000 -0.300000
v 0.100000 0.400000 -0.300000
v -0.100000 0.250000 -1.300000
v -0.100000 -0.350000 -1.300000
v -0.100000 0.250000 -2.200000
v 0.100000 0.250000 -2.200000
v 0.100000 0.250000 -1.300000
v 0.100000 -0.350000 -2.200000
v 0.100000 -0.350000 -1.300000
v -0.100000 -0.350000 -2.200000
v -0.100000 0.250000 -2.200000
v -0.100000 0.350000 -3.700000
v -0.100000 -0.550000 -3.700000
v 0.100000 0.350000 -3.700001
v 0.100000 -0.550000 -3.700000
v 0.100000 0.250000 -2.200000
v 0.100000 -0.350000 -2.200000
v -0.100000 -0.350000 -2.200000
v -0.150000 0.450000 3.300000
v -0.150000 0.750000 3.300000
v 0.150000 0.450000 3.300000
v -0.050000 0.550000 3.500000
v -0.050000 0.650000 3.500000
v 0.050000 0.550000 3.500000
v 0.050000 0.650000 3.500000
v 0.150000 0.750000 3.300000
v -0.150000 0.750000 3.300000
v -0.050000 0.650000 3.500000
v 0.050000 0.650000 3.500000
v 0.150000 0.750000 3.300000
v -0.050000 -0.100000 -0.050000
v 0.050000 -0.100000 -0.050000
v -0.050000 0.050000 -0.050000
v 0.050000 0.050000 -0.050000
v -0.050000 0.150000 -0.150000
v 0.050000 0.150000 -0.150000
v -0.050000 0.150000 0.050000
v 0.050000 0.150000 0.050000
v -0.050000 -0.050000 0.250000
v 0.050000 -0.050000 0.250000
v -0.050000 0.150000 0.250000
v 0.050000 0.150000 0.250000
v -0.050000 -0.150000 0.100000
v 0.050000 -0.150000 0.100000
v -0.050000 -0.150000 -0.150000
v 0.050000 -0.150000 -0.150000
v -0.050000 0.150000 -0.300000
v 0.050000 0.150000 -0.300000
v -0.050000 -0.050000 0.250000
v 0.050000 -0.050000 0.250000
v -0.050000 0.150000 0.250000
v 0.050000 0.150000 0.250000
v -0.050000 -0.150000 0.100000
v 0.050000 -0.150000 0.100000
v -0.050000 -0.150000 -0.150000
v 0.050000 -0.150000 -0.150000
v -0.050000 0.150000 -0.300000
v 0.050000 0.150000 -0.300000
v -0.250000 0.500000 3.200000
v -0.150000 0.500000 3.200000
v -0.250000 0.500000 1.200000
v -0.150000 0.500000 1.200000
v -0.250000 0.700000 3.200000
v -0.150000 0.700000 3.200000
v -0.250000 0.700000 1.200000
v -0.150000 0.700000 1.200000
v -0.100000 0.850000 3.200000
v -0.100000 0.750000 3.200000
v -0.100000 0.850000 1.200000
v -0.100000 0.750000 1.200000
v 0.100000 0.850000 3.200000
v 0.100000 0.750000 3.200000
v 0.100000 0.850000 1.200000
v 0.100000 0.750000 1.200000
v -0.100000 0.450000 3.200000
v -0.100000 0.350000 3.200000
v -0.100000 0.450000 1.200000
v -0.100000 0.350000 1.200000
v 0.100000 0.450000 3.200000
v 0.100000 0.350000 3.200000
v 0.100000 0.450000 1.200000
v 0.100000 0.350000 1.200000
v 0.150000 0.500000 3.200000
v 0.250000 0.500000 3.200000
v 0.150000 0.500000 1.200000
v 0.250000 0.500000 1.200000
v 0.150000 0.700000 3.200000
v 0.250000 0.700000 3.200000
v 0.150000 0.700000 1.200000
v 0.250000 0.700000 1.200000
v -0.250000 0.500000 3.200000
v -0.150000 0.500000 3.200000
v -0.250000 0.500000 1.200000
v -0.150000 0.500000 1.200000
v -0.250000 0.700000 3.200000
v -0.150000 0.700000 3.200000
v -0.250000 0.700000 1.200000
v -0.150000 0.700000 1.200000
v -0.100000 0.850000 3.200000
v -0.100000 0.750000 3.200000
v -0.100000 0.850000 1.200000
v -0.100000 0.750000 1.200000
v 0.100000 0.850000 3.200000
v 0.100000 0.750000 3.200000
v 0.100000 0.850000 1.200000
v 0.100000 0.750000 1.200000
v -0.100000 0.450000 3.200000
v -0.100000 0.350000 3.200000
v -0.100000 0.450000 1.200000
v -0.100000 0.350000 1.200000
v 0.100000 0.450000 3.200000
v 0.100000 0.350000 3.200000
v 0.100000 0.450000 1.200000
v 0.100000 0.350000 1.200000
v 0.150000 0.500000 3.200000
v 0.250000 0.500000 3.200000
v 0.150000 0.500000 1.200000
v 0.250000 0.500000 1.200000
v 0.150000 0.700000 3.200000
v 0.250000 0.700000 3.200000
v 0.150000 0.700000 1.200000
v 0.250000 0.700000 1.200000
v -0.100000 -0.450000 -0.900000
v -0.100000 -0.250000 -0.800000
v -0.100000 -0.350000 -1.300000
v -0.100000 -0.250000 -1.300000
v 0.100000 -0.450000 -0.900000
v 0.100000 -0.250000 -0.800000
v 0.100000 -0.350000 -1.300000
v 0.100000 -0.250000 -1.300000
vt 0.851562 0.531250
vt 0.835938 0.546875
vt 0.820312 0.523438
vt 0.843750 0.515625
vt 0.937500 0.523438
vt 0.914062 0.515625
vt 0.914062 0.492188
vt 0.945312 0.492188
vt 0.906250 0.531250
vt 0.921875 0.546875
vt 0.890625 0.562500
vt 0.890625 0.539062
vt 0.867188 0.542969
vt 0.890625 0.542969
vt 0.890625 0.562500
vt 0.867188 0.562500
vt 0.945312 0.527344
vt 0.968750 0.527344
vt 0.968750 0.562500
vt 0.945312 0.562500
vt 0.867188 0.500000
vt 0.867188 0.468750
vt 0.890625 0.468750
vt 0.890625 0.500000
vt 0.890625 0.523438
vt 0.867188 0.523438
vt 0.968750 0.500000
vt 0.945312 0.500000
vt 0.945312 0.468750
vt 0.968750 0.468750
vt 0.812500 0.492188
vt 0.843750 0.492188
vt 0.867188 0.539062
vt 0.867188 0.562500
vt 0.226562 0.593750
vt 0.257812 0.593750
vt 0.257812 0.625000
vt 0.226562 0.625000
vt 0.257812 0.656250
vt 0.257812 0.625000
vt 0.421875 0.625000
vt 0.421875 0.656250
vt 0.257812 0.687500
vt 0.257812 0.656250
vt 0.421875 0.656250
vt 0.421875 0.687500
vt 0.062500 0.625000
vt 0.062500 0.593750
vt 0.421875 0.593750
vt 0.421875 0.625000
vt 0.523438 0.632812
vt 0.523438 0.593750
vt 0.578125 0.593750
vt 0.578125 0.632812
vt 0.484375 0.593750
vt 0.484375 0.632812
vt 0.429688 0.632812
vt 0.429688 0.593750
vt 0.617188 0.632812
vt 0.617188 0.593750
vt 0.523792 0.632863
vt 0.523438 0.687500
vt 0.484375 0.687500
vt 0.484375 0.539062
vt 0.523438 0.539062
vt 0.625000 0.593750
vt 0.679688 0.593750
vt 0.679688 0.648438
vt 0.625000 0.648438
vt 0.796875 0.648438
vt 0.765625 0.648438
vt 0.765625 0.593750
vt 0.796875 0.593750
vt 0.679688 0.703125
vt 0.710938 0.648438
vt 0.710938 0.703125
vt 0.710938 0.593750
vt 0.710938 0.539062
vt 0.679688 0.539062
vt 0.859375 0.625000
vt 0.851562 0.625000
vt 0.851562 0.617188
vt 0.859375 0.617188
vt 0.828125 0.640625
vt 0.828125 0.625000
vt 0.835938 0.625000
vt 0.835938 0.640625
vt 0.835938 0.609375
vt 0.828125 0.609375
vt 0.828125 0.593750
vt 0.835938 0.593750
vt 0.812500 0.625000
vt 0.812500 0.617188
vt 0.343750 0.750000
vt 0.343750 0.734375
vt 0.367188 0.734375
vt 0.367188 0.750000
vt 0.367188 0.750000
vt 0.367188 0.734375
vt 0.375000 0.734375
vt 0.375000 0.750000
vt 0.375000 0.750000
vt 0.375000 0.734375
vt 0.398438 0.734375
vt 0.398438 0.750000
vt 0.398438 0.750000
vt 0.398438 0.734375
vt 0.406250 0.734375
vt 0.406250 0.750000
vt 0.765625 0.804688
vt 0.562500 0.804688
vt 0.562500 0.789062
vt 0.765625 0.789062
vt 0.781250 0.773438
vt 0.765625 0.773438
vt 0.765625 0.757812
vt 0.781250 0.757812
vt 0.562500 0.773438
vt 0.562500 0.757812
vt 0.546875 0.773438
vt 0.546875 0.757812
vt 0.765625 0.789062
vt 0.562500 0.789062
vt 0.562500 0.773438
vt 0.765625 0.773438
vt 0.343750 0.757812
vt 0.343750 0.773438
vt 0.773438 0.742188
vt 0.773438 0.734375
vt 0.781250 0.734375
vt 0.781250 0.742188
vt 0.750000 0.742188
vt 0.750000 0.734375
vt 0.742188 0.742188
vt 0.742188 0.734375
vt 0.718750 0.742188
vt 0.718750 0.734375
vt 0.515625 0.281250
vt 0.515625 0.292969
vt 0.492188 0.292969
vt 0.492188 0.281250
vt 0.437500 0.335938
vt 0.453125 0.335938
vt 0.453125 0.359375
vt 0.437500 0.359375
vt 0.453125 0.378906
vt 0.437500 0.378906
vt 0.453125 0.292969
vt 0.480469 0.273438
vt 0.453125 0.242188
vt 0.437500 0.242188
vt 0.437500 0.218750
vt 0.453125 0.218750
vt 0.453125 0.265625
vt 0.437500 0.265625
vt 0.453125 0.281250
vt 0.437500 0.281250
vt 0.437500 0.296875
vt 0.453125 0.296875
vt 0.531250 0.265625
vt 0.531250 0.281250
vt 0.375000 0.281250
vt 0.375000 0.292969
vt 0.359375 0.281250
vt 0.359375 0.265625
vt 0.398438 0.281250
vt 0.398462 0.292969
vt 0.410156 0.273438
vt 0.437500 0.292969
vt 0.609375 0.218750
vt 0.609375 0.265625
vt 0.539062 0.265625
vt 0.539062 0.218750
vt 0.695312 0.265625
vt 0.625000 0.265625
vt 0.625000 0.218750
vt 0.695312 0.218750
vt 0.625000 0.335938
vt 0.609375 0.335938
vt 0.609375 0.148438
vt 0.625000 0.148438
vt 0.820312 0.406250
vt 0.820312 0.289062
vt 0.835938 0.289062
vt 0.835938 0.406250
vt 0.953125 0.218750
vt 0.953125 0.289062
vt 0.835938 0.281250
vt 0.835938 0.234375
vt 0.968750 0.289062
vt 0.968750 0.218750
vt 0.820312 0.218750
vt 0.820312 0.101562
vt 0.835938 0.101562
vt 0.835938 0.218750
vt 0.820312 0.281250
vt 0.703125 0.289062
vt 0.703125 0.218750
vt 0.820312 0.234375
vt 0.015625 0.546875
vt 0.031250 0.554688
vt 0.031250 0.562500
vt 0.015625 0.570312
vt 0.054688 0.531250
vt 0.046875 0.546875
vt 0.039062 0.546875
vt 0.031250 0.531250
vt 0.039062 0.554688
vt 0.046875 0.554688
vt 0.046875 0.562500
vt 0.039062 0.562500
vt 0.070312 0.570312
vt 0.054688 0.562500
vt 0.054688 0.554688
vt 0.070312 0.546875
vt 0.031250 0.585938
vt 0.039062 0.570312
vt 0.046875 0.570312
vt 0.054688 0.585938
vt 0.781250 0.542969
vt 0.781250 0.554688
vt 0.773438 0.554688
vt 0.773438 0.542969
vt 0.781250 0.562500
vt 0.773438 0.562500
vt 0.765625 0.542969
vt 0.765625 0.554688
vt 0.757812 0.562500
vt 0.796875 0.539062
vt 0.804688 0.539062
vt 0.804688 0.562500
vt 0.796875 0.562500
vt 0.789062 0.554688
vt 0.789062 0.542969
vt 0.742188 0.546875
vt 0.750000 0.546875
vt 0.750000 0.562500
vt 0.742188 0.562500
vt 0.742188 0.531250
vt 0.750000 0.531250
vt 0.742188 0.511719
vt 0.750000 0.511719
vt 0.742188 0.484375
vt 0.750000 0.484375
vt 0.742188 0.546875
vt 0.742188 0.562500
vt 0.750000 0.562500
vt 0.750000 0.546875
vt 0.750000 0.531250
vt 0.742188 0.531250
vt 0.750000 0.511719
vt 0.742188 0.511719
vt 0.750000 0.484375
vt 0.742188 0.484375
vt 0.242188 0.367188
vt 0.242188 0.203125
vt 0.234375 0.203125
vt 0.234375 0.367188
vt 0.242188 0.382812
vt 0.234375 0.382812
vt 0.234375 0.531250
vt 0.242188 0.531250
vt 0.242188 0.570312
vt 0.085938 0.570312
vt 0.085938 0.578125
vt 0.242188 0.578125
vt 0.257812 0.570312
vt 0.257812 0.578125
vt 0.414062 0.578125
vt 0.414062 0.570312
vt 0.242188 0.546875
vt 0.085938 0.546875
vt 0.085938 0.554688
vt 0.242188 0.554688
vt 0.257812 0.546875
vt 0.257812 0.554688
vt 0.414062 0.554688
vt 0.414062 0.546875
vt 0.265625 0.367188
vt 0.265625 0.203125
vt 0.257812 0.203125
vt 0.257812 0.367188
vt 0.265625 0.382812
vt 0.257812 0.382812
vt 0.257812 0.531250
vt 0.265625 0.531250
vt 0.242188 0.367188
vt 0.234375 0.367188
vt 0.234375 0.203125
vt 0.242188 0.203125
vt 0.242188 0.382812
vt 0.242188 0.531250
vt 0.234375 0.531250
vt 0.234375 0.382812
vt 0.242188 0.570312
vt 0.242188 0.578125
vt 0.085938 0.578125
vt 0.085938 0.570312
vt 0.257812 0.570312
vt 0.414062 0.570312
vt 0.414062 0.578125
vt 0.257812 0.578125
vt 0.242188 0.546875
vt 0.242188 0.554688
vt 0.085938 0.554688
vt 0.085938 0.546875
vt 0.257812 0.546875
vt 0.414062 0.546875
vt 0.414062 0.554688
vt 0.257812 0.554688
vt 0.265625 0.367188
vt 0.257812 0.367188
vt 0.257812 0.203125
vt 0.265625 0.203125
vt 0.265625 0.382812
vt 0.265625 0.531250
vt 0.257812 0.531250
vt 0.257812 0.382812
vt 0.429688 0.156250
vt 0.437500 0.171875
vt 0.398438 0.171875
vt 0.398438 0.164062
vt 0.492188 0.164062
vt 0.492188 0.171875
vt 0.453125 0.171875
vt 0.460938 0.156250
vt 0.437500 0.125000
vt 0.453125 0.125000
vt 0.453125 0.156250
vt 0.437500 0.156250
vt 0.453125 0.210938
vt 0.437500 0.210938
vn -1.0000 0.0000 0.0000
vn 1.0000 0.0000 0.0000
vn 0.0000 -0.8944 0.4472
vn 0.0000 0.8944 -0.4472
vn 0.0000 -1.0000 0.0000
vn 0.0000 -0.0000 1.0000
vn 0.0000 0.2425 -0.9701
vn 0.0000 0.5547 -0.8321
vn 0.0000 -0.4472 0.8944
vn 0.0000 1.0000 0.0000
vn -0.0000 0.0000 -1.0000
vn 0.0000 -0.8944 -0.4472
vn 0.0000 0.8000 -0.6000
vn 0.0000 -0.7071 0.7071
vn 0.0000 -0.8320 -0.5547
vn 0.0000 0.9978 0.0665
vn 0.0000 -0.9912 0.1322
vn -0.8944 -0.0000 0.4472
vn 0.8944 0.0000 0.4472
vn 0.0000 0.8944 0.4472
vn 0.0000 -0.3714 -0.9285
vn -0.0000 -0.8321 0.5547
vn 0.0000 -0.4472 -0.8944
vn 0.0000 0.8321 -0.5547
vn 0.0000 0.4472 0.8944
vn -0.0000 -0.9701 -0.2425
usemtl MAT_DIFFUSE_CUTOUT
s off
f 13/1/1 14/2/1 4/3/1 3/4/1
f 8/5/2 7/6/2 11/7/2 12/8/2
f 15/9/2 16/10/2 6/11/2 5/12/2
f 13/13/3 15/14/3 5/15/3 1/16/3
f 16/17/4 14/18/4 2/19/4 6/20/4
f 10/21/5 9/22/5 12/23/5 11/24/5
f 7/25/6 3/26/6 10/21/6 11/24/6
f 4/27/7 8/28/7 12/29/7 9/30/7
f 3/4/1 4/3/1 9/31/1 10/32/1
f 8/28/8 4/27/8 14/18/8 16/17/8
f 3/26/9 7/25/9 15/14/9 13/13/9
f 7/6/2 8/5/2 16/10/2 15/9/2
f 1/33/1 2/34/1 14/2/1 13/1/1
f 17/35/6 19/36/6 20/37/6 18/38/6
f 19/39/5 17/40/5 22/41/5 24/42/5
f 18/43/10 20/44/10 21/45/10 23/46/10
f 17/35/1 18/38/1 23/47/1 22/48/1
f 20/37/2 19/36/2 24/49/2 21/50/2
f 29/51/2 32/52/2 28/53/2 27/54/2
f 30/55/1 31/56/1 25/57/1 26/58/1
f 25/59/11 27/54/11 28/53/11 26/60/11
f 31/56/10 29/61/10 27/62/10 25/63/10
f 32/52/5 30/55/5 26/64/5 28/65/5
f 30/55/6 32/52/6 29/51/6 31/56/6
f 34/66/1 37/67/1 36/68/1 33/69/1
f 33/70/11 35/71/11 40/72/11 34/73/11
f 33/74/10 36/68/10 38/75/10 35/76/10
f 36/68/6 37/67/6 39/77/6 38/75/6
f 35/71/2 38/75/2 39/77/2 40/72/2
f 40/78/5 39/77/5 37/67/5 34/79/5
f 42/80/11 41/81/11 44/82/11 45/83/11
f 42/84/10 48/85/10 43/86/10 41/87/10
f 46/88/2 44/82/2 41/81/2 43/86/2
f 47/89/12 45/90/12 44/91/12 46/88/12
f 47/89/1 48/85/1 42/92/1 45/93/1
f 52/94/2 49/95/2 50/96/2 53/97/2
f 54/98/6 51/99/6 49/100/6 52/101/6
f 55/102/1 56/103/1 51/104/1 54/105/1
f 53/106/11 50/107/11 56/108/11 55/109/11
f 58/110/10 61/111/10 60/112/10 57/113/10
f 58/114/11 57/115/11 59/116/11 64/117/11
f 57/115/2 60/118/2 62/119/2 59/116/2
f 61/120/6 63/121/6 62/119/6 60/118/6
f 59/122/5 62/123/5 63/124/5 64/125/5
f 64/126/1 63/121/1 61/120/1 58/127/1
f 65/128/11 68/129/11 69/130/11 66/131/11
f 67/132/2 70/133/2 68/129/2 65/128/2
f 72/134/6 71/135/6 70/133/6 67/132/6
f 66/136/1 69/137/1 71/135/1 72/134/1
f 82/138/2 77/139/2 75/140/2 84/141/2
f 73/142/10 75/143/10 77/144/10 76/145/10
f 76/145/13 77/144/13 80/146/13 78/147/13
f 84/141/2 75/140/2 88/148/2 86/149/2
f 82/150/14 83/151/14 79/152/14 81/153/14
f 84/154/5 74/155/5 83/151/5 82/150/5
f 74/155/15 84/154/15 86/156/15 85/157/15
f 75/143/10 73/142/10 87/158/10 88/159/10
f 81/160/2 80/161/2 77/139/2 82/138/2
f 83/162/1 76/163/1 78/164/1 79/165/1
f 83/162/1 74/166/1 73/167/1 76/163/1
f 85/168/1 87/169/1 73/167/1 74/166/1
f 90/170/1 89/171/1 91/172/1 96/173/1
f 92/174/2 93/175/2 95/176/2 94/177/2
f 89/171/10 93/175/10 92/178/10 91/179/10
f 90/170/6 95/176/6 93/175/6 89/171/6
f 95/176/5 90/170/5 96/180/5 94/181/5
f 98/182/16 97/183/16 102/184/16 100/185/16
f 101/186/2 100/187/2 102/188/2 103/189/2
f 98/190/11 100/187/11 101/186/11 99/191/11
f 104/192/17 99/193/17 101/194/17 103/195/17
f 97/196/1 98/197/1 99/198/1 104/199/1
f 105/200/18 108/201/18 109/202/18 106/203/18
f 107/204/3 110/205/3 108/206/3 105/207/3
f 108/208/6 110/209/6 111/210/6 109/211/6
f 112/212/19 111/213/19 110/214/19 107/215/19
f 113/216/20 114/217/20 115/218/20 116/219/20
f 118/220/6 120/221/6 119/222/6 117/223/6
f 119/222/14 120/221/14 124/224/14 123/225/14
f 117/226/1 119/227/1 123/225/1 121/228/1
f 118/229/21 117/230/21 121/231/21 122/232/21
f 120/233/2 118/234/2 122/232/2 124/224/2
f 125/235/6 126/236/6 128/237/6 127/238/6
f 126/236/22 125/235/22 129/239/22 130/240/22
f 130/240/5 129/239/5 131/241/5 132/242/5
f 132/242/23 131/241/23 133/243/23 134/244/23
f 135/245/11 137/246/11 138/247/11 136/248/11
f 136/248/24 140/249/24 139/250/24 135/245/24
f 140/249/10 142/251/10 141/252/10 139/250/10
f 142/251/25 144/253/25 143/254/25 141/252/25
f 146/255/10 148/256/10 147/257/10 145/258/10
f 150/259/5 149/260/5 151/261/5 152/262/5
f 154/263/2 156/264/2 155/265/2 153/266/2
f 158/267/1 157/268/1 159/269/1 160/270/1
f 162/271/2 164/272/2 163/273/2 161/274/2
f 166/275/1 165/276/1 167/277/1 168/278/1
f 170/279/10 172/280/10 171/281/10 169/282/10
f 174/283/5 173/284/5 175/285/5 176/286/5
f 178/287/5 177/288/5 179/289/5 180/290/5
f 182/291/10 184/292/10 183/293/10 181/294/10
f 186/295/1 185/296/1 187/297/1 188/298/1
f 190/299/2 192/300/2 191/301/2 189/302/2
f 194/303/1 193/304/1 195/305/1 196/306/1
f 198/307/2 200/308/2 199/309/2 197/310/2
f 202/311/5 201/312/5 203/313/5 204/314/5
f 206/315/10 208/316/10 207/317/10 205/318/10
f 209/319/1 210/320/1 212/321/1 211/322/1
f 215/323/2 216/324/2 214/325/2 213/326/2
f 211/327/26 215/328/26 213/329/26 209/330/26
f 216/331/10 212/332/10 210/320/10 214/325/10
