# Blender v2.80 (sub 75) OBJ File: 'lightsaber_luke_rotj_inventory.blend'
# www.blender.org
mtllib lightsaber_luke_rotj_inventory.mtl
o Cylinder.005
v 0.000000 -15.016891 -0.770823
v 0.000000 -1.911605 -0.770823
v 0.770823 -15.016891 0.000000
v 0.770823 -1.911605 0.000000
v 0.000000 -15.016891 0.770823
v 0.000000 -1.911605 0.770823
v -0.770822 -15.016891 0.000000
v -0.770822 -1.911605 0.000000
v 0.000000 -14.032327 -1.226484
v 0.000000 -4.564517 -1.226484
v 1.226484 -14.032327 0.000000
v 1.226484 -4.564517 0.000000
v -0.000000 -14.032327 1.226484
v -0.000000 -4.564517 1.226484
v -1.226484 -14.032327 0.000000
v -1.226484 -4.564517 0.000000
v 0.000000 -3.506012 -1.226484
v 0.000000 -2.727936 -1.226484
v 1.226484 -3.506012 0.000000
v 1.226484 -2.727936 0.000000
v -0.000000 -3.506012 1.226484
v -0.000000 -2.727936 1.226484
v -1.226484 -3.506012 0.000000
v -1.226484 -2.727936 0.000000
v 0.000000 -1.912495 -1.226484
v 0.000000 -0.330559 -1.226484
v 1.226484 -1.912495 0.000000
v 1.226484 -0.330559 0.000000
v -0.000000 -1.912495 1.226484
v -0.000000 -0.330559 1.226484
v -1.226484 -1.912495 0.000000
v -1.226484 -0.330559 0.000000
v 0.000000 -0.330559 -1.757800
v 0.000000 -0.000001 -1.757800
v 1.757800 -0.330559 0.000000
v 1.757800 -0.000001 0.000000
v -0.000000 -0.330559 1.757800
v -0.000000 -0.000001 1.757800
v -1.757800 -0.330559 -0.000000
v -1.757800 -0.000001 -0.000000
v 0.000000 -16.228058 -1.226484
v 0.000000 -14.646123 -1.226484
v 1.226484 -16.228058 0.000000
v 1.226484 -14.646123 0.000000
v -0.000000 -16.228058 1.226484
v -0.000000 -14.646123 1.226484
v -1.226484 -16.228058 0.000000
v -1.226484 -14.646123 0.000000
v 0.000000 -0.000001 -0.498045
v 0.000000 0.642385 -0.498045
v 0.498045 -0.000001 0.000000
v 0.498045 0.642385 0.000000
v -0.000000 -0.000001 0.498045
v -0.000000 0.642385 0.498045
v -0.498045 -0.000001 0.000000
v -0.498045 0.642385 0.000000
vt 0.703125 0.609375
vt 0.031250 0.609375
vt 0.031250 0.546875
vt 0.703125 0.546875
vt 0.031250 0.484375
vt 0.703125 0.484375
vt 0.031250 0.421875
vt 0.703125 0.421875
vt 0.703125 0.671875
vt 0.031250 0.671875
vt 0.593750 0.296875
vt 0.125000 0.296875
vt 0.125000 0.203125
vt 0.593750 0.203125
vt 0.125000 0.109375
vt 0.593750 0.109375
vt 0.031250 0.296875
vt 0.125000 0.390625
vt 0.031250 0.390625
vt 0.125000 0.015625
vt 0.593750 0.015625
vt 0.593750 0.390625
vt 0.687500 0.296875
vt 0.687500 0.390625
vt 0.890625 0.125000
vt 0.890625 0.156250
vt 0.796875 0.156250
vt 0.796875 0.125000
vt 0.703125 0.156250
vt 0.703125 0.125000
vt 0.890625 0.250000
vt 0.984375 0.156250
vt 0.984375 0.250000
vt 0.609375 0.156250
vt 0.609375 0.125000
vt 0.984375 0.125000
vt 0.890625 0.031250
vt 0.984375 0.031250
vt 0.875000 0.390625
vt 0.953125 0.390625
vt 0.953125 0.484375
vt 0.875000 0.484375
vt 0.953125 0.578125
vt 0.875000 0.578125
vt 0.953125 0.671875
vt 0.875000 0.671875
vt 0.875000 0.296875
vt 0.953125 0.296875
vt 0.796875 0.390625
vt 0.796875 0.296875
vt 0.828125 0.828125
vt 0.812500 0.828125
vt 0.812500 0.703125
vt 0.828125 0.703125
vt 0.812500 0.578125
vt 0.828125 0.578125
vt 0.687500 0.828125
vt 0.812500 0.953125
vt 0.687500 0.953125
vt 0.812500 0.453125
vt 0.828125 0.453125
vt 0.828125 0.953125
vt 0.953125 0.828125
vt 0.953125 0.953125
vt 0.312500 0.796875
vt 0.312500 0.875000
vt 0.234375 0.875000
vt 0.234375 0.796875
vt 0.156250 0.875000
vt 0.156250 0.796875
vt 0.312500 0.953125
vt 0.390625 0.875000
vt 0.390625 0.953125
vt 0.078125 0.875000
vt 0.078125 0.796875
vt 0.390625 0.796875
vt 0.312500 0.718750
vt 0.390625 0.718750
vt 0.609375 0.875000
vt 0.562500 0.875000
vt 0.562500 0.828125
vt 0.609375 0.828125
vt 0.562500 0.781250
vt 0.609375 0.781250
vt 0.515625 0.875000
vt 0.562500 0.921875
vt 0.515625 0.921875
vt 0.562500 0.734375
vt 0.609375 0.734375
vt 0.609375 0.921875
vn 0.7071 0.0000 -0.7071
vn 0.7071 0.0000 0.7071
vn -0.7071 0.0000 0.7071
vn -0.7071 0.0000 -0.7071
vn 0.0000 1.0000 -0.0000
vn 0.0000 -1.0000 0.0000
usemtl MAT_DIFFUSE_OPAQUE
s off
f 1/1/1 2/2/1 4/3/1 3/4/1
f 3/4/2 4/3/2 6/5/2 5/6/2
f 5/6/3 6/5/3 8/7/3 7/8/3
f 7/9/4 8/10/4 2/2/4 1/1/4
f 9/11/1 10/12/1 12/13/1 11/14/1
f 11/14/2 12/13/2 14/15/2 13/16/2
f 12/17/5 10/12/5 16/18/5 14/19/5
f 13/16/3 14/15/3 16/20/3 15/21/3
f 15/22/4 16/18/4 10/12/4 9/11/4
f 9/11/6 11/23/6 13/24/6 15/22/6
f 17/25/1 18/26/1 20/27/1 19/28/1
f 19/28/2 20/27/2 22/29/2 21/30/2
f 20/31/5 18/26/5 24/32/5 22/33/5
f 21/30/3 22/29/3 24/34/3 23/35/3
f 23/36/4 24/32/4 18/26/4 17/25/4
f 17/25/6 19/37/6 21/38/6 23/36/6
f 25/39/1 26/40/1 28/41/1 27/42/1
f 27/42/2 28/41/2 30/43/2 29/44/2
f 29/44/3 30/43/3 32/45/3 31/46/3
f 31/47/4 32/48/4 26/40/4 25/39/4
f 25/39/6 27/49/6 29/50/6 31/47/6
f 33/51/1 34/52/1 36/53/1 35/54/1
f 35/54/2 36/53/2 38/55/2 37/56/2
f 36/57/5 34/52/5 40/58/5 38/59/5
f 37/56/3 38/55/3 40/60/3 39/61/3
f 39/62/4 40/58/4 34/52/4 33/51/4
f 33/51/6 35/63/6 37/64/6 39/62/6
f 41/65/1 42/66/1 44/67/1 43/68/1
f 43/68/2 44/67/2 46/69/2 45/70/2
f 44/71/5 42/66/5 48/72/5 46/73/5
f 45/70/3 46/69/3 48/74/3 47/75/3
f 47/76/4 48/72/4 42/66/4 41/65/4
f 41/65/6 43/77/6 45/78/6 47/76/6
f 49/79/1 50/80/1 52/81/1 51/82/1
f 51/82/2 52/81/2 54/83/2 53/84/2
f 52/85/5 50/80/5 56/86/5 54/87/5
f 53/84/3 54/83/3 56/88/3 55/89/3
f 55/90/4 56/86/4 50/80/4 49/79/4
