# Blender v2.80 (sub 75) OBJ File: 'inventory.blend'
# www.blender.org
mtllib inventory.mtl
o Plane.002
v -0.009266 0.910689 5.525643
v -0.009266 0.910689 5.833411
v -0.009266 0.068887 0.176298
v 0.129754 1.166028 4.364141
v 0.129754 1.166028 -1.616034
v 0.129754 0.911021 4.364141
v 0.129754 0.911021 5.524864
v 0.129754 0.911021 5.832633
v 0.129754 0.911021 5.938153
v 0.129754 0.646842 5.938153
v 0.129754 0.646842 3.937664
v 0.129754 0.589685 3.541963
v 0.129754 0.515320 3.541963
v 0.129754 0.515320 2.218563
v 0.129754 0.642824 2.218563
v 0.129754 0.581270 1.488714
v 0.129754 0.167983 1.449144
v 0.129754 0.167983 0.772055
v 0.129754 0.022892 0.631362
v 0.129754 0.022892 0.327991
v 0.129754 -0.166165 0.218074
v 0.129754 -0.267289 -0.116074
v 0.129754 -0.161768 -0.384271
v 0.129754 -0.104611 -0.511775
v 0.129754 -0.781700 -0.977823
v 0.129754 -0.588246 -1.391111
v 0.129754 0.299883 -0.841526
v 0.129754 0.502130 -0.841526
v 0.129754 0.502130 -1.619738
v 0.129754 0.651617 -1.619738
v 0.129754 0.651617 -2.912361
v 0.129754 0.225140 -2.912361
v 0.129754 0.225140 -3.022278
v 0.129754 1.443020 -3.022278
v 0.129754 1.443020 -2.907964
v 0.129754 0.959385 -2.907964
v 0.129754 0.959385 -1.632928
v 0.129754 0.069219 0.175519
v 0.129754 0.172102 0.027896
v 0.129754 0.118819 -0.179767
v 0.129754 -0.044576 -0.256901
v 0.129754 -0.172400 -0.127988
v 0.129754 -0.127194 0.091808
v 0.125355 -0.049252 0.178557
v -0.127174 1.165697 4.364920
v -0.127174 1.165697 -1.615255
v -0.127173 0.910689 4.364920
v -0.127173 0.910689 5.525643
v -0.127173 0.910689 5.833411
v -0.127173 0.910689 5.938931
v -0.127173 0.646510 5.938931
v -0.127173 0.646510 3.938443
v -0.127173 0.589353 3.542742
v -0.127173 0.514988 3.542742
v -0.127173 0.514988 2.219342
v -0.127173 0.642492 2.219342
v -0.127173 0.580939 1.489493
v -0.127173 0.167651 1.449923
v -0.127173 0.167651 0.772834
v -0.127173 0.022561 0.632141
v -0.127173 0.022561 0.328770
v -0.127173 -0.166497 0.218853
v -0.127173 -0.267620 -0.115295
v -0.127173 -0.162100 -0.383492
v -0.127173 -0.104943 -0.510996
v -0.127173 -0.782032 -0.977044
v -0.127173 -0.588578 -1.390332
v -0.127173 0.299551 -0.840747
v -0.127173 0.501799 -0.840747
v -0.127173 0.501799 -1.618959
v -0.127173 0.651286 -1.618959
v -0.127173 0.651286 -2.911582
v -0.127173 0.224808 -2.911582
v -0.127173 0.224808 -3.021499
v -0.127174 1.442688 -3.021499
v -0.127174 1.442688 -2.907186
v -0.127173 0.959053 -2.907186
v -0.127173 0.959053 -1.632149
v -0.127173 0.068887 0.176298
v -0.127173 0.171770 0.028675
v -0.127173 0.118487 -0.178988
v -0.127173 -0.044908 -0.256122
v -0.127173 -0.172732 -0.127209
v -0.127173 -0.127526 0.092587
v -0.131573 -0.049584 0.179336
v -0.072569 0.910689 5.525643
v -0.072569 1.403117 5.679527
v -0.072569 1.403117 5.833411
v -0.072569 0.910689 5.833411
v 0.063075 0.910689 5.525643
v 0.063075 1.403117 5.679527
v 0.063075 1.403117 5.833411
v 0.063075 0.910689 5.833411
v 0.129754 0.651617 -2.912361
v 0.129754 0.225140 -2.912361
v 0.129754 0.225140 -3.022278
v 0.129754 1.443020 -3.022278
v 0.129754 1.443020 -2.907964
v 0.129754 0.959385 -2.907964
v -0.127173 0.651286 -1.618959
v -0.127173 0.959053 -2.907186
v -0.127173 0.959053 -1.632149
v 0.129754 0.959385 -1.632928
v 0.129754 0.651617 -1.619738
v 0.094263 1.166028 0.225394
v 0.094263 1.166028 -1.227631
v -0.093574 1.165697 0.225583
v -0.093574 1.165697 -1.227442
v 0.093965 1.351453 0.225394
v 0.093965 1.351453 -1.227631
v -0.093871 1.351121 0.225583
v -0.093871 1.351121 -1.227442
v 0.093965 1.172235 2.295025
v 0.093965 1.172235 0.870927
v -0.093871 1.171903 2.295214
v -0.093871 1.171903 0.871116
v 0.093965 1.286730 2.295025
v 0.093965 1.286730 0.870927
v -0.093871 1.286398 2.295214
v -0.093871 1.286398 0.871116
v 0.179287 1.286776 2.594883
v 0.179287 1.286776 1.484899
v -0.174644 1.286374 2.595027
v -0.174644 1.286374 1.485043
v 0.178868 1.639281 2.594883
v 0.178868 1.639281 1.484899
v -0.175063 1.638879 2.595027
v -0.175063 1.638879 1.485043
v 0.105722 1.341879 1.484929
v -0.104331 1.341603 1.485028
v 0.105473 1.584010 1.484929
v -0.104580 1.583734 1.485028
v 0.105422 1.341879 0.565267
v -0.104631 1.341603 0.565367
v 0.105173 1.584009 0.565267
v -0.104879 1.583733 0.565367
v 0.107147 1.137173 1.077781
v -0.104674 1.136827 1.077905
v 0.140921 1.614483 1.077781
v -0.139090 1.614138 1.077905
v 0.107085 1.137173 0.839464
v -0.104736 1.136827 0.839588
v 0.140838 1.614483 0.839464
v -0.139173 1.614138 0.839588
v 0.189360 0.347389 1.168031
v 0.189360 0.347389 -0.566267
v 0.189063 0.894645 1.168031
v 0.189063 0.894645 -0.566267
v -0.183264 0.347186 1.168031
v -0.183264 0.347186 -0.566267
v -0.183561 0.894443 1.168031
v -0.183561 0.894443 -0.566267
v 0.228657 0.473635 3.619458
v 0.228657 0.473635 2.140945
v -0.225068 0.473265 3.620328
v -0.225068 0.473265 2.141816
v 0.228156 0.848525 2.140945
v 0.228156 0.848525 3.619458
v -0.225569 0.848154 2.141816
v -0.225569 0.848154 3.620328
vt 0.937600 0.359150
vt 0.927938 0.386864
vt 0.939036 0.385384
vt 0.692406 0.167382
vt 0.706262 0.183126
vt 0.706281 0.166848
vt 0.861324 0.826016
vt 0.873637 0.839858
vt 0.873679 0.826054
vt 0.985737 0.888896
vt 0.967124 0.875030
vt 0.967079 0.888835
vt 0.402617 0.801874
vt 0.411883 0.529042
vt 0.363976 0.700079
vt 0.113521 0.178226
vt 0.087361 0.139354
vt 0.094390 0.169195
vt 0.956597 0.063019
vt 0.948419 0.076152
vt 0.962844 0.075171
vt 0.937525 0.908811
vt 0.950394 0.858878
vt 0.950909 0.822843
vt 0.694212 0.058018
vt 0.707081 0.008085
vt 0.693697 0.094053
vt 0.842170 0.886080
vt 0.672045 0.886080
vt 0.672045 0.907790
vt 0.842170 0.907790
vt 0.702165 0.466405
vt 0.672083 0.466321
vt 0.672048 0.490001
vt 0.702130 0.490084
vt 0.947531 0.327914
vt 0.943847 0.346997
vt 0.957353 0.343777
vt 0.929422 0.346016
vt 0.957353 0.396167
vt 0.947883 0.414083
vt 0.989973 0.522056
vt 0.989973 0.491974
vt 0.966310 0.492002
vt 0.966310 0.522084
vt 0.692406 0.197465
vt 0.706281 0.196931
vt 0.202641 0.967328
vt 0.202641 0.910703
vt 0.172558 0.910742
vt 0.172558 0.967367
vt 0.873679 0.856136
vt 0.861324 0.856098
vt 0.526676 0.881823
vt 0.526696 0.732537
vt 0.496614 0.732625
vt 0.496594 0.881910
vt 0.644105 0.829530
vt 0.644105 0.699570
vt 0.602665 0.699587
vt 0.602665 0.829547
vt 0.702127 0.598703
vt 0.672045 0.598619
vt 0.672083 0.749964
vt 0.702165 0.750047
vt 0.702153 0.581200
vt 0.672071 0.581117
vt 0.882401 0.445734
vt 0.860409 0.445711
vt 0.860399 0.612449
vt 0.882392 0.612473
vt 0.293575 0.952144
vt 0.293575 0.910704
vt 0.252302 0.910706
vt 0.252302 0.952146
vt 0.844229 0.445731
vt 0.822236 0.445711
vt 0.822220 0.467421
vt 0.844213 0.467441
vt 0.910727 0.683819
vt 0.919434 0.683830
vt 0.919434 0.653748
vt 0.910727 0.653737
vt 0.821732 0.150679
vt 0.851814 0.150722
vt 0.851835 0.008128
vt 0.821753 0.008085
vt 0.526601 0.708262
vt 0.526696 0.008085
vt 0.496614 0.008172
vt 0.496519 0.708349
vt 0.897962 0.204067
vt 0.881685 0.204158
vt 0.881685 0.340060
vt 0.911767 0.339968
vt 0.718343 0.747356
vt 0.748426 0.747446
vt 0.748417 0.513222
vt 0.718335 0.513132
vt 0.474226 0.960638
vt 0.474226 0.910704
vt 0.444144 0.910743
vt 0.444144 0.960676
vt 0.309745 0.964132
vt 0.339827 0.964231
vt 0.339827 0.910803
vt 0.309745 0.910704
vt 0.967079 0.842555
vt 0.987344 0.842582
vt 0.987344 0.812500
vt 0.967079 0.812473
vt 0.961328 0.736296
vt 0.961328 0.628619
vt 0.936734 0.628623
vt 0.936734 0.736300
vt 0.218811 0.971107
vt 0.218811 0.910703
vt 0.226223 0.971107
vt 0.874222 0.904097
vt 0.866810 0.961752
vt 0.858340 0.961752
vt 0.858340 0.904097
vt 0.821753 0.163548
vt 0.851835 0.163591
vt 0.702127 0.972571
vt 0.702127 0.923960
vt 0.672045 0.923990
vt 0.672045 0.972601
vt 0.051978 0.963826
vt 0.008085 0.963849
vt 0.008085 0.910725
vt 0.051978 0.910703
vt 0.602750 0.466321
vt 0.655874 0.466397
vt 0.655789 0.510290
vt 0.602665 0.510214
vt 0.977031 0.110511
vt 0.946949 0.110424
vt 0.946935 0.151300
vt 0.977017 0.151386
vt 0.647185 0.881752
vt 0.647185 0.845718
vt 0.654992 0.845809
vt 0.654992 0.881843
vt 0.723251 0.108770
vt 0.753333 0.108857
vt 0.753357 0.093928
vt 0.723275 0.093842
vt 0.860409 0.625855
vt 0.882401 0.625878
vt 0.906168 0.115762
vt 0.930762 0.115766
vt 0.930765 0.008089
vt 0.906171 0.008085
vt 0.723275 0.263718
vt 0.753357 0.263805
vt 0.840891 0.954891
vt 0.840891 0.923960
vt 0.810808 0.923999
vt 0.810808 0.954930
vt 0.542867 0.966001
vt 0.572724 0.966040
vt 0.572724 0.935957
vt 0.542867 0.935919
vt 0.748426 0.466411
vt 0.718344 0.466321
vt 0.526601 0.898171
vt 0.496519 0.898080
vt 0.496519 0.977356
vt 0.526601 0.977447
vt 0.991915 0.475793
vt 0.991915 0.445711
vt 0.966310 0.445721
vt 0.966310 0.475803
vt 0.718297 0.949062
vt 0.748379 0.949149
vt 0.748386 0.924047
vt 0.718304 0.923960
vt 0.762094 0.449912
vt 0.762094 0.443519
vt 0.798129 0.443519
vt 0.798129 0.449912
vt 0.874222 0.961752
vt 0.920449 0.711180
vt 0.864559 0.715140
vt 0.864569 0.739941
vt 0.920449 0.743964
vt 0.378937 0.801874
vt 0.331578 0.763266
vt 0.252302 0.817832
vt 0.274953 0.866221
vt 0.156388 0.968358
vt 0.120354 0.968358
vt 0.138371 0.910703
vt 0.156388 0.910703
vt 0.542867 0.530396
vt 0.586495 0.530396
vt 0.586495 0.733453
vt 0.542867 0.733453
vt 0.159945 0.459031
vt 0.159945 0.613979
vt 0.168652 0.613979
vt 0.174873 0.459031
vt 0.988817 0.234149
vt 0.988817 0.204067
vt 0.972457 0.204121
vt 0.972457 0.234203
vt 0.030735 0.036398
vt 0.008085 0.084787
vt 0.134721 0.100745
vt 0.338607 0.733424
vt 0.324886 0.748337
vt 0.357738 0.724393
vt 0.420120 0.892989
vt 0.402617 0.892989
vt 0.456154 0.894534
vt 0.480348 0.192376
vt 0.419090 0.443588
vt 0.480348 0.892556
vt 0.450491 0.020440
vt 0.419560 0.008085
vt 0.450491 0.056474
vt 0.450491 0.192376
vt 0.419560 0.242309
vt 0.412868 0.288639
vt 0.450491 0.008085
vt 0.363494 0.612950
vt 0.351930 0.682795
vt 0.346506 0.664943
vt 0.805562 0.009629
vt 0.805562 0.158915
vt 0.769527 0.159430
vt 0.769527 0.008085
vt 0.346506 0.629423
vt 0.363494 0.533675
vt 0.167666 0.373577
vt 0.119277 0.289669
vt 0.119277 0.368944
vt 0.102290 0.237676
vt 0.102290 0.273196
vt 0.748386 0.970217
vt 0.734581 0.970221
vt 0.107714 0.219824
vt 0.119760 0.202540
vt 0.404161 0.288639
vt 0.404161 0.443588
vt 0.158400 0.100745
vt 0.175344 0.660309
vt 0.236132 0.710243
vt 0.206275 0.894532
vt 0.206275 0.882178
vt 0.175344 0.894532
vt 0.206275 0.710243
vt 0.206275 0.846143
vt 0.236132 0.010063
vt 0.211937 0.008085
vt 0.175903 0.009629
vt 0.158400 0.009629
vt 0.718304 0.970129
vt 0.080669 0.154282
vt 0.966528 0.094254
vt 0.946935 0.035304
vt 0.958034 0.036785
vt 0.966881 0.008085
vt 0.976351 0.026001
vt 0.976351 0.078391
vt 0.544411 0.094053
vt 0.542867 0.058018
vt 0.950394 0.908811
vt 0.937525 0.766218
vt 0.950909 0.766218
vt 0.694212 0.008085
vt 0.707081 0.150678
vt 0.693697 0.150678
vt 0.891272 0.952302
vt 0.890777 0.965957
vt 0.920859 0.965871
vt 0.921354 0.952216
vt 0.891272 0.904774
vt 0.891268 0.926029
vt 0.921350 0.925943
vt 0.921354 0.904687
vt 0.920564 0.612449
vt 0.920564 0.445711
vt 0.898571 0.445733
vt 0.898571 0.612471
vt 0.606941 0.166848
vt 0.606941 0.369906
vt 0.542867 0.369906
vt 0.542867 0.166848
vt 0.655874 0.683399
vt 0.602750 0.683324
vt 0.906171 0.144112
vt 0.930765 0.144116
vt 0.542867 0.749624
vt 0.542867 0.919749
vt 0.564577 0.919749
vt 0.564577 0.749624
vt 0.889998 0.178210
vt 0.889998 0.008085
vt 0.868005 0.008107
vt 0.868005 0.178232
vt 0.822236 0.637547
vt 0.844229 0.637567
vt 0.988235 0.796300
vt 0.988235 0.766218
vt 0.967079 0.766220
vt 0.967079 0.796302
vt 0.692406 0.340060
vt 0.692406 0.296166
vt 0.865515 0.296166
vt 0.865515 0.340060
vt 0.966310 0.604774
vt 0.979716 0.604797
vt 0.979716 0.582805
vt 0.966310 0.582781
vt 0.672045 0.809846
vt 0.672045 0.766218
vt 0.875102 0.766218
vt 0.875102 0.809846
vt 0.921354 0.888502
vt 0.921354 0.766218
vt 0.891272 0.766233
vt 0.891272 0.888517
vt 0.764610 0.637554
vt 0.806050 0.637567
vt 0.806035 0.507606
vt 0.764596 0.507594
vt 0.894557 0.653737
vt 0.764596 0.653737
vt 0.764596 0.695009
vt 0.894557 0.695009
vt 0.427974 0.910705
vt 0.400071 0.910704
vt 0.400071 0.966729
vt 0.427974 0.966729
vt 0.623112 0.369635
vt 0.789850 0.369635
vt 0.789850 0.356230
vt 0.623112 0.356230
vt 0.792499 0.740001
vt 0.792509 0.715200
vt 0.764606 0.715198
vt 0.764596 0.739999
vt 0.966310 0.538261
vt 0.966310 0.566611
vt 0.990904 0.566604
vt 0.990904 0.538254
vt 0.104183 0.910703
vt 0.104183 0.968358
vt 0.086166 0.968358
vt 0.068149 0.910703
vt 0.927938 0.311744
vt 0.956287 0.311744
vt 0.956287 0.204067
vt 0.927938 0.204067
vt 0.764556 0.959480
vt 0.794638 0.959571
vt 0.794638 0.924051
vt 0.764556 0.923960
vt 0.234693 0.910703
vt 0.234693 0.971107
vt 0.911767 0.204067
vt 0.542867 0.466321
vt 0.586495 0.466321
vt 0.985737 0.858814
vt 0.967079 0.858753
vt 0.848389 0.743964
vt 0.848389 0.711180
vt 0.937525 0.957766
vt 0.965428 0.957769
vt 0.965428 0.924984
vt 0.937525 0.924982
vt 0.355997 0.966734
vt 0.383900 0.966735
vt 0.383900 0.910705
vt 0.355997 0.910704
vt 0.692406 0.243717
vt 0.705790 0.243758
vt 0.705790 0.213675
vt 0.692406 0.213635
vt 0.753354 0.008172
vt 0.723272 0.008085
vt 0.542867 0.450151
vt 0.542867 0.386076
vt 0.745924 0.386076
vt 0.745924 0.450151
vt 0.762094 0.427349
vt 0.892055 0.427349
vt 0.892055 0.386076
vt 0.762094 0.386076
vt 0.815780 0.207785
vt 0.859408 0.207785
vt 0.859408 0.271860
vt 0.815780 0.271860
vt 0.936734 0.445711
vt 0.936734 0.612449
vt 0.950140 0.612449
vt 0.950140 0.445711
vt 0.806050 0.466333
vt 0.764610 0.466321
vt 0.845154 0.826016
vt 0.845154 0.869909
vt 0.672045 0.869909
vt 0.672045 0.826016
vt 0.676235 0.339958
vt 0.623112 0.340060
vt 0.623112 0.166950
vt 0.676235 0.166848
vt 0.927878 0.160290
vt 0.906168 0.160286
vt 0.906168 0.182279
vt 0.927878 0.182282
vt 0.799609 0.175620
vt 0.769527 0.175600
vt 0.769527 0.271840
vt 0.799609 0.271860
vt 0.602665 0.845718
vt 0.602665 0.953395
vt 0.631015 0.953395
vt 0.631015 0.845718
vt 0.874222 0.886080
vt 0.858340 0.886080
vt 0.946949 0.185044
vt 0.977031 0.185131
vn 1.0000 -0.0000 0.0000
vn -0.0055 -0.0254 -0.9997
vn 0.0000 1.0000 0.0000
vn -0.0000 0.9568 0.2907
vn -1.0000 0.0000 -0.0000
vn -0.9990 -0.0420 -0.0130
vn 1.0000 0.0016 0.0000
vn -0.0030 -0.0000 -1.0000
vn 0.9992 -0.0374 -0.0114
vn 0.9989 0.0238 -0.0409
vn 0.9990 0.0420 0.0130
vn 0.0031 -0.6961 0.7179
vn 0.0000 -0.0256 -0.9997
vn -0.0030 -0.0225 -0.9997
vn 0.0030 0.0000 1.0000
vn -0.0024 1.0000 0.0000
vn -0.0013 1.0000 -0.0014
vn -0.0013 1.0000 0.0000
vn -0.0011 1.0000 0.0000
vn 0.0013 -1.0000 0.0000
vn 0.0018 -1.0000 0.0000
vn 0.0004 0.0000 1.0000
vn -0.0010 -0.0000 -1.0000
vn -0.0017 1.0000 0.0001
vn -0.0001 -0.9057 -0.4239
vn -0.0030 0.7359 -0.6771
vn 0.0000 0.2983 -0.9545
vn 0.0000 0.0000 1.0000
vn 0.0031 -0.0953 0.9954
vn -0.0019 -0.0000 -1.0000
vn 0.0019 0.0000 1.0000
vn 0.0021 -0.9571 0.2897
vn -0.0050 1.0000 0.0000
vn 0.0017 -0.9897 0.1430
vn 0.0033 -0.5026 0.8645
vn 0.0020 -0.9686 0.2485
vn 0.0005 0.0000 1.0000
vn -0.0005 1.0000 0.0000
vn -0.0001 -0.9125 -0.4091
vn 0.0000 -0.8204 -0.5718
vn -0.0009 -0.8206 -0.5715
vn -0.9989 -0.0238 0.0409
vn -0.9992 0.0374 0.0114
vn -0.0030 0.7438 -0.6684
vn 0.0012 0.7101 0.7041
vn -0.0031 0.0815 -0.9967
vn -0.0018 1.0000 0.0000
vn 1.0000 0.0005 0.0000
vn -0.0008 1.0000 0.0000
vn -0.0005 -0.0000 -1.0000
vn -1.0000 -0.0016 0.0000
vn 0.0033 -0.4269 0.9043
vn -1.0000 -0.0013 0.0000
vn 0.0010 0.0000 1.0000
vn 0.0005 -1.0000 0.0000
vn -0.0033 0.5262 -0.8504
vn 0.0011 -1.0000 0.0000
vn -1.0000 -0.0012 0.0000
vn 0.9975 -0.0706 -0.0003
vn 0.0016 -1.0000 -0.0000
vn -1.0000 -0.0010 0.0003
vn -0.0005 0.9569 0.2906
vn -0.0012 1.0000 0.0000
vn -0.9974 -0.0719 0.0003
vn 0.0015 -0.9965 0.0840
vn -1.0000 -0.0005 0.0000
vn 1.0000 0.0012 0.0000
vn 0.0000 0.0000 -1.0000
vn -0.0004 -0.0000 -1.0000
vn 1.0000 0.0013 0.0000
vn 0.0008 -1.0000 0.0000
vn -0.0019 0.9795 -0.2015
vn 0.0032 -0.5670 0.8237
vn 1.0000 0.0010 -0.0003
vn 0.0001 -0.9306 -0.3661
usemtl MAT_DIFFUSE_OPAQUE
s off
f 43/1/1 22/2/1 42/3/1
f 44/4/2 3/5/2 38/6/2
f 50/7/3 2/8/3 49/9/3
f 61/10/4 3/11/4 79/12/4
f 28/13/1 16/14/1 39/15/1
f 81/16/5 65/17/5 82/18/5
f 84/19/6 62/20/6 85/21/6
f 74/22/5 72/23/5 101/24/5
f 94/25/1 96/26/1 99/27/1
f 110/28/7 109/29/7 105/30/7 106/31/7
f 27/32/8 68/33/8 69/34/8 28/35/8
f 20/36/9 44/37/9 38/38/9
f 20/36/10 21/39/10 44/37/10
f 44/37/11 21/39/11 43/1/11
f 22/2/1 43/1/1 21/39/1
f 41/40/1 42/3/1 23/41/1
f 23/41/1 42/3/1 22/2/1
f 18/42/12 59/43/12 60/44/12 19/45/12
f 3/5/13 85/46/13 79/47/13
f 85/46/14 3/5/14 44/4/14
f 76/48/15 77/49/15 36/50/15 35/51/15
f 8/52/16 2/8/16 9/53/16
f 9/53/17 2/8/17 50/7/17
f 77/54/18 78/55/18 37/56/18 36/57/18
f 128/58/19 127/59/19 125/60/19 126/61/19
f 30/62/20 71/63/20 72/64/20 31/65/20
f 29/66/8 70/67/8 71/63/8 30/62/8
f 113/68/21 115/69/21 116/70/21 114/71/21
f 125/72/22 127/73/22 123/74/22 121/75/22
f 28/35/20 69/34/20 70/67/20 29/66/20
f 112/76/23 110/77/23 106/78/23 108/79/23
f 53/80/15 54/81/15 13/82/15 12/83/15
f 33/84/8 74/85/8 75/86/8 34/87/8
f 46/88/18 45/89/18 4/90/18 5/91/18
f 1/92/24 7/93/24 6/94/24 47/95/24
f 10/96/20 51/97/20 52/98/20 11/99/20
f 72/100/15 73/101/15 32/102/15 31/103/15
f 25/104/25 66/105/25 67/106/25 26/107/25
f 64/108/26 82/109/26 41/110/26 23/111/26
f 136/112/18 132/113/18 131/114/18 135/115/18
f 86/116/27 87/117/27 1/118/27
f 88/119/28 2/120/28 93/121/28 92/122/28
f 32/123/20 73/124/20 74/85/20 33/84/20
f 57/125/29 58/126/29 17/127/29 16/128/29
f 157/129/30 154/130/30 156/131/30 159/132/30
f 155/133/31 153/134/31 158/135/31 160/136/31
f 21/137/32 62/138/32 63/139/32 22/140/32
f 90/141/33 93/142/33 8/143/33 7/144/33
f 14/145/8 55/146/8 56/147/8 15/148/8
f 120/149/23 118/150/23 114/71/23 116/70/23
f 134/151/20 133/152/20 129/153/20 130/154/20
f 13/155/20 54/156/20 55/146/20 14/145/20
f 50/157/15 51/158/15 10/159/15 9/160/15
f 45/161/15 47/162/15 6/163/15 4/164/15
f 11/99/34 52/98/34 53/165/34 12/166/34
f 17/167/20 58/168/20 59/169/20 18/170/20
f 20/171/35 61/172/35 62/173/35 21/174/35
f 39/175/36 80/176/36 81/177/36 40/178/36
f 86/179/3 48/180/3 49/181/3 89/182/3
f 89/183/28 2/120/28 88/119/28
f 140/184/37 138/185/37 137/186/37 139/187/37
f 27/188/1 24/189/1 25/190/1 26/191/1
f 93/192/1 90/193/1 91/194/1 92/195/1
f 151/196/38 147/197/38 148/198/38 152/199/38
f 55/200/5 54/201/5 53/202/5 56/203/5
f 23/204/39 64/205/39 65/206/39 24/207/39
f 67/208/5 66/209/5 65/17/5 68/210/5
f 24/189/1 41/211/1 23/212/1
f 24/189/1 40/213/1 41/211/1
f 30/214/1 28/13/1 29/215/1
f 28/13/1 40/213/1 27/188/1
f 27/188/1 40/213/1 24/189/1
f 37/216/1 28/13/1 30/214/1
f 4/217/1 15/218/1 5/219/1
f 5/219/1 28/13/1 37/216/1
f 8/220/1 10/221/1 7/222/1
f 7/222/1 10/221/1 6/223/1
f 11/224/1 12/225/1 4/217/1
f 6/223/1 11/224/1 4/217/1
f 5/219/1 16/14/1 28/13/1
f 15/218/1 16/14/1 5/219/1
f 28/13/1 39/15/1 40/213/1
f 10/221/1 8/220/1 9/226/1
f 4/217/1 12/225/1 15/218/1
f 39/15/1 18/227/1 38/228/1
f 38/228/1 18/227/1 20/229/1
f 11/224/1 6/223/1 10/221/1
f 102/230/5 101/231/5 72/232/5 100/233/5
f 20/229/1 18/227/1 19/234/1
f 18/227/1 16/14/1 17/235/1
f 39/15/1 16/14/1 18/227/1
f 57/236/5 59/237/5 58/238/5
f 59/237/5 61/239/5 60/240/5
f 79/241/40 80/176/40 3/242/40
f 59/237/5 79/243/5 61/239/5
f 57/236/5 80/244/5 59/237/5
f 59/237/5 80/244/5 79/243/5
f 12/225/1 13/245/1 14/246/1 15/218/1
f 57/236/5 69/247/5 80/244/5
f 80/244/5 69/247/5 81/16/5
f 52/248/5 45/249/5 53/202/5
f 53/202/5 45/249/5 56/203/5
f 50/250/5 49/251/5 51/252/5
f 51/252/5 47/253/5 52/248/5
f 48/254/5 47/253/5 51/252/5
f 48/254/5 51/252/5 49/251/5
f 46/255/5 56/203/5 45/249/5
f 45/249/5 52/248/5 47/253/5
f 78/256/5 69/247/5 46/255/5
f 69/247/5 57/236/5 46/255/5
f 71/257/5 69/247/5 78/256/5
f 69/247/5 71/257/5 70/258/5
f 39/175/41 38/259/41 3/242/41 80/176/41
f 46/255/5 57/236/5 56/203/5
f 65/17/5 81/16/5 68/210/5
f 68/210/5 81/16/5 69/247/5
f 82/18/5 65/17/5 64/260/5
f 61/261/42 85/21/42 62/20/42
f 62/20/5 84/19/5 63/262/5
f 63/262/5 83/263/5 64/264/5
f 64/264/5 83/263/5 82/265/5
f 85/21/43 61/261/43 79/266/43
f 63/262/5 84/19/5 83/263/5
f 103/267/1 104/268/1 94/25/1 99/27/1
f 72/23/5 74/22/5 73/269/5
f 74/22/5 101/24/5 75/270/5
f 75/270/5 101/24/5 76/271/5
f 94/25/1 95/272/1 96/26/1
f 96/26/1 97/273/1 99/27/1
f 97/273/1 98/274/1 99/27/1
f 84/275/44 85/276/44 44/277/44 43/278/44
f 82/279/45 83/280/45 42/281/45 41/282/45
f 37/56/46 78/55/46 46/88/46 5/91/46
f 120/283/47 119/284/47 117/285/47 118/286/47
f 145/287/48 146/288/48 148/289/48 147/290/48
f 158/135/49 157/291/49 159/292/49 160/136/49
f 136/293/50 135/294/50 133/152/50 134/151/50
f 111/295/51 112/296/51 108/297/51 107/298/51
f 112/299/47 111/300/47 109/301/47 110/302/47
f 105/303/21 107/304/21 108/79/21 106/78/21
f 40/305/52 81/306/52 82/307/52 41/308/52
f 159/309/53 156/310/53 155/311/53 160/312/53
f 119/313/54 115/314/54 113/315/54 117/316/54
f 150/317/55 146/318/55 145/319/55 149/320/55
f 67/321/56 68/322/56 27/323/56 26/324/56
f 121/325/57 123/326/57 124/327/57 122/328/57
f 127/329/58 128/330/58 124/331/58 123/332/58
f 143/333/59 139/334/59 137/335/59 141/336/59
f 118/337/1 117/338/1 113/339/1 114/340/1
f 142/341/60 141/342/60 137/343/60 138/344/60
f 132/345/37 130/346/37 129/347/37 131/348/37
f 89/349/5 88/350/5 87/351/5 86/352/5
f 136/353/61 134/354/61 130/355/61 132/356/61
f 19/357/20 60/358/20 61/359/20 20/360/20
f 91/361/27 90/362/27 1/118/27 87/117/27
f 1/92/3 47/95/3 48/363/3
f 149/364/28 145/365/28 147/197/28 151/196/28
f 20/366/62 38/367/62 3/11/62 61/10/62
f 144/368/50 143/369/50 141/342/50 142/341/50
f 144/370/63 140/371/63 139/372/63 143/373/63
f 142/374/64 138/375/64 140/376/64 144/377/64
f 75/378/18 76/379/18 35/380/18 34/381/18
f 15/148/65 56/147/65 57/382/65 16/383/65
f 152/384/66 150/385/66 149/386/66 151/387/66
f 126/388/67 125/389/67 121/390/67 122/391/67
f 152/392/68 148/393/68 146/394/68 150/395/68
f 119/396/5 120/397/5 116/398/5 115/399/5
f 124/327/69 128/400/69 126/401/69 122/328/69
f 158/402/70 153/403/70 154/404/70 157/405/70
f 156/406/71 154/407/71 153/408/71 155/409/71
f 111/410/54 107/411/54 105/412/54 109/413/54
f 83/280/72 84/275/72 43/278/72 42/281/72
f 24/414/73 65/415/73 66/416/73 25/417/73
f 135/418/74 131/419/74 129/420/74 133/421/74
f 87/422/3 88/119/3 92/122/3 91/423/3
f 22/140/75 63/139/75 64/424/75 23/425/75
