# Blender v2.80 (sub 75) OBJ File: 'LukeROTJ.blend'
# www.blender.org
mtllib LukeROTJ.mtl
o Plane.001
v 0.100000 -0.050092 -0.100000
v 0.100000 -0.050092 0.100000
v -0.100000 -0.050092 -0.100000
v -0.100000 -0.050092 0.100000
v 0.100000 0.049908 -0.100000
v 0.100000 0.049908 0.100000
v -0.100000 0.049908 -0.100000
v -0.100000 0.049908 0.100000
v -0.150000 -2.150092 0.150000
v -0.150000 -2.150092 -0.150000
v 0.150000 -2.150092 0.150000
v 0.150000 -2.150092 -0.150000
v 0.200000 -2.150092 -0.200000
v 0.200000 -2.150092 0.200000
v -0.200000 -2.150092 -0.200000
v -0.200000 -2.150092 0.200000
v 0.200000 -2.450092 -0.200000
v 0.200000 -2.450092 0.200000
v -0.200000 -2.450092 -0.200000
v -0.200000 -2.450092 0.200000
v -0.150000 -0.049978 0.150000
v -0.150000 -0.049978 -0.150000
v 0.150000 -0.250092 0.150000
v 0.150000 -0.250092 -0.150000
v 0.150000 -0.049978 0.150000
v 0.150000 -0.049978 -0.150000
v -0.150000 -0.250092 -0.150000
v -0.150000 -0.250092 0.150000
v 0.150000 -0.400092 0.150000
v 0.150000 -0.400092 -0.150000
v -0.150000 -0.400092 -0.150000
v -0.150000 -0.400092 0.150000
v 0.150000 -0.500092 -0.150000
v 0.150000 -0.500092 0.150000
v -0.150000 -0.500092 -0.150000
v -0.150000 -0.500092 0.150000
v 0.200000 0.000000 -0.200000
v 0.200000 -0.000000 0.200000
v -0.200000 0.000000 -0.200000
v -0.200000 -0.000000 0.200000
v 0.200000 -0.100000 -0.200000
v 0.200000 -0.100000 0.200000
v -0.200000 -0.100000 -0.200000
v -0.200000 -0.100000 0.200000
v 0.100000 -0.220092 0.093782
v 0.100000 -0.220092 -0.106282
v -0.100000 -0.220092 -0.106281
v -0.100000 -0.220092 0.093782
v 0.100000 -0.420092 -0.106282
v 0.100000 -0.420092 0.093782
v -0.100000 -0.420092 -0.106281
v -0.100000 -0.420092 0.093782
v 0.100000 -0.450092 -0.106282
v 0.100000 -0.450092 0.093782
v -0.100000 -0.450092 -0.106281
v -0.100000 -0.450092 0.093782
v 0.100000 -0.650000 -0.106282
v 0.100000 -0.650000 0.093782
v -0.100000 -0.650000 -0.106281
v -0.100000 -0.650000 0.093782
v 0.099944 -1.350000 0.150000
v -0.099944 -1.350000 0.150000
v 0.099944 -1.850092 0.150000
v -0.099944 -1.850092 0.150000
v 0.099944 -1.350000 0.250000
v -0.099943 -1.350000 0.250000
v 0.099944 -1.850092 0.250000
v -0.099943 -1.850092 0.250000
v 0.150000 -0.650000 -0.150000
v 0.150000 -0.650000 0.150000
v -0.150000 -0.650000 -0.150000
v -0.150000 -0.650000 0.150000
vt 0.875000 0.406250
vt 0.843750 0.406250
vt 0.843750 0.343750
vt 0.875000 0.343750
vt 0.312500 0.500000
vt 0.312500 0.031250
vt 0.406250 0.031250
vt 0.406250 0.500000
vt 0.718750 0.625000
vt 0.812500 0.625000
vt 0.812500 0.656250
vt 0.718750 0.656250
vt 0.937500 0.406250
vt 0.937500 0.437500
vt 0.875000 0.437500
vt 0.125000 0.500000
vt 0.125000 0.031250
vt 0.218750 0.031250
vt 0.218750 0.500000
vt 0.031250 0.500000
vt 0.031250 0.031250
vt 0.218750 0.593750
vt 0.125000 0.593750
vt 0.625000 0.656250
vt 0.625000 0.687500
vt 0.500000 0.687500
vt 0.500000 0.656250
vt 0.875000 0.312500
vt 0.937500 0.312500
vt 0.937500 0.343750
vt 0.562500 0.375000
vt 0.562500 0.250000
vt 0.687500 0.250000
vt 0.687500 0.375000
vt 0.875000 0.218750
vt 0.937500 0.218750
vt 0.937500 0.250000
vt 0.875000 0.250000
vt 0.468750 0.375000
vt 0.468750 0.250000
vt 0.250000 0.812500
vt 0.187500 0.812500
vt 0.187500 0.718750
vt 0.250000 0.718750
vt 0.031250 0.718750
vt 0.093750 0.718750
vt 0.093750 0.812500
vt 0.031250 0.812500
vt 0.812500 0.218750
vt 0.812500 0.062500
vt 0.875000 0.062500
vt 0.468750 0.687500
vt 0.500000 0.812500
vt 0.468750 0.812500
vt 0.937500 0.062500
vt 0.718750 0.531250
vt 0.812500 0.531250
vt 0.312500 0.875000
vt 0.375000 0.875000
vt 0.375000 0.937500
vt 0.312500 0.937500
vt 0.687500 0.156250
vt 0.562500 0.156250
vt 0.562500 0.031250
vt 0.687500 0.031250
vt 0.093750 0.875000
vt 0.187500 0.875000
vt 0.468750 0.968750
vt 0.468750 0.906250
vt 0.531250 0.906250
vt 0.531250 0.968750
vt 0.843750 0.750000
vt 0.812500 0.750000
vt 0.843750 0.656250
vt 0.625000 0.531250
vt 0.500000 0.531250
vt 0.968750 0.531250
vt 0.968750 0.593750
vt 0.906250 0.593750
vt 0.906250 0.531250
vt 0.656250 0.812500
vt 0.625000 0.812500
vt 0.656250 0.687500
vt 0.781250 0.250000
vt 0.781250 0.375000
vt 0.687500 0.656250
vt 0.718750 0.750000
vt 0.687500 0.750000
vt 0.687500 0.875000
vt 0.687500 0.812500
vt 0.750000 0.812500
vt 0.750000 0.875000
vt 0.187500 0.656250
vt 0.093750 0.656250
vt 0.500000 0.843750
vt 0.625000 0.843750
vt 0.312500 0.750000
vt 0.375000 0.750000
vt 0.375000 0.812500
vt 0.312500 0.812500
vt 0.875000 0.812500
vt 0.875000 0.875000
vt 0.812500 0.875000
vt 0.812500 0.812500
vt 0.312500 0.656250
vt 0.375000 0.656250
vt 0.375000 0.718750
vt 0.312500 0.718750
vt 0.718750 0.781250
vt 0.812500 0.781250
vt 0.562500 0.968750
vt 0.562500 0.906250
vt 0.625000 0.906250
vt 0.625000 0.968750
vt 0.687500 0.468750
vt 0.562500 0.468750
vt 0.968750 0.062500
vt 0.968750 0.218750
vt 0.875000 0.031250
vt 0.937500 0.031250
vt 0.968750 0.343750
vt 0.968750 0.406250
vn 0.0000 -0.0000 1.0000
vn -0.0000 0.0000 -1.0000
vn 1.0000 0.0000 -0.0000
vn -1.0000 0.0000 0.0000
vn 0.0000 1.0000 0.0000
vn 0.0000 -1.0000 0.0000
usemtl MAT_DIFFUSE_CUTOUT
s off
f 8/1/1 4/2/1 2/3/1 6/4/1
f 69/5/2 12/6/2 10/7/2 71/8/2
f 34/9/3 33/10/3 30/11/3 29/12/3
f 7/13/4 3/14/4 4/15/4 8/1/4
f 72/16/1 9/17/1 11/18/1 70/19/1
f 71/20/4 10/21/4 9/17/4 72/16/4
f 72/16/5 70/19/5 69/22/5 71/23/5
f 41/24/3 37/25/3 38/26/3 42/27/3
f 6/4/3 2/28/3 1/29/3 5/30/3
f 17/31/6 18/32/6 20/33/6 19/34/6
f 66/35/5 65/36/5 61/37/5 62/38/5
f 18/32/3 17/31/3 13/39/3 14/40/3
f 21/41/1 28/42/1 23/43/1 25/44/1
f 26/45/2 24/46/2 27/47/2 22/48/2
f 66/35/4 62/49/4 64/50/4 68/51/4
f 42/52/1 38/26/1 40/53/1 44/54/1
f 67/55/1 65/36/1 66/35/1 68/51/1
f 33/10/6 34/9/6 36/56/6 35/57/6
f 57/58/3 53/59/3 54/60/3 58/61/3
f 16/62/5 14/63/5 13/64/5 15/65/5
f 22/66/4 27/47/4 28/42/4 21/67/4
f 60/68/4 56/69/4 55/70/4 59/71/4
f 35/72/2 31/73/2 30/11/2 33/74/2
f 43/75/6 41/24/6 42/27/6 44/76/6
f 59/77/2 55/78/2 53/79/2 57/80/2
f 43/81/2 39/82/2 37/25/2 41/83/2
f 20/33/4 16/84/4 15/85/4 19/34/4
f 34/86/1 29/12/1 32/87/1 36/88/1
f 50/89/1 45/90/1 48/91/1 52/92/1
f 25/93/3 23/43/3 24/46/3 26/94/3
f 44/95/4 40/53/4 39/82/4 43/96/4
f 49/97/3 46/98/3 45/99/3 50/100/3
f 51/101/2 47/102/2 46/103/2 49/104/2
f 52/105/4 48/106/4 47/107/4 51/108/4
f 70/19/3 11/18/3 12/6/3 69/5/3
f 36/109/4 32/87/4 31/73/4 35/110/4
f 58/111/1 54/112/1 56/113/1 60/114/1
f 31/73/5 32/87/5 29/12/5 30/11/5
f 24/46/6 23/43/6 28/42/6 27/47/6
f 18/32/1 14/63/1 16/62/1 20/33/1
f 19/34/2 15/115/2 13/116/2 17/31/2
f 67/55/3 63/117/3 61/118/3 65/36/3
f 68/51/6 64/119/6 63/120/6 67/55/6
f 5/30/2 1/121/2 3/122/2 7/13/2
f 38/26/5 37/25/5 39/82/5 40/53/5
f 6/4/5 5/30/5 7/13/5 8/1/5
