# Blender v2.80 (sub 75) OBJ File: ''
# www.blender.org
mtllib dl18model.mtl
o dl18model
v 0.222937 0.554806 -1.015289
v 0.222937 0.092767 -1.015289
v 0.222937 0.092767 0.590476
v 0.222937 0.554806 0.590476
v -0.210882 0.554806 -1.015289
v -0.210882 0.092767 -1.015289
v -0.210882 0.092767 0.590476
v -0.210882 0.554806 0.590476
v 0.050231 0.446747 -1.458580
v -0.044199 0.446747 -1.458580
v -0.044199 0.549874 -1.458580
v 0.050231 0.549874 -1.458580
v 0.145952 0.645962 -1.092788
v -0.145952 0.645962 -1.092788
v -0.145952 0.645962 1.257892
v 0.145952 0.645962 1.257892
v 0.096254 0.638081 2.486812
v -0.096254 0.638081 2.486812
v -0.096254 0.436805 2.486028
v 0.096254 0.436805 2.486028
v 0.145952 0.237296 0.961873
v -0.145952 0.237296 0.961873
v -0.145952 0.237296 -1.092788
v 0.145952 0.237296 -1.092788
v -0.061683 0.482602 1.136896
v -0.061683 0.613272 1.234998
v 0.061683 0.613272 1.234998
v 0.061683 0.482602 1.136896
v -0.061683 0.612764 2.203194
v 0.061683 0.612764 2.203194
v -0.061683 0.481084 2.202690
v 0.061683 0.481084 2.202690
v -0.096254 0.436805 2.202549
v -0.096254 0.638081 2.203335
v 0.096254 0.638081 2.203335
v 0.096254 0.436805 2.202549
v -0.096254 0.155759 2.202549
v 0.096254 0.155759 2.202549
v 0.096254 0.153616 2.486028
v -0.096254 0.153616 2.486028
v -0.065416 0.395316 1.714977
v 0.065416 0.395316 1.714977
v 0.065416 0.193247 1.714977
v -0.065416 0.193247 1.714977
v -0.145952 0.335670 -1.092788
v 0.145952 0.335670 -1.092788
v -0.145952 0.661096 -1.092788
v 0.145952 0.661096 -1.092788
v -0.145952 0.335670 -1.423545
v 0.145952 0.335670 -1.423545
v -0.145952 0.661096 -1.423545
v 0.145952 0.661096 -1.423545
v -0.044597 0.549618 -1.423915
v -0.044597 0.445621 -1.423915
v 0.050629 0.445621 -1.423915
v 0.050629 0.549618 -1.423915
v 0.183903 0.161263 -1.130626
v -0.183903 0.161263 -1.130626
v -0.183903 0.520098 -1.130626
v 0.183903 0.520098 -1.130626
v -0.183903 0.520098 0.839471
v 0.183903 0.520098 0.839471
v -0.183903 0.161263 0.695695
v 0.183903 0.161263 0.695695
v 0.136834 -0.825422 -1.126579
v -0.136834 -0.825422 -1.126579
v -0.136834 -0.228998 -0.916965
v 0.136834 -0.228998 -0.916965
v 0.136834 0.170730 -0.946213
v -0.136834 0.170730 -0.946213
v -0.136834 0.165856 -0.184049
v 0.136834 0.165856 -0.184049
v 0.136834 -0.443487 -0.466785
v -0.136834 -0.443487 -0.466785
v -0.136834 -0.825422 -0.442411
v 0.136834 -0.825422 -0.442411
v -0.136834 0.034238 -0.707352
v 0.136834 0.034238 -0.707352
v -0.136834 -0.126629 -0.232796
v 0.136834 -0.126629 -0.232796
v -0.136834 -0.205054 -0.024798
v 0.136834 -0.205054 -0.024798
v -0.136834 -0.140267 0.230936
v 0.136834 -0.140267 0.230936
v -0.136834 0.013173 0.282084
v 0.136834 0.013173 0.282084
v -0.136834 0.163204 0.224117
v 0.136834 0.163204 0.224117
v 0.071742 -0.038034 -0.138268
v -0.071742 -0.038034 -0.138268
v -0.071742 0.165271 -0.193725
v 0.071742 0.165271 -0.193725
v -0.071742 0.165271 -0.024557
v 0.071742 0.165271 -0.024557
v -0.071742 -0.027764 -0.084121
v 0.071742 -0.027764 -0.084121
v -0.065990 -0.109502 -0.056478
v 0.065990 -0.109502 -0.056478
v -0.065990 -0.141151 -0.096078
v 0.065990 -0.141151 -0.096078
v -0.065990 -0.180176 0.016888
v 0.065990 -0.180176 0.016888
v 0.106829 0.708041 -1.441977
v -0.106829 0.708041 -1.441977
v -0.106829 0.921700 -1.441977
v 0.106829 0.921700 -1.441977
v -0.106829 0.921700 0.090236
v 0.106829 0.921700 0.090236
v 0.048186 0.863057 0.369955
v -0.048186 0.863057 0.369955
v -0.048186 0.766685 0.369955
v 0.048186 0.766685 0.369955
v 0.106829 0.708041 0.090236
v -0.106829 0.708041 0.090236
v -0.141032 0.673838 0.090236
v -0.141032 0.955902 0.090236
v 0.141032 0.955902 0.090236
v 0.141032 0.673838 0.090236
v -0.141032 0.955902 0.179891
v 0.141032 0.955902 0.179891
v -0.141032 0.673838 0.179891
v 0.141032 0.673838 0.179891
v -0.048186 0.766685 0.185039
v -0.048186 0.863057 0.185039
v 0.048186 0.863057 0.185039
v 0.048186 0.766685 0.185039
v 0.000000 0.741426 -0.537441
v 0.000000 0.611624 -0.537441
v 0.000000 0.611624 -0.406298
v 0.000000 0.741426 -0.406298
v 0.065714 0.639050 -0.952643
v -0.065714 0.639050 -0.952643
v -0.065714 0.770478 -0.952643
v 0.065714 0.770478 -0.952643
v -0.065714 0.770478 -0.821215
v 0.065714 0.770478 -0.821215
v -0.065714 0.639050 -0.821215
v 0.065714 0.639050 -0.821215
vt 0.406369 0.366999
vt 0.507712 0.397898
vt 0.406369 0.397898
vt 0.406369 0.320231
vt 0.507712 0.351130
vt 0.406369 0.351130
vt 0.398468 0.195105
vt 0.390630 0.203014
vt 0.390630 0.195105
vt 0.507873 0.140358
vt 0.641131 0.156233
vt 0.507873 0.156233
vt 0.796810 0.249904
vt 0.812530 0.234299
vt 0.812530 0.249904
vt 0.624661 0.195102
vt 0.507873 0.179703
vt 0.624661 0.179703
vt 0.624690 0.117210
vt 0.507873 0.117210
vt 0.648173 0.179691
vt 0.648173 0.195222
vt 0.646365 0.184175
vt 0.672539 0.226457
vt 0.734215 0.234230
vt 0.672539 0.234230
vt 0.734215 0.218621
vt 0.734215 0.226457
vt 0.666214 0.242010
vt 0.734215 0.249698
vt 0.666214 0.249698
vt 0.734215 0.242010
vt 0.773502 0.249904
vt 0.757770 0.249904
vt 0.770541 0.247912
vt 0.796810 0.265474
vt 0.773502 0.265474
vt 0.796810 0.234299
vt 0.812530 0.187330
vt 0.796810 0.210831
vt 0.796810 0.187330
vt 0.796810 0.280972
vt 0.773502 0.280972
vt 0.796962 0.101170
vt 0.781357 0.122378
vt 0.781357 0.101170
vt 0.835972 0.210588
vt 0.812742 0.187317
vt 0.835972 0.187317
vt 0.812530 0.210831
vt 0.773452 0.210677
vt 0.796772 0.210677
vt 0.757770 0.234299
vt 0.770896 0.189064
vt 0.773502 0.234299
vt 0.832602 0.141891
vt 0.799333 0.141699
vt 0.810118 0.141699
vt 0.776148 0.141916
vt 0.793319 0.141916
vt 0.406369 0.397898
vt 0.406369 0.397898
vt 0.406369 0.397898
vt 0.406369 0.397898
vt 0.406369 0.397898
vt 0.467750 0.210706
vt 0.460953 0.187310
vt 0.467750 0.187310
vt 0.406369 0.397898
vt 0.406369 0.397898
vt 0.460953 0.257893
vt 0.437533 0.234229
vt 0.460953 0.234229
vt 0.437533 0.163541
vt 0.460953 0.163541
vt 0.460953 0.210706
vt 0.437533 0.187310
vt 0.437533 0.210706
vt 0.421965 0.195264
vt 0.421965 0.202795
vt 0.414083 0.210706
vt 0.398468 0.192044
vt 0.390630 0.192044
vt 0.401325 0.203014
vt 0.401325 0.195105
vt 0.398468 0.206084
vt 0.398468 0.203014
vt 0.387870 0.203014
vt 0.507985 0.210947
vt 0.484410 0.234513
vt 0.484410 0.210947
vt 0.507985 0.234513
vt 0.641050 0.257936
vt 0.507985 0.257936
vt 0.656735 0.304918
vt 0.632648 0.281153
vt 0.656735 0.281153
vt 0.632648 0.304918
vt 0.507985 0.281153
vt 0.632524 0.210947
vt 0.531624 0.351236
vt 0.515235 0.390087
vt 0.515235 0.351236
vt 0.406369 0.397898
vt 0.406369 0.397898
vt 0.406369 0.397898
vt 0.718930 0.374585
vt 0.734445 0.351556
vt 0.734445 0.374585
vt 0.578115 0.335902
vt 0.539559 0.320146
vt 0.578115 0.320146
vt 0.535378 0.352018
vt 0.576184 0.375639
vt 0.548342 0.388904
vt 0.699144 0.351716
vt 0.658058 0.375499
vt 0.656540 0.351716
vt 0.531624 0.390087
vt 0.515235 0.413645
vt 0.561306 0.405185
vt 0.718869 0.398122
vt 0.673038 0.405247
vt 0.643487 0.395230
vt 0.531624 0.413645
vt 0.515235 0.429214
vt 0.593670 0.413325
vt 0.546533 0.413626
vt 0.734384 0.398122
vt 0.718808 0.421128
vt 0.640452 0.413443
vt 0.624666 0.371445
vt 0.609593 0.382901
vt 0.609593 0.371445
vt 0.624666 0.382901
vt 0.609552 0.397030
vt 0.624661 0.397030
vt 0.609511 0.405564
vt 0.624656 0.405564
vt 0.609511 0.413867
vt 0.637566 0.441902
vt 0.628183 0.452958
vt 0.628183 0.441902
vt 0.406369 0.397898
vt 0.406369 0.397898
vt 0.406369 0.397898
vt 0.589573 0.452989
vt 0.598890 0.440455
vt 0.598890 0.452989
vt 0.574275 0.440541
vt 0.567334 0.452766
vt 0.570846 0.439891
vt 0.613053 0.440503
vt 0.619971 0.452687
vt 0.609293 0.452687
vt 0.589573 0.440455
vt 0.598516 0.435147
vt 0.576026 0.435365
vt 0.637240 0.432234
vt 0.616471 0.439854
vt 0.611308 0.435343
vt 0.613808 0.433346
vt 0.589946 0.435147
vt 0.598516 0.430558
vt 0.573518 0.433360
vt 0.580672 0.430889
vt 0.628609 0.432234
vt 0.637290 0.428123
vt 0.606677 0.430882
vt 0.531244 0.062418
vt 0.515651 0.077910
vt 0.515651 0.062418
vt 0.531244 0.015590
vt 0.640664 0.031135
vt 0.531244 0.031135
vt 0.750211 0.085967
vt 0.758221 0.078090
vt 0.758221 0.085967
vt 0.640664 0.062418
vt 0.531244 0.046693
vt 0.640664 0.046693
vt 0.531244 0.077910
vt 0.687602 0.086293
vt 0.664198 0.086293
vt 0.684753 0.083454
vt 0.664198 0.094257
vt 0.687602 0.062851
vt 0.695340 0.086293
vt 0.664198 0.062851
vt 0.687602 0.054989
vt 0.656178 0.062851
vt 0.703237 0.078521
vt 0.710853 0.078521
vt 0.718589 0.086293
vt 0.750211 0.101702
vt 0.758221 0.101702
vt 0.734915 0.078090
vt 0.734915 0.085967
vt 0.758221 0.062717
vt 0.750211 0.078090
vt 0.750211 0.062717
vt 0.773169 0.085967
vt 0.773169 0.078090
vt 0.539130 0.101364
vt 0.546781 0.093402
vt 0.546781 0.101364
vt 0.515810 0.093557
vt 0.507896 0.101499
vt 0.507896 0.093557
vt 0.406369 0.397898
vt 0.406369 0.397898
vt 0.406369 0.397898
vt 0.523547 0.101499
vt 0.531228 0.093557
vt 0.531228 0.101499
vt 0.406369 0.397898
vt 0.406369 0.397898
vt 0.406369 0.397898
vt 0.523547 0.093557
vt 0.515810 0.101499
vt 0.499994 0.101499
vt 0.499994 0.093557
vt 0.507712 0.366999
vt 0.507712 0.320231
vt 0.641131 0.140358
vt 0.507873 0.195102
vt 0.638617 0.184175
vt 0.624793 0.179692
vt 0.624793 0.195222
vt 0.638617 0.190738
vt 0.646365 0.190738
vt 0.666430 0.218621
vt 0.770541 0.237759
vt 0.760565 0.237759
vt 0.760565 0.247912
vt 0.796962 0.122378
vt 0.812742 0.210588
vt 0.773452 0.187333
vt 0.760274 0.189064
vt 0.815204 0.141891
vt 0.406369 0.397898
vt 0.437533 0.257893
vt 0.429543 0.202795
vt 0.414083 0.187310
vt 0.429543 0.195264
vt 0.390630 0.206084
vt 0.387870 0.195105
vt 0.641050 0.234513
vt 0.507985 0.304918
vt 0.406369 0.397898
vt 0.718930 0.351556
vt 0.539559 0.335902
vt 0.577691 0.352018
vt 0.686091 0.388855
vt 0.590656 0.395236
vt 0.531624 0.429214
vt 0.734323 0.421128
vt 0.687913 0.413747
vt 0.624656 0.413867
vt 0.637566 0.452958
vt 0.406369 0.397898
vt 0.578047 0.452766
vt 0.589946 0.430558
vt 0.628659 0.428123
vt 0.640664 0.015590
vt 0.640664 0.077910
vt 0.684753 0.065755
vt 0.667055 0.065755
vt 0.667055 0.083454
vt 0.687602 0.094257
vt 0.695340 0.062851
vt 0.664198 0.054989
vt 0.656178 0.086293
vt 0.710853 0.070737
vt 0.718589 0.062851
vt 0.703237 0.070737
vt 0.539130 0.093402
vt 0.406369 0.397898
vt 0.406369 0.397898
vn -1.0000 -0.0000 0.0000
vn 0.0000 0.0000 -1.0000
vn 0.0000 1.0000 0.0000
vn 0.0000 -0.0039 1.0000
vn 0.0000 -0.0019 1.0000
vn 0.0000 -1.0000 -0.0000
vn 1.0000 0.0000 0.0000
vn 0.0009 -0.5882 0.8087
vn -0.0009 -0.5882 0.8087
vn 0.0067 -0.5838 0.8118
vn 0.0000 1.0000 0.0005
vn 0.0000 -1.0000 -0.0014
vn -0.0007 0.0042 -1.0000
vn 0.0007 0.0042 -1.0000
vn -0.0006 0.0044 -1.0000
vn 0.0000 -1.0000 -0.0076
vn 0.0000 0.0000 1.0000
vn 0.0000 0.9964 -0.0848
vn 0.9980 -0.0000 -0.0631
vn 0.0000 -0.9971 -0.0767
vn -0.9980 -0.0000 -0.0631
vn 0.8488 0.2916 0.4409
vn -0.5773 0.5774 0.5774
vn -0.5774 -0.5774 0.5773
vn 0.3015 0.3015 0.9045
vn -0.5772 -0.5774 0.5775
vn 0.5773 0.5774 0.5774
vn -0.0019 -0.0005 -1.0000
vn 0.0020 -0.0005 -1.0000
vn 0.0018 -0.0007 -1.0000
vn 0.0000 -0.9995 -0.0325
vn -0.9999 0.0000 -0.0115
vn 0.0000 1.0000 0.0074
vn 0.9999 0.0000 -0.0115
vn 0.0000 -0.3719 0.9283
vn 0.0000 0.3316 -0.9434
vn 0.0000 1.0000 0.0064
vn 0.0000 0.0637 0.9980
vn 0.0000 0.6229 -0.7823
vn 0.0000 -0.5940 0.8044
vn 0.0000 -0.8682 -0.4961
vn 0.0000 -0.1644 0.9864
vn 0.0000 0.9357 0.3528
vn 0.0000 0.9694 -0.2456
vn 0.0000 0.3162 -0.9487
vn 0.0000 -0.3604 -0.9328
vn 0.0000 -0.2632 -0.9648
vn 0.0000 -0.2948 0.9555
vn 0.0000 0.3204 0.9473
vn -0.9981 -0.0579 0.0196
vn -0.9984 -0.0486 0.0278
vn -0.9977 -0.0660 0.0125
vn 0.0000 -0.3787 -0.9255
vn 0.9981 -0.0579 0.0196
vn 0.9984 -0.0486 0.0278
vn 0.9986 -0.0420 0.0335
vn 0.0000 0.7202 0.6938
vn 0.0000 -0.9452 -0.3265
vn -0.0277 0.0090 0.9996
vn 0.0277 0.0091 0.9996
vn -0.0200 -0.5871 0.8092
vn -0.0256 -0.5852 0.8105
vn 0.0256 -0.5852 0.8105
vn 0.0200 -0.5871 0.8092
vn -0.0067 -0.5838 0.8118
vn -0.0009 0.0036 -1.0000
vn 0.0009 0.0036 -1.0000
vn 0.0006 0.0044 -1.0000
vn -0.9045 0.3015 -0.3015
vn 0.5774 -0.5774 0.5773
vn 0.0039 0.0011 -1.0000
vn -0.0017 -0.0007 -1.0000
vn -0.0036 0.0011 -1.0000
vn -0.0037 0.0011 -1.0000
vn -0.9986 -0.0420 0.0335
vn 0.9977 -0.0660 0.0125
vn 0.0554 -0.0183 0.9983
vn 0.0554 -0.0189 0.9983
vn -0.0277 0.0091 0.9996
vn -0.0554 -0.0189 0.9983
vn -0.0553 -0.0183 0.9983
usemtl MAT_DIFFUSE_CUTOUT
s 1
f 2/1/1 4/2/1 1/3/1
f 6/4/1 8/5/1 5/6/1
f 10/7/2 12/8/2 9/9/2
f 14/10/3 16/11/3 13/12/3
f 18/13/4 20/14/5 17/15/4
f 22/16/6 24/17/6 21/18/6
f 22/19/1 14/10/1 23/20/1
f 21/18/7 13/12/7 16/11/7
f 16/21/8 15/22/9 27/23/10
f 26/24/11 30/25/11 27/26/11
f 26/24/1 31/27/1 29/28/1
f 28/29/12 31/30/12 25/31/12
f 27/26/7 32/32/7 28/29/7
f 34/33/13 35/34/14 29/35/15
f 34/33/3 17/36/3 35/37/3
f 34/33/1 19/38/1 18/13/1
f 38/39/16 40/40/16 37/41/16
f 35/37/7 20/42/7 36/43/7
f 42/44/2 44/45/2 41/46/2
f 20/47/7 38/48/7 36/49/7
f 19/38/5 39/50/17 20/14/5
f 19/51/1 37/41/1 40/52/1
f 36/53/18 41/54/18 33/55/18
f 38/48/19 42/56/19 36/49/19
f 38/39/20 44/57/20 43/58/20
f 37/41/21 41/59/21 44/60/21
f 23/61/2 46/62/2 24/63/2
f 23/61/22 47/64/23 45/65/24
f 13/66/17 47/67/17 14/68/17
f 13/69/25 46/62/26 48/70/27
f 45/71/6 50/72/6 46/73/6
f 47/67/1 49/74/1 45/75/1
f 48/76/3 51/77/3 47/67/3
f 46/73/7 52/78/7 48/76/7
f 54/79/28 55/80/29 50/81/30
f 54/82/31 9/9/31 55/83/31
f 53/84/32 10/7/32 54/85/32
f 53/86/33 12/8/33 11/87/33
f 56/88/34 9/9/34 12/8/34
f 58/89/2 60/90/2 57/91/2
f 59/92/3 62/93/3 60/94/3
f 61/95/35 64/96/35 62/97/35
f 63/98/6 57/99/6 64/96/6
f 63/100/1 59/92/1 58/89/1
f 64/96/7 60/94/7 62/93/7
f 66/101/36 68/102/36 65/103/36
f 70/104/37 72/105/37 69/106/37
f 74/107/38 76/108/38 73/109/38
f 75/110/6 65/111/6 76/112/6
f 66/113/1 74/114/1 67/115/1
f 65/116/7 73/117/7 76/118/7
f 67/119/39 78/120/39 68/102/39
f 74/114/1 77/121/1 67/115/1
f 73/109/40 79/122/40 74/107/40
f 73/117/7 78/123/7 80/124/7
f 77/125/41 69/126/41 78/120/41
f 77/121/1 71/127/1 70/128/1
f 80/129/42 71/130/42 79/122/42
f 78/123/7 72/131/7 80/124/7
f 79/132/43 82/133/43 80/134/43
f 81/135/44 84/136/44 82/133/44
f 83/137/45 86/138/45 84/136/45
f 85/139/46 88/140/46 86/138/46
f 90/141/47 92/142/47 89/143/47
f 91/144/3 94/145/3 92/146/3
f 93/147/48 96/148/48 94/149/48
f 95/150/1 91/151/1 90/152/1
f 96/153/7 92/154/7 94/155/7
f 95/156/49 98/157/49 96/148/49
f 90/152/50 97/158/51 95/150/52
f 89/143/53 99/159/53 90/141/53
f 89/160/54 98/161/55 100/162/56
f 97/163/57 102/164/57 98/157/57
f 97/158/1 99/165/1 101/166/1
f 100/167/58 101/168/58 99/159/58
f 100/162/7 98/161/7 102/169/7
f 104/170/2 106/171/2 103/172/2
f 105/173/3 108/174/3 106/175/3
f 110/176/17 112/177/17 109/178/17
f 114/179/6 103/180/6 113/181/6
f 114/179/1 105/182/1 104/170/1
f 103/180/7 108/174/7 113/181/7
f 116/183/2 117/184/2 107/185/2
f 116/183/3 120/186/3 117/184/3
f 115/187/1 119/188/1 116/183/1
f 118/189/6 121/190/6 115/187/6
f 117/184/7 122/191/7 118/189/7
f 124/192/59 125/193/60 120/194/60
f 124/195/3 109/178/3 125/196/3
f 123/197/1 110/176/1 124/198/1
f 126/199/6 111/200/6 123/201/6
f 125/202/7 112/177/7 126/203/7
f 128/204/1 130/205/1 127/206/1
f 132/207/2 134/208/2 131/209/2
f 133/210/3 136/211/3 134/212/3
f 135/213/17 138/214/17 136/215/17
f 137/216/6 131/217/6 138/218/6
f 137/219/1 133/220/1 132/207/1
f 131/209/7 136/221/7 138/222/7
f 2/1/1 3/223/1 4/2/1
f 6/4/1 7/224/1 8/5/1
f 10/7/2 11/87/2 12/8/2
f 14/10/3 15/225/3 16/11/3
f 18/13/4 19/38/5 20/14/5
f 22/16/6 23/226/6 24/17/6
f 22/19/1 15/225/1 14/10/1
f 21/18/7 24/17/7 13/12/7
f 28/227/61 21/228/62 16/21/8
f 15/22/9 22/229/63 25/230/64
f 15/22/9 25/230/64 26/231/65
f 27/23/10 28/227/61 16/21/8
f 15/22/9 26/231/65 27/23/10
f 26/24/11 29/28/11 30/25/11
f 26/24/1 25/232/1 31/27/1
f 28/29/12 32/32/12 31/30/12
f 27/26/7 30/25/7 32/32/7
f 31/233/66 33/55/66 34/33/13
f 35/34/14 36/53/67 32/234/67
f 35/34/14 32/234/67 30/235/68
f 29/35/15 31/233/66 34/33/13
f 35/34/14 30/235/68 29/35/15
f 34/33/3 18/13/3 17/36/3
f 34/33/1 33/55/1 19/38/1
f 38/39/16 39/50/16 40/40/16
f 35/37/7 17/36/7 20/42/7
f 42/44/2 43/236/2 44/45/2
f 20/47/7 39/237/7 38/48/7
f 19/38/5 40/40/17 39/50/17
f 19/51/1 33/238/1 37/41/1
f 36/53/18 42/239/18 41/54/18
f 38/48/19 43/240/19 42/56/19
f 38/39/20 37/41/20 44/57/20
f 37/41/21 33/238/21 41/59/21
f 23/61/2 45/65/2 46/62/2
f 23/61/22 14/241/69 47/64/23
f 13/66/17 48/76/17 47/67/17
f 13/69/25 24/63/70 46/62/26
f 45/71/6 49/242/6 50/72/6
f 47/67/1 51/77/1 49/74/1
f 48/76/3 52/78/3 51/77/3
f 46/73/7 50/72/7 52/78/7
f 56/243/71 52/78/71 50/81/30
f 49/244/72 51/77/73 53/245/74
f 49/244/72 53/245/74 54/79/28
f 55/80/29 56/243/71 50/81/30
f 49/244/72 54/79/28 50/81/30
f 54/82/31 10/7/31 9/9/31
f 53/84/32 11/87/32 10/7/32
f 53/86/33 56/246/33 12/8/33
f 56/88/34 55/247/34 9/9/34
f 58/89/2 59/92/2 60/90/2
f 59/92/3 61/248/3 62/93/3
f 61/95/35 63/98/35 64/96/35
f 63/98/6 58/249/6 57/99/6
f 63/100/1 61/248/1 59/92/1
f 64/96/7 57/99/7 60/94/7
f 66/101/36 67/119/36 68/102/36
f 70/104/37 71/250/37 72/105/37
f 74/107/38 75/251/38 76/108/38
f 75/110/6 66/252/6 65/111/6
f 66/113/1 75/253/1 74/114/1
f 65/116/7 68/254/7 73/117/7
f 67/119/39 77/125/39 78/120/39
f 74/114/1 79/255/1 77/121/1
f 73/109/40 80/129/40 79/122/40
f 73/117/7 68/254/7 78/123/7
f 77/125/41 70/256/41 69/126/41
f 77/121/1 79/255/1 71/127/1
f 80/129/42 72/257/42 71/130/42
f 78/123/7 69/258/7 72/131/7
f 79/132/43 81/135/43 82/133/43
f 81/135/44 83/137/44 84/136/44
f 83/137/45 85/139/45 86/138/45
f 85/139/46 87/259/46 88/140/46
f 90/141/47 91/260/47 92/142/47
f 91/144/3 93/261/3 94/145/3
f 93/147/48 95/156/48 96/148/48
f 95/150/1 93/262/1 91/151/1
f 96/153/7 89/160/7 92/154/7
f 95/156/49 97/163/49 98/157/49
f 90/152/50 99/165/75 97/158/51
f 89/143/53 100/167/53 99/159/53
f 89/160/54 96/153/76 98/161/55
f 97/163/57 101/263/57 102/164/57
f 100/167/58 102/264/58 101/168/58
f 104/170/2 105/182/2 106/171/2
f 105/173/3 107/265/3 108/174/3
f 110/176/17 111/200/17 112/177/17
f 114/179/6 104/170/6 103/180/6
f 114/179/1 107/266/1 105/182/1
f 103/180/7 106/175/7 108/174/7
f 114/267/2 115/187/2 116/183/2
f 117/184/2 118/189/2 113/268/2
f 117/184/2 113/268/2 108/269/2
f 107/185/2 114/267/2 116/183/2
f 117/184/2 108/269/2 107/185/2
f 116/183/3 119/270/3 120/186/3
f 115/187/1 121/271/1 119/188/1
f 118/189/6 122/272/6 121/190/6
f 117/184/7 120/273/7 122/191/7
f 126/274/77 122/275/78 125/193/60
f 122/275/78 120/194/60 125/193/60
f 119/188/79 121/271/80 124/192/59
f 121/271/80 123/276/81 124/192/59
f 119/188/79 124/192/59 120/194/60
f 124/195/3 110/176/3 109/178/3
f 123/197/1 111/200/1 110/176/1
f 126/199/6 112/177/6 111/200/6
f 125/202/7 109/178/7 112/177/7
f 128/204/1 129/277/1 130/205/1
f 132/207/2 133/220/2 134/208/2
f 133/210/3 135/278/3 136/211/3
f 135/213/17 137/219/17 138/214/17
f 137/216/6 132/279/6 131/217/6
f 137/219/1 135/213/1 133/220/1
f 131/209/7 134/208/7 136/221/7
