# Blender v3.4.1 OBJ File: 'shaagi.blend'
# www.blender.org
mtllib shaagi.mtl
o body.014_Cube.044
v -0.150000 -1.700000 0.150000
v -0.150000 -0.500000 0.150000
v -0.150000 -1.700000 -0.150000
v -0.150000 -0.500000 -0.150000
v 0.150000 -1.700000 0.150000
v 0.150000 -0.500000 0.150000
v 0.150000 -1.700000 -0.150000
v 0.150000 -0.500000 -0.150000
vt 0.062500 0.390625
vt 0.250000 0.390625
vt 0.250000 0.437500
vt 0.062500 0.437500
vt 0.250000 0.625000
vt 0.296875 0.437500
vt 0.296875 0.625000
vt 0.484375 0.437500
vt 0.296875 0.390625
vt 0.484375 0.390625
vt 0.296875 0.203125
vt 0.250000 0.203125
vt 0.125000 0.500000
vt 0.375000 0.500000
vt 0.375000 0.750000
vt 0.125000 0.750000
vn -1.0000 0.0000 0.0000
vn 0.0000 0.0000 -1.0000
vn 1.0000 0.0000 0.0000
vn 0.0000 0.0000 1.0000
vn 0.0000 -1.0000 0.0000
vn 0.0000 1.0000 0.0000
usemtl Material.001
s off
f 1/1/1 2/2/1 4/3/1 3/4/1
f 3/5/2 4/3/2 8/6/2 7/7/2
f 7/8/3 8/6/3 6/9/3 5/10/3
f 5/11/4 6/9/4 2/2/4 1/12/4
f 3/13/5 7/14/5 5/15/5 1/16/5
f 8/6/6 4/3/6 2/2/6 6/9/6
o emitter.014_Cube.043
v -0.150000 -0.300000 0.150000
v -0.150000 -0.000000 0.150000
v -0.150000 -0.300000 -0.150000
v -0.150000 -0.000000 -0.150000
v 0.150000 -0.300000 0.150000
v 0.150000 -0.000000 0.150000
v 0.150000 -0.300000 -0.150000
v 0.150000 -0.000000 -0.150000
v -0.100000 -0.500000 0.100000
v -0.100000 -0.300000 0.100000
v -0.100000 -0.500000 -0.100000
v -0.100000 -0.300000 -0.100000
v 0.100000 -0.500000 0.100000
v 0.100000 -0.300000 0.100000
v 0.100000 -0.500000 -0.100000
v 0.100000 -0.300000 -0.100000
v -0.050000 -0.200000 0.200000
v -0.050000 0.000000 0.200000
v -0.050000 -0.200000 0.150000
v -0.050000 0.000000 0.150000
v 0.050000 -0.200000 0.200000
v 0.050000 0.000000 0.200000
v 0.050000 -0.200000 0.150000
v 0.050000 0.000000 0.150000
v 0.150000 -0.200000 0.050000
v 0.150000 0.000000 0.050000
v 0.150000 -0.200000 -0.050000
v 0.150000 0.000000 -0.050000
v 0.200000 -0.200000 0.050000
v 0.200000 0.000000 0.050000
v 0.200000 -0.200000 -0.050000
v 0.200000 0.000000 -0.050000
v -0.050000 -0.200000 -0.150000
v -0.050000 0.000000 -0.150000
v -0.050000 -0.200000 -0.200000
v -0.050000 0.000000 -0.200000
v 0.050000 -0.200000 -0.150000
v 0.050000 0.000000 -0.150000
v 0.050000 -0.200000 -0.200000
v 0.050000 0.000000 -0.200000
v -0.200000 -0.200000 0.050000
v -0.200000 0.000000 0.050000
v -0.200000 -0.200000 -0.050000
v -0.200000 0.000000 -0.050000
v -0.150000 -0.200000 0.050000
v -0.150000 0.000000 0.050000
v -0.150000 -0.200000 -0.050000
v -0.150000 0.000000 -0.050000
vt 0.062500 0.843750
vt 0.109375 0.843750
vt 0.109375 0.890625
vt 0.062500 0.890625
vt 0.109375 0.937500
vt 0.156250 0.890625
vt 0.156250 0.937500
vt 0.203125 0.890625
vt 0.156250 0.843750
vt 0.203125 0.843750
vt 0.156250 0.796875
vt 0.109375 0.796875
vt 0.109375 0.750000
vt 0.156250 0.750000
vt 0.093750 0.687500
vt 0.093750 0.718750
vt 0.062500 0.718750
vt 0.062500 0.687500
vt 0.187500 0.687500
vt 0.187500 0.718750
vt 0.156250 0.718750
vt 0.156250 0.687500
vt 0.125000 0.718750
vt 0.125000 0.687500
vt 0.125000 0.500000
vt 0.375000 0.500000
vt 0.375000 0.750000
vt 0.125000 0.750000
vt 0.625000 0.500000
vt 0.875000 0.500000
vt 0.875000 0.750000
vt 0.625000 0.750000
vt 0.328125 0.890625
vt 0.328125 0.921875
vt 0.312500 0.921875
vt 0.312500 0.890625
vt 0.375000 0.250000
vt 0.625000 0.250000
vt 0.625000 0.500000
vt 0.375000 0.500000
vt 0.359375 0.890625
vt 0.359375 0.921875
vt 0.343750 0.921875
vt 0.343750 0.890625
vt 0.328125 0.875000
vt 0.343750 0.875000
vt 0.343750 0.937500
vt 0.328125 0.937500
vt 0.375000 0.000000
vt 0.625000 0.000000
vt 0.625000 0.250000
vt 0.375000 0.250000
vt 0.390625 0.890625
vt 0.390625 0.921875
vt 0.406250 0.921875
vt 0.406250 0.890625
vt 0.421875 0.921875
vt 0.421875 0.890625
vt 0.437500 0.921875
vt 0.437500 0.890625
vt 0.406250 0.875000
vt 0.421875 0.875000
vt 0.406250 0.937500
vt 0.421875 0.937500
vt 0.515625 0.890625
vt 0.515625 0.921875
vt 0.500000 0.921875
vt 0.500000 0.890625
vt 0.484375 0.921875
vt 0.484375 0.890625
vt 0.468750 0.921875
vt 0.468750 0.890625
vt 0.375000 0.750000
vt 0.625000 0.750000
vt 0.625000 1.000000
vt 0.375000 1.000000
vt 0.484375 0.875000
vt 0.500000 0.875000
vt 0.500000 0.937500
vt 0.484375 0.937500
vt 0.265625 0.890625
vt 0.265625 0.921875
vt 0.250000 0.921875
vt 0.250000 0.890625
vt 0.234375 0.921875
vt 0.234375 0.890625
vt 0.375000 0.500000
vt 0.625000 0.500000
vt 0.625000 0.750000
vt 0.375000 0.750000
vt 0.281250 0.890625
vt 0.281250 0.921875
vt 0.250000 0.875000
vt 0.265625 0.875000
vt 0.250000 0.937500
vt 0.265625 0.937500
vn -1.0000 0.0000 0.0000
vn 0.0000 0.0000 -1.0000
vn 1.0000 0.0000 0.0000
vn 0.0000 0.0000 1.0000
vn 0.0000 -1.0000 0.0000
vn 0.0000 1.0000 0.0000
usemtl Material.001
s off
f 9/17/7 10/18/7 12/19/7 11/20/7
f 11/21/8 12/19/8 16/22/8 15/23/8
f 15/24/9 16/22/9 14/25/9 13/26/9
f 13/27/10 14/25/10 10/18/10 9/28/10
f 11/29/11 15/30/11 13/27/11 9/28/11
f 16/22/12 12/19/12 10/18/12 14/25/12
f 17/31/7 18/32/7 20/33/7 19/34/7
f 19/35/8 20/36/8 24/37/8 23/38/8
f 23/38/9 24/37/9 22/39/9 21/40/9
f 21/40/10 22/39/10 18/32/10 17/31/10
f 19/41/11 23/42/11 21/43/11 17/44/11
f 24/45/12 20/46/12 18/47/12 22/48/12
f 25/49/7 26/50/7 28/51/7 27/52/7
f 27/53/8 28/54/8 32/55/8 31/56/8
f 31/57/9 32/58/9 30/59/9 29/60/9
f 29/60/10 30/59/10 26/50/10 25/49/10
f 27/61/11 31/62/11 29/60/11 25/49/11
f 32/63/12 28/64/12 26/50/12 30/59/12
f 33/65/7 34/66/7 36/67/7 35/68/7
f 35/69/8 36/70/8 40/71/8 39/72/8
f 39/72/9 40/71/9 38/73/9 37/74/9
f 37/74/10 38/73/10 34/75/10 33/76/10
f 35/77/11 39/72/11 37/74/11 33/78/11
f 40/71/12 36/79/12 34/80/12 38/73/12
f 41/81/7 42/82/7 44/83/7 43/84/7
f 43/84/8 44/83/8 48/85/8 47/86/8
f 47/86/9 48/85/9 46/87/9 45/88/9
f 45/89/10 46/90/10 42/91/10 41/92/10
f 43/84/11 47/86/11 45/93/11 41/94/11
f 48/85/12 44/83/12 42/95/12 46/96/12
f 49/97/7 50/98/7 52/99/7 51/100/7
f 51/100/8 52/99/8 56/101/8 55/102/8
f 55/103/9 56/104/9 54/105/9 53/106/9
f 53/107/10 54/108/10 50/98/10 49/97/10
f 51/100/11 55/109/11 53/110/11 49/97/11
f 56/111/12 52/99/12 50/98/12 54/112/12
o pommel.014_Cube.045
v -0.150000 -2.000000 0.150000
v -0.150000 -1.700000 0.150000
v -0.150000 -2.000000 -0.150000
v -0.150000 -1.700000 -0.150000
v 0.150000 -2.000000 0.150000
v 0.150000 -1.700000 0.150000
v 0.150000 -2.000000 -0.150000
v 0.150000 -1.700000 -0.150000
vt 0.453125 0.234375
vt 0.500000 0.234375
vt 0.500000 0.281250
vt 0.453125 0.281250
vt 0.453125 0.328125
vt 0.406250 0.328125
vt 0.406250 0.281250
vt 0.359375 0.281250
vt 0.359375 0.234375
vt 0.406250 0.234375
vt 0.406250 0.187500
vt 0.453125 0.187500
vt 0.625000 0.500000
vt 0.875000 0.500000
vt 0.875000 0.750000
vt 0.625000 0.750000
vn -1.0000 0.0000 0.0000
vn 0.0000 0.0000 -1.0000
vn 1.0000 0.0000 0.0000
vn 0.0000 0.0000 1.0000
vn 0.0000 -1.0000 0.0000
vn 0.0000 1.0000 0.0000
usemtl Material.001
s off
f 57/113/13 58/114/13 60/115/13 59/116/13
f 59/116/14 60/117/14 64/118/14 63/119/14
f 63/119/15 64/120/15 62/121/15 61/122/15
f 61/122/16 62/123/16 58/124/16 57/113/16
f 59/116/17 63/119/17 61/122/17 57/113/17
f 64/125/18 60/126/18 58/127/18 62/128/18
