# Blender v2.80 (sub 75) OBJ File: 'machine_spoked.blend'
# www.blender.org
mtllib machine_spoked.mtl
o Circle.001
v -0.229037 0.326075 0.037768
v -0.227558 0.326075 -0.046965
v -0.229037 0.111072 0.037768
v -0.227558 0.111072 -0.046965
v -0.479821 0.111072 0.035579
v -0.478342 0.111072 -0.049154
v 0.224545 0.326075 0.041726
v 0.224545 0.326075 -0.043020
v 0.224545 0.111072 0.041726
v 0.224545 0.111072 -0.043020
v 0.475328 0.111072 0.043915
v 0.475328 0.111072 -0.040831
v -0.041895 0.326075 -0.229850
v 0.042836 0.326075 -0.228232
v -0.041895 0.111072 -0.229850
v 0.042836 0.111072 -0.228232
v -0.039296 0.111072 -0.480629
v 0.045435 0.111072 -0.479011
v -0.046596 0.326075 0.223726
v 0.038150 0.326075 0.223864
v -0.046596 0.111072 0.223726
v 0.038150 0.111072 0.223864
v -0.049196 0.111072 0.474505
v 0.035551 0.111072 0.474644
v -0.192314 0.326075 -0.132880
v -0.131916 0.326075 -0.192328
v -0.192314 0.111072 -0.132880
v -0.131916 0.111072 -0.192328
v -0.369793 0.111072 -0.310075
v -0.309396 0.111072 -0.369523
v 0.128687 0.326075 0.187605
v 0.188038 0.326075 0.127112
v 0.128687 0.111072 0.187605
v 0.188038 0.111072 0.127112
v 0.306167 0.111072 0.364800
v 0.365517 0.111072 0.304307
v 0.128693 0.326075 -0.192847
v 0.188042 0.326075 -0.132352
v 0.128693 0.111072 -0.192847
v 0.188042 0.111072 -0.132352
v 0.306178 0.111072 -0.370036
v 0.365527 0.111072 -0.309541
v -0.192318 0.326075 0.127629
v -0.131922 0.326075 0.187079
v -0.192318 0.111072 0.127629
v -0.131922 0.111072 0.187079
v -0.369803 0.111072 0.304818
v -0.309408 0.111072 0.364268
v -0.207041 -0.001465 -0.499841
v -0.499841 -0.001465 -0.207041
v -0.499841 -0.001465 0.207041
v -0.207041 -0.001465 0.499841
v 0.207041 -0.001465 0.499841
v 0.499841 -0.001465 0.207041
v 0.499841 -0.001465 -0.207041
v 0.207041 -0.001465 -0.499841
v -0.499841 0.114527 -0.207041
v -0.207041 0.114527 -0.499841
v -0.499841 0.114527 0.207041
v -0.207041 0.114527 0.499841
v 0.207041 0.114527 0.499841
v 0.499841 0.114527 0.207041
v 0.499841 0.114527 -0.207041
v 0.207041 0.114527 -0.499841
v -0.249053 0.100047 -0.103161
v -0.103161 0.100047 -0.249053
v -0.249053 0.100047 0.103161
v -0.103161 0.100047 0.249053
v 0.103161 0.100047 0.249053
v 0.249053 0.100047 0.103161
v 0.249053 0.100047 -0.103161
v 0.103161 0.100047 -0.249053
v -0.249053 0.326075 -0.103161
v -0.103161 0.326075 -0.249053
v -0.249053 0.326075 0.103161
v -0.103161 0.326075 0.249053
v 0.103161 0.326075 0.249053
v 0.249053 0.326075 0.103161
v 0.249053 0.326075 -0.103161
v 0.103161 0.326075 -0.249053
v -0.298659 0.326075 -0.123709
v -0.123709 0.326075 -0.298659
v -0.298659 0.326075 0.123709
v -0.123709 0.326075 0.298659
v 0.123709 0.326075 0.298659
v 0.298659 0.326075 0.123708
v 0.298659 0.326075 -0.123709
v 0.123709 0.326075 -0.298659
v -0.298659 0.721049 -0.123709
v -0.123709 0.721049 -0.298659
v -0.298659 0.721049 0.123709
v -0.123709 0.721049 0.298659
v 0.123709 0.721049 0.298659
v 0.298659 0.721049 0.123708
v 0.298659 0.721049 -0.123709
v 0.123709 0.721049 -0.298659
v -0.336019 0.524458 -0.139183
v -0.139183 0.524458 -0.336019
v -0.336019 0.524458 0.139183
v -0.139183 0.524458 0.336019
v 0.139183 0.524458 0.336019
v 0.336019 0.524458 0.139183
v 0.336019 0.524458 -0.139183
v 0.139183 0.524458 -0.336019
v -0.336019 0.664271 -0.139183
v -0.139183 0.664271 -0.336019
v -0.336019 0.664271 0.139183
v -0.139183 0.664271 0.336019
v 0.139183 0.664271 0.336019
v 0.336019 0.664271 0.139183
v 0.336019 0.664271 -0.139183
v 0.139183 0.664271 -0.336019
v -0.336019 0.631075 -0.139183
v -0.139183 0.631075 -0.336019
v -0.336019 0.631075 0.139183
v -0.139183 0.631075 0.336019
v 0.139183 0.631075 0.336019
v 0.336019 0.631075 0.139183
v 0.336019 0.631075 -0.139183
v 0.139183 0.631075 -0.336019
v -0.336019 0.767873 -0.139183
v -0.139183 0.767873 -0.336019
v -0.336019 0.767873 0.139183
v -0.139183 0.767873 0.336019
v 0.139183 0.767873 0.336019
v 0.336019 0.767873 0.139183
v 0.336019 0.767873 -0.139183
v 0.139183 0.767873 -0.336019
v -0.251283 0.734504 -0.104085
v -0.104085 0.734504 -0.251283
v -0.251283 0.734504 0.104085
v -0.104085 0.734504 0.251283
v 0.104085 0.734504 0.251283
v 0.251283 0.734504 0.104085
v 0.251283 0.734504 -0.104085
v 0.104085 0.734504 -0.251283
v -0.251283 0.965544 -0.104085
v -0.104085 0.965544 -0.251283
v -0.251283 0.965544 0.104085
v -0.104085 0.965544 0.251283
v 0.104085 0.965544 0.251283
v 0.251283 0.965544 0.104085
v 0.251283 0.965544 -0.104085
v 0.104085 0.965544 -0.251283
v -0.305537 0.965544 -0.126557
v -0.126557 0.965544 -0.305537
v -0.305537 0.965544 0.126558
v -0.126557 0.965544 0.305537
v 0.126558 0.965544 0.305537
v 0.305537 0.965544 0.126557
v 0.305537 0.965544 -0.126558
v 0.126558 0.965544 -0.305537
v -0.251419 1.275929 -0.104141
v -0.104141 1.275929 -0.251419
v -0.251419 1.275929 0.104141
v -0.104141 1.275929 0.251419
v 0.104141 1.275929 0.251419
v 0.251419 1.275929 0.104141
v 0.251419 1.275929 -0.104141
v 0.104141 1.275929 -0.251419
v -0.051426 0.754290 0.292754
v -0.051404 0.540344 0.290325
v 0.052173 0.754290 0.293658
v 0.052194 0.540344 0.291229
v -0.052197 0.539313 0.381122
v -0.052218 0.753259 0.383551
v 0.051402 0.539313 0.382026
v 0.051380 0.753259 0.384455
v 0.351984 0.446312 0.067566
v 0.352105 0.484284 0.030252
v 0.351985 0.393077 0.067101
v 0.352109 0.355763 0.029130
v 0.352282 0.356228 -0.024105
v 0.352404 0.394199 -0.061419
v 0.352403 0.447434 -0.060954
v 0.352279 0.484748 -0.022983
v -0.352853 0.446313 0.065269
v -0.352731 0.484284 0.027955
v -0.352851 0.393078 0.064805
v -0.352728 0.355763 0.026833
v -0.352554 0.356228 -0.026402
v -0.352433 0.394199 -0.063716
v -0.352434 0.447434 -0.063251
v -0.352558 0.484749 -0.025280
v -0.098356 0.359119 -0.298659
v 0.098356 0.359119 -0.298659
v -0.098356 0.492268 -0.298659
v 0.098356 0.492268 -0.298659
v -0.098374 0.359119 -0.360760
v 0.098339 0.359119 -0.360760
v -0.098374 0.492268 -0.360760
v 0.098339 0.492268 -0.360760
v -0.224459 1.275929 -0.092974
v -0.092974 1.275929 -0.224459
v -0.224459 1.275929 0.092974
v -0.092974 1.275929 0.224459
v 0.092974 1.275929 0.224459
v 0.224459 1.275929 0.092974
v 0.224459 1.275929 -0.092974
v 0.092974 1.275929 -0.224459
v -0.224459 1.311615 -0.092974
v -0.092974 1.311615 -0.224459
v -0.224459 1.311615 0.092974
v -0.092974 1.311615 0.224459
v 0.092974 1.311615 0.224459
v 0.224459 1.311615 0.092974
v 0.224459 1.311615 -0.092974
v 0.092974 1.311615 -0.224459
v -0.298364 0.484749 -0.024979
v -0.298240 0.447434 -0.062950
v -0.298239 0.394199 -0.063414
v -0.298360 0.356228 -0.026100
v -0.298534 0.355763 0.027135
v -0.298657 0.393078 0.065106
v -0.298659 0.446313 0.065570
v -0.298537 0.484284 0.028256
v 0.299078 0.447434 -0.061196
v 0.298958 0.356228 -0.024347
v 0.298660 0.393077 0.066859
v 0.298781 0.484284 0.030010
v 0.298954 0.484748 -0.023225
v 0.299079 0.394199 -0.061661
v 0.298784 0.355763 0.028888
v 0.298659 0.446312 0.067324
vt 0.599226 0.361896
vt 0.599367 0.340599
vt 0.516353 0.340599
vt 0.516212 0.361896
vt 0.313884 0.309220
vt 0.349050 0.268200
vt 0.266036 0.268200
vt 0.314025 0.205884
vt 0.266177 0.246904
vt 0.349191 0.246904
vt 0.379411 0.362144
vt 0.296396 0.362144
vt 0.296537 0.340847
vt 0.379552 0.340847
vt 0.454323 0.965935
vt 0.406475 0.924916
vt 0.489489 0.924916
vt 0.454464 0.862599
vt 0.489630 0.903619
vt 0.406616 0.903619
vt 0.249888 0.372258
vt 0.285054 0.331238
vt 0.202040 0.331238
vt 0.250030 0.268922
vt 0.202181 0.309941
vt 0.285196 0.309941
vt 0.301419 0.924916
vt 0.218405 0.924916
vt 0.218546 0.903619
vt 0.301560 0.903619
vt 0.344245 0.403163
vt 0.344386 0.299827
vt 0.454277 0.403411
vt 0.489442 0.362392
vt 0.406428 0.362392
vt 0.454417 0.300075
vt 0.406569 0.341095
vt 0.489584 0.341095
vt 0.395578 0.924916
vt 0.312564 0.924916
vt 0.312705 0.903619
vt 0.395719 0.903619
vt 0.266253 0.965935
vt 0.266394 0.862599
vt 0.564060 0.402915
vt 0.564202 0.299579
vt 0.436844 0.657883
vt 0.516021 0.663516
vt 0.516021 0.715858
vt 0.436845 0.721491
vt 0.360412 0.965935
vt 0.360553 0.862599
vt 0.554580 0.796415
vt 0.554580 0.823208
vt 0.484627 0.823209
vt 0.484627 0.796416
vt 0.568295 0.031047
vt 0.641876 0.208687
vt 0.464237 0.282268
vt 0.671026 0.520864
vt 0.641878 0.520864
vt 0.641877 0.416805
vt 0.671026 0.416804
vt 0.218750 0.046875
vt 0.234375 0.046875
vt 0.234375 0.078125
vt 0.218750 0.078125
vt 0.671028 0.937100
vt 0.641879 0.937100
vt 0.641879 0.833041
vt 0.671027 0.833041
vt 0.859375 0.328125
vt 0.937500 0.296875
vt 0.968750 0.375000
vt 0.890625 0.406250
vt 0.671027 0.624923
vt 0.641878 0.624923
vt 0.641877 0.312746
vt 0.671026 0.312746
vt 0.671025 0.208687
vt 0.641876 0.104628
vt 0.671025 0.104628
vt 0.750000 0.640625
vt 0.687500 0.640625
vt 0.687500 0.593750
vt 0.750000 0.593750
vt 0.750000 0.546875
vt 0.687500 0.546875
vt 0.687500 0.500000
vt 0.750000 0.500000
vt 0.750000 0.453125
vt 0.687500 0.453125
vt 0.687500 0.406250
vt 0.750000 0.406250
vt 0.750000 0.734375
vt 0.687500 0.734375
vt 0.687500 0.687500
vt 0.750000 0.687500
vt 0.687500 0.359375
vt 0.750000 0.359375
vt 0.181764 0.264757
vt 0.172796 0.264757
vt 0.172796 0.218029
vt 0.181764 0.218029
vt 0.828125 0.593750
vt 0.765625 0.593750
vt 0.765625 0.546875
vt 0.828125 0.546875
vt 0.875000 0.687500
vt 0.968750 0.687500
vt 0.968750 0.750000
vt 0.875000 0.750000
vt 0.828125 0.640625
vt 0.765625 0.640625
vt 0.875000 0.500000
vt 0.968750 0.500000
vt 0.968750 0.562500
vt 0.875000 0.562500
vt 0.875000 0.625000
vt 0.968750 0.625000
vt 0.968750 0.812500
vt 0.875000 0.812500
vt 0.875000 0.875000
vt 0.968750 0.875000
vt 0.968750 0.937500
vt 0.875000 0.937500
vt 0.828125 0.406250
vt 0.765625 0.406250
vt 0.765625 0.359375
vt 0.828125 0.359375
vt 0.184322 0.746953
vt 0.134858 0.796419
vt 0.064903 0.627536
vt 0.184053 0.372569
vt 0.134588 0.422033
vt 0.064635 0.253150
vt 0.828125 0.687500
vt 0.765625 0.687500
vt 0.051015 0.124571
vt 0.059983 0.124571
vt 0.059983 0.171300
vt 0.051015 0.171300
vt 0.828125 0.500000
vt 0.765625 0.500000
vt 0.765625 0.453125
vt 0.828125 0.453125
vt 0.335158 0.169260
vt 0.281390 0.169260
vt 0.281390 0.143224
vt 0.335158 0.143224
vt 0.624534 0.796415
vt 0.624534 0.823208
vt 0.274765 0.796417
vt 0.274766 0.823210
vt 0.204812 0.823211
vt 0.204812 0.796418
vt 0.134858 0.823212
vt 0.064904 0.823212
vt 0.064904 0.796419
vt 0.414673 0.823209
vt 0.414673 0.796416
vt 0.554310 0.422036
vt 0.554310 0.448071
vt 0.484356 0.448071
vt 0.484356 0.422036
vt 0.184051 0.567488
vt 0.064632 0.616952
vt 0.015168 0.497533
vt 0.414403 0.422035
vt 0.414402 0.448070
vt 0.344449 0.448070
vt 0.344449 0.422035
vt 0.274495 0.422034
vt 0.274495 0.448070
vt 0.204541 0.448069
vt 0.204541 0.422034
vt 0.134587 0.448069
vt 0.064634 0.448068
vt 0.064634 0.422033
vt 0.624264 0.422036
vt 0.624264 0.448072
vt 0.344719 0.823210
vt 0.344719 0.796417
vt 0.744606 0.031047
vt 0.922246 0.104627
vt 0.848665 0.282267
vt 0.828125 0.734375
vt 0.765625 0.734375
vt 0.335158 0.120405
vt 0.281390 0.120405
vt 0.875000 0.437500
vt 0.968750 0.437500
vt 0.258570 0.143224
vt 0.258570 0.169260
vt 0.015440 0.872677
vt 0.184324 0.942630
vt 0.064905 0.992096
vt 0.328259 0.702861
vt 0.283281 0.657884
vt 0.436844 0.594275
vt 0.357978 0.169260
vt 0.357978 0.143224
vt 0.516021 0.599908
vt 0.516021 0.652250
vt 0.391867 0.702861
vt 0.386234 0.782038
vt 0.333892 0.782038
vt 0.436844 0.530667
vt 0.516021 0.536301
vt 0.516021 0.588642
vt 0.283281 0.594276
vt 0.204104 0.588643
vt 0.204104 0.536302
vt 0.283280 0.530668
vt 0.204104 0.652251
vt 0.204104 0.599909
vt 0.328258 0.549298
vt 0.333892 0.470121
vt 0.386233 0.470121
vt 0.391866 0.549298
vt 0.283281 0.721492
vt 0.204104 0.715858
vt 0.204104 0.663517
vt 0.281390 0.192079
vt 0.335158 0.192079
vt 0.578287 0.626408
vt 0.601084 0.649205
vt 0.610527 0.639762
vt 0.587730 0.616965
vt 0.828125 0.984375
vt 0.718750 0.937500
vt 0.765625 0.828125
vt 0.594498 0.467753
vt 0.594498 0.499993
vt 0.607853 0.499993
vt 0.607853 0.467753
vt 0.578402 0.559636
vt 0.578419 0.546282
vt 0.565042 0.546265
vt 0.565025 0.559619
vt 0.607821 0.513588
vt 0.594467 0.513588
vt 0.554404 0.513495
vt 0.567758 0.513548
vt 0.567790 0.499953
vt 0.554435 0.499901
vt 0.514341 0.513351
vt 0.514372 0.499756
vt 0.501018 0.499748
vt 0.500987 0.513342
vt 0.527696 0.513382
vt 0.541050 0.513434
vt 0.541081 0.499839
vt 0.527727 0.499787
vt 0.281250 0.093750
vt 0.234375 0.093750
vt 0.281250 0.078125
vt 0.671027 0.728982
vt 0.641878 0.728982
vt 0.296875 0.078125
vt 0.281250 0.046875
vt 0.296875 0.046875
vt 0.578424 0.532928
vt 0.565047 0.532910
vt 0.281250 0.031250
vt 0.234375 0.031250
vt 0.093025 0.091529
vt 0.139754 0.091529
vt 0.093025 0.204342
vt 0.181764 0.171300
vt 0.172796 0.171300
vt 0.172796 0.124571
vt 0.181764 0.124571
vt 0.051015 0.077842
vt 0.059983 0.077842
vt 0.059983 0.218029
vt 0.051015 0.218029
vt 0.172796 0.077842
vt 0.181764 0.077842
vt 0.051015 0.031113
vt 0.059983 0.031113
vt 0.564911 0.626391
vt 0.564911 0.639745
vt 0.578287 0.639762
vt 0.578372 0.572991
vt 0.564996 0.572973
vt 0.578292 0.613054
vt 0.564915 0.613037
vt 0.578309 0.599699
vt 0.578338 0.586345
vt 0.564961 0.586328
vt 0.564932 0.599682
vt 0.581113 0.513579
vt 0.581144 0.499984
vt 0.848665 0.031046
vt 0.922246 0.208686
vt 0.744606 0.282267
vt 0.568296 0.282268
vt 0.390656 0.208688
vt 0.390656 0.104629
vt 0.464236 0.031048
vt 0.765625 0.984375
vt 0.718750 0.875000
vt 0.828125 0.828125
vt 0.015439 0.746955
vt 0.015438 0.677001
vt 0.134856 0.627535
vt 0.184321 0.677000
vt 0.015169 0.372568
vt 0.015170 0.302614
vt 0.134589 0.253150
vt 0.184053 0.302615
vt 0.184323 0.872676
vt 0.134859 0.992095
vt 0.015440 0.942631
vt 0.184052 0.497534
vt 0.134586 0.616952
vt 0.015168 0.567487
vt 0.890625 0.296875
vt 0.968750 0.328125
vt 0.937500 0.406250
vt 0.859375 0.375000
vt 0.587730 0.649205
vt 0.610527 0.626408
vt 0.601084 0.616965
vt 0.585055 0.477196
vt 0.585055 0.490550
vt 0.617296 0.490550
vt 0.617296 0.477196
vt 0.139754 0.204342
vn 0.4646 0.7592 -0.4558
vn -0.0087 0.0000 1.0000
vn 0.0087 0.0000 -1.0000
vn -0.0011 0.7592 0.6509
vn -0.6508 0.7592 -0.0114
vn -0.9999 0.0000 -0.0104
vn 0.9999 0.0000 0.0104
vn 0.4646 0.7592 0.4558
vn 0.0124 0.7592 -0.6508
vn -0.7065 0.0000 0.7077
vn 0.7065 0.0000 -0.7077
vn -0.4566 0.7592 0.4639
vn 0.6509 0.7592 0.0000
vn -0.7065 0.0000 -0.7077
vn 0.7065 0.0000 0.7077
vn 0.6966 0.1718 0.6966
vn 0.0000 -0.0000 -1.0000
vn 0.0000 1.0000 0.0000
vn 0.7071 0.0000 0.7071
vn 1.0000 0.0000 -0.0003
vn -0.7071 0.0000 -0.7071
vn 1.0000 0.0000 -0.0000
vn 0.0000 0.0000 1.0000
vn -1.0000 0.0000 0.0000
vn 0.7071 0.0000 -0.7071
vn -0.7071 0.0000 0.7071
vn 0.0000 -1.0000 0.0000
vn -0.0087 -0.0114 0.9999
vn 1.0000 -0.0000 0.0087
vn 0.0001 -0.9999 -0.0114
vn -0.0001 0.9999 0.0114
vn 0.9851 0.1718 -0.0000
vn 0.0000 0.1718 0.9851
vn 0.6966 0.1718 -0.6966
vn -0.6966 0.1718 -0.6966
vn -0.9851 0.1718 -0.0000
vn 0.0000 0.1718 -0.9851
vn -0.6966 0.1718 0.6966
vn -1.0000 0.0000 -0.0087
vn 1.0000 -0.0000 0.0033
vn -1.0000 0.0000 -0.0033
vn -0.0045 -0.0087 1.0000
vn -0.0000 1.0000 0.0087
vn -0.0039 -0.7132 0.7009
vn 0.0039 0.7133 -0.7009
vn 0.0040 -0.7009 -0.7132
vn 0.0000 -1.0000 -0.0087
vn -0.4566 0.7592 -0.4639
vn 0.0056 0.0087 -0.9999
vn -1.0000 0.0000 0.0003
vn -0.0032 0.7009 0.7132
vn -0.0032 -0.7133 0.7009
vn 0.0032 0.7133 -0.7009
vn 0.0032 -0.7009 -0.7132
vn -0.0056 -0.0087 0.9999
vn -0.0040 0.7009 0.7132
vn 0.0045 0.0087 -1.0000
usemtl MAT_DIFFUSE_CUTOUT
s off
f 37/1/1 38/2/1 42/3/1 41/4/1
f 3/5/2 1/6/2 5/7/2
f 4/8/3 6/9/3 2/10/3
f 19/11/4 23/12/4 24/13/4 20/14/4
f 9/15/2 11/16/2 7/17/2
f 10/18/3 8/19/3 12/20/3
f 1/6/5 2/10/5 6/9/5 5/7/5
f 15/21/6 13/22/6 17/23/6
f 16/24/7 18/25/7 14/26/7
f 31/27/8 35/28/8 36/29/8 32/30/8
f 21/31/6 23/12/6 19/11/6
f 22/32/7 20/14/7 24/13/7
f 13/22/9 14/26/9 18/25/9 17/23/9
f 27/33/10 25/34/10 29/35/10
f 28/36/11 30/37/11 26/38/11
f 43/39/12 47/40/12 48/41/12 44/42/12
f 33/43/10 35/28/10 31/27/10
f 34/44/11 32/30/11 36/29/11
f 7/17/13 11/16/13 12/20/13 8/19/13
f 39/45/14 37/1/14 41/4/14
f 40/46/15 42/3/15 38/2/15
f 150/47/16 158/48/16 157/49/16 149/50/16
f 45/51/14 47/40/14 43/39/14
f 46/52/15 44/42/15 48/41/15
f 98/53/17 114/54/17 120/55/17 104/56/17
f 58/57/18 59/58/18 61/59/18
f 54/60/19 62/61/19 61/62/19 53/63/19
f 186/64/20 190/65/20 192/66/20 188/67/20
f 50/68/21 57/69/21 58/70/21 49/71/21
f 154/72/18 155/73/18 157/74/18 159/75/18
f 55/76/22 63/77/22 62/61/22 54/60/22
f 53/63/23 61/62/23 60/78/23 52/79/23
f 51/80/24 59/58/24 57/81/24 50/82/24
f 72/83/25 80/84/25 79/85/25 71/86/25
f 70/87/19 78/88/19 77/89/19 69/90/19
f 68/91/26 76/92/26 75/93/26 67/94/26
f 65/95/21 73/96/21 74/97/21 66/98/21
f 66/98/17 74/97/17 80/84/17 72/83/17
f 71/86/22 79/85/22 78/88/22 70/87/22
f 69/90/23 77/89/23 76/92/23 68/91/23
f 67/94/24 75/93/24 73/99/24 65/100/24
f 197/101/23 205/102/23 204/103/23 196/104/23
f 135/105/22 143/106/22 142/107/22 134/108/22
f 86/109/19 94/110/19 93/111/19 85/112/19
f 136/113/25 144/114/25 143/106/25 135/105/25
f 52/79/26 60/78/26 59/58/26 51/80/26
f 82/115/17 90/116/17 96/117/17 88/118/17
f 87/119/22 95/120/22 94/110/22 86/109/22
f 85/112/23 93/111/23 92/121/23 84/122/23
f 83/123/24 91/124/24 89/125/24 81/126/24
f 131/127/24 139/128/24 137/129/24 129/130/24
f 100/131/27 99/132/27 103/133/27
f 108/134/27 107/135/27 111/136/27
f 130/137/17 138/138/17 144/114/17 136/113/17
f 199/139/22 207/140/22 206/141/22 198/142/22
f 133/143/23 141/144/23 140/145/23 132/146/23
f 166/147/28 165/148/28 167/149/28 168/150/28
f 97/151/21 113/152/21 114/54/21 98/53/21
f 101/153/23 117/154/23 116/155/23 100/156/23
f 99/132/24 115/157/24 113/158/24 97/159/24
f 104/56/25 120/55/25 119/160/25 103/161/25
f 106/162/17 122/163/17 128/164/17 112/165/17
f 125/166/18 127/167/18 122/168/18
f 111/169/22 127/170/22 126/171/22 110/172/22
f 109/173/23 125/174/23 124/175/23 108/176/23
f 107/135/24 123/177/24 121/178/24 105/179/24
f 112/165/25 128/164/25 127/170/25 111/169/25
f 110/172/19 126/171/19 125/174/19 109/173/19
f 108/176/26 124/175/26 123/177/26 107/135/26
f 105/180/21 121/181/21 122/163/21 106/162/21
f 132/146/26 140/145/26 139/128/26 131/127/26
f 103/161/22 119/160/22 118/182/22 102/183/22
f 51/80/27 49/184/27 55/185/27 53/186/27
f 84/122/26 92/121/26 91/124/26 83/123/26
f 129/187/21 137/188/21 138/138/21 130/137/21
f 163/189/29 168/150/29 167/149/29 164/190/29
f 81/191/21 89/192/21 90/116/21 82/115/21
f 164/193/30 167/149/30 165/148/30 162/194/30
f 114/195/18 115/157/18 117/196/18 119/197/18
f 148/198/27 147/199/27 151/200/27
f 161/201/31 166/147/31 168/150/31 163/202/31
f 151/200/32 159/203/32 158/204/32 150/47/32
f 149/205/33 157/206/33 156/207/33 148/198/33
f 152/208/34 160/209/34 159/210/34 151/200/34
f 145/211/35 153/212/35 154/213/35 146/214/35
f 147/199/36 155/215/36 153/216/36 145/211/36
f 146/217/37 154/218/37 160/219/37 152/220/37
f 147/199/38 148/221/38 156/222/38 155/223/38
f 162/224/39 165/148/39 166/147/39 161/225/39
f 134/108/19 142/107/19 141/144/19 133/143/19
f 100/156/26 116/155/26 115/157/26 99/132/26
f 176/226/40 171/227/40 172/228/40 175/229/40
f 83/123/27 82/230/27 87/231/27 85/232/27
f 180/233/41 178/234/41 184/235/41 181/236/41
f 171/237/42 169/238/42 224/239/42 219/240/42
f 209/241/43 184/235/43 178/234/43 216/242/43
f 213/243/44 214/244/44 179/245/44 180/246/44
f 210/247/45 183/248/45 184/249/45 209/250/45
f 211/251/46 212/252/46 181/253/46 182/254/46
f 212/252/47 213/243/47 180/246/47 181/253/47
f 187/255/18 188/256/18 192/66/18 191/257/18
f 25/34/48 26/38/48 30/37/48 29/35/48
f 211/251/49 182/254/49 183/248/49 210/247/49
f 56/258/25 64/259/25 63/77/25 55/76/25
f 187/260/50 191/257/50 189/261/50 185/262/50
f 170/263/51 220/264/51 224/239/51 169/238/51
f 49/71/17 58/70/17 64/259/17 56/258/17
f 185/265/27 189/261/27 190/65/27 186/266/27
f 208/267/18 202/268/18 205/269/18
f 88/118/25 96/117/25 95/120/25 87/119/25
f 189/261/17 191/257/17 192/66/17 190/65/17
f 195/270/24 203/271/24 201/272/24 193/273/24
f 200/274/25 208/275/25 207/140/25 199/139/25
f 198/142/19 206/141/19 205/276/19 197/277/19
f 196/104/26 204/103/26 203/271/26 195/270/26
f 193/273/21 201/272/21 202/278/21 194/279/21
f 194/280/17 202/281/17 208/275/17 200/274/17
f 176/226/43 221/282/43 220/283/43 170/284/43
f 172/285/52 171/237/52 219/240/52 223/286/52
f 175/287/53 217/288/53 221/282/53 176/226/53
f 174/289/54 173/290/54 218/291/54 222/292/54
f 173/290/47 172/285/47 223/286/47 218/291/47
f 214/244/55 215/293/55 177/294/55 179/245/55
f 216/242/56 178/234/56 177/294/56 215/293/56
f 174/289/57 222/292/57 217/288/57 175/287/57
f 51/80/27 50/82/27 49/184/27
f 49/184/27 56/295/27 55/185/27
f 55/185/27 54/296/27 53/186/27
f 53/186/27 52/297/27 51/80/27
f 58/57/18 57/81/18 59/58/18
f 59/58/18 60/298/18 61/59/18
f 61/59/18 62/299/18 58/57/18
f 62/299/18 63/300/18 58/57/18
f 63/300/18 64/301/18 58/57/18
f 83/123/27 81/126/27 82/230/27
f 82/230/27 88/302/27 87/231/27
f 87/231/27 86/303/27 85/232/27
f 85/232/27 84/304/27 83/123/27
f 99/132/27 97/159/27 103/133/27
f 97/159/27 98/305/27 103/133/27
f 98/305/27 104/306/27 103/133/27
f 103/133/27 102/307/27 101/308/27
f 101/308/27 100/131/27 103/133/27
f 107/135/27 105/179/27 111/136/27
f 105/179/27 106/309/27 111/136/27
f 106/309/27 112/310/27 111/136/27
f 111/136/27 110/311/27 109/312/27
f 109/312/27 108/134/27 111/136/27
f 114/195/18 113/158/18 115/157/18
f 115/157/18 116/313/18 117/196/18
f 117/196/18 118/314/18 119/197/18
f 119/197/18 120/315/18 114/195/18
f 122/168/18 121/178/18 125/166/18
f 121/178/18 123/177/18 125/166/18
f 123/177/18 124/316/18 125/166/18
f 125/166/18 126/317/18 127/167/18
f 127/167/18 128/318/18 122/168/18
f 147/199/27 145/211/27 151/200/27
f 145/211/27 146/217/27 151/200/27
f 146/217/27 152/220/27 151/200/27
f 151/200/27 150/47/27 149/205/27
f 149/205/27 148/198/27 151/200/27
f 154/72/18 153/319/18 155/73/18
f 155/73/18 156/320/18 157/74/18
f 157/74/18 158/321/18 159/75/18
f 159/75/18 160/322/18 154/72/18
f 171/227/40 170/284/40 169/323/40
f 170/284/40 171/227/40 176/226/40
f 175/229/40 173/324/40 174/325/40
f 173/324/40 175/229/40 172/228/40
f 178/234/41 179/326/41 177/327/41
f 179/326/41 178/234/41 180/233/41
f 181/236/41 183/328/41 182/329/41
f 183/328/41 181/236/41 184/235/41
f 202/268/18 201/272/18 205/269/18
f 201/272/18 203/271/18 205/269/18
f 203/271/18 204/330/18 205/269/18
f 205/269/18 206/141/18 207/140/18
f 207/140/18 208/267/18 205/269/18
f 102/183/19 118/182/19 117/154/19 101/153/19
