# Blender v2.80 (sub 75) OBJ File: 'floorlight.blend'
# www.blender.org
mtllib floorlight.mtl
o Plane.001
v 0.131468 0.262976 -0.151927
v 0.131468 0.262976 0.151799
v 0.276905 0.031453 -0.151927
v 0.276905 0.031453 0.151799
v 0.312845 0.014182 -0.187842
v 0.126974 0.313124 -0.187842
v -0.312845 0.014182 -0.187842
v 0.012920 0.258210 -0.187842
v 0.126974 0.313124 0.187842
v 0.312845 0.014182 0.187842
v -0.312845 0.014182 0.187842
v 0.012920 0.258210 0.187842
v 0.037083 0.313124 -0.187842
v 0.012920 0.289075 -0.187842
v 0.012920 0.289075 0.187842
v 0.037083 0.313124 0.187842
v 0.308340 0.021426 -0.151863
v 0.146972 0.280961 -0.151863
v 0.146972 0.280961 0.151863
v 0.308340 0.021426 0.151863
v 0.085098 0.252601 -0.119809
v 0.131144 0.280961 -0.119809
v 0.085098 0.252601 -0.142394
v 0.131144 0.280961 -0.142394
v 0.370875 0.000000 -0.250888
v -0.370875 0.000000 -0.250888
v 0.370875 0.000000 0.250888
v -0.370875 0.000000 0.250888
v 0.370875 0.032131 -0.250888
v -0.370875 0.032131 -0.250888
v 0.370875 0.032131 0.250888
v -0.370875 0.032131 0.250888
vt 0.403827 0.810507
vt 0.570224 0.810507
vt 0.570224 0.820882
vt 0.403827 0.820882
vt 0.630490 0.582504
vt 0.658090 0.570360
vt 0.642577 0.570360
vt 0.341277 0.033733
vt 0.594037 0.033733
vt 0.594037 0.405699
vt 0.341277 0.405699
vt 0.062675 0.831868
vt 0.267571 0.831868
vt 0.247948 0.827917
vt 0.082298 0.827917
vt 0.267571 0.668826
vt 0.062675 0.668826
vt 0.082298 0.686368
vt 0.247948 0.686368
vt 0.591105 0.441345
vt 0.408090 0.441345
vt 0.408090 0.652406
vt 0.591105 0.652406
vt 0.812978 0.254612
vt 0.860082 0.254612
vt 0.860082 0.057747
vt 0.812978 0.057747
vt 0.872744 0.254612
vt 0.872744 0.057747
vt 0.630490 0.627683
vt 0.780739 0.721102
vt 0.990790 0.904233
vt 0.979349 0.900139
vt 0.979982 0.762724
vt 0.990790 0.750633
vt 0.727825 0.968270
vt 0.727825 0.814219
vt 0.743895 0.814219
vt 0.743895 0.968270
vt 0.405377 0.868292
vt 0.405377 0.852143
vt 0.657569 0.852143
vt 0.657569 0.868292
vt 0.403827 0.683667
vt 0.570224 0.683667
vt 0.060444 0.623933
vt 0.374210 0.623933
vt 0.374210 0.434689
vt 0.060444 0.434689
vt 0.913966 0.223769
vt 0.913966 0.248050
vt 0.926673 0.248050
vt 0.926673 0.223769
vt 0.061699 0.405374
vt 0.061699 0.032570
vt 0.313891 0.032570
vt 0.313891 0.405374
vt 0.961649 0.312270
vt 0.946136 0.312270
vt 0.946136 0.501089
vt 0.961649 0.501089
vt 0.879427 0.275840
vt 0.895577 0.275840
vt 0.895577 0.528033
vt 0.879427 0.528033
vt 0.862506 0.648644
vt 0.846356 0.648644
vt 0.846356 0.275840
vt 0.862506 0.275840
vt 0.780739 0.406630
vt 0.630978 0.154983
vt 0.630978 0.200163
vt 0.658578 0.212307
vt 0.781227 0.061565
vt 0.781227 0.376037
vt 0.643065 0.212307
vt 0.698142 0.955240
vt 0.697509 0.817824
vt 0.708950 0.813730
vt 0.708950 0.967330
vt 0.813285 0.275840
vt 0.829435 0.275840
vt 0.829435 0.648644
vt 0.813285 0.648644
vn 0.7574 -0.6529 0.0000
vn -0.0000 0.0000 -1.0000
vn 0.0000 1.0000 0.0000
vn 0.8492 0.5280 -0.0000
vn -0.5995 0.8003 0.0000
vn -0.7054 0.7088 0.0000
vn -0.0025 -0.0015 1.0000
vn 0.3039 0.9527 -0.0000
vn 1.0000 0.0000 0.0000
vn 0.8468 0.5319 0.0000
vn 0.0000 -1.0000 0.0000
vn 0.5244 -0.8515 0.0000
vn -1.0000 0.0000 0.0000
vn 0.0000 0.0000 1.0000
vn 0.0025 0.0015 -1.0000
usemtl MAT_DIFFUSE_CUTOUT
s off
f 2/1/1 1/2/1 18/3/1 19/4/1
f 13/5/2 8/6/2 14/7/2
f 30/8/3 32/9/3 31/10/3 29/11/3
f 10/12/4 5/13/4 17/14/4 20/15/4
f 6/16/4 9/17/4 19/18/4 18/19/4
f 8/20/5 7/21/5 11/22/5 12/23/5
f 6/24/3 13/25/3 16/26/3 9/27/3
f 14/28/6 15/29/6 16/26/6 13/25/6
f 6/30/2 5/31/2 8/6/2 13/5/2
f 18/32/7 1/33/7 3/34/7 17/35/7
f 19/18/4 9/17/4 10/12/4 20/15/4
f 3/36/8 4/37/8 20/38/8 17/39/8
f 25/40/9 29/41/9 31/42/9 27/43/9
f 4/44/10 3/45/10 1/2/10 2/1/10
f 7/46/11 5/47/11 10/48/11 11/49/11
f 22/50/12 21/51/12 23/52/12 24/53/12
f 27/54/11 28/55/11 26/56/11 25/57/11
f 14/58/13 8/59/13 12/60/13 15/61/13
f 28/62/13 32/63/13 30/64/13 26/65/13
f 27/66/14 31/67/14 32/68/14 28/69/14
f 7/70/2 8/6/2 5/31/2
f 9/71/14 16/72/14 12/73/14 10/74/14
f 10/74/14 12/73/14 11/75/14
f 12/73/14 16/72/14 15/76/14
f 18/19/4 17/14/4 5/13/4 6/16/4
f 4/77/15 2/78/15 19/79/15 20/80/15
f 26/81/2 30/82/2 29/83/2 25/84/2
o Plane.000
v 0.085098 0.252601 0.140792
v 0.235367 0.021079 0.140792
v 0.131144 0.280961 0.140792
v 0.292512 0.021426 0.140792
v 0.085098 0.252601 0.079206
v 0.235367 0.021079 0.079206
v 0.292512 0.021426 0.079206
v 0.131144 0.280961 0.079206
v 0.085098 0.252601 -0.080476
v 0.235367 0.021079 -0.080476
v 0.131144 0.280961 -0.080476
v 0.292512 0.021426 -0.080476
v 0.085098 0.252601 -0.142062
v 0.235367 0.021079 -0.142062
v 0.292512 0.021426 -0.142062
v 0.131144 0.280961 -0.142062
v 0.131144 0.280961 -0.068068
v 0.292512 0.021426 -0.068068
v 0.235367 0.021079 -0.068068
v 0.085098 0.252601 -0.068068
v 0.292512 0.021426 -0.006482
v 0.131144 0.280961 -0.006482
v 0.235367 0.021079 -0.006482
v 0.085098 0.252601 -0.006482
v 0.131144 0.280961 0.005213
v 0.292512 0.021426 0.005213
v 0.235367 0.021079 0.005213
v 0.085098 0.252601 0.005213
v 0.292512 0.021426 0.066798
v 0.131144 0.280961 0.066798
v 0.235367 0.021079 0.066798
v 0.085098 0.252601 0.066798
vt 0.934833 0.436610
vt 0.907654 0.436725
vt 0.910350 0.298027
vt 0.934833 0.283010
vt 0.910885 0.202301
vt 0.908189 0.063603
vt 0.935368 0.063718
vt 0.935368 0.217318
vt 0.845376 0.906195
vt 0.845376 0.875242
vt 0.874097 0.875242
vt 0.874097 0.906195
vt 0.373328 0.937647
vt 0.373328 0.968600
vt 0.346148 0.968600
vt 0.346148 0.937647
vt 0.595212 0.812396
vt 0.595212 0.781443
vt 0.623933 0.781443
vt 0.623933 0.812396
vt 0.998459 0.217203
vt 0.971280 0.217318
vt 0.973976 0.078620
vt 0.998459 0.063603
vt 0.849126 0.827548
vt 0.846430 0.688850
vt 0.873609 0.688965
vt 0.873609 0.842565
vt 0.345490 0.906111
vt 0.345490 0.875158
vt 0.374211 0.875158
vt 0.374211 0.906111
vt 0.220985 0.968580
vt 0.220985 0.937627
vt 0.248165 0.937627
vt 0.248165 0.968580
vt 0.748935 0.718907
vt 0.748935 0.749860
vt 0.595335 0.749860
vt 0.595335 0.718907
vt 0.938064 0.717626
vt 0.907111 0.717626
vt 0.907111 0.564026
vt 0.938064 0.564026
vt 0.943392 0.888893
vt 0.940695 0.750194
vt 0.967875 0.750310
vt 0.967875 0.903910
vt 0.311288 0.875158
vt 0.311288 0.906111
vt 0.282566 0.906111
vt 0.282566 0.875158
vt 0.910933 0.888843
vt 0.908236 0.750144
vt 0.935416 0.750260
vt 0.935416 0.903860
vt 0.810457 0.968307
vt 0.783278 0.968422
vt 0.785974 0.829724
vt 0.810457 0.814707
vt 0.374883 0.842758
vt 0.343930 0.842758
vt 0.343930 0.689158
vt 0.374883 0.689158
vt 0.310755 0.937668
vt 0.310755 0.968621
vt 0.283575 0.968621
vt 0.283575 0.937668
vt 0.312360 0.843283
vt 0.281407 0.843283
vt 0.281407 0.689683
vt 0.312360 0.689683
vt 0.967177 0.717734
vt 0.939997 0.717850
vt 0.942694 0.579151
vt 0.967177 0.564134
vt 0.220837 0.906153
vt 0.220837 0.875200
vt 0.248017 0.875200
vt 0.248017 0.906153
vn 0.0000 0.0000 1.0000
vn 0.0000 0.0000 -1.0000
vn 0.0061 -1.0000 0.0000
vn -0.5244 0.8515 -0.0000
vn 0.8492 0.5280 0.0000
usemtl MAT_EMISSIVE
s off
f 62/85/16 64/86/16 63/87/16 61/88/16
f 46/89/17 45/90/17 48/91/17 47/92/17
f 34/93/18 38/94/18 39/95/18 36/96/18
f 35/97/19 40/98/19 37/99/19 33/100/19
f 63/101/18 59/102/18 58/103/18 61/104/18
f 54/105/16 56/106/16 55/107/16 53/108/16
f 59/109/17 60/110/17 57/111/17 58/112/17
f 42/113/18 46/114/18 47/115/18 44/116/18
f 43/117/19 48/118/19 45/119/19 41/120/19
f 53/121/20 50/122/20 49/123/20 54/124/20
f 61/125/20 58/126/20 57/127/20 62/128/20
f 51/129/17 52/130/17 49/131/17 50/132/17
f 55/133/18 51/134/18 50/135/18 53/136/18
f 38/137/17 37/138/17 40/139/17 39/140/17
f 35/141/16 33/142/16 34/143/16 36/144/16
f 44/145/20 47/146/20 48/147/20 43/148/20
f 62/149/19 57/150/19 60/151/19 64/152/19
f 36/153/20 39/154/20 40/155/20 35/156/20
f 43/157/16 41/158/16 42/159/16 44/160/16
f 54/161/19 49/162/19 52/163/19 56/164/19
