# Made in Blockbench 4.2.3
mtllib imperial_scaffold_stair.mtl

o cube
v -0.5 0.5 0.5
v -0.5 0.5 -0.5
v -0.5 -0.5 0.5
v -0.5 -0.5 -0.5
v -0.5 0.5 -0.5
v -0.5 0.5 0.5
v -0.5 -0.5 -0.5
v -0.5 -0.5 0.5
vt 0 1
vt 0 1
vt 0 0
vt 0 0
vt 1 1
vt 0 1
vt 0 0
vt 1 0
vt 0 1
vt 0 1
vt 0 0
vt 0 0
vt 0 1
vt 1 1
vt 1 0
vt 0 0
vt 0 1
vt 0 1
vt 0 0
vt 0 0
vt 0 1
vt 0 1
vt 0 0
vt 0 0
vn 0 0 -1
vn 1 0 0
vn 0 0 1
vn -1 0 0
vn 0 1 0
vn 0 -1 0
usemtl none
f 4/4/1 7/3/1 5/2/1 2/1/1
usemtl m_1
f 3/8/2 4/7/2 2/6/2 1/5/2
usemtl none
f 8/12/3 3/11/3 1/10/3 6/9/3
usemtl m_1
f 7/16/4 8/15/4 6/14/4 5/13/4
usemtl none
f 6/20/5 1/19/5 2/18/5 5/17/5
f 7/24/6 4/23/6 3/22/6 8/21/6
o cube
v 0.5 0.5 0.5
v 0.5 0.5 -0.5
v 0.5 -0.5 0.5
v 0.5 -0.5 -0.5
v 0.5 0.5 -0.5
v 0.5 0.5 0.5
v 0.5 -0.5 -0.5
v 0.5 -0.5 0.5
vt 0 1
vt 0 1
vt 0 0
vt 0 0
vt 1 1
vt 0 1
vt 0 0
vt 1 0
vt 0 1
vt 0 1
vt 0 0
vt 0 0
vt 0 1
vt 1 1
vt 1 0
vt 0 0
vt 0 1
vt 0 1
vt 0 0
vt 0 0
vt 0 1
vt 0 1
vt 0 0
vt 0 0
vn 0 0 -1
vn 1 0 0
vn 0 0 1
vn -1 0 0
vn 0 1 0
vn 0 -1 0
usemtl none
f 12/28/7 15/27/7 13/26/7 10/25/7
usemtl m_1
f 11/32/8 12/31/8 10/30/8 9/29/8
usemtl none
f 16/36/9 11/35/9 9/34/9 14/33/9
usemtl m_1
f 15/40/10 16/39/10 14/38/10 13/37/10
usemtl none
f 14/44/11 9/43/11 10/42/11 13/41/11
f 15/48/12 12/47/12 11/46/12 16/45/12
o cube
v 0.5 0 0
v 0.5 0 -0.5
v 0.5 -0.5 0
v 0.5 -0.5 -0.5
v -0.5 0 -0.5
v -0.5 0 0
v -0.5 -0.5 -0.5
v -0.5 -0.5 0
vt 0 1
vt 1 1
vt 1 0.5
vt 0 0.5
vt 0 1
vt 1 1
vt 1 0.5
vt 0 0.5
vt 0 1
vt 1 1
vt 1 0.5
vt 0 0.5
vn 0 0 -1
vn 0 0 1
vn 0 1 0
usemtl m_0
f 20/52/13 23/51/13 21/50/13 18/49/13
usemtl m_3
f 24/56/14 19/55/14 17/54/14 22/53/14
usemtl m_2
f 22/60/15 17/59/15 18/58/15 21/57/15
o cube
v 0.5 0.5 0.5
v 0.5 0.5 0
v 0.5 0 0.5
v 0.5 0 0
v -0.5 0.5 0
v -0.5 0.5 0.5
v -0.5 0 0
v -0.5 0 0.5
vt 0 1
vt 1 1
vt 1 0.5
vt 0 0.5
vt 0 1
vt 1 1
vt 1 0.5
vt 0 0.5
vt 0 1
vt 1 1
vt 1 0.5
vt 0 0.5
vn 0 0 -1
vn 0 0 1
vn 0 1 0
usemtl m_0
f 28/64/16 31/63/16 29/62/16 26/61/16
usemtl m_3
f 32/68/17 27/67/17 25/66/17 30/65/17
usemtl m_2
f 30/72/18 25/71/18 26/70/18 29/69/18