# Blender v2.80 (sub 75) OBJ File: 'hangar_light.blend'
# www.blender.org
mtllib hangar_light.mtl
o Cube.008
v 0.700000 0.000000 0.600000
v -0.700000 0.000000 0.400000
v 0.700000 0.100000 0.600000
v 0.700000 0.000000 -0.600000
v -0.700000 0.000000 -0.400000
v 0.700000 0.100000 -0.600000
v -0.700000 0.100000 -0.400000
v -0.700000 0.100000 0.400000
v 0.350000 0.500000 -0.350000
v 0.150000 0.500000 -0.316667
v 0.600000 0.100000 -0.450000
v 0.350000 0.500000 0.350000
v 0.150000 0.500000 0.316667
v 0.600000 0.100000 0.450000
v -0.600000 0.100000 0.250000
v -0.600000 0.100000 -0.250000
v 0.100000 0.400000 0.322917
v 0.100000 0.400000 -0.322916
v 0.338499 0.482100 -0.335675
v 0.160819 0.481681 -0.303706
v 0.581958 0.088724 -0.431582
v 0.338499 0.482100 0.335675
v 0.160819 0.481681 0.303706
v 0.581958 0.088724 0.431582
v -0.591619 0.080445 0.239767
v -0.591619 0.080445 -0.239768
v 0.114671 0.384592 0.309700
v 0.114670 0.384592 -0.309700
v 0.350000 0.500000 -0.125000
v 0.600000 0.100000 -0.125000
v 0.350000 0.100000 -0.125000
v 0.350000 0.500000 0.125000
v 0.600000 0.100000 0.125000
v 0.350000 0.100000 0.125000
v 0.350000 0.500000 0.000000
v 0.600000 0.100000 0.000000
v 0.350000 0.100000 0.000000
v 0.350000 0.499296 -0.125000
v 0.600000 0.099296 -0.125000
v 0.350000 0.099296 -0.125000
v 0.350000 0.499296 0.125000
v 0.600000 0.099296 0.125000
v 0.350000 0.099296 0.125000
v 0.350000 0.499296 0.000000
v 0.600000 0.099296 0.000000
v 0.350000 0.099296 0.000000
vt 0.265625 0.250000
vt 0.390625 0.250000
vt 0.421875 0.468750
vt 0.234375 0.468750
vt 0.234375 0.484375
vt 0.015625 0.484375
vt 0.015625 0.468750
vt 0.421875 0.484375
vt 0.640625 0.468750
vt 0.640625 0.484375
vt 0.390625 0.703125
vt 0.265625 0.703125
vt 0.765625 0.468750
vt 0.765625 0.484375
vt 0.390625 0.734375
vt 0.578125 0.734375
vt 0.468750 0.781250
vt 0.270833 0.835938
vt 0.265625 0.804688
vt 0.375000 0.804688
vt 0.369792 0.835938
vt 0.265625 0.796875
vt 0.250000 0.734375
vt 0.375000 0.796875
vt 0.171875 0.781250
vt 0.210938 0.796875
vt 0.281250 0.968750
vt 0.269859 0.859375
vt 0.370766 0.859375
vt 0.359375 0.968750
vt 0.270833 0.843750
vt 0.369792 0.843750
vt 0.632812 0.703125
vt 0.593750 0.640625
vt 0.632812 0.640625
vt 0.757812 0.703125
vt 0.757812 0.640625
vt 0.718750 0.640625
vt 0.695312 0.703125
vt 0.656250 0.640625
vt 0.695312 0.640625
vt 0.632812 0.703125
vt 0.632812 0.640625
vt 0.593750 0.640625
vt 0.757812 0.703125
vt 0.718750 0.640625
vt 0.757812 0.640625
vt 0.695312 0.703125
vt 0.695312 0.640625
vt 0.656250 0.640625
vt 0.460938 0.796875
vt 0.429688 0.796875
vt 0.179688 0.796875
vt 0.062500 0.734375
vt 0.630208 0.835938
vt 0.625000 0.804688
vt 0.734375 0.804688
vt 0.729167 0.835938
vt 0.625000 0.796875
vt 0.609375 0.734375
vt 0.750000 0.734375
vt 0.734375 0.796875
vt 0.640625 0.968750
vt 0.629234 0.859375
vt 0.730141 0.859375
vt 0.718750 0.968750
vt 0.630208 0.843750
vt 0.729167 0.843750
vn 0.0000 -1.0000 0.0000
vn -0.1414 0.0000 0.9899
vn 1.0000 0.0000 0.0000
vn -0.1414 0.0000 -0.9899
vn 0.0000 1.0000 0.0000
vn -1.0000 0.0000 0.0000
vn -0.1627 0.1424 -0.9763
vn 0.8480 0.5300 -0.0000
vn -0.1627 0.1424 0.9763
vn -0.3939 0.9191 0.0000
vn -0.8944 0.4472 0.0000
vn -0.0000 0.0000 -1.0000
vn 0.0000 -0.0000 1.0000
vn -0.0024 1.0000 0.0000
vn 0.8503 0.5263 0.0000
vn -0.3955 0.9185 0.0000
vn -0.9032 0.4293 0.0000
usemtl MAT_DIFFUSE_CUTOUT
s off
f 2/1/1 5/2/1 4/3/1 1/4/1
f 1/4/2 3/5/2 8/6/2 2/7/2
f 4/3/3 6/8/3 3/5/3 1/4/3
f 5/9/4 7/10/4 6/8/4 4/3/4
f 7/11/5 8/12/5 3/5/5 6/8/5
f 2/13/6 8/14/6 7/10/6 5/9/6
f 11/15/7 16/16/7 18/17/7
f 13/18/5 12/19/5 9/20/5 10/21/5
f 12/22/8 14/23/8 11/15/8 9/24/8
f 17/25/9 14/23/9 12/26/9
f 15/27/10 17/28/10 18/29/10 16/30/10
f 17/28/11 13/31/11 10/32/11 18/29/11
f 29/33/12 30/34/12 31/35/12
f 32/36/13 34/37/13 33/38/13
f 35/39/12 36/40/12 37/41/12
f 38/42/13 40/43/13 39/44/13
f 41/45/12 42/46/12 43/47/12
f 44/48/13 46/49/13 45/50/13
f 18/17/7 10/51/7 9/52/7
f 9/52/7 11/15/7 18/17/7
f 12/26/9 13/53/9 17/25/9
f 17/25/9 15/54/9 14/23/9
usemtl MAT_EMISSIVE
f 23/55/14 22/56/14 19/57/14 20/58/14
f 22/59/15 24/60/15 21/61/15 19/62/15
f 25/63/16 27/64/16 28/65/16 26/66/16
f 27/64/17 23/67/17 20/68/17 28/65/17
