# Blender 3.4.1
# www.blender.org
mtllib dook.mtl
o body,013
v -0.150000 -1.689146 -0.247742
v -0.150000 -0.400000 0.150000
v -0.150000 -1.489146 -0.547742
v -0.150000 -0.300000 -0.150000
v 0.150000 -1.689146 -0.247742
v 0.150000 -0.400000 0.150000
v 0.150000 -1.489146 -0.547742
v 0.150000 -0.300000 -0.150000
v -0.200000 -0.853119 0.045715
v -0.200000 -0.758081 0.076825
v -0.200000 -0.728678 -0.334435
v -0.200000 -0.633640 -0.303325
v 0.200000 -0.853119 0.045715
v 0.200000 -0.758081 0.076825
v 0.200000 -0.728678 -0.334435
v 0.200000 -0.633640 -0.303325
v 0.150000 -1.579398 -0.388363
v 0.150000 -1.495480 -0.333979
v 0.150000 -1.525013 -0.472282
v 0.150000 -1.441095 -0.417897
v 0.200000 -1.579398 -0.388363
v 0.200000 -1.495480 -0.333979
v 0.200000 -1.525013 -0.472282
v 0.200000 -1.441095 -0.417897
vn -1.0000 -0.0000 -0.0000
vn -0.0000 0.3172 -0.9484
vn 1.0000 -0.0000 -0.0000
vn -0.0000 -0.2948 0.9556
vn -0.0000 -0.8321 -0.5547
vn -0.0000 0.9487 0.3162
vn -0.0000 0.3111 -0.9504
vn -0.0000 -0.3111 0.9504
vn -0.0000 -0.9504 -0.3111
vn -0.0000 0.9504 0.3111
vn -0.0000 0.5438 -0.8392
vn -0.0000 -0.5438 0.8392
vn -0.0000 -0.8392 -0.5438
vn -0.0000 0.8392 0.5438
vt 0.203125 0.531250
vt 1.000000 1.000000
vt 0.203125 0.718750
vt 1.000000 1.000000
vt 0.156250 0.546875
vt 1.000000 1.000000
vt 0.156250 0.718750
vt 1.000000 1.000000
vt 0.062500 0.531250
vt 0.250000 0.531250
vt 1.000000 1.000000
vt 0.062500 0.718750
vt 0.250000 0.718750
vt 1.000000 1.000000
vt 0.109375 0.546875
vt 1.000000 1.000000
vt 0.109375 0.718750
vt 1.000000 1.000000
vt 0.281250 0.640625
vt 0.296875 0.625000
vt 0.296875 0.640625
vt 0.281250 0.703125
vt 0.296875 0.718750
vt 0.296875 0.562500
vt 0.296875 0.703125
vt 0.375000 0.640625
vt 0.359375 0.625000
vt 0.359375 0.640625
vt 0.359375 0.718750
vt 0.375000 0.703125
vt 0.359375 0.562500
vt 0.359375 0.703125
vt 1.000000 1.000000
vt 0.437500 0.546875
vt 0.421875 0.531250
vt 1.000000 1.000000
vt 0.437500 0.562500
vt 0.421875 0.578125
vt 1.000000 1.000000
vt 0.390625 0.546875
vt 0.406250 0.531250
vt 1.000000 1.000000
vt 0.390625 0.562500
vt 0.406250 0.578125
vt 0.421875 0.546875
vt 0.421875 0.562500
vt 0.406250 0.546875
vt 0.406250 0.562500
s 0
usemtl MAT_DIFFUSE_CUTOUT
f 1/1/1 2/3/1 4/7/1 3/5/1
f 3/5/2 4/7/2 8/17/2 7/15/2
f 7/15/3 8/17/3 6/12/3 5/9/3
f 5/10/4 6/13/4 2/3/4 1/1/4
f 3/6/5 7/16/5 5/11/5 1/2/5
f 8/18/6 4/8/6 2/4/6 6/14/6
f 9/19/1 10/21/1 12/25/1 11/22/1
f 11/23/7 12/25/7 16/32/7 15/29/7
f 15/30/3 16/32/3 14/28/3 13/26/3
f 13/27/8 14/28/8 10/21/8 9/20/8
f 11/24/9 15/31/9 13/27/9 9/20/9
f 16/32/10 12/25/10 10/21/10 14/28/10
f 17/33/1 18/36/1 20/42/1 19/39/1
f 19/40/11 20/43/11 24/48/11 23/47/11
f 23/47/3 24/48/3 22/46/3 21/45/3
f 21/45/12 22/46/12 18/37/12 17/34/12
f 19/41/13 23/47/13 21/45/13 17/35/13
f 24/48/14 20/44/14 18/38/14 22/46/14
o emitter.013
v -0.150000 -0.400000 0.150000
v -0.150000 0.000000 0.150000
v -0.150000 -0.300000 -0.150000
v -0.150000 0.000000 -0.150000
v 0.150000 -0.400000 0.150000
v 0.150000 0.000000 0.150000
v 0.150000 -0.300000 -0.150000
v 0.150000 0.000000 -0.150000
v -0.200000 0.001000 0.200000
v 0.200000 0.001000 0.200000
v -0.200000 0.001000 -0.200000
v 0.200000 0.001000 -0.200000
v -0.050000 -0.300000 0.200000
v -0.050000 -0.100000 0.200000
v -0.050000 -0.300000 0.150000
v -0.050000 -0.100000 0.150000
v 0.050000 -0.300000 0.200000
v 0.050000 -0.100000 0.200000
v 0.050000 -0.300000 0.150000
v 0.050000 -0.100000 0.150000
v 0.000000 -0.041299 -0.312296
v 0.000000 0.720189 -0.067072
v 0.000000 -0.102606 -0.121924
v 0.000000 0.658883 0.123300
v 0.000000 -0.041299 -0.312296
v 0.000000 0.720189 -0.067072
v 0.000000 -0.102606 -0.121924
v 0.000000 0.658883 0.123300
v -0.200000 0.001000 0.200000
v 0.200000 0.001000 0.200000
v -0.200000 0.001000 -0.200000
v 0.200000 0.001000 -0.200000
vn -1.0000 -0.0000 -0.0000
vn -0.0000 -0.0000 -1.0000
vn 1.0000 -0.0000 -0.0000
vn -0.0000 -0.0000 1.0000
vn -0.0000 -0.9487 -0.3162
vn -0.0000 1.0000 -0.0000
vn -0.0000 -1.0000 -0.0000
vt 0.203125 0.781250
vt 1.000000 1.000000
vt 0.203125 0.843750
vt 1.000000 1.000000
vt 0.156250 0.796875
vt 1.000000 1.000000
vt 0.156250 0.843750
vt 1.000000 1.000000
vt 0.062500 0.781250
vt 0.250000 0.781250
vt 1.000000 1.000000
vt 0.062500 0.843750
vt 0.250000 0.843750
vt 1.000000 1.000000
vt 0.109375 0.796875
vt 1.000000 1.000000
vt 0.109375 0.843750
vt 1.000000 1.000000
vt 0.125000 0.875000
vt 0.125000 0.937500
vt 0.062500 0.875000
vt 0.062500 0.937500
vt 0.296875 0.796875
vt 0.296875 0.828125
vt 0.281250 0.796875
vt 1.000000 1.000000
vt 0.296875 0.781250
vt 0.281250 0.828125
vt 1.000000 1.000000
vt 0.296875 0.843750
vt 0.312500 0.796875
vt 0.312500 0.828125
vt 1.000000 1.000000
vt 0.328125 0.796875
vt 0.312500 0.781250
vt 1.000000 1.000000
vt 0.328125 0.828125
vt 0.312500 0.843750
vt 0.390625 0.812500
vt 0.390625 0.937500
vt 0.359375 0.812500
vt 0.359375 0.937500
vt 0.390625 0.812500
vt 0.390625 0.937500
vt 0.359375 0.812500
vt 0.359375 0.937500
vt 0.125000 0.875000
vt 0.125000 0.937500
vt 0.062500 0.875000
vt 0.062500 0.937500
s 0
usemtl MAT_DIFFUSE_CUTOUT
f 25/49/15 26/51/15 28/55/15 27/53/15
f 27/53/16 28/55/16 32/65/16 31/63/16
f 31/63/17 32/65/17 30/60/17 29/57/17
f 29/58/18 30/61/18 26/51/18 25/49/18
f 27/54/19 31/64/19 29/59/19 25/50/19
f 32/66/20 28/56/20 26/52/20 30/62/20
f 33/67/20 34/68/20 36/70/20 35/69/20
f 37/71/15 38/72/15 40/76/15 39/73/15
f 39/74/16 40/77/16 44/84/16 43/81/16
f 43/82/17 44/85/17 42/80/17 41/79/17
f 41/79/18 42/80/18 38/72/18 37/71/18
f 39/75/21 43/83/21 41/79/21 37/71/21
f 44/86/20 40/78/20 38/72/20 42/80/20
f 48/90/17 47/89/17 45/87/17 46/88/17
f 52/94/15 50/92/15 49/91/15 51/93/15
f 53/95/21 55/97/21 56/98/21 54/96/21
o pommel.013
v -0.150000 -1.689146 -0.247742
v -0.150000 -1.489146 -0.547742
v -0.150000 -1.989146 -0.647742
v -0.150000 -1.689146 -0.847742
v 0.150000 -1.689146 -0.247742
v 0.150000 -1.489146 -0.547742
v 0.150000 -1.989146 -0.647742
v 0.150000 -1.689146 -0.847742
v -0.250000 -2.167564 -0.876498
v -0.250000 -1.997272 -0.629516
v -0.250000 -1.755927 -1.160319
v -0.250000 -1.585634 -0.913337
v 0.250000 -2.167564 -0.876498
v 0.250000 -1.997272 -0.629516
v 0.250000 -1.755927 -1.160319
v 0.250000 -1.585634 -0.913337
v -0.050000 -1.541521 -0.622624
v -0.050000 -1.499830 -0.650225
v -0.050000 -1.651925 -0.789391
v -0.050000 -1.547696 -0.858393
v 0.050000 -1.541521 -0.622624
v 0.050000 -1.499830 -0.650225
v 0.050000 -1.651925 -0.789391
v 0.050000 -1.547696 -0.858393
v 0.250000 -1.891130 -0.906859
v 0.250000 -1.830127 -0.827622
v 0.250000 -1.811892 -0.967862
v 0.250000 -1.750889 -0.888625
v 0.300000 -1.891130 -0.906859
v 0.300000 -1.830127 -0.827622
v 0.300000 -1.811892 -0.967862
v 0.300000 -1.750889 -0.888625
vn -1.0000 -0.0000 -0.0000
vn -0.0000 -0.5547 -0.8321
vn 1.0000 -0.0000 -0.0000
vn -0.0000 0.8321 0.5547
vn -0.0000 -0.8000 0.6000
vn -0.0000 0.8321 -0.5547
vn -0.0000 0.8233 -0.5676
vn -0.0000 -0.8233 0.5676
vn -0.0000 -0.5676 -0.8233
vn -0.0000 0.5676 0.8233
vn -0.0000 -0.5520 -0.8338
vn -0.0000 0.5520 0.8338
vn -0.0000 -0.8338 0.5520
vn -0.0000 0.9746 -0.2241
vn -0.0000 0.7924 -0.6100
vn -0.0000 -0.7924 0.6100
vn -0.0000 -0.6100 -0.7924
vn -0.0000 0.6100 0.7924
vt 1.000000 1.000000
vt 0.203125 0.468750
vt 1.000000 1.000000
vt 0.156250 0.453125
vt 1.000000 1.000000
vt 0.203125 0.406250
vt 1.000000 1.000000
vt 0.156250 0.406250
vt 0.062500 0.468750
vt 1.000000 1.000000
vt 0.250000 0.468750
vt 1.000000 1.000000
vt 0.109375 0.453125
vt 1.000000 1.000000
vt 0.062500 0.406250
vt 0.250000 0.406250
vt 1.000000 1.000000
vt 0.109375 0.406250
vt 0.062500 0.281250
vt 0.093750 0.250000
vt 0.093750 0.281250
vt 0.062500 0.343750
vt 0.093750 0.375000
vt 0.093750 0.187500
vt 0.093750 0.343750
vt 0.187500 0.281250
vt 0.156250 0.250000
vt 0.156250 0.281250
vt 0.156250 0.375000
vt 0.187500 0.343750
vt 0.156250 0.187500
vt 0.156250 0.343750
vt 0.281250 0.406250
vt 0.312500 0.390625
vt 1.000000 1.000000
vt 0.296875 0.406250
vt 0.312500 0.406250
vt 0.281250 0.437500
vt 0.312500 0.468750
vt 1.000000 1.000000
vt 0.312500 0.437500
vt 0.359375 0.406250
vt 0.328125 0.390625
vt 1.000000 1.000000
vt 0.343750 0.406250
vt 0.328125 0.406250
vt 0.328125 0.468750
vt 0.359375 0.437500
vt 1.000000 1.000000
vt 0.328125 0.437500
vt 1.000000 1.000000
vt 0.265625 0.312500
vt 0.250000 0.296875
vt 1.000000 1.000000
vt 0.265625 0.328125
vt 0.250000 0.343750
vt 1.000000 1.000000
vt 0.218750 0.312500
vt 0.234375 0.296875
vt 1.000000 1.000000
vt 0.218750 0.328125
vt 0.234375 0.343750
vt 0.250000 0.312500
vt 0.250000 0.328125
vt 0.234375 0.312500
vt 0.234375 0.328125
s 0
usemtl MAT_DIFFUSE_CUTOUT
f 57/100/22 58/102/22 60/106/22 59/104/22
f 59/103/23 60/105/23 64/115/23 63/112/23
f 63/113/24 64/116/24 62/111/24 61/107/24
f 61/108/25 62/110/25 58/101/25 57/99/25
f 59/104/26 63/114/26 61/109/26 57/100/26
f 64/116/27 60/106/27 58/102/27 62/111/27
f 65/117/22 66/119/22 68/123/22 67/120/22
f 67/121/28 68/123/28 72/130/28 71/127/28
f 71/128/24 72/130/24 70/126/24 69/124/24
f 69/125/29 70/126/29 66/119/29 65/118/29
f 67/122/30 71/129/30 69/125/30 65/118/30
f 72/130/31 68/123/31 66/119/31 70/126/31
f 73/131/22 74/134/22 76/139/22 75/136/22
f 75/137/32 76/139/32 80/148/32 79/145/32
f 79/146/24 80/148/24 78/143/24 77/140/24
f 77/141/33 78/144/33 74/135/33 73/132/33
f 75/138/34 79/147/34 77/142/34 73/133/34
f 80/148/35 76/139/35 74/135/35 78/144/35
f 81/149/22 82/152/22 84/158/22 83/155/22
f 83/156/36 84/159/36 88/164/36 87/163/36
f 87/163/24 88/164/24 86/162/24 85/161/24
f 85/161/37 86/162/37 82/153/37 81/150/37
f 83/157/38 87/163/38 85/161/38 81/151/38
f 88/164/39 84/160/39 82/154/39 86/162/39
