# Blender v2.80 (sub 75) OBJ File: 'INV-EE3.blend'
# www.blender.org
mtllib INV-EE3.mtl
o Cube.001
v -0.050131 -0.240134 -0.360032
v -0.050131 -0.252546 0.245176
v 0.050131 -0.240134 -0.360032
v 0.050131 -0.252546 0.245176
v -0.050131 0.151391 0.385458
v 0.050131 0.151391 0.385458
v -0.050131 -0.153302 -0.379228
v -0.050131 -0.177942 0.189471
v 0.050131 -0.153302 -0.379228
v 0.050131 -0.177942 0.189471
v -0.050131 0.177942 0.314903
v 0.050131 0.177942 0.314903
v -0.050131 -0.299688 0.031925
v 0.050131 -0.299688 0.031925
v -0.050131 -0.209914 0.021745
v 0.050131 -0.209914 0.021745
v -0.197749 0.287114 3.039346
v -0.197749 0.682612 3.039346
v -0.197749 0.287114 -0.121107
v -0.197749 0.682612 -0.121107
v 0.197749 0.287114 3.039346
v 0.197749 0.682612 3.039346
v 0.197749 0.287114 -0.121107
v 0.197749 0.682612 -0.121107
v -0.098910 0.444156 0.657316
v -0.098910 0.444156 -0.175235
v 0.098910 0.444156 0.657316
v 0.098910 0.444156 -0.175235
v -0.098910 0.031524 -0.273417
v -0.098910 0.031524 0.657316
v 0.098910 0.031524 -0.273417
v 0.098910 0.031524 0.657316
v -0.123755 0.323202 -0.117705
v 0.123755 0.323202 -0.117705
v -0.123755 -0.593045 -0.286564
v 0.123755 -0.593045 -0.286564
v -0.123755 0.255379 -0.439310
v 0.123755 0.255379 -0.439310
v -0.123755 -0.571444 -0.627012
v 0.123755 -0.571444 -0.627012
v -0.123755 -0.158358 -0.274562
v 0.123755 -0.158358 -0.274562
v -0.123755 -0.181470 -0.594857
v 0.123755 -0.181470 -0.594857
v -0.064271 -0.042192 -0.447109
v -0.064271 0.086351 -0.447109
v 0.064271 -0.042192 -0.447109
v 0.064271 0.086351 -0.447109
v -0.064271 -0.508101 -0.447109
v -0.064271 -0.379558 -0.447109
v 0.064271 -0.508101 -0.447109
v 0.064271 -0.379558 -0.447109
v -0.064271 0.086351 -0.949086
v -0.064271 -0.042192 -0.949086
v 0.064271 -0.042192 -0.949086
v 0.064271 0.086351 -0.949086
v -0.064271 -0.379558 -0.949086
v -0.064271 -0.508101 -0.949086
v 0.064271 -0.508101 -0.949086
v 0.064271 -0.379558 -0.949086
v -0.086670 0.110248 -0.949086
v -0.086670 -0.545805 -0.883142
v 0.086670 -0.545805 -0.883142
v 0.086670 0.110248 -0.949086
v -0.086670 0.209045 -2.925016
v -0.086670 -0.644603 -2.925016
v 0.086670 -0.644603 -2.925016
v 0.086670 0.209045 -2.925016
v -0.038071 0.682612 1.603410
v -0.038071 0.682612 1.329618
v 0.038071 0.682612 1.603410
v 0.038071 0.682612 1.329618
v -0.038071 0.682612 0.608133
v -0.038071 0.682612 0.334341
v 0.038071 0.682612 0.608133
v 0.038071 0.682612 0.334341
v -0.038071 0.752370 1.603410
v -0.038071 0.752370 1.329618
v 0.038071 0.752370 1.329618
v 0.038071 0.752370 1.603410
v -0.038071 0.752370 0.608133
v -0.038071 0.752370 0.334341
v 0.038071 0.752370 0.334341
v 0.038071 0.752370 0.608133
v -0.096349 0.751748 1.995150
v -0.096349 0.751748 -0.237194
v 0.096349 0.751748 -0.237194
v 0.096349 0.751748 1.995150
v -0.096349 0.940654 1.995150
v -0.096349 0.940654 -0.237194
v 0.096349 0.940654 -0.237194
v 0.096349 0.940654 1.995150
v -0.143838 0.341025 3.039346
v -0.143838 0.628700 3.039346
v 0.143838 0.341025 3.039346
v 0.143838 0.628700 3.039346
v -0.117722 0.367141 3.141109
v -0.117722 0.602585 3.141109
v 0.117722 0.602585 3.141109
v 0.117722 0.367141 3.141109
v -0.031363 -0.177942 -0.062716
v 0.031363 -0.177942 -0.062716
v -0.031363 0.177942 0.062716
v 0.031363 0.177942 0.062716
v -0.031363 -0.153619 -0.131727
v 0.031363 -0.153619 -0.131727
v -0.031363 0.202265 -0.006295
v 0.031363 0.202265 -0.006295
vt 0.670614 0.928492
vt 0.670614 0.916242
vt 0.681580 0.916242
vt 0.681580 0.928492
vt 0.681580 0.884006
vt 0.670614 0.884006
vt 0.670614 0.818934
vt 0.681580 0.818934
vt 0.681580 0.952072
vt 0.670614 0.952072
vt 0.243149 0.810128
vt 0.243149 0.877555
vt 0.230359 0.877553
vt 0.230359 0.810126
vt 0.150935 0.898435
vt 0.150935 0.940507
vt 0.147967 0.940507
vt 0.147967 0.898435
vt 0.567695 0.613014
vt 0.577196 0.622346
vt 0.530491 0.669963
vt 0.514526 0.666725
vt 0.049806 0.379068
vt 0.049806 0.381503
vt 0.016118 0.381503
vt 0.016118 0.379068
vt 0.460672 0.616736
vt 0.475817 0.620325
vt 0.436696 0.680617
vt 0.421765 0.675348
vt 0.911699 0.787138
vt 0.911699 0.856971
vt 0.894170 0.856971
vt 0.894170 0.787138
vt 0.685048 0.016118
vt 0.685048 0.580752
vt 0.615905 0.580752
vt 0.615905 0.016118
vt 0.347445 0.776102
vt 0.347445 0.846776
vt 0.278490 0.846776
vt 0.278490 0.776102
vt 0.786427 0.016118
vt 0.786427 0.580752
vt 0.717284 0.580752
vt 0.717284 0.016118
vt 0.482290 0.021215
vt 0.413147 0.021215
vt 0.413147 0.016118
vt 0.482290 0.016118
vt 0.583669 0.016118
vt 0.583669 0.580778
vt 0.514526 0.580778
vt 0.514526 0.016118
vt 0.413147 0.584500
vt 0.482290 0.584500
vt 0.881203 0.417701
vt 0.915787 0.417702
vt 0.915787 0.566087
vt 0.881203 0.566086
vt 0.915787 0.213859
vt 0.915787 0.380148
vt 0.881203 0.380148
vt 0.881203 0.213859
vt 0.881203 0.412384
vt 0.915787 0.412384
vt 0.016118 0.779372
vt 0.049807 0.779372
vt 0.924474 0.104000
vt 0.881203 0.104000
vt 0.881203 0.016118
vt 0.924474 0.016118
vt 0.243149 0.909791
vt 0.243149 0.961197
vt 0.225267 0.956530
vt 0.225267 0.914458
vt 0.350628 0.595126
vt 0.350628 0.743867
vt 0.278490 0.743867
vt 0.278490 0.577585
vt 0.818663 0.794165
vt 0.818663 0.787138
vt 0.861934 0.787138
vt 0.861934 0.794165
vt 0.906333 0.967459
vt 0.894170 0.967459
vt 0.894170 0.953853
vt 0.906333 0.953853
vt 0.028314 0.983882
vt 0.016118 0.983882
vt 0.016118 0.934967
vt 0.028314 0.934967
vt 0.911699 0.895227
vt 0.911699 0.921617
vt 0.894170 0.921617
vt 0.894170 0.895227
vt 0.104515 0.982419
vt 0.092319 0.982419
vt 0.092319 0.933504
vt 0.104515 0.933504
vt 0.456418 0.799306
vt 0.456418 0.860262
vt 0.413147 0.860262
vt 0.413147 0.799306
vt 0.104515 0.810145
vt 0.104515 0.811801
vt 0.082042 0.811801
vt 0.082042 0.810145
vt 0.615905 0.963825
vt 0.615905 0.940855
vt 0.638317 0.940855
vt 0.638317 0.963825
vt 0.714173 0.963825
vt 0.714173 0.940855
vt 0.736585 0.940855
vt 0.736585 0.963825
vt 0.333198 0.968693
vt 0.333198 0.879012
vt 0.355671 0.879012
vt 0.355671 0.968693
vt 0.038591 0.813264
vt 0.038591 0.902732
vt 0.016118 0.902732
vt 0.016118 0.813264
vt 0.966407 0.787138
vt 0.966407 0.876820
vt 0.943935 0.876820
vt 0.943935 0.787138
vt 0.943744 0.688004
vt 0.943744 0.598322
vt 0.966216 0.598322
vt 0.966216 0.688004
vt 0.714173 0.908619
vt 0.714173 0.818934
vt 0.736646 0.818934
vt 0.736646 0.908619
vt 0.278490 0.968693
vt 0.278490 0.879012
vt 0.300962 0.879012
vt 0.300962 0.968693
vt 0.615905 0.908619
vt 0.615905 0.818934
vt 0.638378 0.818934
vt 0.638378 0.908619
vt 0.104515 0.901268
vt 0.082042 0.901268
vt 0.848968 0.381253
vt 0.848967 0.401460
vt 0.818663 0.401460
vt 0.818663 0.381253
vt 0.911508 0.750451
vt 0.881203 0.750451
vt 0.881203 0.598322
vt 0.911508 0.598322
vt 0.848968 0.754902
vt 0.818663 0.754902
vt 0.956710 0.097269
vt 0.968906 0.097269
vt 0.968906 0.146183
vt 0.956710 0.146183
vt 0.027899 0.329560
vt 0.016118 0.214865
vt 0.380911 0.197593
vt 0.380911 0.346833
vt 0.681937 0.620213
vt 0.670230 0.696992
vt 0.615905 0.682562
vt 0.622732 0.612988
vt 0.961335 0.507794
vt 0.948023 0.507794
vt 0.948023 0.458878
vt 0.961335 0.458878
vt 0.961335 0.426642
vt 0.948023 0.426642
vt 0.948023 0.377725
vt 0.961335 0.377725
vt 0.948023 0.263556
vt 0.948023 0.214758
vt 0.961335 0.214758
vt 0.961335 0.263556
vt 0.948023 0.345489
vt 0.948023 0.296691
vt 0.961335 0.296691
vt 0.961335 0.345489
vt 0.786410 0.966452
vt 0.774247 0.966452
vt 0.774247 0.952846
vt 0.786410 0.952846
vt 0.514526 0.870411
vt 0.514526 0.795584
vt 0.549110 0.795584
vt 0.549110 0.870411
vt 0.818663 0.016118
vt 0.848968 0.016118
vt 0.968906 0.065033
vt 0.956710 0.065033
vt 0.956710 0.016118
vt 0.968906 0.016118
vt 0.038591 0.811608
vt 0.016118 0.811608
vt 0.818663 0.823391
vt 0.861934 0.823391
vt 0.818663 0.881074
vt 0.861934 0.881074
vt 0.961335 0.295792
vt 0.948023 0.295792
vt 0.924474 0.181624
vt 0.881203 0.181624
vt 0.961335 0.213859
vt 0.948023 0.213859
vt 0.115731 0.777909
vt 0.082042 0.777909
vt 0.082042 0.379068
vt 0.115731 0.379068
vt 0.768881 0.848416
vt 0.786410 0.848416
vt 0.786410 0.920610
vt 0.768881 0.920610
vt 0.180993 0.777890
vt 0.147967 0.777890
vt 0.147967 0.379068
vt 0.180993 0.379068
vt 0.213228 0.379068
vt 0.246254 0.379068
vt 0.246254 0.777890
vt 0.213228 0.777890
vt 0.960660 0.557947
vt 0.948023 0.557947
vt 0.948023 0.540030
vt 0.960660 0.540030
vt 0.681937 0.786698
vt 0.628804 0.764368
vt 0.549110 0.937081
vt 0.516174 0.937081
vt 0.516174 0.902647
vt 0.549110 0.902647
vt 0.198123 0.861532
vt 0.147967 0.861532
vt 0.147967 0.810126
vt 0.198123 0.810126
vt 0.429112 0.710121
vt 0.413147 0.713359
vt 0.961816 0.960461
vt 0.943935 0.955795
vt 0.943935 0.913722
vt 0.961816 0.909055
vt 0.836535 0.964716
vt 0.818663 0.960049
vt 0.818663 0.917976
vt 0.836535 0.913310
vt 0.169009 0.945174
vt 0.169009 0.893768
vt 0.958636 0.738156
vt 0.943744 0.738156
vt 0.943744 0.720240
vt 0.958636 0.720240
vt 0.527140 0.969317
vt 0.527140 0.981930
vt 0.516174 0.981930
vt 0.516174 0.969317
vt 0.430675 0.957570
vt 0.413147 0.957570
vt 0.413147 0.892498
vt 0.430675 0.892498
vt 0.027899 0.033390
vt 0.380911 0.016118
vt 0.380911 0.165357
vt 0.016118 0.148085
vt 0.768881 0.818934
vt 0.786410 0.818934
vt 0.462911 0.892500
vt 0.475701 0.892498
vt 0.475701 0.959925
vt 0.462911 0.959927
vt 0.727072 0.635318
vt 0.780205 0.612988
vt 0.768498 0.702694
vt 0.714173 0.717124
vt 0.475817 0.757738
vt 0.466316 0.767070
vt 0.523144 0.704736
vt 0.538075 0.699467
vt 0.562051 0.763348
vt 0.577196 0.759759
vt 0.780205 0.779473
vt 0.721000 0.786698
vt 0.278490 0.396609
vt 0.350628 0.379068
vt 0.350628 0.545350
vt 0.278490 0.545350
vn 0.0000 -0.9431 -0.3324
vn 0.0000 0.3324 -0.9431
vn 0.0000 -0.3324 0.9431
vn 1.0000 0.0000 0.0000
vn 0.0000 0.0000 1.0000
vn -1.0000 -0.0000 0.0000
vn 0.0000 -0.9887 -0.1502
vn 0.0000 0.0000 -1.0000
vn 0.0000 -1.0000 0.0000
vn 0.0000 1.0000 0.0000
vn 0.0000 0.3097 -0.9508
vn -0.9686 0.0000 0.2486
vn 0.0000 -0.0822 0.9966
vn 0.0000 -0.3281 0.9447
vn 0.0000 0.9980 0.0633
vn 0.0000 0.1000 0.9950
vn 0.0000 0.9988 0.0499
vn 0.0000 0.2315 -0.9728
vn 0.0000 -0.9988 0.0483
vn 0.0000 -0.3354 0.9421
vn 0.0000 -0.9785 0.2063
vn 0.0000 0.0276 -0.9996
vn 0.0000 0.9902 0.1398
vn 0.0000 0.9359 0.3522
vn 0.9686 0.0000 0.2486
vn 0.0000 -0.9686 0.2486
vn 0.0000 0.9686 0.2486
vn 0.0000 -0.2159 -0.9764
vn 0.0000 0.9431 0.3324
vn 0.0000 0.9823 -0.1872
vn 0.0000 -0.9764 0.2159
usemtl MAT_DIFFUSE_CUTOUT
s off
f 101/1/1 105/2/1 106/3/1 102/4/1
f 107/5/2 108/6/2 106/7/2 105/8/2
f 102/4/3 104/9/3 103/10/3 101/1/3
f 104/11/4 102/12/4 106/13/4 108/14/4
f 99/15/5 98/16/5 97/17/5 100/18/5
f 5/19/6 11/20/6 8/21/6 2/22/6
f 88/23/5 92/24/5 89/25/5 85/26/5
f 3/27/4 9/28/4 16/29/4 14/30/4
f 3/31/7 14/32/7 13/33/7 1/34/7
f 18/35/6 20/36/6 19/37/6 17/38/6
f 20/39/8 24/40/8 23/41/8 19/42/8
f 24/43/4 22/44/4 21/45/4 23/46/4
f 22/47/5 18/48/5 17/49/5 21/50/5
f 23/51/9 21/52/9 17/53/9 19/54/9
f 20/55/10 18/48/10 22/47/10 24/56/10
f 25/57/10 27/58/10 28/59/10 26/60/10
f 31/61/9 32/62/9 30/63/9 29/64/9
f 25/57/5 30/65/5 32/66/5 27/58/5
f 90/67/10 89/25/10 92/24/10 91/68/10
f 42/69/11 41/70/11 33/71/11 34/72/11
f 94/73/12 93/74/12 97/75/12 98/76/12
f 28/77/4 27/78/4 32/79/4 31/80/4
f 43/81/13 39/82/13 40/83/13 44/84/13
f 74/85/8 82/86/8 83/87/8 76/88/8
f 69/89/6 77/90/6 78/91/6 70/92/6
f 4/93/14 6/94/14 5/95/14 2/96/14
f 72/97/4 79/98/4 80/99/4 71/100/4
f 36/101/15 40/102/15 39/103/15 35/104/15
f 51/105/5 52/106/5 50/107/5 49/108/5
f 53/109/8 56/110/8 55/111/8 54/112/8
f 57/113/8 60/114/8 59/115/8 58/116/8
f 50/117/6 57/118/6 58/119/6 49/120/6
f 48/121/10 56/122/10 53/123/10 46/124/10
f 46/125/6 53/126/6 54/127/6 45/128/6
f 51/129/4 59/130/4 60/131/4 52/132/4
f 49/133/9 58/134/9 59/135/9 51/136/9
f 47/137/4 55/138/4 56/139/4 48/140/4
f 45/141/9 54/142/9 55/143/9 47/144/9
f 52/106/10 60/145/10 57/146/10 50/107/10
f 63/147/16 64/148/16 61/149/16 62/150/16
f 65/151/8 68/152/8 67/153/8 66/154/8
f 64/148/17 68/155/17 65/156/17 61/149/17
f 73/157/6 81/158/6 82/159/6 74/160/6
f 64/161/4 63/162/4 67/163/4 68/164/4
f 36/165/6 42/166/6 44/167/6 40/168/6
f 71/169/9 69/170/9 70/171/9 72/172/9
f 75/173/9 73/174/9 74/175/9 76/176/9
f 78/177/10 77/178/10 80/179/10 79/180/10
f 82/181/10 81/182/10 84/183/10 83/184/10
f 70/185/8 78/186/8 79/187/8 72/188/8
f 28/189/18 31/190/18 29/191/18 26/192/18
f 62/150/19 66/193/19 67/194/19 63/147/19
f 76/195/4 83/196/4 84/197/4 75/198/4
f 47/199/5 48/121/5 46/124/5 45/200/5
f 37/201/20 43/81/20 44/84/20 38/202/20
f 33/203/21 37/201/21 38/202/21 34/204/21
f 75/205/5 84/183/5 81/182/5 73/206/5
f 36/207/22 35/208/22 41/70/22 42/69/22
f 71/209/5 80/179/5 77/178/5 69/210/5
f 88/211/9 85/212/9 86/213/9 87/214/9
f 15/215/23 16/216/23 9/217/23 7/218/23
f 87/219/4 91/220/4 92/221/4 88/222/4
f 85/223/6 89/224/6 90/225/6 86/226/6
f 6/227/24 12/228/24 11/229/24 5/230/24
f 42/166/6 34/231/6 38/232/6 44/167/6
f 86/233/8 90/234/8 91/235/8 87/236/8
f 93/237/8 94/238/8 96/239/8 95/240/8
f 14/30/4 16/29/4 10/241/4 4/242/4
f 96/243/25 99/244/25 100/245/25 95/246/25
f 95/247/26 100/248/26 97/249/26 93/250/26
f 94/251/27 98/16/27 99/15/27 96/252/27
f 1/253/28 7/254/28 9/255/28 3/256/28
f 104/257/29 108/258/29 107/259/29 103/260/29
f 11/261/2 12/262/2 10/263/2 8/264/2
f 61/265/6 65/266/6 66/267/6 62/268/6
f 8/269/30 10/270/30 16/216/30 15/215/30
f 103/271/6 107/272/6 105/273/6 101/274/6
f 37/275/4 33/276/4 41/277/4 43/278/4
f 10/241/4 12/279/4 6/280/4 4/242/4
f 13/281/6 2/22/6 8/21/6 15/282/6
f 1/283/6 13/281/6 15/282/6 7/284/6
f 35/285/4 39/286/4 43/278/4 41/277/4
f 26/287/6 29/288/6 30/289/6 25/290/6
f 14/32/31 4/93/31 2/96/31 13/33/31
