# Blender v2.80 (sub 75) OBJ File: 'INV-DH17.blend'
# www.blender.org
mtllib INV-DH17.mtl
o Cube
v -0.231863 0.396041 2.396892
v -0.231863 0.859766 2.396892
v -0.231863 0.396041 -2.090659
v -0.231863 0.859766 -2.090659
v 0.231862 0.396041 2.396892
v 0.231862 0.859766 2.396892
v 0.231862 0.396041 -2.090659
v 0.231862 0.859766 -2.090659
v -0.145442 0.482461 3.033503
v -0.145442 0.773345 3.033503
v 0.145442 0.773345 3.033503
v 0.145442 0.482461 3.033503
v -0.146721 0.859766 1.098917
v -0.146721 0.859766 -1.756295
v 0.146721 0.859766 1.098917
v 0.146721 0.859766 -1.756295
v -0.146721 1.041870 1.098917
v -0.146721 1.041870 -1.756295
v 0.146721 1.041870 -1.756295
v 0.146721 1.041870 1.098917
v -0.157933 1.143325 -1.975053
v -0.157933 1.459192 -1.975053
v 0.157933 1.143325 -1.975053
v 0.157933 1.459192 -1.975053
v -0.157933 1.459192 -0.445792
v -0.157933 1.143325 -0.445792
v 0.157933 1.143325 -0.445792
v 0.157933 1.459192 -0.445792
v -0.092483 1.393741 -0.108063
v -0.092483 1.208776 -0.108063
v 0.092483 1.208776 -0.108063
v 0.092483 1.393741 -0.108063
v -0.093568 1.143325 -1.522507
v 0.093567 1.143325 -1.522507
v -0.093568 1.143325 -1.295862
v 0.093567 1.143325 -1.295862
v -0.093568 1.143325 -0.686356
v 0.093567 1.143325 -0.686356
v -0.093568 1.143325 -0.459711
v 0.093567 1.143325 -0.459711
v 0.093567 1.016830 -1.522507
v -0.093568 1.016830 -1.522507
v 0.093567 1.016830 -1.295862
v -0.093568 1.016830 -1.295862
v -0.093568 1.016830 -0.686356
v 0.093567 1.016830 -0.686356
v 0.093567 1.016830 -0.459711
v -0.093568 1.016830 -0.459711
v -0.085071 0.280959 0.314999
v 0.085071 0.280959 0.314999
v -0.085071 -0.027117 0.269658
v 0.085071 -0.027117 0.269658
v -0.085071 -0.189299 0.086844
v 0.085071 -0.189299 0.086844
v -0.085071 -0.138135 -0.207392
v 0.085071 -0.138135 -0.207392
v -0.085071 0.062335 -0.316713
v 0.085071 0.062335 -0.316713
v -0.085071 0.271168 0.381521
v 0.085071 0.271168 0.381521
v -0.085071 -0.059094 0.328807
v 0.085071 -0.059094 0.328807
v -0.085071 -0.253980 0.105214
v 0.085071 -0.253980 0.105214
v -0.085071 -0.192786 -0.246561
v 0.085071 -0.192786 -0.246561
v -0.085071 0.030144 -0.375744
v 0.085071 0.030144 -0.375744
v -0.085071 -0.138135 -0.014839
v 0.085071 -0.138135 -0.014839
v -0.085071 0.062335 -0.124160
v 0.085071 0.062335 -0.124160
v 0.085071 -0.100235 0.054661
v -0.085071 -0.100235 0.054661
v 0.085071 0.100235 -0.054661
v -0.085071 0.100235 -0.054661
v -0.162181 0.451682 -0.989626
v -0.162181 -0.643313 -1.263615
v 0.162180 0.451682 -0.989626
v 0.162180 -0.643313 -1.263615
v -0.162181 -0.426204 -1.251559
v -0.162181 -0.133575 -1.037161
v -0.162181 0.159053 -0.935872
v 0.162180 0.159053 -0.935872
v 0.162180 -0.133575 -1.037161
v 0.162180 -0.426204 -1.251559
v -0.162181 -0.812605 -0.855641
v 0.162180 -0.812605 -0.855641
v -0.162181 0.241365 0.402347
v 0.162180 0.241365 0.402347
v 0.162180 -0.073686 -0.394930
v -0.162181 -0.073686 -0.394930
v -0.162181 0.452987 0.501436
v 0.162180 0.452987 0.501436
vt 0.845842 0.210665
vt 0.850189 0.210665
vt 0.850189 0.220350
vt 0.845842 0.220350
vt 0.315341 0.890631
vt 0.315341 0.569205
vt 0.351295 0.569205
vt 0.351295 0.890631
vt 0.831752 0.323791
vt 0.831752 0.312050
vt 0.842235 0.312050
vt 0.842235 0.323791
vt 0.551321 0.075310
vt 0.556646 0.039103
vt 0.574568 0.039103
vt 0.579892 0.075310
vt 0.870965 0.306837
vt 0.859570 0.306837
vt 0.859570 0.317365
vt 0.870965 0.317365
vt 0.814704 0.311999
vt 0.825187 0.311999
vt 0.825187 0.324594
vt 0.814704 0.324594
vt 0.408822 0.885644
vt 0.408822 0.567297
vt 0.444776 0.567297
vt 0.444776 0.885644
vt 0.625605 0.073794
vt 0.630930 0.038586
vt 0.648852 0.038586
vt 0.654176 0.073794
vt 0.588463 0.294523
vt 0.617034 0.294523
vt 0.611710 0.330730
vt 0.593788 0.330730
vt 0.838285 0.234108
vt 0.840195 0.237504
vt 0.823172 0.245677
vt 0.820118 0.243091
vt 0.519236 0.871930
vt 0.519236 0.838715
vt 0.555187 0.838715
vt 0.555187 0.871930
vt 0.666285 0.499258
vt 0.689037 0.499258
vt 0.689037 0.703686
vt 0.666285 0.703686
vt 0.525104 0.892327
vt 0.525104 0.878923
vt 0.515312 0.878923
vt 0.515312 0.892327
vt 0.484977 0.864246
vt 0.499074 0.864246
vt 0.499074 0.885265
vt 0.484977 0.885265
vt 0.708685 0.756078
vt 0.694567 0.756078
vt 0.694567 0.735060
vt 0.708685 0.735060
vt 0.576046 0.890773
vt 0.576046 0.877369
vt 0.566239 0.877369
vt 0.566239 0.890773
vt 0.593755 0.895315
vt 0.579636 0.895315
vt 0.579636 0.690807
vt 0.593755 0.690807
vt 0.839511 0.279326
vt 0.823928 0.276527
vt 0.826321 0.273403
vt 0.840195 0.275551
vt 0.616206 0.866326
vt 0.616206 0.882560
vt 0.626013 0.882560
vt 0.626013 0.866326
vt 0.811559 0.290273
vt 0.811559 0.301855
vt 0.801077 0.301855
vt 0.801077 0.290273
vt 0.485680 0.813945
vt 0.510170 0.813945
vt 0.510170 0.704410
vt 0.485680 0.704410
vt 0.478332 0.680194
vt 0.453842 0.680194
vt 0.453842 0.789729
vt 0.478333 0.789729
vt 0.856288 0.320318
vt 0.845806 0.320318
vt 0.845806 0.300402
vt 0.856288 0.300402
vt 0.680842 0.250548
vt 0.661381 0.250548
vt 0.665413 0.269792
vt 0.676809 0.269792
vt 0.737279 0.182981
vt 0.756740 0.182981
vt 0.752707 0.163428
vt 0.741311 0.163428
vt 0.711980 0.182590
vt 0.731441 0.182590
vt 0.727408 0.163481
vt 0.716012 0.163481
vt 0.599645 0.748923
vt 0.624794 0.748923
vt 0.624794 0.733445
vt 0.599645 0.733445
vt 0.630742 0.740146
vt 0.630742 0.756373
vt 0.645252 0.756373
vt 0.645252 0.740146
vt 0.453941 0.865364
vt 0.479090 0.865364
vt 0.479090 0.838098
vt 0.453941 0.838098
vt 0.598049 0.882381
vt 0.612558 0.882381
vt 0.612558 0.866303
vt 0.598049 0.866303
vt 0.668466 0.756201
vt 0.682975 0.756201
vt 0.682975 0.740123
vt 0.668466 0.740123
vt 0.738264 0.703777
vt 0.724144 0.703777
vt 0.724144 0.499269
vt 0.738263 0.499269
vt 0.566239 0.835586
vt 0.566239 0.851820
vt 0.576047 0.851820
vt 0.576047 0.835586
vt 0.528042 0.878923
vt 0.528042 0.892327
vt 0.537834 0.892327
vt 0.537834 0.878923
vt 0.468789 0.871889
vt 0.468789 0.888122
vt 0.478597 0.888122
vt 0.478597 0.871889
vt 0.599540 0.837873
vt 0.599540 0.860497
vt 0.623992 0.860497
vt 0.623992 0.837873
vt 0.517517 0.813702
vt 0.542007 0.813702
vt 0.542007 0.704209
vt 0.517517 0.704209
vt 0.722081 0.757220
vt 0.722081 0.743816
vt 0.712274 0.743816
vt 0.712274 0.757220
vt 0.576046 0.872923
vt 0.576046 0.856690
vt 0.566239 0.856690
vt 0.566239 0.872923
vt 0.869916 0.285057
vt 0.869916 0.302623
vt 0.859433 0.302623
vt 0.859433 0.285057
vt 0.744851 0.330965
vt 0.740975 0.330965
vt 0.740975 0.321281
vt 0.744851 0.321281
vt 0.811559 0.318039
vt 0.801077 0.318039
vt 0.599645 0.692855
vt 0.624794 0.692855
vt 0.624794 0.671713
vt 0.599645 0.671713
vt 0.660034 0.327403
vt 0.660034 0.315662
vt 0.670517 0.315662
vt 0.670517 0.327403
vt 0.739797 0.330965
vt 0.735821 0.330965
vt 0.735821 0.321281
vt 0.739797 0.321281
vt 0.729976 0.321281
vt 0.734540 0.321281
vt 0.734540 0.330965
vt 0.729976 0.330965
vt 0.845806 0.287365
vt 0.856288 0.287365
vt 0.650601 0.505305
vt 0.607923 0.501343
vt 0.601207 0.526575
vt 0.629626 0.564590
vt 0.817413 0.258529
vt 0.813277 0.258745
vt 0.859433 0.320644
vt 0.869916 0.320644
vt 0.869916 0.331976
vt 0.859433 0.331976
vt 0.549354 0.813187
vt 0.573844 0.813187
vt 0.573844 0.704701
vt 0.549354 0.704701
vt 0.705019 0.288218
vt 0.705019 0.304774
vt 0.687126 0.304774
vt 0.687126 0.288218
vt 0.514179 0.075472
vt 0.519504 0.039111
vt 0.537426 0.039111
vt 0.542750 0.075471
vt 0.599645 0.713377
vt 0.624794 0.713377
vt 0.870944 0.242271
vt 0.870944 0.229275
vt 0.875822 0.229275
vt 0.875822 0.242271
vt 0.695862 0.701525
vt 0.695862 0.498976
vt 0.718614 0.498976
vt 0.718614 0.701525
vt 0.663787 0.861197
vt 0.663787 0.837964
vt 0.647284 0.837964
vt 0.647284 0.861197
vt 0.362081 0.845068
vt 0.362081 0.523642
vt 0.398035 0.523642
vt 0.398035 0.845068
vt 0.632338 0.669083
vt 0.632338 0.728760
vt 0.657487 0.728760
vt 0.657487 0.669083
vt 0.687720 0.821840
vt 0.712869 0.821840
vt 0.712869 0.768505
vt 0.687720 0.768505
vt 0.649604 0.740146
vt 0.649604 0.756373
vt 0.664114 0.756373
vt 0.664114 0.740146
vt 0.842235 0.307499
vt 0.831752 0.307499
vt 0.831752 0.288899
vt 0.842235 0.288899
vt 0.704613 0.322204
vt 0.699736 0.322204
vt 0.699736 0.309207
vt 0.704613 0.309207
vt 0.494856 0.602149
vt 0.523275 0.564134
vt 0.482508 0.583127
vt 0.462440 0.572618
vt 0.536606 0.490694
vt 0.788934 0.236906
vt 0.804516 0.234108
vt 0.805201 0.237882
vt 0.791326 0.240031
vt 0.803291 0.279326
vt 0.785124 0.270343
vt 0.788178 0.267756
vt 0.805201 0.275930
vt 0.588860 0.545597
vt 0.568792 0.556107
vt 0.642958 0.638030
vt 0.782419 0.254904
vt 0.778283 0.254688
vt 0.686680 0.182750
vt 0.706141 0.182750
vt 0.702109 0.163507
vt 0.690713 0.163507
vt 0.544249 0.505869
vt 0.544249 0.623419
vt 0.501571 0.627382
vt 0.513874 0.638031
vt 0.620226 0.490694
vt 0.650601 0.622856
vt 0.268600 0.890709
vt 0.268600 0.569408
vt 0.304554 0.569408
vt 0.304555 0.890709
vn 0.0000 -0.8779 0.4788
vn 1.0000 0.0000 0.0000
vn 0.0000 0.4788 0.8779
vn 0.9909 0.0000 0.1345
vn 0.0000 0.0000 1.0000
vn 0.0000 -0.5014 -0.8652
vn 0.0000 1.0000 0.0000
vn 0.0000 0.9909 0.1345
vn -0.9909 0.0000 0.1345
vn -1.0000 0.0000 0.0000
vn 0.0000 0.0000 -1.0000
vn 0.0000 -1.0000 0.0000
vn 0.0000 0.7481 -0.6636
vn 0.0000 -0.9852 -0.1714
vn 0.9817 0.0000 0.1903
vn 0.0000 -0.9817 0.1903
vn 0.0000 0.9817 0.1903
vn 0.0000 0.0554 -0.9985
vn 0.0000 -0.9236 -0.3833
vn 0.0000 0.1456 -0.9893
vn 0.0000 0.8779 -0.4788
vn 0.0000 0.9852 0.1713
vn 0.0000 -0.1807 -0.9835
vn 0.0000 0.9893 0.1456
vn 0.0000 -0.7538 0.6571
vn 0.0000 -0.4788 -0.8779
vn 0.0000 -0.9909 0.1345
vn 0.0000 0.3271 -0.9450
vn 0.0000 -0.4241 0.9056
vn -0.0000 -0.9300 0.3675
vn -0.0000 -0.5291 0.8486
vn 0.0000 -0.1576 0.9875
vn 0.0000 0.5910 -0.8067
vn -0.9817 0.0000 0.1903
usemtl MAT_DIFFUSE_CUTOUT
s off
f 70/1/1 73/2/1 74/3/1 69/4/1
f 8/5/2 6/6/2 5/7/2 7/8/2
f 73/9/3 75/10/3 76/11/3 74/12/3
f 6/13/4 11/14/4 12/15/4 5/16/4
f 29/17/5 30/18/5 31/19/5 32/20/5
f 67/21/6 68/22/6 66/23/6 65/24/6
f 4/25/7 2/26/7 6/27/7 8/28/7
f 2/29/8 10/30/8 11/31/8 6/32/8
f 2/33/9 1/34/9 9/35/9 10/36/9
f 59/37/10 49/38/10 51/39/10 61/40/10
f 4/41/11 8/42/11 7/43/11 3/44/11
f 15/45/12 13/46/12 14/47/12 16/48/12
f 37/49/11 38/50/11 46/51/11 45/52/11
f 15/53/5 20/54/5 17/55/5 13/56/5
f 14/57/11 18/58/11 19/59/11 16/60/11
f 40/61/5 39/62/5 48/63/5 47/64/5
f 13/65/10 17/66/10 18/67/10 14/68/10
f 67/69/10 65/70/10 55/71/10 57/72/10
f 34/73/2 36/74/2 43/75/2 41/76/2
f 52/77/13 54/78/13 53/79/13 51/80/13
f 22/81/10 21/82/10 26/83/10 25/84/10
f 23/85/2 24/86/2 28/87/2 27/88/2
f 65/89/14 66/90/14 64/91/14 63/92/14
f 27/93/15 28/94/15 32/95/15 31/96/15
f 26/97/16 27/98/16 31/99/16 30/100/16
f 28/101/17 25/102/17 29/103/17 32/104/17
f 80/105/18 78/106/18 81/107/18 86/108/18
f 36/109/7 34/110/7 33/111/7 35/112/7
f 78/113/19 80/114/19 88/115/19 87/116/19
f 42/117/12 41/118/12 43/119/12 44/120/12
f 45/121/12 46/122/12 47/123/12 48/124/12
f 16/125/2 19/126/2 20/127/2 15/128/2
f 35/129/10 33/130/10 42/131/10 44/132/10
f 33/133/11 34/134/11 41/135/11 42/136/11
f 38/137/2 40/138/2 47/139/2 46/140/2
f 23/141/11 21/142/11 22/143/11 24/144/11
f 24/145/7 22/146/7 25/147/7 28/148/7
f 36/149/5 35/150/5 44/151/5 43/152/5
f 39/153/10 37/154/10 45/155/10 48/156/10
f 50/157/20 52/158/20 51/159/20 49/160/20
f 58/161/21 68/162/21 67/163/21 57/164/21
f 54/78/22 56/165/22 55/166/22 53/79/22
f 84/167/23 83/168/23 77/169/23 79/170/23
f 56/171/3 58/172/3 57/173/3 55/174/3
f 49/175/24 59/176/24 60/177/24 50/178/24
f 71/179/21 76/180/21 75/181/21 72/182/21
f 63/92/25 64/91/25 62/183/25 61/184/25
f 88/185/2 86/186/2 85/187/2 91/188/2
f 61/40/10 51/39/10 53/189/10 63/190/10
f 71/191/26 72/192/26 70/193/26 69/194/26
f 21/195/12 23/196/12 27/197/12 26/198/12
f 11/199/5 10/200/5 9/201/5 12/202/5
f 5/203/27 12/204/27 9/205/27 1/206/27
f 85/207/28 82/208/28 83/168/28 84/167/28
f 70/209/2 72/210/2 75/211/2 73/212/2
f 18/213/7 17/214/7 20/215/7 19/216/7
f 89/217/29 90/218/29 94/219/29 93/220/29
f 2/221/10 4/222/10 3/223/10 1/224/10
f 91/225/30 90/226/30 89/227/30 92/228/30
f 87/229/31 88/230/31 91/231/31 92/232/31
f 40/233/7 38/234/7 37/235/7 39/236/7
f 61/237/32 62/238/32 60/239/32 59/240/32
f 81/107/33 82/208/33 85/207/33 86/108/33
f 69/241/10 74/242/10 76/243/10 71/244/10
f 82/245/10 92/246/10 83/247/10
f 77/248/10 83/247/10 92/246/10 93/249/10
f 66/250/2 68/251/2 58/252/2 56/253/2
f 60/254/2 62/255/2 52/256/2 50/257/2
f 91/188/2 84/258/2 79/259/2 94/260/2
f 54/261/2 52/256/2 62/255/2 64/262/2
f 25/263/34 26/264/34 30/265/34 29/266/34
f 55/71/10 65/70/10 63/190/10 53/189/10
f 93/249/10 92/246/10 89/267/10
f 56/253/2 54/261/2 64/262/2 66/250/2
f 87/268/10 81/269/10 78/270/10
f 86/186/2 88/185/2 80/271/2
f 91/188/2 94/260/2 90/272/2
f 87/268/10 92/246/10 82/245/10 81/269/10
f 84/258/2 91/188/2 85/187/2
f 7/273/12 5/274/12 1/275/12 3/276/12
