# Blender v2.91.0 OBJ File: 'E11_Feb9.blend'
# www.blender.org
mtllib E11_Feb9.mtl
o E11_Plane.004
v 0.050000 0.000000 -0.300000
v -0.050000 0.000000 -0.300000
v 0.050000 -0.200000 -0.110000
v -0.050000 -0.200000 -0.110000
v 0.050000 -0.150000 0.150000
v -0.050000 -0.150000 0.150000
v 0.050000 -0.000000 0.250000
v -0.050000 -0.000000 0.250000
v 0.050000 0.300000 0.200000
v -0.050000 0.300000 0.200000
v 0.050000 0.000000 -0.300000
v -0.050000 0.000000 -0.300000
v 0.050000 -0.200000 -0.110000
v -0.050000 -0.200000 -0.110000
v 0.050000 -0.150000 0.150000
v -0.050000 -0.150000 0.150000
v 0.050000 -0.000000 0.250000
v -0.050000 -0.000000 0.250000
v 0.050000 0.300000 0.200000
v -0.050000 0.300000 0.200000
v -0.200000 0.300000 2.450000
v 0.200000 0.300000 2.450000
v -0.200000 0.700000 2.450000
v 0.200000 0.700000 2.450000
v -0.200000 0.700000 -2.350000
v -0.200000 0.300000 -2.350000
v 0.200000 0.300000 -2.350000
v 0.200000 0.700000 -2.350000
v 0.100000 -0.500000 -1.150000
v 0.100000 0.100000 -0.750000
v 0.100000 -0.700000 -0.850000
v -0.100000 -0.500000 -1.150000
v -0.100000 0.100000 -0.750000
v -0.100000 -0.700000 -0.850000
v -0.100000 -0.100000 -0.450000
v 0.100000 -0.100000 -0.450000
v 0.100000 0.300000 -0.950000
v 0.100000 0.300000 0.250000
v -0.100000 0.300000 0.250000
v -0.100000 0.300000 -0.950000
v 0.025000 0.100000 -0.150000
v -0.025000 0.100000 -0.150000
v 0.025000 -0.050000 -0.100000
v 0.025000 0.200000 0.000000
v -0.025000 0.200000 -0.000000
v 0.025000 -0.100000 -0.050000
v -0.025000 -0.100000 -0.050000
v -0.025000 -0.050000 -0.100000
v -0.150000 0.350000 2.400000
v -0.150000 0.650000 2.400000
v 0.150000 0.350000 2.400000
v -0.150000 0.350000 2.500000
v -0.150000 0.650000 2.500000
v 0.150000 0.350000 2.500000
v 0.150000 0.650000 2.500000
v 0.150000 0.650000 2.400000
v 0.200000 0.400000 0.450000
v 0.200000 0.600000 0.450000
v 0.200000 0.400000 -0.150000
v 0.500000 0.400000 0.450000
v 0.500000 0.600000 0.450000
v 0.600000 0.400000 -0.150000
v 0.600000 0.600000 -0.150000
v 0.200000 0.600000 -0.150000
v 0.450000 0.450000 0.350000
v 0.450000 0.550000 0.350000
v 0.450000 0.450000 -0.100000
v 0.850000 0.450000 0.400000
v 0.850000 0.550000 0.400000
v 0.850000 0.450000 -0.050000
v 0.850000 0.550000 -0.050000
v 0.450000 0.550000 -0.100000
v -0.150000 0.650000 0.400000
v 0.150000 0.650000 0.400000
v -0.150000 0.650000 -1.800000
v -0.150000 0.850000 0.400000
v 0.150000 0.850000 0.400000
v -0.150000 0.850000 -1.800000
v 0.150000 0.850000 -1.800000
v 0.150000 0.650000 -1.800000
v -0.250000 0.450000 -1.150000
v -0.250000 0.450000 -1.000000
v -0.250000 0.300000 -1.150000
v 0.250000 0.450000 -1.150000
v 0.250000 0.450000 -1.000000
v 0.250000 0.300000 -1.150000
v 0.250000 0.300000 -1.000000
v 0.200000 0.300000 -1.000000
v 0.250000 0.150000 0.150000
v 0.200000 0.150000 0.150000
v 0.250000 0.300000 0.150000
v 0.100000 0.150000 0.650000
v 0.100000 0.300000 0.650000
v -0.100000 0.150000 0.650000
v 0.050000 0.150000 0.650000
v 0.100000 0.150000 1.550000
v 0.100000 0.300000 1.550000
v -0.100000 0.150000 1.550000
v -0.100000 0.300000 1.550000
v -0.100000 0.300000 0.650000
v -0.250000 0.300000 0.150000
v -0.050000 0.300000 0.650000
v -0.050000 0.150000 0.650000
v -0.200000 0.300000 0.150000
v 0.050000 0.300000 0.650000
v 0.200000 0.300000 0.150000
v 0.200000 0.450000 -1.000000
v -0.200000 0.450000 -1.000000
v -0.200000 0.300000 -1.000000
v -0.250000 0.300000 -1.000000
v -0.200000 0.150000 0.150000
v -0.250000 0.150000 0.150000
v 0.200000 0.450000 -1.150000
v 0.200000 0.300000 -1.150000
v -0.200000 0.450000 -1.150000
v -0.200000 0.300000 -1.150000
v 0.200000 0.300000 1.550000
v -0.200000 0.300000 1.550000
v 0.200000 0.050000 1.550000
v -0.200000 0.050000 1.550000
v 0.150000 0.100000 2.650000
v -0.150000 0.100000 2.650000
v 0.150000 0.300000 2.650000
v -0.150000 0.300000 2.650000
v -0.175000 1.250000 -0.250000
v -0.175000 0.900000 -0.250000
v 0.175000 1.250000 -0.250000
v -0.175000 1.250000 -0.850000
v -0.175000 0.900000 -0.850000
v 0.175000 1.250000 -0.850000
v 0.175000 0.900000 -0.850000
v 0.175000 0.900000 -0.250000
v -0.050000 1.050000 -0.250000
v -0.050000 0.950000 -0.250000
v 0.050000 1.050000 -0.250000
v -0.050000 1.050000 -0.150000
v -0.050000 0.950000 -0.150000
v 0.050000 1.050000 -0.150000
v 0.050000 0.950000 -0.150000
v 0.050000 0.950000 -0.250000
v 0.100000 0.850000 2.400000
v -0.100000 0.850000 2.400000
v 0.100000 0.850000 2.200000
v 0.100000 0.650000 2.400000
v -0.100000 0.650000 2.400000
v 0.100000 0.650000 2.200000
v -0.100000 0.650000 2.200000
v -0.100000 0.850000 2.200000
v 0.100000 0.850000 2.400000
v -0.100000 0.850000 2.400000
v 0.100000 0.850000 2.200000
v 0.100000 0.650000 2.400000
v -0.100000 0.650000 2.400000
v 0.100000 0.650000 2.200000
v -0.100000 0.650000 2.200000
v -0.100000 0.850000 2.200000
v -0.100000 0.650000 2.150000
v 0.100000 0.650000 2.150000
v -0.100000 0.650000 0.650000
v -0.100000 0.750000 2.150000
v -0.100000 0.750000 0.650000
v 0.100000 0.650000 0.650000
v 0.100000 0.750000 0.650000
v 0.100000 0.750000 2.150000
v -0.100000 0.650000 2.150000
v 0.100000 0.650000 2.150000
v -0.100000 0.650000 0.650000
v -0.100000 0.750000 2.150000
v -0.100000 0.750000 0.650000
v 0.100000 0.650000 0.650000
v 0.100000 0.750000 0.650000
v 0.100000 0.750000 2.150000
v -0.175000 1.250000 -1.100000
v -0.175000 0.900000 -1.100000
v 0.175000 1.250000 -1.100000
v -0.175000 1.250000 -1.400000
v -0.175000 0.900000 -1.400000
v 0.175000 1.250000 -1.400000
v 0.175000 0.900000 -1.400000
v 0.175000 0.900000 -1.100000
v -0.125000 1.200000 -0.850000
v -0.125000 0.950000 -0.850000
v 0.125000 1.200000 -0.850000
v -0.175000 1.250000 -1.100000
v -0.175000 0.900000 -1.100000
v 0.175000 1.250000 -1.100000
v 0.175000 0.900000 -1.100000
v 0.125000 0.950000 -0.850000
v -0.100000 0.900000 -0.600000
v -0.100000 0.800000 -0.600000
v 0.100000 0.900000 -0.600000
v -0.100000 0.900000 -0.800000
v -0.100000 0.800000 -0.800000
v 0.100000 0.900000 -0.800000
v 0.100000 0.800000 -0.800000
v 0.100000 0.800000 -0.600000
v 0.150000 0.600000 2.150000
v 0.150000 0.400000 2.150000
v 0.150000 0.600000 0.650000
v 0.250000 0.600000 2.150000
v 0.250000 0.600000 0.650000
v 0.150000 0.400000 0.650000
v 0.250000 0.400000 0.650000
v 0.250000 0.400000 2.150000
v 0.150000 0.600000 2.150000
v 0.150000 0.400000 2.150000
v 0.150000 0.600000 0.650000
v 0.250000 0.600000 2.150000
v 0.250000 0.600000 0.650000
v 0.150000 0.400000 0.650000
v 0.250000 0.400000 0.650000
v 0.250000 0.400000 2.150000
v -0.150000 0.400000 2.150000
v -0.150000 0.600000 2.150000
v -0.150000 0.400000 0.650000
v -0.250000 0.400000 2.150000
v -0.250000 0.400000 0.650000
v -0.150000 0.600000 0.650000
v -0.250000 0.600000 0.650000
v -0.250000 0.600000 2.150000
v -0.150000 0.400000 2.150000
v -0.150000 0.600000 2.150000
v -0.150000 0.400000 0.650000
v -0.250000 0.400000 2.150000
v -0.250000 0.400000 0.650000
v -0.150000 0.600000 0.650000
v -0.250000 0.600000 0.650000
v -0.250000 0.600000 2.150000
vt 0.664062 0.234375
vt 0.664062 0.253906
vt 0.671875 0.253906
vt 0.671875 0.234375
vt 0.664062 0.273438
vt 0.671875 0.273438
vt 0.664062 0.289062
vt 0.671875 0.289062
vt 0.664062 0.312500
vt 0.671875 0.312500
vt 0.671875 0.234375
vt 0.664062 0.234375
vt 0.664062 0.253906
vt 0.671875 0.253906
vt 0.664062 0.273438
vt 0.671875 0.273438
vt 0.664062 0.289062
vt 0.671875 0.289062
vt 0.664062 0.312500
vt 0.671875 0.312500
vt 0.531250 0.375000
vt 0.562500 0.375000
vt 0.562500 0.406250
vt 0.531250 0.406250
vt 0.968750 0.375000
vt 0.968750 0.406250
vt 0.937500 0.406250
vt 0.937500 0.375000
vt 0.156250 0.406250
vt 0.156250 0.375000
vt 0.937500 0.437500
vt 0.562500 0.437500
vt 0.562500 0.343750
vt 0.937500 0.343750
vt 0.968750 0.281250
vt 0.968750 0.226562
vt 0.984375 0.226562
vt 0.984375 0.281250
vt 0.968750 0.312500
vt 0.984375 0.312500
vt 0.859375 0.164062
vt 0.859375 0.195312
vt 0.843750 0.195312
vt 0.843750 0.164062
vt 0.968750 0.250000
vt 0.937500 0.296875
vt 0.953125 0.312500
vt 0.859375 0.312500
vt 0.914062 0.281250
vt 0.945312 0.234375
vt 0.734375 0.250000
vt 0.757812 0.234375
vt 0.789062 0.281250
vt 0.843750 0.312500
vt 0.750000 0.312500
vt 0.765625 0.296875
vt 0.859375 0.250000
vt 0.843750 0.250000
vt 0.718750 0.312500
vt 0.718750 0.296875
vt 0.726562 0.296875
vt 0.726562 0.312500
vt 0.714844 0.292969
vt 0.718750 0.304688
vt 0.707031 0.312500
vt 0.710938 0.289062
vt 0.703125 0.312500
vt 0.695312 0.312500
vt 0.695312 0.289062
vt 0.703125 0.289062
vt 0.679688 0.304688
vt 0.683594 0.292969
vt 0.687500 0.289062
vt 0.691406 0.312500
vt 0.718750 0.289062
vt 0.726562 0.289062
vt 0.101562 0.375000
vt 0.109375 0.375000
vt 0.109375 0.398438
vt 0.101562 0.398438
vt 0.132812 0.367188
vt 0.132812 0.375000
vt 0.109375 0.367188
vt 0.132812 0.398438
vt 0.140625 0.398438
vt 0.140625 0.375000
vt 0.109375 0.406250
vt 0.132812 0.406250
vt 0.437500 0.664062
vt 0.460938 0.664062
vt 0.460938 0.679688
vt 0.437500 0.679688
vt 0.437500 0.617188
vt 0.468750 0.617188
vt 0.507812 0.664062
vt 0.507812 0.679688
vt 0.539062 0.679688
vt 0.539062 0.664062
vt 0.468750 0.726562
vt 0.437500 0.726562
vt 0.437500 0.570312
vt 0.437500 0.562500
vt 0.468750 0.562500
vt 0.468750 0.570312
vt 0.437500 0.558594
vt 0.437500 0.523438
vt 0.468750 0.527344
vt 0.503906 0.562500
vt 0.503906 0.570312
vt 0.539062 0.570312
vt 0.507812 0.570312
vt 0.507812 0.562500
vt 0.539062 0.562500
vt 0.437500 0.609375
vt 0.437500 0.574219
vt 0.468750 0.605469
vt 0.742188 0.453125
vt 0.765625 0.453125
vt 0.765625 0.468750
vt 0.742188 0.468750
vt 0.570312 0.468750
vt 0.570312 0.453125
vt 0.765625 0.492188
vt 0.937500 0.468750
vt 0.937500 0.492188
vt 0.960938 0.453125
vt 0.960938 0.468750
vt 0.937500 0.453125
vt 0.312500 0.156250
vt 0.312500 0.179688
vt 0.304688 0.179688
vt 0.304688 0.156250
vt 0.027344 0.167969
vt 0.117188 0.156250
vt 0.117188 0.167969
vt 0.027344 0.179688
vt 0.015625 0.179688
vt 0.015625 0.167969
vt 0.597656 0.179688
vt 0.507812 0.167969
vt 0.507812 0.156250
vt 0.597656 0.167969
vt 0.609375 0.167969
vt 0.609375 0.179688
vt 0.460938 0.027344
vt 0.468750 0.027344
vt 0.468750 0.117188
vt 0.460938 0.117188
vt 0.468750 0.156250
vt 0.460938 0.156250
vt 0.507812 0.160156
vt 0.507812 0.171875
vt 0.468750 0.171875
vt 0.468750 0.160156
vt 0.390625 0.300781
vt 0.390625 0.312500
vt 0.320312 0.312500
vt 0.320312 0.300781
vt 0.304688 0.226562
vt 0.320312 0.226562
vt 0.320312 0.296875
vt 0.304688 0.296875
vt 0.234375 0.312500
vt 0.234375 0.300781
vt 0.304688 0.300781
vt 0.304688 0.312500
vt 0.117188 0.171875
vt 0.117188 0.160156
vt 0.156250 0.160156
vt 0.156250 0.171875
vt 0.156250 0.210938
vt 0.164062 0.210938
vt 0.164062 0.171875
vt 0.156250 0.171875
vt 0.390625 0.300781
vt 0.398438 0.300781
vt 0.398438 0.312500
vt 0.390625 0.312500
vt 0.203125 0.160156
vt 0.203125 0.171875
vt 0.164062 0.171875
vt 0.164062 0.160156
vt 0.421875 0.171875
vt 0.421875 0.160156
vt 0.460938 0.160156
vt 0.460938 0.171875
vt 0.468750 0.210938
vt 0.460938 0.210938
vt 0.468750 0.300781
vt 0.460938 0.300781
vt 0.332031 0.179688
vt 0.332031 0.167969
vt 0.421875 0.156250
vt 0.421875 0.167969
vt 0.609375 0.156250
vt 0.617188 0.156250
vt 0.617188 0.179688
vt 0.156250 0.300781
vt 0.164062 0.300781
vt 0.292969 0.167969
vt 0.292969 0.179688
vt 0.203125 0.167969
vt 0.203125 0.156250
vt 0.156250 0.027344
vt 0.164062 0.027344
vt 0.164062 0.117188
vt 0.156250 0.117188
vt 0.164062 0.156250
vt 0.156250 0.156250
vt 0.164062 0.312500
vt 0.156250 0.312500
vt 0.156250 0.015625
vt 0.164062 0.015625
vt 0.468750 0.312500
vt 0.460938 0.312500
vt 0.468750 0.015625
vt 0.460938 0.015625
vt 0.320312 0.093750
vt 0.320312 0.078125
vt 0.406250 0.074219
vt 0.406250 0.093750
vt 0.437500 0.074219
vt 0.437500 0.093750
vt 0.320312 0.066406
vt 0.320312 0.042969
vt 0.406250 0.039062
vt 0.406250 0.070312
vt 0.296875 0.078125
vt 0.296875 0.093750
vt 0.210938 0.093750
vt 0.210938 0.074219
vt 0.320312 0.097656
vt 0.406250 0.125000
vt 0.320312 0.121094
vt 0.632812 0.572266
vt 0.632812 0.599609
vt 0.585938 0.599609
vt 0.585938 0.572266
vt 0.634766 0.599609
vt 0.634766 0.572266
vt 0.662109 0.572266
vt 0.662109 0.599609
vt 0.634766 0.601562
vt 0.662109 0.601562
vt 0.662109 0.648438
vt 0.634766 0.648438
vt 0.662109 0.570312
vt 0.634766 0.570312
vt 0.634766 0.523438
vt 0.662109 0.523438
vt 0.664062 0.599609
vt 0.664062 0.572266
vt 0.710938 0.572266
vt 0.710938 0.599609
vt 0.740234 0.599609
vt 0.712891 0.599609
vt 0.712891 0.572266
vt 0.740234 0.572266
vt 0.601562 0.546875
vt 0.609375 0.546875
vt 0.609375 0.554688
vt 0.601562 0.554688
vt 0.609375 0.562500
vt 0.617188 0.554688
vt 0.617188 0.562500
vt 0.617188 0.546875
vt 0.625000 0.554688
vt 0.625000 0.546875
vt 0.617188 0.539062
vt 0.609375 0.539062
vt 0.203125 0.437500
vt 0.187500 0.437500
vt 0.187500 0.421875
vt 0.203125 0.421875
vt 0.171875 0.421875
vt 0.156250 0.421875
vt 0.156250 0.437500
vt 0.171875 0.437500
vt 0.203125 0.437500
vt 0.203125 0.421875
vt 0.187500 0.421875
vt 0.187500 0.437500
vt 0.171875 0.437500
vt 0.171875 0.421875
vt 0.156250 0.421875
vt 0.156250 0.437500
vt 0.343750 0.453125
vt 0.343750 0.460938
vt 0.226562 0.460938
vt 0.226562 0.453125
vt 0.476562 0.453125
vt 0.476562 0.460938
vt 0.359375 0.460938
vt 0.359375 0.453125
vt 0.343750 0.453125
vt 0.226562 0.453125
vt 0.226562 0.460938
vt 0.343750 0.460938
vt 0.476562 0.453125
vt 0.359375 0.453125
vt 0.359375 0.460938
vt 0.476562 0.460938
vt 0.859375 0.572266
vt 0.859375 0.599609
vt 0.835938 0.599609
vt 0.835938 0.572266
vt 0.861328 0.601562
vt 0.888672 0.601562
vt 0.888672 0.625000
vt 0.861328 0.625000
vt 0.943359 0.599609
vt 0.916016 0.599609
vt 0.916016 0.572266
vt 0.943359 0.572266
vt 0.890625 0.599609
vt 0.890625 0.572266
vt 0.914062 0.572266
vt 0.914062 0.599609
vt 0.888672 0.570312
vt 0.861328 0.570312
vt 0.861328 0.546875
vt 0.888672 0.546875
vt 0.773438 0.576172
vt 0.773438 0.595703
vt 0.753906 0.599609
vt 0.753906 0.572266
vt 0.779297 0.601562
vt 0.798828 0.601562
vt 0.802734 0.621094
vt 0.775391 0.621094
vt 0.798828 0.570312
vt 0.779297 0.570312
vt 0.775391 0.550781
vt 0.802734 0.550781
vt 0.804688 0.595703
vt 0.804688 0.576172
vt 0.824219 0.572266
vt 0.824219 0.599609
vt 0.687500 0.546875
vt 0.687500 0.554688
vt 0.671875 0.554688
vt 0.671875 0.546875
vt 0.734375 0.554688
vt 0.718750 0.554688
vt 0.718750 0.546875
vt 0.734375 0.546875
vt 0.703125 0.554688
vt 0.703125 0.546875
vt 0.359375 0.640625
vt 0.367188 0.640625
vt 0.367188 0.757812
vt 0.359375 0.757812
vt 0.359375 0.507812
vt 0.367188 0.507812
vt 0.367188 0.625000
vt 0.359375 0.625000
vt 0.359375 0.640625
vt 0.359375 0.757812
vt 0.367188 0.757812
vt 0.367188 0.640625
vt 0.359375 0.507812
vt 0.359375 0.625000
vt 0.367188 0.625000
vt 0.367188 0.507812
vt 0.343750 0.625000
vt 0.335938 0.625000
vt 0.335938 0.507812
vt 0.343750 0.507812
vt 0.343750 0.757812
vt 0.335938 0.757812
vt 0.335938 0.640625
vt 0.343750 0.640625
vt 0.343750 0.625000
vt 0.343750 0.507812
vt 0.335938 0.507812
vt 0.335938 0.625000
vt 0.343750 0.757812
vt 0.343750 0.640625
vt 0.335938 0.640625
vt 0.335938 0.757812
vn 0.0000 -0.6887 -0.7250
vn 0.0000 -0.9820 0.1888
vn 0.0000 -0.5547 0.8321
vn 0.0000 0.1644 0.9864
vn 0.0000 0.6887 0.7250
vn 0.0000 0.9820 -0.1888
vn 0.0000 0.5547 -0.8321
vn 0.0000 -0.1644 -0.9864
vn 0.0000 0.0000 1.0000
vn 0.0000 0.0000 -1.0000
vn 1.0000 0.0000 0.0000
vn -1.0000 0.0000 0.0000
vn 0.0000 1.0000 0.0000
vn 0.0000 -1.0000 0.0000
vn 0.0000 -0.7071 -0.7071
vn 0.0000 -0.8321 -0.5547
vn 0.0000 -0.8682 0.4961
vn 0.0000 -0.3162 -0.9487
vn -0.0000 -0.1644 0.9864
vn 0.9864 0.0000 0.1644
vn -0.1240 0.0000 0.9923
vn 0.1240 0.0000 -0.9923
vn -0.0000 -0.9916 -0.1293
vn 0.9578 0.0000 0.2873
vn -0.9578 -0.0000 0.2873
vn 0.9578 0.0000 -0.2873
vn -0.9578 0.0000 -0.2873
vn -0.0000 0.9916 0.1293
vn 0.9990 0.0000 0.0454
vn 0.0000 -0.9990 0.0454
vn -0.9990 0.0000 0.0454
vn -0.9806 0.0000 0.1961
vn 0.0000 0.9806 0.1961
vn 0.0000 -0.9806 0.1961
vn 0.9806 0.0000 0.1961
usemtl MAT_DIFFUSE_CUTOUT
s off
f 1/1/1 3/2/1 4/3/1 2/4/1
f 3/2/2 5/5/2 6/6/2 4/3/2
f 5/5/3 7/7/3 8/8/3 6/6/3
f 7/7/4 9/9/4 10/10/4 8/8/4
f 11/11/5 12/12/5 14/13/5 13/14/5
f 13/14/6 14/13/6 16/15/6 15/16/6
f 15/16/7 16/15/7 18/17/7 17/18/7
f 17/18/8 18/17/8 20/19/8 19/20/8
f 21/21/9 22/22/9 24/23/9 23/24/9
f 26/25/10 25/26/10 28/27/10 27/28/10
f 22/22/11 27/28/11 28/27/11 24/23/11
f 23/24/12 25/29/12 26/30/12 21/21/12
f 24/23/13 28/27/13 25/31/13 23/32/13
f 21/33/14 26/34/14 27/28/14 22/22/14
f 30/35/7 29/36/7 32/37/7 33/38/7
f 37/39/15 30/35/15 33/38/15 40/40/15
f 29/41/16 31/42/16 34/43/16 32/44/16
f 29/45/11 30/46/11 37/47/11 38/48/11 36/49/11 31/50/11
f 32/51/12 34/52/12 35/53/12 39/54/12 40/55/12 33/56/12
f 36/57/17 38/48/17 39/54/17 35/58/17
f 36/57/3 35/58/3 34/43/3 31/42/3
f 41/59/18 43/60/18 48/61/18 42/62/18
f 43/63/11 41/64/11 44/65/11 46/66/11
f 44/67/19 45/68/19 47/69/19 46/70/19
f 42/71/12 48/72/12 47/73/12 45/74/12
f 46/75/15 47/76/15 48/61/15 43/60/15
f 49/77/12 52/78/12 53/79/12 50/80/12
f 51/81/14 54/82/14 52/78/14 49/83/14
f 53/79/9 52/78/9 54/82/9 55/84/9
f 56/85/11 55/84/11 54/82/11 51/86/11
f 50/87/13 53/79/13 55/84/13 56/88/13
f 57/89/9 60/90/9 61/91/9 58/92/9
f 59/93/14 62/94/14 60/90/14 57/89/14
f 60/90/20 62/95/20 63/96/20 61/91/20
f 64/97/10 63/96/10 62/95/10 59/98/10
f 58/92/13 61/91/13 63/99/13 64/100/13
f 66/101/21 65/102/21 68/103/21 69/104/21
f 65/105/14 67/106/14 70/107/14 68/103/14
f 69/104/11 68/103/11 70/108/11 71/109/11
f 72/110/22 71/111/22 70/112/22 67/113/22
f 72/114/13 66/115/13 69/104/13 71/116/13
f 73/117/9 74/118/9 77/119/9 76/120/9
f 73/117/12 76/120/12 78/121/12 75/122/12
f 76/123/13 77/119/13 79/124/13 78/125/13
f 75/126/10 78/127/10 79/124/10 80/128/10
f 80/128/11 79/124/11 77/119/11 74/118/11
f 83/129/10 81/130/10 115/131/10 116/132/10
f 110/133/12 112/134/12 101/135/12 82/136/12 81/137/12 83/138/12
f 85/139/11 91/140/11 89/141/11 87/142/11 86/143/11 84/144/11
f 88/145/23 87/146/23 89/147/23 90/148/23
f 89/147/14 92/149/14 95/150/14 90/148/14
f 89/151/24 91/152/24 93/153/24 92/154/24
f 92/155/11 93/156/11 97/157/11 96/158/11
f 94/159/14 92/160/14 96/161/14 98/162/14
f 100/163/12 94/164/12 98/165/12 99/166/12
f 101/167/25 112/168/25 94/169/25 100/170/25
f 104/171/13 101/172/13 100/173/13 102/174/13
f 95/175/10 103/176/10 102/177/10 105/178/10
f 111/179/26 104/180/26 102/181/26 103/182/26
f 106/183/27 90/184/27 95/185/27 105/186/27
f 91/187/13 106/188/13 105/186/13 93/153/13
f 85/189/28 107/190/28 106/188/28 91/187/28
f 107/191/12 88/192/12 90/193/12 106/194/12
f 84/144/10 86/195/10 114/196/10 113/197/10
f 108/198/28 82/199/28 101/172/28 104/171/28
f 109/200/11 108/201/11 104/202/11 111/203/11
f 110/204/23 109/205/23 111/206/23 112/207/23
f 112/207/14 111/206/14 103/208/14 94/209/14
f 81/210/13 82/199/13 108/198/13 115/211/13
f 110/204/14 83/212/14 116/213/14 109/205/14
f 84/214/13 113/215/13 107/190/13 85/189/13
f 86/216/14 87/146/14 88/145/14 114/217/14
f 123/218/29 121/219/29 119/220/29 117/221/29
f 117/221/10 119/220/10 120/222/10 118/223/10
f 121/224/30 122/225/30 120/226/30 119/227/30
f 122/228/31 124/229/31 118/230/31 120/231/31
f 121/219/9 123/218/9 124/229/9 122/228/9
f 123/232/13 117/221/13 118/233/13 124/234/13
f 126/235/12 125/236/12 128/237/12 129/238/12
f 125/239/9 126/240/9 132/241/9 127/242/9
f 125/243/13 127/244/13 130/245/13 128/246/13
f 132/247/14 126/248/14 129/249/14 131/250/14
f 127/251/11 132/252/11 131/253/11 130/254/11
f 128/255/10 130/256/10 131/257/10 129/258/10
f 134/259/12 137/260/12 136/261/12 133/262/12
f 133/263/13 136/261/13 138/264/13 135/265/13
f 136/261/9 137/260/9 139/266/9 138/264/9
f 135/267/11 138/264/11 139/266/11 140/268/11
f 140/269/14 139/266/14 137/260/14 134/270/14
f 143/271/11 141/272/11 144/273/11 146/274/11
f 142/275/12 148/276/12 147/277/12 145/278/12
f 151/279/12 154/280/12 152/281/12 149/282/12
f 150/283/11 153/284/11 155/285/11 156/286/11
f 157/287/12 160/288/12 161/289/12 159/290/12
f 162/291/11 163/292/11 164/293/11 158/294/11
f 165/295/11 167/296/11 169/297/11 168/298/11
f 170/299/12 166/300/12 172/301/12 171/302/12
f 174/303/12 173/304/12 176/305/12 177/306/12
f 173/307/13 175/308/13 178/309/13 176/310/13
f 176/311/10 178/312/10 179/313/10 177/314/10
f 175/315/11 180/316/11 179/317/11 178/318/11
f 180/319/14 174/320/14 177/321/14 179/322/14
f 182/323/32 181/324/32 184/325/32 185/326/32
f 181/327/33 183/328/33 186/329/33 184/330/33
f 188/331/34 182/332/34 185/333/34 187/334/34
f 183/335/35 188/336/35 187/337/35 186/338/35
f 190/339/12 189/340/12 192/341/12 193/342/12
f 192/343/10 194/344/10 195/345/10 193/346/10
f 191/347/11 196/348/11 195/345/11 194/344/11
f 189/340/9 190/339/9 196/348/9 191/347/9
f 197/349/13 200/350/13 201/351/13 199/352/13
f 202/353/14 203/354/14 204/355/14 198/356/14
f 205/357/14 207/358/14 209/359/14 208/360/14
f 210/361/13 206/362/13 212/363/13 211/364/13
f 213/365/14 216/366/14 217/367/14 215/368/14
f 218/369/13 219/370/13 220/371/13 214/372/13
f 221/373/13 223/374/13 225/375/13 224/376/13
f 226/377/14 222/378/14 228/379/14 227/380/14
