# Blender v2.81 (sub 16) OBJ File: 'r4.blend'
# www.blender.org
o foot.r.001_Cube.035
v 7.199999 0.000000 2.700000
v 7.199999 0.200000 2.600000
v 7.199999 0.000000 2.200000
v 7.199999 0.200000 2.300000
v 7.500000 0.000000 2.700000
v 7.500000 0.200000 2.600000
v 7.500000 0.000000 2.200000
v 7.500000 0.200000 2.300000
vt 0.550000 0.323529
vt 0.533333 0.382353
vt 0.483333 0.382353
vt 0.466667 0.323529
vt 0.733333 0.323529
vt 0.733333 0.382353
vt 0.683333 0.382353
vt 0.683333 0.323529
vt 0.666667 0.382353
vt 0.616667 0.382353
vt 0.600000 0.323529
vt 0.600000 0.382353
vt 0.550000 0.382353
vt 0.600000 0.382353
vt 0.650000 0.382353
vt 0.650000 0.529412
vt 0.600000 0.529412
vt 0.600000 0.470588
vt 0.550000 0.470588
vn -1.0000 0.0000 0.0000
vn 0.0000 0.4472 -0.8944
vn 1.0000 0.0000 0.0000
vn 0.0000 0.4472 0.8944
vn 0.0000 -1.0000 0.0000
vn 0.0000 1.0000 0.0000
s off
f 1/1/1 2/2/1 4/3/1 3/4/1
f 3/5/2 4/6/2 8/7/2 7/8/2
f 7/8/3 8/9/3 6/10/3 5/11/3
f 5/11/4 6/12/4 2/13/4 1/1/4
f 3/14/5 7/15/5 5/16/5 1/17/5
f 8/18/6 4/19/6 2/13/6 6/12/6
o body.001_Cube.036
v 7.400000 0.555892 3.284104
v 7.400000 1.307646 3.010488
v 7.400000 0.316478 2.626320
v 7.400000 1.068232 2.352704
v 8.099999 0.555892 3.284104
v 8.099999 1.307646 3.010488
v 8.099999 0.316478 2.626320
v 8.099999 1.068232 2.352704
vt 0.116667 0.176471
vt 0.116667 0.411765
vt 0.000000 0.411765
vt 0.000000 0.176471
vt 0.466667 0.176471
vt 0.466667 0.411765
vt 0.350000 0.411765
vt 0.350000 0.176471
vt 0.233333 0.411765
vt 0.233333 0.176471
vt 0.233333 0.411765
vt 0.350000 0.411765
vt 0.350000 0.617647
vt 0.233333 0.617647
vt 0.233333 0.617647
vt 0.116667 0.617647
vn -1.0000 0.0000 0.0000
vn 0.0000 -0.3420 -0.9397
vn 1.0000 0.0000 0.0000
vn 0.0000 0.3420 0.9397
vn 0.0000 -0.9397 0.3420
vn 0.0000 0.9397 -0.3420
s off
f 9/20/7 10/21/7 12/22/7 11/23/7
f 11/24/8 12/25/8 16/26/8 15/27/8
f 15/27/9 16/26/9 14/28/9 13/29/9
f 13/29/10 14/28/10 10/21/10 9/20/10
f 11/30/11 15/31/11 13/32/11 9/33/11
f 16/34/12 12/35/12 10/21/12 14/28/12
o arm.r.002_Cube.037
v 7.250000 0.120075 2.536151
v 7.250000 0.777860 2.775565
v 7.250000 0.188479 2.348213
v 7.250000 0.846264 2.587627
v 7.449999 0.120075 2.536151
v 7.449999 0.777860 2.775565
v 7.449999 0.188479 2.348213
v 7.449999 0.846264 2.587627
vt 0.566667 0.529412
vt 0.566667 0.735294
vt 0.533333 0.735294
vt 0.533333 0.529412
vt 0.666667 0.529412
vt 0.666667 0.735294
vt 0.633333 0.735294
vt 0.633333 0.529412
vt 0.600000 0.735294
vt 0.600000 0.529412
vt 0.600000 0.735294
vt 0.633333 0.735294
vt 0.633333 0.794118
vt 0.600000 0.794118
vt 0.600000 0.794118
vt 0.566667 0.794118
vn -1.0000 0.0000 0.0000
vn 0.0000 0.3420 -0.9397
vn 1.0000 0.0000 0.0000
vn 0.0000 -0.3420 0.9397
vn 0.0000 -0.9397 -0.3420
vn 0.0000 0.9397 0.3420
s off
f 17/36/13 18/37/13 20/38/13 19/39/13
f 19/40/14 20/41/14 24/42/14 23/43/14
f 23/43/15 24/42/15 22/44/15 21/45/15
f 21/45/16 22/44/16 18/37/16 17/36/16
f 19/46/17 23/47/17 21/48/17 17/49/17
f 24/50/18 20/51/18 18/37/18 22/44/18
o shoulder.r.001_Cube.038
v 7.250000 0.760759 2.822550
v 7.250000 1.136636 2.959358
v 7.250000 0.863365 2.540642
v 7.250000 1.239242 2.677450
v 7.449999 0.760759 2.822550
v 7.449999 1.136636 2.959358
v 7.449999 0.863365 2.540642
v 7.449999 1.239242 2.677450
vt 0.566667 0.794118
vt 0.566667 0.911765
vt 0.516667 0.911765
vt 0.516667 0.794118
vt 0.683333 0.794118
vt 0.683333 0.911765
vt 0.650000 0.911765
vt 0.650000 0.794118
vt 0.600000 0.911765
vt 0.600000 0.794118
vt 0.600000 0.911765
vt 0.633333 0.911765
vt 0.633333 1.000000
vt 0.600000 1.000000
vt 0.600000 1.000000
vt 0.566667 1.000000
vn -1.0000 0.0000 0.0000
vn 0.0000 0.3420 -0.9397
vn 1.0000 0.0000 0.0000
vn 0.0000 -0.3420 0.9397
vn 0.0000 -0.9397 -0.3420
vn 0.0000 0.9397 0.3420
s off
f 25/52/19 26/53/19 28/54/19 27/55/19
f 27/56/20 28/57/20 32/58/20 31/59/20
f 31/59/21 32/58/21 30/60/21 29/61/21
f 29/61/22 30/60/22 26/53/22 25/52/22
f 27/62/23 31/63/23 29/64/23 25/65/23
f 32/66/24 28/67/24 26/53/24 30/60/24
o butt.001_Cube.039
v 7.500000 0.427720 3.224337
v 7.500000 0.521689 3.190135
v 7.500000 0.256710 2.754491
v 7.500000 0.350679 2.720289
v 8.000000 0.427720 3.224337
v 8.000000 0.521689 3.190135
v 8.000000 0.256710 2.754491
v 8.000000 0.350679 2.720289
vt 0.150000 0.000000
vt 0.150000 0.029412
vt 0.066667 0.029412
vt 0.066667 0.000000
vt 0.400000 0.000000
vt 0.400000 0.029412
vt 0.316667 0.029412
vt 0.316667 0.000000
vt 0.233333 0.029412
vt 0.233333 -0.000000
vt 0.233333 0.029412
vt 0.316667 0.029412
vt 0.316667 0.176471
vt 0.233333 0.176471
vt 0.233333 0.176471
vt 0.150000 0.176471
vn -1.0000 -0.0000 0.0000
vn 0.0000 -0.3420 -0.9397
vn 1.0000 -0.0000 0.0000
vn 0.0000 0.3420 0.9397
vn 0.0000 -0.9397 0.3420
vn 0.0000 0.9397 -0.3420
s off
f 33/68/25 34/69/25 36/70/25 35/71/25
f 35/72/26 36/73/26 40/74/26 39/75/26
f 39/75/27 40/74/27 38/76/27 37/77/27
f 37/77/28 38/76/28 34/69/28 33/68/28
f 35/78/29 39/79/29 37/80/29 33/81/29
f 40/82/30 36/83/30 34/69/30 38/76/30
o head.002_Cube.040
v 7.400000 1.401615 2.976286
v 7.600000 1.803057 2.617337
v 7.400000 1.162201 2.318501
v 7.600000 1.700451 2.335430
v 8.100000 1.401615 2.976286
v 7.900000 1.803057 2.617337
v 8.100000 1.162201 2.318501
v 7.900000 1.700451 2.335430
v 7.400000 1.307646 3.010488
v 7.400000 1.068232 2.352703
v 8.100000 1.307646 3.010488
v 8.100000 1.068232 2.352703
vt 0.116667 0.647059
vt 0.083333 0.794118
vt 0.033333 0.794118
vt 0.000000 0.647059
vt 0.466667 0.647059
vt 0.433333 0.794118
vt 0.383333 0.794118
vt 0.350000 0.647059
vt 0.316667 0.794118
vt 0.266667 0.794118
vt 0.233333 0.647059
vt 0.200000 0.794118
vt 0.150000 0.794118
vt 0.350000 0.617647
vt 0.466667 0.617647
vt 0.233333 0.882353
vt 0.183333 0.882353
vt 0.183333 0.794118
vt 0.233333 0.794118
vt 0.233333 0.794118
vt 0.350000 0.794118
vt 0.350000 1.000000
vt 0.233333 1.000000
vt 0.000000 0.617647
vt 0.116667 0.617647
vt 0.233333 0.617647
vn -0.9285 0.3490 -0.1270
vn 0.0000 0.0314 -0.9995
vn 0.9285 0.3490 -0.1270
vn 0.0000 0.6666 0.7455
vn 0.0000 -0.3420 -0.9397
vn 0.0000 0.9397 -0.3420
vn 0.0000 -0.9397 0.3420
vn -1.0000 0.0000 0.0000
vn 1.0000 0.0000 0.0000
vn 0.0000 0.3420 0.9397
s off
f 41/84/31 42/85/31 44/86/31 43/87/31
f 43/88/32 44/89/32 48/90/32 47/91/32
f 47/91/33 48/92/33 46/93/33 45/94/33
f 45/94/34 46/95/34 42/96/34 41/84/34
f 43/88/35 47/91/35 52/97/35 50/98/35
f 48/99/36 44/100/36 42/101/36 46/102/36
f 50/103/37 52/104/37 51/105/37 49/106/37
f 41/84/38 43/87/38 50/107/38 49/108/38
f 47/91/39 45/94/39 51/109/39 52/97/39
f 45/94/40 41/84/40 49/108/40 51/109/40
o eye.001_Cube.041
v 7.650000 1.485511 2.982412
v 7.650000 1.632967 2.847294
v 7.650000 1.417969 2.908703
v 7.650000 1.565424 2.773585
v 7.850000 1.485511 2.982412
v 7.850000 1.632967 2.847294
v 7.850000 1.417969 2.908703
v 7.850000 1.565424 2.773585
vt 0.883333 0.176471
vt 0.883333 0.235294
vt 0.866667 0.235294
vt 0.866667 0.176471
vt 0.966667 0.176471
vt 0.966667 0.235294
vt 0.933333 0.235294
vt 0.933333 0.176471
vt 0.916667 0.235294
vt 0.916667 0.176471
vt 0.883333 0.147059
vt 0.916667 0.147059
vt 0.916667 0.264706
vt 0.883333 0.264706
vn -1.0000 0.0000 0.0000
vn 0.0000 -0.6756 -0.7373
vn 1.0000 0.0000 0.0000
vn 0.0000 0.6756 0.7373
vn 0.0000 -0.7373 0.6756
vn 0.0000 0.7373 -0.6756
s off
f 53/110/41 54/111/41 56/112/41 55/113/41
f 55/114/42 56/115/42 60/116/42 59/117/42
f 59/117/43 60/116/43 58/118/43 57/119/43
f 57/119/44 58/118/44 54/111/44 53/110/44
f 55/120/45 59/121/45 57/119/45 53/110/45
f 60/122/46 56/123/46 54/111/46 58/118/46
o projector.001_Cube.042
v 7.486196 1.729757 2.689852
v 7.521551 1.799044 2.627009
v 7.547433 1.661828 2.649409
v 7.582788 1.731115 2.586566
v 7.556906 1.753941 2.756299
v 7.592261 1.823229 2.693455
v 7.618144 1.686012 2.715855
v 7.653499 1.755300 2.653012
vt 0.766667 0.205882
vt 0.783333 0.205882
vt 0.783333 0.235294
vt 0.766667 0.235294
vt 0.816667 0.205882
vt 0.833333 0.205882
vt 0.833333 0.235294
vt 0.816667 0.235294
vt 0.800000 0.205882
vt 0.816667 0.205882
vt 0.816667 0.235294
vt 0.800000 0.235294
vt 0.783333 0.205882
vt 0.800000 0.205882
vt 0.800000 0.235294
vt 0.783333 0.235294
vt 0.783333 0.176471
vt 0.800000 0.176471
vt 0.800000 0.205882
vt 0.783333 0.205882
vt 0.783333 0.235294
vt 0.800000 0.235294
vt 0.800000 0.264706
vt 0.783333 0.264706
vn -0.7071 -0.2418 -0.6645
vn 0.6124 -0.6793 -0.4044
vn 0.7071 0.2418 0.6645
vn -0.6124 0.6793 0.4044
vn -0.3536 -0.6929 0.6284
vn 0.3536 0.6929 -0.6284
s off
f 61/124/47 62/125/47 64/126/47 63/127/47
f 63/128/48 64/129/48 68/130/48 67/131/48
f 67/132/49 68/133/49 66/134/49 65/135/49
f 65/136/50 66/137/50 62/138/50 61/139/50
f 63/140/51 67/141/51 65/142/51 61/143/51
f 68/144/52 64/145/52 62/146/52 66/147/52
o foot.m.001_Cube.043
v 7.600000 0.000000 3.250000
v 7.600000 0.200000 3.150000
v 7.600000 0.000000 2.850000
v 7.600000 0.200000 2.950000
v 7.900000 0.000000 3.250000
v 7.900000 0.200000 3.150000
v 7.900000 0.000000 2.850000
v 7.900000 0.200000 2.950000
vt 0.550000 0.000000
vt 0.533333 0.058824
vt 0.500000 0.058824
vt 0.483333 0.000000
vt 0.716667 -0.000000
vt 0.716667 0.058824
vt 0.666667 0.058824
vt 0.666667 -0.000000
vt 0.650000 0.058824
vt 0.616667 0.058824
vt 0.600000 0.000000
vt 0.600000 0.058824
vt 0.550000 0.058824
vt 0.600000 0.058824
vt 0.650000 0.058824
vt 0.650000 0.176471
vt 0.600000 0.176471
vt 0.600000 0.117647
vt 0.550000 0.117647
vn -1.0000 -0.0000 0.0000
vn 0.0000 0.4472 -0.8944
vn 1.0000 0.0000 0.0000
vn 0.0000 0.4472 0.8944
vn 0.0000 -1.0000 0.0000
vn 0.0000 1.0000 0.0000
s off
f 69/148/53 70/149/53 72/150/53 71/151/53
f 71/152/54 72/153/54 76/154/54 75/155/54
f 75/155/55 76/156/55 74/157/55 73/158/55
f 73/158/56 74/159/56 70/160/56 69/148/56
f 71/161/57 75/162/57 73/163/57 69/164/57
f 76/165/58 72/166/58 70/160/58 74/159/58
o arm.m.001_Cube.044
v 7.650000 0.129163 3.115389
v 7.650000 0.505040 2.978581
v 7.650000 0.094960 3.021419
v 7.650000 0.470838 2.884611
v 7.850000 0.129163 3.115389
v 7.850000 0.505040 2.978581
v 7.850000 0.094960 3.021419
v 7.850000 0.470838 2.884611
vt 0.566667 0.176471
vt 0.566667 0.294118
vt 0.550000 0.294118
vt 0.550000 0.176471
vt 0.650000 0.176471
vt 0.650000 0.294118
vt 0.616667 0.294118
vt 0.616667 0.176471
vt 0.600000 0.294118
vt 0.600000 0.176471
vt 0.600000 0.294118
vt 0.633333 0.294118
vt 0.633333 0.323529
vt 0.600000 0.323529
vt 0.600000 0.323529
vt 0.566667 0.323529
vn -1.0000 0.0000 0.0000
vn 0.0000 -0.3420 -0.9397
vn 1.0000 0.0000 0.0000
vn 0.0000 0.3420 0.9397
vn 0.0000 -0.9397 0.3420
vn 0.0000 0.9397 -0.3420
s off
f 77/167/59 78/168/59 80/169/59 79/170/59
f 79/171/60 80/172/60 84/173/60 83/174/60
f 83/174/61 84/173/61 82/175/61 81/176/61
f 81/176/62 82/175/62 78/168/62 77/167/62
f 79/177/63 83/178/63 81/179/63 77/180/63
f 84/181/64 80/182/64 78/168/64 82/175/64
o foot.l.001_Cube.045
v 8.049999 0.000000 2.700000
v 8.049999 0.200000 2.600000
v 8.049999 0.000000 2.200000
v 8.049999 0.200000 2.300000
v 8.349998 0.000000 2.700000
v 8.349998 0.200000 2.600000
v 8.349998 0.000000 2.200000
v 8.349998 0.200000 2.300000
vt 0.816667 0.323529
vt 0.800000 0.382353
vt 0.750000 0.382353
vt 0.733333 0.323529
vt 1.000000 0.323529
vt 1.000000 0.382353
vt 0.950000 0.382353
vt 0.950000 0.323529
vt 0.933333 0.382353
vt 0.883333 0.382353
vt 0.866667 0.323529
vt 0.866667 0.382353
vt 0.816667 0.382353
vt 0.866667 0.382353
vt 0.916667 0.382353
vt 0.916667 0.529412
vt 0.866667 0.529412
vt 0.866667 0.470588
vt 0.816667 0.470588
vn -1.0000 0.0000 0.0000
vn 0.0000 0.4472 -0.8944
vn 1.0000 0.0000 0.0000
vn 0.0000 0.4472 0.8944
vn 0.0000 -1.0000 0.0000
vn 0.0000 1.0000 0.0000
s off
f 85/183/65 86/184/65 88/185/65 87/186/65
f 87/187/66 88/188/66 92/189/66 91/190/66
f 91/190/67 92/191/67 90/192/67 89/193/67
f 89/193/68 90/194/68 86/195/68 85/183/68
f 87/196/69 91/197/69 89/198/69 85/199/69
f 92/200/70 88/201/70 86/195/70 90/194/70
o arm.l.002_Cube.046
v 8.099998 0.120075 2.536151
v 8.099998 0.777860 2.775565
v 8.099998 0.188479 2.348213
v 8.099998 0.846264 2.587627
v 8.299999 0.120075 2.536151
v 8.299999 0.777860 2.775565
v 8.299999 0.188479 2.348213
v 8.299999 0.846264 2.587627
vt 0.816667 0.529412
vt 0.816667 0.735294
vt 0.783333 0.735294
vt 0.783333 0.529412
vt 0.916667 0.529412
vt 0.916667 0.735294
vt 0.883333 0.735294
vt 0.883333 0.529412
vt 0.850000 0.735294
vt 0.850000 0.529412
vt 0.850000 0.735294
vt 0.883333 0.735294
vt 0.883333 0.794118
vt 0.850000 0.794118
vt 0.850000 0.794118
vt 0.816667 0.794118
vn -1.0000 0.0000 0.0000
vn 0.0000 0.3420 -0.9397
vn 1.0000 0.0000 0.0000
vn 0.0000 -0.3420 0.9397
vn 0.0000 -0.9397 -0.3420
vn 0.0000 0.9397 0.3420
s off
f 93/202/71 94/203/71 96/204/71 95/205/71
f 95/206/72 96/207/72 100/208/72 99/209/72
f 99/209/73 100/208/73 98/210/73 97/211/73
f 97/211/74 98/210/74 94/203/74 93/202/74
f 95/212/75 99/213/75 97/214/75 93/215/75
f 100/216/76 96/217/76 94/203/76 98/210/76
o shoulder.l.001_Cube.047
v 8.099998 0.760759 2.822550
v 8.099998 1.136636 2.959358
v 8.099998 0.863365 2.540642
v 8.099998 1.239242 2.677450
v 8.299999 0.760759 2.822550
v 8.299999 1.136636 2.959358
v 8.299999 0.863365 2.540642
v 8.299999 1.239242 2.677450
vt 0.816667 0.794118
vt 0.816667 0.911765
vt 0.766667 0.911765
vt 0.766667 0.794118
vt 0.933333 0.794118
vt 0.933333 0.911765
vt 0.900000 0.911765
vt 0.900000 0.794118
vt 0.850000 0.911765
vt 0.850000 0.794118
vt 0.850000 0.911765
vt 0.883333 0.911765
vt 0.883333 1.000000
vt 0.850000 1.000000
vt 0.850000 1.000000
vt 0.816667 1.000000
vn -1.0000 -0.0000 0.0000
vn 0.0000 0.3420 -0.9397
vn 1.0000 0.0000 0.0000
vn 0.0000 -0.3420 0.9397
vn 0.0000 -0.9397 -0.3420
vn 0.0000 0.9397 0.3420
s off
f 101/218/77 102/219/77 104/220/77 103/221/77
f 103/222/78 104/223/78 108/224/78 107/225/78
f 107/225/79 108/224/79 106/226/79 105/227/79
f 105/227/80 106/226/80 102/219/80 101/218/80
f 103/228/81 107/229/81 105/230/81 101/231/81
f 108/232/82 104/233/82 102/219/82 106/226/82
