# Blender v2.80 (sub 75) OBJ File: ''
# www.blender.org
mtllib dl44model.mtl
o dl44model
v 0.064046 -0.083185 0.097936
v -0.064046 -0.083185 0.097936
v -0.064046 0.070593 0.097936
v 0.064046 0.070593 0.097936
v -0.064046 0.341276 0.385268
v 0.064046 0.341276 0.385268
v 0.064046 0.341276 -0.319928
v -0.064046 0.341276 -0.319928
v -0.064046 0.207646 0.354648
v -0.064046 -0.083185 0.354648
v 0.064046 -0.083185 0.354648
v 0.064046 0.207646 0.354648
v 0.064046 0.020811 -0.158168
v 0.064046 -0.339276 -0.239478
v 0.064046 -0.397355 -0.312491
v 0.064046 -0.357530 -0.441987
v 0.064046 -0.274560 -0.456922
v 0.064046 0.020811 -0.330808
v 0.064046 0.070593 -0.350640
v 0.064046 0.207646 -0.293778
v 0.064046 0.070593 -0.052048
v 0.064046 0.005877 -0.088474
v -0.064046 0.070593 -0.350640
v -0.064046 0.207646 -0.293778
v -0.064046 0.070593 -0.052048
v -0.064046 -0.397355 -0.312491
v -0.064046 -0.357530 -0.441987
v -0.064046 0.020811 -0.330808
v -0.064046 0.020811 -0.158168
v -0.064046 -0.339276 -0.239478
v -0.064046 -0.274560 -0.456922
v -0.064046 0.005877 -0.088474
v 0.064046 -0.083730 -0.045329
v -0.064046 -0.083730 -0.045329
v 0.064046 0.207646 -0.319928
v -0.064046 0.207646 -0.319928
v -0.078743 0.188577 1.071122
v 0.078743 0.188577 1.071122
v 0.078743 0.354776 1.071122
v -0.078743 0.354776 1.071122
v 0.041551 0.313609 0.382687
v 0.041551 0.229744 0.362571
v -0.041551 0.229744 0.362571
v -0.041551 0.313609 0.382687
v 0.041551 0.229744 0.572677
v -0.041551 0.229744 0.572677
v 0.041551 0.313609 0.572677
v -0.041551 0.313609 0.572677
v 0.072730 0.348430 0.572677
v 0.072730 0.194923 0.572677
v -0.072730 0.194923 0.572677
v -0.072730 0.348430 0.572677
v 0.072730 0.194923 0.816312
v -0.072730 0.194923 0.816312
v 0.072730 0.348430 0.816312
v -0.072730 0.348430 0.816312
v 0.055682 0.330439 0.816312
v 0.055682 0.212914 0.816312
v -0.055682 0.212914 0.816312
v -0.055682 0.330439 0.816312
v -0.080563 0.376446 0.117127
v -0.080563 0.101369 0.117127
v -0.080563 0.101369 -0.119204
v -0.080563 0.376446 -0.119204
v -0.080563 0.376446 -0.072130
v -0.080563 0.194235 -0.072130
v -0.080563 0.194235 0.070053
v -0.080563 0.376446 0.070053
v -0.010563 0.338622 -0.572415
v -0.178803 0.338622 -0.572415
v -0.178803 0.506861 -0.572415
v -0.010563 0.506861 -0.572415
v -0.033422 0.484002 -0.281469
v -0.155944 0.484002 -0.281469
v -0.155944 0.484002 0.624033
v -0.033422 0.484002 0.624033
v -0.155944 0.361481 0.624033
v -0.033422 0.361481 0.624033
v -0.155944 0.361481 -0.281469
v -0.033422 0.361481 -0.281469
v -0.178803 0.338622 -0.401080
v -0.010563 0.338622 -0.401080
v -0.178803 0.506861 -0.401080
v -0.010563 0.506861 -0.401080
v -0.128460 0.400669 0.088259
v -0.192161 0.400669 0.088259
v -0.192161 0.445412 0.088259
v -0.128460 0.445412 0.088259
v -0.192161 0.445412 0.172545
v -0.128460 0.445412 0.172545
v -0.192161 0.400669 0.172545
v -0.128460 0.400669 0.172545
v -0.128460 0.400669 -0.158481
v -0.192161 0.400669 -0.158481
v -0.192161 0.445412 -0.158481
v -0.128460 0.445412 -0.158481
v -0.192161 0.445412 -0.074195
v -0.128460 0.445412 -0.074195
v -0.192161 0.400669 -0.074195
v -0.128460 0.400669 -0.074195
v -0.033555 0.487966 0.209577
v -0.159241 0.487966 0.209577
v -0.159241 0.529146 0.209577
v -0.033555 0.529146 0.209577
v -0.159241 0.529146 0.335262
v -0.033555 0.529146 0.335262
v -0.159241 0.487966 0.335262
v -0.033555 0.487966 0.335262
v 0.011408 0.023176 -0.045567
v -0.011408 0.023176 -0.045567
v -0.020046 0.080266 -0.045707
v 0.020046 0.080266 -0.045707
v -0.020046 0.076017 0.003415
v 0.020046 0.076017 0.003415
v -0.011408 0.040174 -0.021690
v 0.011408 0.040174 -0.021690
v -0.011408 -0.018786 -0.013191
v 0.011408 -0.018786 -0.013191
v -0.011408 -0.021973 -0.029101
v 0.011408 -0.021973 -0.029101
v -0.011408 -0.044283 0.018679
v 0.011408 -0.044283 0.018679
vt 0.867294 0.211063
vt 0.851376 0.231991
vt 0.851376 0.211063
vt 0.359305 0.413873
vt 0.241900 0.390527
vt 0.359305 0.390527
vt 0.906173 0.226534
vt 0.921574 0.265801
vt 0.906173 0.265801
vt 0.872226 0.210839
vt 0.906173 0.210839
vt 0.742513 0.247564
vt 0.728363 0.240926
vt 0.710281 0.265839
vt 0.664138 0.160113
vt 0.679686 0.140915
vt 0.679686 0.160113
vt 0.874690 0.164138
vt 0.851627 0.148402
vt 0.874690 0.148402
vt 0.664138 0.234423
vt 0.679686 0.214116
vt 0.679686 0.234423
vt 0.664138 0.167924
vt 0.664138 0.289124
vt 0.679686 0.246250
vt 0.679686 0.289124
vt 0.679686 0.167924
vt 0.664138 0.203195
vt 0.664138 0.246250
vt 0.679686 0.203195
vt 0.664138 0.214116
vt 0.851627 0.164138
vt 0.840306 0.148402
vt 0.827071 0.192773
vt 0.837915 0.240796
vt 0.814891 0.240796
vt 0.828383 0.148402
vt 0.840306 0.164138
vt 0.828383 0.164138
vt 0.640513 0.246199
vt 0.624940 0.234546
vt 0.624940 0.246199
vt 0.640513 0.234546
vt 0.624940 0.218990
vt 0.837915 0.240796
vt 0.837915 0.240796
vt 0.837915 0.240796
vt 0.213608 0.390527
vt 0.218682 0.413873
vt 0.213608 0.413873
vt 0.837915 0.240796
vt 0.837915 0.240796
vt 0.837915 0.240796
vt 0.593532 0.406149
vt 0.570113 0.429653
vt 0.570113 0.406149
vt 0.354284 0.437492
vt 0.241900 0.413873
vt 0.218682 0.390527
vt 0.354104 0.367089
vt 0.241900 0.367089
vt 0.378881 0.409465
vt 0.378881 0.394573
vt 0.382487 0.390527
vt 0.398477 0.413972
vt 0.437542 0.429519
vt 0.398477 0.429519
vt 0.402301 0.398390
vt 0.437542 0.413972
vt 0.402301 0.382687
vt 0.437542 0.398390
vt 0.437542 0.367195
vt 0.437542 0.382687
vt 0.453208 0.367055
vt 0.476636 0.367055
vt 0.458225 0.372466
vt 0.476636 0.437369
vt 0.515674 0.460671
vt 0.476636 0.460671
vt 0.476636 0.413916
vt 0.515674 0.437369
vt 0.476636 0.390622
vt 0.515674 0.413916
vt 0.515674 0.390622
vt 0.518522 0.457935
vt 0.589831 0.368741
vt 0.573508 0.368741
vt 0.630057 0.426330
vt 0.630057 0.409507
vt 0.573573 0.467036
vt 0.593532 0.429653
vt 0.589919 0.467036
vt 0.534401 0.409677
vt 0.534401 0.426165
vt 0.851720 0.273620
vt 0.890426 0.273620
vt 0.859419 0.288830
vt 0.636541 0.652721
vt 0.605502 0.683894
vt 0.605502 0.652721
vt 0.663898 0.507986
vt 0.835955 0.531404
vt 0.663898 0.531404
vt 0.835955 0.507986
vt 0.859159 0.531404
vt 0.835955 0.578284
vt 0.663898 0.554855
vt 0.835955 0.554855
vt 0.835955 0.484535
vt 0.663898 0.484535
vt 0.632382 0.589703
vt 0.605502 0.613041
vt 0.609750 0.589703
vt 0.699313 0.656984
vt 0.676308 0.683894
vt 0.676308 0.652721
vt 0.609842 0.746550
vt 0.636541 0.723269
vt 0.632123 0.746550
vt 0.543049 0.656917
vt 0.566385 0.683894
vt 0.543049 0.679678
vt 0.636541 0.613041
vt 0.605502 0.648573
vt 0.640847 0.652721
vt 0.605502 0.723269
vt 0.636541 0.688042
vt 0.566385 0.652721
vt 0.601633 0.683894
vt 0.789022 0.601544
vt 0.781219 0.609389
vt 0.781219 0.601544
vt 0.789022 0.609389
vt 0.804623 0.617080
vt 0.789022 0.617080
vt 0.804623 0.609389
vt 0.812354 0.601544
vt 0.812354 0.609389
vt 0.804623 0.601544
vt 0.789022 0.593797
vt 0.804623 0.593797
vt 0.837915 0.240796
vt 0.837915 0.240796
vt 0.837915 0.240796
vt 0.742213 0.601453
vt 0.734513 0.609234
vt 0.734513 0.601453
vt 0.742213 0.609234
vt 0.757906 0.617089
vt 0.742213 0.617089
vt 0.757906 0.609234
vt 0.765744 0.601453
vt 0.765744 0.609234
vt 0.757906 0.601453
vt 0.742213 0.593617
vt 0.757906 0.593617
vt 0.837915 0.240796
vt 0.837915 0.240796
vt 0.837915 0.240796
vt 0.757833 0.633017
vt 0.765700 0.656403
vt 0.757833 0.656403
vt 0.765700 0.633017
vt 0.788964 0.656403
vt 0.788964 0.633017
vt 0.796882 0.656403
vt 0.788964 0.687546
vt 0.765700 0.664271
vt 0.788964 0.664271
vt 0.788964 0.625125
vt 0.765700 0.625125
vt 0.562189 0.241589
vt 0.553032 0.258506
vt 0.554746 0.241589
vt 0.837915 0.240796
vt 0.837915 0.240796
vt 0.837915 0.240796
vt 0.608097 0.250253
vt 0.616901 0.241331
vt 0.618048 0.250253
vt 0.591907 0.240728
vt 0.585950 0.250671
vt 0.585985 0.236512
vt 0.576293 0.240741
vt 0.570306 0.250736
vt 0.582552 0.249676
vt 0.609244 0.241331
vt 0.616901 0.226661
vt 0.594014 0.226105
vt 0.562189 0.226888
vt 0.570341 0.236504
vt 0.578412 0.226043
vt 0.574446 0.225248
vt 0.609244 0.226661
vt 0.616901 0.218494
vt 0.590069 0.225314
vt 0.601919 0.219781
vt 0.554746 0.226888
vt 0.562189 0.211329
vt 0.586357 0.219687
vt 0.867294 0.231991
vt 0.921574 0.226534
vt 0.872226 0.226534
vt 0.717521 0.192912
vt 0.705343 0.240926
vt 0.707786 0.185168
vt 0.688527 0.201542
vt 0.690519 0.190479
vt 0.702699 0.247564
vt 0.737656 0.238935
vt 0.796741 0.265838
vt 0.762511 0.247564
vt 0.796741 0.227059
vt 0.762511 0.227059
vt 0.664138 0.140915
vt 0.847210 0.238804
vt 0.852068 0.247462
vt 0.872226 0.247462
vt 0.819830 0.265801
vt 0.812246 0.247435
vt 0.798072 0.201404
vt 0.800064 0.190338
vt 0.817334 0.185027
vt 0.640513 0.218990
vt 0.241900 0.437492
vt 0.363851 0.394573
vt 0.382487 0.413873
vt 0.363851 0.409465
vt 0.398517 0.367195
vt 0.458225 0.385298
vt 0.453208 0.390622
vt 0.471596 0.372466
vt 0.471596 0.385298
vt 0.515674 0.367055
vt 0.536422 0.457935
vt 0.539162 0.460671
vt 0.539162 0.437369
vt 0.536422 0.440203
vt 0.518522 0.440203
vt 0.859419 0.318672
vt 0.851720 0.318672
vt 0.890426 0.318672
vt 0.882727 0.288830
vt 0.882727 0.318672
vt 0.636541 0.683894
vt 0.859159 0.507986
vt 0.663898 0.578284
vt 0.699313 0.679630
vt 0.636541 0.648573
vt 0.640847 0.683894
vt 0.605502 0.688042
vt 0.601633 0.652721
vt 0.837915 0.240796
vt 0.837915 0.240796
vt 0.796882 0.633017
vt 0.765700 0.687546
vt 0.563922 0.258506
vt 0.837915 0.240796
vt 0.598133 0.249617
vt 0.609244 0.218494
vt 0.554746 0.211329
vn -0.0000 -0.0000 -1.0000
vn -0.0000 1.0000 -0.0000
vn 0.0000 0.0000 1.0000
vn 0.0000 -1.0000 0.0000
vn 1.0000 -0.0000 -0.0000
vn -0.0000 0.3832 -0.9237
vn -0.0000 -0.9558 -0.2940
vn -0.0000 -0.3701 -0.9290
vn 0.0000 -0.2203 0.9754
vn -0.0000 0.3927 -0.9197
vn 0.0000 -0.7826 0.6225
vn -0.0000 -0.1772 -0.9842
vn 0.0000 -0.4905 0.8714
vn -1.0000 0.0000 0.0000
vn -0.0000 -0.9778 -0.2095
vn -0.0000 -0.4338 -0.9010
vn 0.0000 -1.0000 0.0038
vn -0.0559 0.7376 0.6729
vn -0.7701 0.4582 -0.4439
vn 0.4524 0.6797 -0.5774
vn -0.9239 0.2706 -0.2706
vn -0.9239 -0.0000 -0.3826
vn -0.9239 0.0000 0.3827
vn 0.0570 -0.2439 0.9681
vn -0.0570 -0.2441 0.9681
vn -0.0617 -0.2444 0.9677
vn 0.0000 -0.9955 -0.0951
vn 0.9959 -0.0000 -0.0901
vn -0.0000 0.9955 -0.0951
vn -0.9959 0.0000 -0.0901
vn 0.0000 -0.9822 0.1877
vn -0.9822 0.0000 0.1877
vn 0.0000 0.9822 0.1877
vn 0.9822 0.0000 0.1877
vn -0.0000 -0.0025 -1.0000
vn 0.0000 0.9963 0.0862
vn 0.0000 -0.5737 0.8191
vn -0.9824 -0.1786 0.0551
vn -0.9803 -0.1960 0.0255
vn -0.9832 -0.1485 0.1057
vn 0.9824 -0.1786 0.0551
vn 0.9803 -0.1960 0.0255
vn 0.9750 -0.2215 -0.0192
vn 0.0000 0.1427 0.9898
vn -0.0000 -0.3426 -0.9395
vn 0.0000 0.7809 0.6247
vn 0.0000 -0.9061 -0.4231
vn -0.1567 -0.1816 0.9708
vn -0.1607 -0.1769 0.9710
vn 0.0617 -0.2444 0.9677
vn 0.1607 -0.1769 0.9710
vn 0.1567 -0.1816 0.9708
vn -0.9750 -0.2215 -0.0192
vn 0.9832 -0.1485 0.1057
usemtl MAT_DIFFUSE_CUTOUT
s 1
f 2/1/1 4/2/1 1/3/1
f 6/4/2 8/5/2 5/6/2
f 10/7/3 12/8/3 9/9/3
f 10/7/4 1/10/4 11/11/4
f 21/12/5 13/13/5 20/14/5
f 23/15/6 20/16/6 19/17/6
f 3/18/4 21/19/4 4/20/4
f 26/21/7 16/22/7 15/23/7
f 19/17/8 28/24/8 23/15/8
f 29/25/9 14/26/9 13/27/9
f 18/28/10 31/29/10 28/24/10
f 30/30/11 15/23/11 14/26/11
f 17/31/12 27/32/12 31/29/12
f 25/33/13 22/34/13 21/19/13
f 30/35/14 29/36/14 28/37/14
f 13/38/15 32/39/15 29/40/15
f 22/41/16 34/42/16 32/43/16
f 33/44/17 2/45/17 34/42/17
f 12/46/18 20/47/19 35/48/20
f 24/49/4 35/50/4 20/51/4
f 24/52/21 9/53/22 36/54/23
f 38/55/3 40/56/3 37/57/3
f 12/58/5 7/59/5 6/4/5
f 36/60/1 7/59/1 35/50/1
f 9/61/14 8/5/14 36/62/14
f 42/63/24 43/64/25 9/65/26
f 42/66/4 46/67/4 43/68/4
f 41/69/5 45/70/5 42/66/5
f 44/71/2 47/72/2 41/69/2
f 44/71/14 46/73/14 48/74/14
f 50/75/1 51/76/1 45/77/1
f 50/78/4 54/79/4 51/80/4
f 49/81/5 53/82/5 50/78/5
f 52/83/2 55/84/2 49/81/2
f 51/76/14 56/85/14 52/83/14
f 54/79/3 53/82/3 59/86/3
f 58/87/27 37/57/27 59/88/27
f 57/89/28 38/55/28 58/90/28
f 60/91/29 39/92/29 57/93/29
f 59/94/30 40/56/30 60/95/30
f 62/96/5 63/97/5 67/98/5
f 70/99/1 72/100/1 69/101/1
f 74/102/2 76/103/2 73/104/2
f 75/105/3 78/106/3 76/103/3
f 77/107/4 80/108/4 78/109/4
f 77/110/14 74/102/14 79/111/14
f 80/108/5 76/103/5 78/109/5
f 79/112/31 82/113/31 80/114/31
f 79/115/32 83/116/32 81/117/32
f 73/118/33 83/119/33 74/120/33
f 80/121/34 84/122/34 73/123/34
f 81/124/4 69/125/4 82/113/4
f 83/116/14 70/126/14 81/117/14
f 84/127/2 71/128/2 83/119/2
f 82/129/5 72/130/5 84/122/5
f 86/131/1 88/132/1 85/133/1
f 87/134/2 90/135/2 88/136/2
f 89/137/3 92/138/3 90/139/3
f 91/140/4 85/141/4 92/142/4
f 91/140/14 87/134/14 86/131/14
f 85/143/5 90/144/5 92/145/5
f 94/146/1 96/147/1 93/148/1
f 95/149/2 98/150/2 96/151/2
f 97/152/3 100/153/3 98/154/3
f 99/155/4 93/156/4 100/157/4
f 99/155/14 95/149/14 94/146/14
f 93/158/5 98/159/5 100/160/5
f 102/161/1 104/162/1 101/163/1
f 103/164/2 106/165/2 104/162/2
f 105/166/3 108/167/3 106/165/3
f 107/168/4 101/169/4 108/170/4
f 107/171/14 103/164/14 102/172/14
f 101/169/5 106/165/5 108/170/5
f 110/173/35 112/174/35 109/175/35
f 111/176/36 114/177/36 112/178/36
f 113/179/37 116/180/37 114/181/37
f 115/182/38 111/183/39 110/184/40
f 116/185/41 112/186/42 114/187/43
f 115/188/44 118/189/44 116/180/44
f 110/184/14 117/190/14 115/182/14
f 109/175/45 119/191/45 110/173/45
f 109/192/5 118/193/5 120/194/5
f 117/195/46 122/196/46 118/189/46
f 117/190/14 119/197/14 121/198/14
f 120/199/47 121/200/47 119/191/47
f 120/194/5 118/193/5 122/201/5
f 2/1/1 3/202/1 4/2/1
f 6/4/2 7/59/2 8/5/2
f 10/7/3 11/203/3 12/8/3
f 10/7/4 2/204/4 1/10/4
f 13/13/5 14/205/5 18/206/5
f 14/205/5 15/207/5 17/208/5
f 18/206/5 14/205/5 17/208/5
f 15/207/5 16/209/5 17/208/5
f 18/206/5 19/210/5 13/13/5
f 19/210/5 20/14/5 13/13/5
f 21/12/5 22/211/5 13/13/5
f 20/14/5 12/212/5 4/213/5
f 21/12/5 20/14/5 4/213/5
f 12/212/5 11/214/5 4/213/5
f 11/214/5 1/215/5 4/213/5
f 23/15/6 24/216/6 20/16/6
f 3/18/4 25/33/4 21/19/4
f 26/21/7 27/32/7 16/22/7
f 19/17/8 18/28/8 28/24/8
f 29/25/9 30/30/9 14/26/9
f 18/28/10 17/31/10 31/29/10
f 30/30/11 26/21/11 15/23/11
f 17/31/12 16/22/12 27/32/12
f 25/33/13 32/39/13 22/34/13
f 29/36/14 32/217/14 25/218/14
f 3/219/14 2/204/14 10/7/14
f 3/219/14 10/7/14 9/9/14
f 9/9/14 24/220/14 3/219/14
f 24/220/14 23/221/14 29/36/14
f 25/218/14 24/220/14 29/36/14
f 28/37/14 31/222/14 30/35/14
f 31/222/14 27/223/14 26/224/14
f 30/35/14 31/222/14 26/224/14
f 24/220/14 25/218/14 3/219/14
f 23/221/14 28/37/14 29/36/14
f 13/38/15 22/34/15 32/39/15
f 22/41/16 33/44/16 34/42/16
f 33/44/17 1/225/17 2/45/17
f 24/49/4 36/60/4 35/50/4
f 38/55/3 39/92/3 40/56/3
f 12/58/5 35/226/5 7/59/5
f 36/60/1 8/5/1 7/59/1
f 9/61/14 5/6/14 8/5/14
f 44/227/48 5/6/49 9/65/26
f 12/228/50 6/4/51 41/229/52
f 12/228/50 41/229/52 42/63/24
f 43/64/25 44/227/48 9/65/26
f 12/228/50 42/63/24 9/65/26
f 42/66/4 45/70/4 46/67/4
f 41/69/5 47/72/5 45/70/5
f 44/71/2 48/74/2 47/72/2
f 44/71/14 43/230/14 46/73/14
f 47/231/1 49/232/1 45/77/1
f 49/232/1 50/75/1 45/77/1
f 51/76/1 52/83/1 46/233/1
f 52/83/1 48/234/1 46/233/1
f 51/76/1 46/233/1 45/77/1
f 50/78/4 53/82/4 54/79/4
f 49/81/5 55/84/5 53/82/5
f 52/83/2 56/85/2 55/84/2
f 51/76/14 54/235/14 56/85/14
f 60/236/3 56/237/3 54/79/3
f 53/82/3 55/238/3 57/239/3
f 53/82/3 57/239/3 58/240/3
f 59/86/3 60/236/3 54/79/3
f 53/82/3 58/240/3 59/86/3
f 58/87/27 38/55/27 37/57/27
f 57/89/28 39/92/28 38/55/28
f 60/91/29 40/56/29 39/92/29
f 59/94/30 37/57/30 40/56/30
f 68/241/5 61/242/5 67/98/5
f 61/242/5 62/96/5 67/98/5
f 63/97/5 64/243/5 66/244/5
f 64/243/5 65/245/5 66/244/5
f 63/97/5 66/244/5 67/98/5
f 70/99/1 71/246/1 72/100/1
f 74/102/2 75/105/2 76/103/2
f 75/105/3 77/247/3 78/106/3
f 77/107/4 79/248/4 80/108/4
f 77/110/14 75/105/14 74/102/14
f 80/108/5 73/104/5 76/103/5
f 79/112/31 81/124/31 82/113/31
f 79/115/32 74/249/32 83/116/32
f 73/118/33 84/127/33 83/119/33
f 80/121/34 82/129/34 84/122/34
f 81/124/4 70/250/4 69/125/4
f 83/116/14 71/251/14 70/126/14
f 84/127/2 72/252/2 71/128/2
f 82/129/5 69/253/5 72/130/5
f 86/131/1 87/134/1 88/132/1
f 87/134/2 89/137/2 90/135/2
f 89/137/3 91/140/3 92/138/3
f 91/140/4 86/131/4 85/141/4
f 91/140/14 89/137/14 87/134/14
f 85/143/5 88/254/5 90/144/5
f 94/146/1 95/149/1 96/147/1
f 95/149/2 97/152/2 98/150/2
f 97/152/3 99/155/3 100/153/3
f 99/155/4 94/146/4 93/156/4
f 99/155/14 97/152/14 95/149/14
f 93/158/5 96/255/5 98/159/5
f 102/161/1 103/164/1 104/162/1
f 103/164/2 105/166/2 106/165/2
f 105/166/3 107/256/3 108/167/3
f 107/168/4 102/257/4 101/169/4
f 107/171/14 105/166/14 103/164/14
f 101/169/5 104/162/5 106/165/5
f 110/173/35 111/258/35 112/174/35
f 111/176/36 113/259/36 114/177/36
f 113/179/37 115/188/37 116/180/37
f 115/182/38 113/260/53 111/183/39
f 116/185/41 109/192/54 112/186/42
f 115/188/44 117/195/44 118/189/44
f 110/184/14 119/197/14 117/190/14
f 109/175/45 120/199/45 119/191/45
f 109/192/5 116/185/5 118/193/5
f 117/195/46 121/261/46 122/196/46
f 120/199/47 122/262/47 121/200/47
