# Blender v3.4.1 OBJ File: 'v05.blend'
# www.blender.org
mtllib stellan.mtl
o body.016_Cube.050
v -0.150000 -2.100000 0.150000
v -0.150000 -0.900000 0.150000
v -0.150000 -2.100000 -0.150000
v -0.150000 -0.900000 -0.150000
v 0.150000 -2.100000 0.150000
v 0.150000 -0.900000 0.150000
v 0.150000 -2.100000 -0.150000
v 0.150000 -0.900000 -0.150000
v -0.150000 -1.850000 -0.050000
v -0.150000 -1.950000 -0.050000
v -0.150000 -1.850000 0.050000
v -0.150000 -1.950000 0.050000
v -0.200000 -1.850000 -0.050000
v -0.200000 -1.950000 -0.050000
v -0.200000 -1.850000 0.050000
v -0.200000 -1.950000 0.050000
vt 0.109375 0.328125
vt 0.109375 0.515625
vt 0.062500 0.515625
vt 0.062500 0.328125
vt 0.250000 0.328125
vt 0.250000 0.515625
vt 0.203125 0.515625
vt 0.203125 0.328125
vt 0.156250 0.515625
vt 0.156250 0.328125
vt 0.000000 0.000000
vt 0.000000 0.000000
vt 0.000000 0.000000
vt 0.000000 0.000000
vt 0.000000 0.000000
vt 0.000000 0.000000
vt 0.000000 0.000000
vt 0.000000 0.000000
vt 0.000000 0.000000
vt 0.000000 0.000000
vt 0.000000 0.000000
vt 0.000000 0.000000
vt 0.328125 0.359375
vt 0.312500 0.359375
vt 0.312500 0.343750
vt 0.328125 0.343750
vt 0.312500 0.359375
vt 0.296875 0.343750
vt 0.296875 0.359375
vt 0.281250 0.343750
vt 0.281250 0.359375
vt 0.312500 0.375000
vt 0.296875 0.375000
vt 0.312500 0.328125
vt 0.296875 0.328125
vn -1.0000 0.0000 0.0000
vn 0.0000 0.0000 -1.0000
vn 1.0000 0.0000 0.0000
vn 0.0000 0.0000 1.0000
vn 0.0000 -1.0000 0.0000
vn 0.0000 1.0000 0.0000
usemtl Material.001
s off
f 1/1/1 2/2/1 4/3/1 3/4/1
f 3/5/2 4/6/2 8/7/2 7/8/2
f 7/8/3 8/7/3 6/9/3 5/10/3
f 5/10/4 6/9/4 2/2/4 1/1/4
f 3/11/5 7/12/5 5/13/5 1/14/5
f 8/15/6 4/16/6 2/17/6 6/18/6
f 9/19/1 10/20/1 12/21/1 11/22/1
f 11/23/2 12/24/2 16/25/2 15/26/2
f 15/27/3 16/25/3 14/28/3 13/29/3
f 13/29/4 14/28/4 10/30/4 9/31/4
f 11/32/5 15/27/5 13/29/5 9/33/5
f 16/25/6 12/34/6 10/35/6 14/28/6
o emitter.016_Cube.049
v -0.200000 -0.400000 0.200000
v -0.200000 0.000000 0.200000
v -0.200000 -0.400000 -0.200000
v -0.200000 0.000000 -0.200000
v 0.200000 -0.400000 0.200000
v 0.200000 0.000000 0.200000
v 0.200000 -0.400000 -0.200000
v 0.200000 0.000000 -0.200000
v -0.150000 -0.900000 0.150000
v -0.150000 -0.400000 0.150000
v -0.150000 -0.900000 -0.150000
v -0.150000 -0.400000 -0.150000
v 0.150000 -0.900000 0.150000
v 0.150000 -0.400000 0.150000
v 0.150000 -0.900000 -0.150000
v 0.150000 -0.400000 -0.150000
v -0.100000 -0.800000 0.050000
v -0.400000 -0.500000 0.050000
v -0.100000 -0.800000 -0.050000
v -0.400000 -0.500000 -0.050000
v 0.100000 -0.800000 0.050000
v 0.400000 -0.500000 0.050000
v 0.100000 -0.800000 -0.050000
v 0.400000 -0.500000 -0.050000
v -0.050000 -0.779665 0.200000
v -0.050000 -0.679665 0.200000
v -0.050000 -0.779665 0.150000
v -0.050000 -0.679665 0.150000
v 0.050000 -0.779665 0.200000
v 0.050000 -0.679665 0.200000
v 0.050000 -0.779665 0.150000
v 0.050000 -0.679665 0.150000
vt 0.062500 0.812500
vt 0.125000 0.812500
vt 0.125000 0.875000
vt 0.062500 0.875000
vt 0.125000 0.937500
vt 0.187500 0.875000
vt 0.187500 0.937500
vt 0.250000 0.875000
vt 0.187500 0.812500
vt 0.250000 0.812500
vt 0.187500 0.750000
vt 0.125000 0.750000
vt 0.125000 0.687500
vt 0.187500 0.687500
vt 0.109375 0.578125
vt 0.109375 0.656250
vt 0.062500 0.656250
vt 0.062500 0.578125
vt 0.250000 0.578125
vt 0.250000 0.656250
vt 0.203125 0.656250
vt 0.203125 0.578125
vt 0.156250 0.656250
vt 0.156250 0.578125
vt 0.000000 0.000000
vt 0.000000 0.000000
vt 0.000000 0.000000
vt 0.000000 0.000000
vt 0.000000 0.000000
vt 0.000000 0.000000
vt 0.000000 0.000000
vt 0.000000 0.000000
vt 0.359375 0.625000
vt 0.406250 0.625000
vt 0.406250 0.640625
vt 0.359375 0.640625
vt 0.453125 0.687500
vt 0.531250 0.640625
vt 0.484375 0.687500
vt 0.578125 0.640625
vt 0.531250 0.625000
vt 0.578125 0.625000
vt 0.484375 0.578125
vt 0.453125 0.578125
vt 0.000000 0.000000
vt 0.000000 0.000000
vt 0.000000 0.000000
vt 0.000000 0.000000
vt 0.296875 0.593750
vt 0.296875 0.609375
vt 0.281250 0.609375
vt 0.281250 0.593750
vt 0.000000 0.000000
vt 0.000000 0.000000
vt 0.000000 0.000000
vt 0.000000 0.000000
vt 0.328125 0.593750
vt 0.328125 0.609375
vt 0.312500 0.609375
vt 0.312500 0.593750
vt 0.296875 0.578125
vt 0.312500 0.578125
vt 0.312500 0.625000
vt 0.296875 0.625000
vn -1.0000 0.0000 0.0000
vn 0.0000 0.0000 -1.0000
vn 1.0000 0.0000 0.0000
vn 0.0000 0.0000 1.0000
vn 0.0000 -1.0000 0.0000
vn 0.0000 1.0000 0.0000
vn -0.7071 -0.7071 0.0000
vn 0.7071 -0.7071 0.0000
usemtl Material.001
s off
f 17/36/7 18/37/7 20/38/7 19/39/7
f 19/40/8 20/38/8 24/41/8 23/42/8
f 23/43/9 24/41/9 22/44/9 21/45/9
f 21/46/10 22/44/10 18/37/10 17/47/10
f 19/48/11 23/49/11 21/46/11 17/47/11
f 24/41/12 20/38/12 18/37/12 22/44/12
f 25/50/7 26/51/7 28/52/7 27/53/7
f 27/54/8 28/55/8 32/56/8 31/57/8
f 31/57/9 32/56/9 30/58/9 29/59/9
f 29/59/10 30/58/10 26/51/10 25/50/10
f 27/60/11 31/61/11 29/62/11 25/63/11
f 32/64/12 28/65/12 26/66/12 30/67/12
f 33/68/13 34/69/13 36/70/13 35/71/13
f 35/72/8 36/70/8 40/73/8 39/74/8
f 39/75/14 40/73/14 38/76/14 37/77/14
f 37/78/10 38/76/10 34/69/10 33/79/10
f 35/80/11 39/81/11 37/82/11 33/83/11
f 40/73/12 36/70/12 34/69/12 38/76/12
f 41/84/7 42/85/7 44/86/7 43/87/7
f 43/88/8 44/89/8 48/90/8 47/91/8
f 47/92/9 48/93/9 46/94/9 45/95/9
f 45/95/10 46/94/10 42/85/10 41/84/10
f 43/96/11 47/97/11 45/95/11 41/84/11
f 48/98/12 44/99/12 42/85/12 46/94/12
o leftCross_Plane.001
v -0.197890 -0.271285 -0.000000
v -0.964163 -0.041445 -0.000000
v -0.284080 -0.558637 -0.000000
v -1.050353 -0.328798 -0.000000
vt 0.453125 0.796875
vt 0.453125 0.750000
vt 0.328125 0.750000
vt 0.328125 0.796875
vn 0.0000 0.0000 -1.0000
usemtl Material.001
s off
f 49/100/15 51/101/15 52/102/15 50/103/15
o pommel.016_Cube.051
v -0.150000 -2.500000 0.150000
v -0.150000 -2.100000 0.150000
v -0.150000 -2.500000 -0.150000
v -0.150000 -2.100000 -0.150000
v 0.150000 -2.500000 0.150000
v 0.150000 -2.100000 0.150000
v 0.150000 -2.500000 -0.150000
v 0.150000 -2.100000 -0.150000
v -0.050000 -2.500000 -0.150000
v -0.050000 -2.100000 -0.150000
v -0.050000 -2.500000 -0.200000
v -0.050000 -2.100000 -0.200000
v 0.050000 -2.500000 -0.150000
v 0.050000 -2.100000 -0.150000
v 0.050000 -2.500000 -0.200000
v 0.050000 -2.100000 -0.200000
v 0.150000 -2.500000 0.050000
v 0.150000 -2.100000 0.050000
v 0.150000 -2.500000 -0.050000
v 0.150000 -2.100000 -0.050000
v 0.200000 -2.500000 0.050000
v 0.200000 -2.100000 0.050000
v 0.200000 -2.500000 -0.050000
v 0.200000 -2.100000 -0.050000
v -0.050000 -2.500000 0.200000
v -0.050000 -2.100000 0.200000
v -0.050000 -2.500000 0.150000
v -0.050000 -2.100000 0.150000
v 0.050000 -2.500000 0.200000
v 0.050000 -2.100000 0.200000
v 0.050000 -2.500000 0.150000
v 0.050000 -2.100000 0.150000
v -0.200000 -2.500000 0.050000
v -0.200000 -2.100000 0.050000
v -0.200000 -2.500000 -0.050000
v -0.200000 -2.100000 -0.050000
v -0.150000 -2.500000 0.050000
v -0.150000 -2.100000 0.050000
v -0.150000 -2.500000 -0.050000
v -0.150000 -2.100000 -0.050000
vt 0.171875 0.125000
vt 0.234375 0.125000
vt 0.234375 0.171875
vt 0.171875 0.171875
vt 0.171875 0.234375
vt 0.125000 0.234375
vt 0.125000 0.171875
vt 0.062500 0.171875
vt 0.062500 0.125000
vt 0.125000 0.125000
vt 0.125000 0.062500
vt 0.171875 0.062500
vt 0.000000 0.000000
vt 0.000000 0.000000
vt 0.000000 0.000000
vt 0.000000 0.000000
vt 0.546875 0.078125
vt 0.546875 0.140625
vt 0.531250 0.140625
vt 0.531250 0.078125
vt 0.515625 0.140625
vt 0.515625 0.078125
vt 0.500000 0.140625
vt 0.500000 0.078125
vt 0.000000 0.000000
vt 0.000000 0.000000
vt 0.000000 0.000000
vt 0.000000 0.000000
vt 0.515625 0.062500
vt 0.531250 0.062500
vt 0.531250 0.156250
vt 0.515625 0.156250
vt 0.000000 0.000000
vt 0.000000 0.000000
vt 0.000000 0.000000
vt 0.000000 0.000000
vt 0.421875 0.078125
vt 0.421875 0.140625
vt 0.437500 0.140625
vt 0.437500 0.078125
vt 0.453125 0.140625
vt 0.453125 0.078125
vt 0.468750 0.140625
vt 0.468750 0.078125
vt 0.437500 0.062500
vt 0.453125 0.062500
vt 0.437500 0.156250
vt 0.453125 0.156250
vt 0.359375 0.078125
vt 0.359375 0.140625
vt 0.343750 0.140625
vt 0.343750 0.078125
vt 0.000000 0.000000
vt 0.000000 0.000000
vt 0.000000 0.000000
vt 0.000000 0.000000
vt 0.390625 0.078125
vt 0.390625 0.140625
vt 0.375000 0.140625
vt 0.375000 0.078125
vt 0.359375 0.062500
vt 0.375000 0.062500
vt 0.375000 0.156250
vt 0.359375 0.156250
vt 0.296875 0.078125
vt 0.296875 0.140625
vt 0.281250 0.140625
vt 0.281250 0.078125
vt 0.265625 0.140625
vt 0.265625 0.078125
vt 0.000000 0.000000
vt 0.000000 0.000000
vt 0.000000 0.000000
vt 0.000000 0.000000
vt 0.312500 0.078125
vt 0.312500 0.140625
vt 0.281250 0.062500
vt 0.296875 0.062500
vt 0.281250 0.156250
vt 0.296875 0.156250
vn -1.0000 0.0000 0.0000
vn 0.0000 0.0000 -1.0000
vn 1.0000 -0.0000 0.0000
vn 0.0000 0.0000 1.0000
vn 0.0000 -1.0000 0.0000
vn 0.0000 1.0000 0.0000
usemtl Material.001
s off
f 53/104/16 54/105/16 56/106/16 55/107/16
f 55/107/17 56/108/17 60/109/17 59/110/17
f 59/110/18 60/111/18 58/112/18 57/113/18
f 57/113/19 58/114/19 54/115/19 53/104/19
f 55/107/20 59/110/20 57/113/20 53/104/20
f 60/116/21 56/117/21 54/118/21 58/119/21
f 61/120/16 62/121/16 64/122/16 63/123/16
f 63/123/17 64/122/17 68/124/17 67/125/17
f 67/125/18 68/124/18 66/126/18 65/127/18
f 65/128/19 66/129/19 62/130/19 61/131/19
f 63/123/20 67/125/20 65/132/20 61/133/20
f 68/124/21 64/122/21 62/134/21 66/135/21
f 69/136/16 70/137/16 72/138/16 71/139/16
f 71/140/17 72/141/17 76/142/17 75/143/17
f 75/143/18 76/142/18 74/144/18 73/145/18
f 73/145/19 74/144/19 70/146/19 69/147/19
f 71/148/20 75/143/20 73/145/20 69/149/20
f 76/142/21 72/150/21 70/151/21 74/144/21
f 77/152/16 78/153/16 80/154/16 79/155/16
f 79/156/17 80/157/17 84/158/17 83/159/17
f 83/160/18 84/161/18 82/162/18 81/163/18
f 81/163/19 82/162/19 78/153/19 77/152/19
f 79/164/20 83/165/20 81/163/20 77/152/20
f 84/166/21 80/167/21 78/153/21 82/162/21
f 85/168/16 86/169/16 88/170/16 87/171/16
f 87/171/17 88/170/17 92/172/17 91/173/17
f 91/174/18 92/175/18 90/176/18 89/177/18
f 89/178/19 90/179/19 86/169/19 85/168/19
f 87/171/20 91/180/20 89/181/20 85/168/20
f 92/182/21 88/170/21 86/169/21 90/183/21
o rightCross_Plane
v 0.197890 -0.260735 -0.000000
v 0.964163 -0.030895 -0.000000
v 0.284080 -0.548087 -0.000000
v 1.050353 -0.318248 -0.000000
vt 0.609375 0.796875
vt 0.484375 0.796875
vt 0.484375 0.750000
vt 0.609375 0.750000
vn -0.0000 0.0000 -1.0000
usemtl Material.001
s off
f 93/184/22 94/185/22 96/186/22 95/187/22
