# Blender v2.81 (sub 16) OBJ File: 'r2d2.blend'
# www.blender.org
o body.001_Cube.115
v 5.400000 0.555892 3.284104
v 5.400000 1.307646 3.010488
v 5.400000 0.316478 2.626320
v 5.400000 1.068232 2.352704
v 6.099999 0.555892 3.284104
v 6.099999 1.307646 3.010488
v 6.099999 0.316478 2.626320
v 6.099999 1.068232 2.352704
vt 0.116667 0.205882
vt 0.116667 0.441176
vt 0.000000 0.441176
vt 0.000000 0.205882
vt 0.466667 0.205882
vt 0.466667 0.441176
vt 0.350000 0.441176
vt 0.350000 0.205882
vt 0.233333 0.441176
vt 0.233333 0.205882
vt 0.233333 0.441176
vt 0.350000 0.441176
vt 0.350000 0.647059
vt 0.233333 0.647059
vt 0.233333 0.647059
vt 0.116667 0.647059
vn -1.0000 0.0000 0.0000
vn 0.0000 -0.3420 -0.9397
vn 1.0000 0.0000 0.0000
vn 0.0000 0.3420 0.9397
vn 0.0000 -0.9397 0.3420
vn 0.0000 0.9397 -0.3420
s off
f 1/1/1 2/2/1 4/3/1 3/4/1
f 3/5/2 4/6/2 8/7/2 7/8/2
f 7/8/3 8/7/3 6/9/3 5/10/3
f 5/10/4 6/9/4 2/2/4 1/1/4
f 3/11/5 7/12/5 5/13/5 1/14/5
f 8/15/6 4/16/6 2/2/6 6/9/6
o butt.001_Cube.117
v 5.500000 0.427720 3.224337
v 5.500000 0.521690 3.190135
v 5.500000 0.256710 2.754491
v 5.500000 0.350680 2.720289
v 6.000000 0.427720 3.224337
v 6.000000 0.521690 3.190135
v 6.000000 0.256710 2.754491
v 6.000000 0.350680 2.720289
vt 0.150000 0.029412
vt 0.150000 0.058824
vt 0.066667 0.058824
vt 0.066667 0.029412
vt 0.400000 0.029412
vt 0.400000 0.058824
vt 0.316667 0.058824
vt 0.316667 0.029412
vt 0.233333 0.058824
vt 0.233333 0.029412
vt 0.233333 0.058824
vt 0.316667 0.058824
vt 0.316667 0.205882
vt 0.233333 0.205882
vt 0.233333 0.205882
vt 0.150000 0.205882
vn -1.0000 0.0000 0.0000
vn 0.0000 -0.3420 -0.9397
vn 1.0000 0.0000 0.0000
vn 0.0000 0.3420 0.9397
vn 0.0000 -0.9397 0.3420
vn 0.0000 0.9397 -0.3420
s off
f 9/17/7 10/18/7 12/19/7 11/20/7
f 11/21/8 12/22/8 16/23/8 15/24/8
f 15/24/9 16/23/9 14/25/9 13/26/9
f 13/26/10 14/25/10 10/18/10 9/17/10
f 11/27/11 15/28/11 13/29/11 9/30/11
f 16/31/12 12/32/12 10/18/12 14/25/12
o head.002_Cube.123
v 5.600000 1.662103 2.668641
v 5.600000 1.559497 2.386733
v 5.900000 1.662103 2.668641
v 5.900000 1.559497 2.386733
v 5.450000 1.367240 2.297082
v 5.450000 1.572452 2.860898
v 6.050000 1.367240 2.297082
v 6.050000 1.572452 2.860898
v 5.400000 1.068232 2.352703
v 5.400000 1.307646 3.010488
v 6.099999 1.068232 2.352703
v 6.099999 1.307646 3.010488
vt 0.200000 0.794118
vt 0.150000 0.794118
vt 0.125000 0.735294
vt 0.225000 0.735294
vt 0.433300 0.794118
vt 0.383367 0.794118
vt 0.358342 0.735294
vt 0.458325 0.735294
vt 0.083300 0.794118
vt 0.033367 0.794118
vt 0.008342 0.735294
vt 0.108325 0.735294
vt 0.316633 0.794118
vt 0.266700 0.794118
vt 0.241675 0.735294
vt 0.341658 0.735294
vt 0.183333 0.882353
vt 0.183333 0.794118
vt 0.233333 0.794118
vt 0.233333 0.882353
vt 0.116667 0.647059
vt 0.233333 0.647059
vt 0.233333 0.794118
vt 0.350000 0.794118
vt 0.350000 1.000000
vt 0.233333 1.000000
vt 0.350000 0.647059
vt 0.466667 0.647059
vt -0.000000 0.647059
vn 0.0000 0.9063 0.4226
vn 0.0000 0.4226 -0.9063
vn -0.7071 0.6645 -0.2418
vn 0.7071 0.6645 -0.2418
vn 0.0000 0.9397 -0.3420
vn 0.0000 0.4919 0.8707
vn 0.0000 -0.9397 0.3420
vn 0.0000 -0.1829 -0.9831
vn -0.9864 0.1545 -0.0562
vn 0.9864 0.1545 -0.0562
s off
f 19/33/13 17/34/13 22/35/13 24/36/13
f 18/37/14 20/38/14 23/39/14 21/40/14
f 17/41/15 18/42/15 21/43/15 22/44/15
f 20/45/16 19/46/16 24/47/16 23/48/16
f 18/49/17 17/50/17 19/51/17 20/52/17
f 24/36/18 22/35/18 26/53/18 28/54/18
f 25/55/19 27/56/19 28/57/19 26/58/19
f 21/40/20 23/39/20 27/59/20 25/60/20
f 22/44/21 21/43/21 25/61/21 26/53/21
f 23/48/22 24/47/22 28/54/22 27/59/22
o eye.001_Cube.121
v 5.650000 1.527987 2.963479
v 5.650000 1.681196 2.834921
v 5.650000 1.463709 2.886874
v 5.650000 1.616917 2.758317
v 5.850000 1.527987 2.963479
v 5.850000 1.681196 2.834921
v 5.850000 1.463709 2.886874
v 5.850000 1.616917 2.758317
vt 0.883333 0.176471
vt 0.883333 0.235294
vt 0.866667 0.235294
vt 0.866667 0.176471
vt 0.966667 0.176471
vt 0.966667 0.235294
vt 0.933333 0.235294
vt 0.933333 0.176471
vt 0.916667 0.235294
vt 0.916667 0.176471
vt 0.883333 0.147059
vt 0.916667 0.147059
vt 0.916667 0.264706
vt 0.883333 0.264706
vn -1.0000 0.0000 0.0000
vn 0.0000 -0.6428 -0.7660
vn 1.0000 0.0000 0.0000
vn 0.0000 0.6428 0.7660
vn 0.0000 -0.7660 0.6428
vn 0.0000 0.7660 -0.6428
s off
f 29/62/23 30/63/23 32/64/23 31/65/23
f 31/66/24 32/67/24 36/68/24 35/69/24
f 35/69/25 36/68/25 34/70/25 33/71/25
f 33/71/26 34/70/26 30/63/26 29/62/26
f 31/72/27 35/73/27 33/71/27 29/62/27
f 36/74/28 32/75/28 30/63/28 34/70/28
o projector.back.001_Cube.120
v 5.599999 1.179302 2.365486
v 5.599999 1.273271 2.331284
v 5.599999 1.145100 2.271517
v 5.599999 1.239069 2.237315
v 5.700000 1.179302 2.365486
v 5.700000 1.273271 2.331284
v 5.700000 1.145100 2.271517
v 5.700000 1.239069 2.237315
vt 0.816667 0.029412
vt 0.816667 0.058824
vt 0.800000 0.058824
vt 0.800000 0.029412
vt 0.783333 0.058824
vt 0.783333 0.029412
vt 0.766667 0.058824
vt 0.766667 0.029412
vt 0.833333 0.029412
vt 0.833333 0.058824
vt 0.800000 -0.000000
vt 0.800000 0.029412
vt 0.783333 0.029412
vt 0.783333 -0.000000
vt 0.800000 0.058824
vt 0.800000 0.088235
vt 0.783333 0.088235
vt 0.783333 0.058824
vn -1.0000 0.0000 0.0000
vn 0.0000 -0.3420 -0.9397
vn 1.0000 -0.0000 0.0000
vn 0.0000 0.3420 0.9397
vn 0.0000 -0.9397 0.3420
vn 0.0000 0.9397 -0.3420
s off
f 37/76/29 38/77/29 40/78/29 39/79/29
f 39/79/30 40/78/30 44/80/30 43/81/30
f 43/81/31 44/80/31 42/82/31 41/83/31
f 41/84/32 42/85/32 38/77/32 37/76/32
f 39/86/33 43/87/33 41/88/33 37/89/33
f 44/90/34 40/91/34 38/92/34 42/93/34
o projector.front.001_Cube.118
v 5.849999 1.418716 3.023271
v 5.849999 1.512685 2.989069
v 5.849999 1.384514 2.929302
v 5.849999 1.478483 2.895099
v 5.950000 1.418716 3.023271
v 5.950000 1.512685 2.989069
v 5.950000 1.384514 2.929302
v 5.950000 1.478483 2.895099
vt 0.766667 0.205882
vt 0.766667 0.235294
vt 0.783333 0.235294
vt 0.783333 0.205882
vt 0.816667 0.205882
vt 0.816667 0.235294
vt 0.833333 0.235294
vt 0.833333 0.205882
vt 0.800000 0.205882
vt 0.800000 0.235294
vt 0.816667 0.235294
vt 0.816667 0.205882
vt 0.800000 0.205882
vt 0.800000 0.235294
vt 0.783333 0.235294
vt 0.783333 0.205882
vt 0.800000 0.176471
vt 0.783333 0.176471
vt 0.800000 0.264706
vt 0.783333 0.264706
vn -1.0000 -0.0000 0.0000
vn 0.0000 -0.3420 -0.9397
vn 1.0000 0.0000 0.0000
vn 0.0000 0.3420 0.9397
vn 0.0000 -0.9397 0.3420
vn 0.0000 0.9397 -0.3420
s off
f 45/94/35 46/95/35 48/96/35 47/97/35
f 47/98/36 48/99/36 52/100/36 51/101/36
f 51/102/37 52/103/37 50/104/37 49/105/37
f 49/106/38 50/107/38 46/108/38 45/109/38
f 47/97/39 51/102/39 49/110/39 45/111/39
f 52/112/40 48/113/40 46/108/40 50/107/40
o projector.top.001_Cube.119
v 5.750000 1.428965 2.381034
v 5.750000 1.519596 2.423295
v 5.750000 1.471227 2.290403
v 5.750000 1.561858 2.332665
v 5.850000 1.428965 2.381034
v 5.850000 1.519596 2.423295
v 5.850000 1.471227 2.290403
v 5.850000 1.561858 2.332665
vt 0.816667 0.117647
vt 0.816667 0.147059
vt 0.800000 0.147059
vt 0.800000 0.117647
vt 0.783333 0.147059
vt 0.783333 0.117647
vt 0.766667 0.147059
vt 0.766667 0.117647
vt 0.833333 0.117647
vt 0.833333 0.147059
vt 0.800000 0.088235
vt 0.800000 0.117647
vt 0.783333 0.117647
vt 0.783333 0.088235
vt 0.800000 0.147059
vt 0.800000 0.176471
vt 0.783333 0.176471
vt 0.783333 0.147059
vn -1.0000 0.0000 0.0000
vn 0.0000 0.4226 -0.9063
vn 1.0000 -0.0000 0.0000
vn 0.0000 -0.4226 0.9063
vn 0.0000 -0.9063 -0.4226
vn 0.0000 0.9063 0.4226
s off
f 53/114/41 54/115/41 56/116/41 55/117/41
f 55/117/42 56/116/42 60/118/42 59/119/42
f 59/119/43 60/118/43 58/120/43 57/121/43
f 57/122/44 58/123/44 54/115/44 53/114/44
f 55/124/45 59/125/45 57/126/45 53/127/45
f 60/128/46 56/129/46 54/130/46 58/131/46
o foot.l.001_Cube.122
v 6.000000 0.000000 2.700000
v 6.000000 0.200000 2.600000
v 6.000000 0.000000 2.200000
v 6.000000 0.200000 2.300000
v 6.300000 0.000000 2.700000
v 6.300000 0.200000 2.600000
v 6.300000 0.000000 2.200000
v 6.300000 0.200000 2.300000
vt 0.816667 0.323529
vt 0.800000 0.382353
vt 0.750000 0.382353
vt 0.733333 0.323529
vt 1.000000 0.323529
vt 1.000000 0.382353
vt 0.950000 0.382353
vt 0.950000 0.323529
vt 0.933333 0.382353
vt 0.883333 0.382353
vt 0.866667 0.323529
vt 0.866667 0.382353
vt 0.816667 0.382353
vt 0.866667 0.382353
vt 0.916667 0.382353
vt 0.916667 0.529412
vt 0.866667 0.529412
vt 0.866667 0.470588
vt 0.816667 0.470588
vn -1.0000 0.0000 0.0000
vn 0.0000 0.4472 -0.8944
vn 1.0000 -0.0000 0.0000
vn 0.0000 0.4472 0.8944
vn 0.0000 -1.0000 0.0000
vn 0.0000 1.0000 0.0000
s off
f 61/132/47 62/133/47 64/134/47 63/135/47
f 63/136/48 64/137/48 68/138/48 67/139/48
f 67/139/49 68/140/49 66/141/49 65/142/49
f 65/142/50 66/143/50 62/144/50 61/132/50
f 63/145/51 67/146/51 65/147/51 61/148/51
f 68/149/52 64/150/52 62/144/52 66/143/52
o foot.r.001_Cube.126
v 5.200000 0.000000 2.700000
v 5.200000 0.200000 2.600000
v 5.200000 0.000000 2.200000
v 5.200000 0.200000 2.300000
v 5.500000 0.000000 2.700000
v 5.500000 0.200000 2.600000
v 5.500000 0.000000 2.200000
v 5.500000 0.200000 2.300000
vt 0.550000 0.323529
vt 0.533333 0.382353
vt 0.483333 0.382353
vt 0.466667 0.323529
vt 0.733333 0.323529
vt 0.733333 0.382353
vt 0.683333 0.382353
vt 0.683333 0.323529
vt 0.666667 0.382353
vt 0.616667 0.382353
vt 0.600000 0.323529
vt 0.600000 0.382353
vt 0.550000 0.382353
vt 0.600000 0.382353
vt 0.650000 0.382353
vt 0.650000 0.529412
vt 0.600000 0.529412
vt 0.600000 0.470588
vt 0.550000 0.470588
vn -1.0000 -0.0000 0.0000
vn 0.0000 0.4472 -0.8944
vn 1.0000 -0.0000 0.0000
vn 0.0000 0.4472 0.8944
vn 0.0000 -1.0000 0.0000
vn 0.0000 1.0000 0.0000
s off
f 69/151/53 70/152/53 72/153/53 71/154/53
f 71/155/54 72/156/54 76/157/54 75/158/54
f 75/158/55 76/159/55 74/160/55 73/161/55
f 73/161/56 74/162/56 70/163/56 69/151/56
f 71/164/57 75/165/57 73/166/57 69/167/57
f 76/168/58 72/169/58 70/163/58 74/162/58
o shoulder.l.003_Cube.116
v 6.049999 0.760759 2.822550
v 6.049999 1.136636 2.959358
v 6.049999 0.863365 2.540642
v 6.049999 1.239242 2.677450
v 6.249999 0.760759 2.822550
v 6.249999 1.136636 2.959358
v 6.249999 0.863365 2.540642
v 6.249999 1.239242 2.677450
vt 0.816667 0.794118
vt 0.816667 0.911765
vt 0.766667 0.911765
vt 0.766667 0.794118
vt 0.933333 0.794118
vt 0.933333 0.911765
vt 0.900000 0.911765
vt 0.900000 0.794118
vt 0.850000 0.911765
vt 0.850000 0.794118
vt 0.850000 0.911765
vt 0.883333 0.911765
vt 0.883333 1.000000
vt 0.850000 1.000000
vt 0.850000 1.000000
vt 0.816667 1.000000
vn -1.0000 -0.0000 0.0000
vn 0.0000 0.3420 -0.9397
vn 1.0000 0.0000 0.0000
vn 0.0000 -0.3420 0.9397
vn 0.0000 -0.9397 -0.3420
vn 0.0000 0.9397 0.3420
s off
f 77/170/59 78/171/59 80/172/59 79/173/59
f 79/174/60 80/175/60 84/176/60 83/177/60
f 83/177/61 84/176/61 82/178/61 81/179/61
f 81/179/62 82/178/62 78/171/62 77/170/62
f 79/180/63 83/181/63 81/182/63 77/183/63
f 84/184/64 80/185/64 78/171/64 82/178/64
o shoulder.l.002_Cube.114
v 6.049999 0.120075 2.536151
v 6.049999 0.777860 2.775565
v 6.049999 0.188479 2.348213
v 6.049999 0.846264 2.587627
v 6.249999 0.120075 2.536151
v 6.249999 0.777860 2.775565
v 6.249999 0.188479 2.348213
v 6.249999 0.846264 2.587627
vt 0.816667 0.529412
vt 0.816667 0.735294
vt 0.783333 0.735294
vt 0.783333 0.529412
vt 0.916667 0.529412
vt 0.916667 0.735294
vt 0.883333 0.735294
vt 0.883333 0.529412
vt 0.850000 0.735294
vt 0.850000 0.529412
vt 0.850000 0.735294
vt 0.883333 0.735294
vt 0.883333 0.794118
vt 0.850000 0.794118
vt 0.850000 0.794118
vt 0.816667 0.794118
vn -1.0000 0.0000 0.0000
vn 0.0000 0.3420 -0.9397
vn 1.0000 0.0000 0.0000
vn 0.0000 -0.3420 0.9397
vn 0.0000 -0.9397 -0.3420
vn 0.0000 0.9397 0.3420
s off
f 85/186/65 86/187/65 88/188/65 87/189/65
f 87/190/66 88/191/66 92/192/66 91/193/66
f 91/193/67 92/192/67 90/194/67 89/195/67
f 89/195/68 90/194/68 86/187/68 85/186/68
f 87/196/69 91/197/69 89/198/69 85/199/69
f 92/200/70 88/201/70 86/187/70 90/194/70
o shoulder.r.001_Cube.125
v 5.250000 0.760759 2.822550
v 5.250000 1.136636 2.959358
v 5.250000 0.863365 2.540642
v 5.250000 1.239242 2.677450
v 5.449999 0.760759 2.822550
v 5.449999 1.136636 2.959358
v 5.449999 0.863365 2.540642
v 5.449999 1.239242 2.677450
vt 0.566667 0.794118
vt 0.566667 0.911765
vt 0.516667 0.911765
vt 0.516667 0.794118
vt 0.683333 0.794118
vt 0.683333 0.911765
vt 0.650000 0.911765
vt 0.650000 0.794118
vt 0.600000 0.911765
vt 0.600000 0.794118
vt 0.600000 0.911765
vt 0.633333 0.911765
vt 0.633333 1.000000
vt 0.600000 1.000000
vt 0.600000 1.000000
vt 0.566667 1.000000
vn -1.0000 0.0000 0.0000
vn 0.0000 0.3420 -0.9397
vn 1.0000 0.0000 0.0000
vn 0.0000 -0.3420 0.9397
vn 0.0000 -0.9397 -0.3420
vn 0.0000 0.9397 0.3420
s off
f 93/202/71 94/203/71 96/204/71 95/205/71
f 95/206/72 96/207/72 100/208/72 99/209/72
f 99/209/73 100/208/73 98/210/73 97/211/73
f 97/211/74 98/210/74 94/203/74 93/202/74
f 95/212/75 99/213/75 97/214/75 93/215/75
f 100/216/76 96/217/76 94/203/76 98/210/76
o arm.r.002_Cube.124
v 5.250000 0.120075 2.536151
v 5.250000 0.777860 2.775565
v 5.250000 0.188479 2.348213
v 5.250000 0.846264 2.587627
v 5.449999 0.120075 2.536151
v 5.449999 0.777860 2.775565
v 5.449999 0.188479 2.348213
v 5.449999 0.846264 2.587627
vt 0.566667 0.529412
vt 0.566667 0.735294
vt 0.533333 0.735294
vt 0.533333 0.529412
vt 0.666667 0.529412
vt 0.666667 0.735294
vt 0.633333 0.735294
vt 0.633333 0.529412
vt 0.600000 0.735294
vt 0.600000 0.529412
vt 0.600000 0.735294
vt 0.633333 0.735294
vt 0.633333 0.794118
vt 0.600000 0.794118
vt 0.600000 0.794118
vt 0.566667 0.794118
vn -1.0000 -0.0000 0.0000
vn 0.0000 0.3420 -0.9397
vn 1.0000 0.0000 0.0000
vn 0.0000 -0.3420 0.9397
vn 0.0000 -0.9397 -0.3420
vn 0.0000 0.9397 0.3420
s off
f 101/218/77 102/219/77 104/220/77 103/221/77
f 103/222/78 104/223/78 108/224/78 107/225/78
f 107/225/79 108/224/79 106/226/79 105/227/79
f 105/227/80 106/226/80 102/219/80 101/218/80
f 103/228/81 107/229/81 105/230/81 101/231/81
f 108/232/82 104/233/82 102/219/82 106/226/82
o arm.m.001_Cube.127
v 5.650000 0.129163 3.115389
v 5.650000 0.505040 2.978581
v 5.650000 0.094961 3.021419
v 5.650000 0.470838 2.884611
v 5.850000 0.129163 3.115389
v 5.850000 0.505040 2.978581
v 5.850000 0.094961 3.021419
v 5.850000 0.470838 2.884611
vt 0.566667 0.176471
vt 0.566667 0.294118
vt 0.550000 0.294118
vt 0.550000 0.176471
vt 0.650000 0.176471
vt 0.650000 0.294118
vt 0.616667 0.294118
vt 0.616667 0.176471
vt 0.600000 0.294118
vt 0.600000 0.176471
vt 0.600000 0.294118
vt 0.633333 0.294118
vt 0.633333 0.323529
vt 0.600000 0.323529
vt 0.600000 0.323529
vt 0.566667 0.323529
vn -1.0000 0.0000 0.0000
vn 0.0000 -0.3420 -0.9397
vn 1.0000 -0.0000 0.0000
vn 0.0000 0.3420 0.9397
vn 0.0000 -0.9397 0.3420
vn 0.0000 0.9397 -0.3420
s off
f 109/234/83 110/235/83 112/236/83 111/237/83
f 111/238/84 112/239/84 116/240/84 115/241/84
f 115/241/85 116/240/85 114/242/85 113/243/85
f 113/243/86 114/242/86 110/235/86 109/234/86
f 111/244/87 115/245/87 113/246/87 109/247/87
f 116/248/88 112/249/88 110/235/88 114/242/88
o foot.m.001_Cube.128
v 5.600000 0.000000 3.250000
v 5.600000 0.200000 3.150000
v 5.600000 0.000000 2.850000
v 5.600000 0.200000 2.950000
v 5.900000 0.000000 3.250000
v 5.900000 0.200000 3.150000
v 5.900000 0.000000 2.850000
v 5.900000 0.200000 2.950000
vt 0.550000 0.000000
vt 0.533333 0.058824
vt 0.500000 0.058824
vt 0.483333 0.000000
vt 0.716667 0.000000
vt 0.716667 0.058824
vt 0.666667 0.058824
vt 0.666667 0.000000
vt 0.650000 0.058824
vt 0.616667 0.058824
vt 0.600000 0.000000
vt 0.600000 0.058824
vt 0.550000 0.058824
vt 0.600000 0.058824
vt 0.650000 0.058824
vt 0.650000 0.176471
vt 0.600000 0.176471
vt 0.600000 0.117647
vt 0.550000 0.117647
vn -1.0000 0.0000 0.0000
vn 0.0000 0.4472 -0.8944
vn 1.0000 0.0000 0.0000
vn 0.0000 0.4472 0.8944
vn 0.0000 -1.0000 0.0000
vn 0.0000 1.0000 0.0000
s off
f 117/250/89 118/251/89 120/252/89 119/253/89
f 119/254/90 120/255/90 124/256/90 123/257/90
f 123/257/91 124/258/91 122/259/91 121/260/91
f 121/260/92 122/261/92 118/262/92 117/250/92
f 119/263/93 123/264/93 121/265/93 117/266/93
f 124/267/94 120/268/94 118/262/94 122/261/94
