# Blender v2.81 (sub 16) OBJ File: 'r2d2.blend'
# www.blender.org
o shoulder.l.001_Cube.021
v 4.049999 0.100000 0.850000
v 4.049999 0.800000 0.850000
v 4.049999 0.100000 0.650000
v 4.049999 0.800000 0.650000
v 4.249999 0.100000 0.850000
v 4.249999 0.800000 0.850000
v 4.249999 0.100000 0.650000
v 4.249999 0.800000 0.650000
vt 0.816667 0.529412
vt 0.816667 0.735294
vt 0.783333 0.735294
vt 0.783333 0.529412
vt 0.916667 0.529412
vt 0.916667 0.735294
vt 0.883333 0.735294
vt 0.883333 0.529412
vt 0.850000 0.735294
vt 0.850000 0.529412
vt 0.850000 0.735294
vt 0.883333 0.735294
vt 0.883333 0.794118
vt 0.850000 0.794118
vt 0.850000 0.794118
vt 0.816667 0.794118
vn -1.0000 0.0000 0.0000
vn 0.0000 0.0000 -1.0000
vn 1.0000 0.0000 0.0000
vn 0.0000 0.0000 1.0000
vn 0.0000 -1.0000 0.0000
vn 0.0000 1.0000 0.0000
s off
f 1/1/1 2/2/1 4/3/1 3/4/1
f 3/5/2 4/6/2 8/7/2 7/8/2
f 7/8/3 8/7/3 6/9/3 5/10/3
f 5/10/4 6/9/4 2/2/4 1/1/4
f 3/11/5 7/12/5 5/13/5 1/14/5
f 8/15/6 4/16/6 2/2/6 6/9/6
o body_Cube.012
v 3.400000 0.400000 1.100000
v 3.400000 1.200000 1.100000
v 3.400000 0.400000 0.400000
v 3.400000 1.200000 0.400000
v 4.099999 0.400000 1.100000
v 4.099999 1.200000 1.100000
v 4.099999 0.400000 0.400000
v 4.099999 1.200000 0.400000
vt 0.116667 0.205882
vt 0.116667 0.441176
vt 0.000000 0.441176
vt 0.000000 0.205882
vt 0.466667 0.205882
vt 0.466667 0.441176
vt 0.350000 0.441176
vt 0.350000 0.205882
vt 0.233333 0.441176
vt 0.233333 0.205882
vt 0.233333 0.441176
vt 0.350000 0.441176
vt 0.350000 0.647059
vt 0.233333 0.647059
vt 0.233333 0.647059
vt 0.116667 0.647059
vn -1.0000 0.0000 0.0000
vn 0.0000 0.0000 -1.0000
vn 1.0000 0.0000 0.0000
vn 0.0000 0.0000 1.0000
vn 0.0000 -1.0000 0.0000
vn 0.0000 1.0000 0.0000
s off
f 9/17/7 10/18/7 12/19/7 11/20/7
f 11/21/8 12/22/8 16/23/8 15/24/8
f 15/24/9 16/23/9 14/25/9 13/26/9
f 13/26/10 14/25/10 10/18/10 9/17/10
f 11/27/11 15/28/11 13/29/11 9/30/11
f 16/31/12 12/32/12 10/18/12 14/25/12
o shoulder.l_Cube.022
v 4.049999 0.800000 0.900000
v 4.049999 1.200000 0.900000
v 4.049999 0.800000 0.600000
v 4.049999 1.200000 0.600000
v 4.249999 0.800000 0.900000
v 4.249999 1.200000 0.900000
v 4.249999 0.800000 0.600000
v 4.249999 1.200000 0.600000
vt 0.816667 0.794118
vt 0.816667 0.911765
vt 0.766667 0.911765
vt 0.766667 0.794118
vt 0.933333 0.794118
vt 0.933333 0.911765
vt 0.900000 0.911765
vt 0.900000 0.794118
vt 0.850000 0.911765
vt 0.850000 0.794118
vt 0.850000 0.911765
vt 0.883333 0.911765
vt 0.883333 1.000000
vt 0.850000 1.000000
vt 0.850000 1.000000
vt 0.816667 1.000000
vn -1.0000 0.0000 0.0000
vn 0.0000 0.0000 -1.0000
vn 1.0000 0.0000 0.0000
vn 0.0000 0.0000 1.0000
vn 0.0000 -1.0000 0.0000
vn 0.0000 1.0000 0.0000
s off
f 17/33/13 18/34/13 20/35/13 19/36/13
f 19/37/14 20/38/14 24/39/14 23/40/14
f 23/40/15 24/39/15 22/41/15 21/42/15
f 21/42/16 22/41/16 18/34/16 17/33/16
f 19/43/17 23/44/17 21/45/17 17/46/17
f 24/47/18 20/48/18 18/34/18 22/41/18
o butt_Cube.019
v 3.500000 0.300000 1.000000
v 3.500000 0.400000 1.000000
v 3.500000 0.300000 0.500000
v 3.500000 0.400000 0.500000
v 4.000000 0.300000 1.000000
v 4.000000 0.400000 1.000000
v 4.000000 0.300000 0.500000
v 4.000000 0.400000 0.500000
vt 0.150000 0.029412
vt 0.150000 0.058824
vt 0.066667 0.058824
vt 0.066667 0.029412
vt 0.400000 0.029412
vt 0.400000 0.058824
vt 0.316667 0.058824
vt 0.316667 0.029412
vt 0.233333 0.058824
vt 0.233333 0.029412
vt 0.233333 0.058824
vt 0.316667 0.058824
vt 0.316667 0.205882
vt 0.233333 0.205882
vt 0.233333 0.205882
vt 0.150000 0.205882
vn -1.0000 0.0000 0.0000
vn 0.0000 0.0000 -1.0000
vn 1.0000 0.0000 0.0000
vn 0.0000 0.0000 1.0000
vn 0.0000 -1.0000 0.0000
vn 0.0000 1.0000 0.0000
s off
f 25/49/19 26/50/19 28/51/19 27/52/19
f 27/53/20 28/54/20 32/55/20 31/56/20
f 31/56/21 32/55/21 30/57/21 29/58/21
f 29/58/22 30/57/22 26/50/22 25/49/22
f 27/59/23 31/60/23 29/61/23 25/62/23
f 32/63/24 28/64/24 26/50/24 30/57/24
o projector.front_Cube.029
v 3.849999 1.300000 1.150000
v 3.849999 1.400000 1.150000
v 3.849999 1.300000 1.050000
v 3.849999 1.400000 1.050000
v 3.949999 1.300000 1.150000
v 3.949999 1.400000 1.150000
v 3.949999 1.300000 1.050000
v 3.949999 1.400000 1.050000
vt 0.766667 0.205882
vt 0.766667 0.235294
vt 0.783333 0.235294
vt 0.783333 0.205882
vt 0.816667 0.205882
vt 0.816667 0.235294
vt 0.833333 0.235294
vt 0.833333 0.205882
vt 0.800000 0.205882
vt 0.800000 0.235294
vt 0.816667 0.235294
vt 0.816667 0.205882
vt 0.800000 0.205882
vt 0.800000 0.235294
vt 0.783333 0.235294
vt 0.783333 0.205882
vt 0.800000 0.176471
vt 0.783333 0.176471
vt 0.800000 0.264706
vt 0.783333 0.264706
vn -1.0000 0.0000 0.0000
vn 0.0000 0.0000 -1.0000
vn 1.0000 0.0000 0.0000
vn 0.0000 0.0000 1.0000
vn 0.0000 -1.0000 0.0000
vn 0.0000 1.0000 0.0000
s off
f 33/65/25 34/66/25 36/67/25 35/68/25
f 35/69/26 36/70/26 40/71/26 39/72/26
f 39/73/27 40/74/27 38/75/27 37/76/27
f 37/77/28 38/78/28 34/79/28 33/80/28
f 35/68/29 39/73/29 37/81/29 33/82/29
f 40/83/30 36/84/30 34/79/30 38/78/30
o projector.top_Cube.030
v 3.750000 1.529289 0.550000
v 3.750000 1.600000 0.620711
v 3.750000 1.600000 0.479289
v 3.750000 1.670711 0.550000
v 3.850000 1.529289 0.550000
v 3.850000 1.600000 0.620711
v 3.850000 1.600000 0.479289
v 3.850000 1.670711 0.550000
vt 0.816667 0.117647
vt 0.816667 0.147059
vt 0.800000 0.147059
vt 0.800000 0.117647
vt 0.783333 0.147059
vt 0.783333 0.117647
vt 0.766667 0.147059
vt 0.766667 0.117647
vt 0.833333 0.117647
vt 0.833333 0.147059
vt 0.800000 0.088235
vt 0.800000 0.117647
vt 0.783333 0.117647
vt 0.783333 0.088235
vt 0.800000 0.147059
vt 0.800000 0.176471
vt 0.783333 0.176471
vt 0.783333 0.147059
vn -1.0000 0.0000 0.0000
vn 0.0000 0.7071 -0.7071
vn 1.0000 0.0000 0.0000
vn 0.0000 -0.7071 0.7071
vn 0.0000 -0.7071 -0.7071
vn 0.0000 0.7071 0.7071
s off
f 41/85/31 42/86/31 44/87/31 43/88/31
f 43/88/32 44/87/32 48/89/32 47/90/32
f 47/90/33 48/89/33 46/91/33 45/92/33
f 45/93/34 46/94/34 42/86/34 41/85/34
f 43/95/35 47/96/35 45/97/35 41/98/35
f 48/99/36 44/100/36 42/101/36 46/102/36
o projector.back_Cube.031
v 3.599999 1.300000 0.450000
v 3.599999 1.400000 0.450000
v 3.599999 1.300000 0.350000
v 3.599999 1.400000 0.350000
v 3.699999 1.300000 0.450000
v 3.699999 1.400000 0.450000
v 3.699999 1.300000 0.350000
v 3.699999 1.400000 0.350000
vt 0.816667 0.029412
vt 0.816667 0.058824
vt 0.800000 0.058824
vt 0.800000 0.029412
vt 0.783333 0.058824
vt 0.783333 0.029412
vt 0.766667 0.058824
vt 0.766667 0.029412
vt 0.833333 0.029412
vt 0.833333 0.058824
vt 0.800000 -0.000000
vt 0.800000 0.029412
vt 0.783333 0.029412
vt 0.783333 -0.000000
vt 0.800000 0.058824
vt 0.800000 0.088235
vt 0.783333 0.088235
vt 0.783333 0.058824
vn -1.0000 0.0000 0.0000
vn 0.0000 0.0000 -1.0000
vn 1.0000 0.0000 0.0000
vn 0.0000 0.0000 1.0000
vn 0.0000 -1.0000 0.0000
vn 0.0000 1.0000 0.0000
s off
f 49/103/37 50/104/37 52/105/37 51/106/37
f 51/106/38 52/105/38 56/107/38 55/108/38
f 55/108/39 56/107/39 54/109/39 53/110/39
f 53/111/40 54/112/40 50/104/40 49/103/40
f 51/113/41 55/114/41 53/115/41 49/116/41
f 56/117/42 52/118/42 50/119/42 54/120/42
o eye_Cube.032
v 3.650000 1.423132 1.131186
v 3.650000 1.611070 1.062783
v 3.650000 1.388930 1.037217
v 3.650000 1.576868 0.968813
v 3.850000 1.423132 1.131186
v 3.850000 1.611070 1.062783
v 3.850000 1.388930 1.037217
v 3.850000 1.576868 0.968813
vt 0.883333 0.176471
vt 0.883333 0.235294
vt 0.866667 0.235294
vt 0.866667 0.176471
vt 0.966667 0.176471
vt 0.966667 0.235294
vt 0.933333 0.235294
vt 0.933333 0.176471
vt 0.916667 0.235294
vt 0.916667 0.176471
vt 0.883333 0.147059
vt 0.916667 0.147059
vt 0.916667 0.264706
vt 0.883333 0.264706
vn -1.0000 0.0000 0.0000
vn 0.0000 -0.3420 -0.9397
vn 1.0000 0.0000 0.0000
vn 0.0000 0.3420 0.9397
vn 0.0000 -0.9397 0.3420
vn 0.0000 0.9397 -0.3420
s off
f 57/121/43 58/122/43 60/123/43 59/124/43
f 59/125/44 60/126/44 64/127/44 63/128/44
f 63/128/45 64/127/45 62/129/45 61/130/45
f 61/130/46 62/129/46 58/122/46 57/121/46
f 59/131/47 63/132/47 61/130/47 57/121/47
f 64/133/48 60/134/48 58/122/48 62/129/48
o foot.l_Cube.102
v 4.000000 0.000000 1.000000
v 4.000000 0.200000 0.900000
v 4.000000 0.000000 0.500000
v 4.000000 0.200000 0.600000
v 4.300000 0.000000 1.000000
v 4.300000 0.200000 0.900000
v 4.300000 0.000000 0.500000
v 4.300000 0.200000 0.600000
vt 0.816667 0.323529
vt 0.800000 0.382353
vt 0.750000 0.382353
vt 0.733333 0.323529
vt 1.000000 0.323529
vt 1.000000 0.382353
vt 0.950000 0.382353
vt 0.950000 0.323529
vt 0.933333 0.382353
vt 0.883333 0.382353
vt 0.866667 0.323529
vt 0.866667 0.382353
vt 0.816667 0.382353
vt 0.866667 0.382353
vt 0.916667 0.382353
vt 0.916667 0.529412
vt 0.866667 0.529412
vt 0.866667 0.470588
vt 0.816667 0.470588
vn -1.0000 0.0000 0.0000
vn 0.0000 0.4472 -0.8944
vn 1.0000 0.0000 0.0000
vn 0.0000 0.4472 0.8944
vn 0.0000 -1.0000 0.0000
vn 0.0000 1.0000 0.0000
s off
f 65/135/49 66/136/49 68/137/49 67/138/49
f 67/139/50 68/140/50 72/141/50 71/142/50
f 71/142/51 72/143/51 70/144/51 69/145/51
f 69/145/52 70/146/52 66/147/52 65/135/52
f 67/148/53 71/149/53 69/150/53 65/151/53
f 72/152/54 68/153/54 66/147/54 70/146/54
o head_Cube.105
v 3.600000 1.650000 0.900000
v 3.600000 1.650000 0.600000
v 3.900000 1.650000 0.900000
v 3.900000 1.650000 0.600000
v 3.450000 1.500000 0.450000
v 3.450000 1.500000 1.050000
v 4.050000 1.500000 0.450000
v 4.050000 1.500000 1.050000
v 3.399999 1.200000 0.400000
v 3.399999 1.200000 1.100000
v 4.099999 1.200000 0.400000
v 4.099999 1.200000 1.100000
vt 0.200000 0.794118
vt 0.150000 0.794118
vt 0.125000 0.735294
vt 0.225000 0.735294
vt 0.433300 0.794118
vt 0.383367 0.794118
vt 0.358342 0.735294
vt 0.458325 0.735294
vt 0.083300 0.794118
vt 0.033367 0.794118
vt 0.008342 0.735294
vt 0.108325 0.735294
vt 0.316633 0.794118
vt 0.266700 0.794118
vt 0.241675 0.735294
vt 0.341658 0.735294
vt 0.183333 0.882353
vt 0.183333 0.794118
vt 0.233333 0.794118
vt 0.233333 0.882353
vt 0.116667 0.647059
vt 0.233333 0.647059
vt 0.233333 0.794118
vt 0.350000 0.794118
vt 0.350000 1.000000
vt 0.233333 1.000000
vt 0.350000 0.647059
vt 0.466667 0.647059
vt -0.000000 0.647059
vn 0.0000 0.7071 0.7071
vn 0.0000 0.7071 -0.7071
vn -0.7071 0.7071 0.0000
vn 0.7071 0.7071 0.0000
vn 0.0000 1.0000 0.0000
vn 0.0000 0.1644 0.9864
vn 0.0000 -1.0000 0.0000
vn 0.0000 0.1644 -0.9864
vn -0.9864 0.1644 0.0000
vn 0.9864 0.1644 0.0000
s off
f 75/154/55 73/155/55 78/156/55 80/157/55
f 74/158/56 76/159/56 79/160/56 77/161/56
f 73/162/57 74/163/57 77/164/57 78/165/57
f 76/166/58 75/167/58 80/168/58 79/169/58
f 74/170/59 73/171/59 75/172/59 76/173/59
f 80/157/60 78/156/60 82/174/60 84/175/60
f 81/176/61 83/177/61 84/178/61 82/179/61
f 77/161/62 79/160/62 83/180/62 81/181/62
f 78/165/63 77/164/63 81/182/63 82/174/63
f 79/169/64 80/168/64 84/175/64 83/180/64
o arm.r_Cube.109
v 3.249999 0.100000 0.850000
v 3.249999 0.800000 0.850000
v 3.249999 0.100000 0.650000
v 3.249999 0.800000 0.650000
v 3.449999 0.100000 0.850000
v 3.449999 0.800000 0.850000
v 3.449999 0.100000 0.650000
v 3.449999 0.800000 0.650000
vt 0.566667 0.529412
vt 0.566667 0.735294
vt 0.533333 0.735294
vt 0.533333 0.529412
vt 0.666667 0.529412
vt 0.666667 0.735294
vt 0.633333 0.735294
vt 0.633333 0.529412
vt 0.600000 0.735294
vt 0.600000 0.529412
vt 0.600000 0.735294
vt 0.633333 0.735294
vt 0.633333 0.794118
vt 0.600000 0.794118
vt 0.600000 0.794118
vt 0.566667 0.794118
vn -1.0000 0.0000 0.0000
vn 0.0000 0.0000 -1.0000
vn 1.0000 0.0000 0.0000
vn 0.0000 0.0000 1.0000
vn 0.0000 -1.0000 0.0000
vn 0.0000 1.0000 0.0000
s off
f 85/183/65 86/184/65 88/185/65 87/186/65
f 87/187/66 88/188/66 92/189/66 91/190/66
f 91/190/67 92/189/67 90/191/67 89/192/67
f 89/192/68 90/191/68 86/184/68 85/183/68
f 87/193/69 91/194/69 89/195/69 85/196/69
f 92/197/70 88/198/70 86/184/70 90/191/70
o shoulder.r_Cube.110
v 3.249999 0.800000 0.900000
v 3.249999 1.200000 0.900000
v 3.249999 0.800000 0.600000
v 3.249999 1.200000 0.600000
v 3.449999 0.800000 0.900000
v 3.449999 1.200000 0.900000
v 3.449999 0.800000 0.600000
v 3.449999 1.200000 0.600000
vt 0.566667 0.794118
vt 0.566667 0.911765
vt 0.516667 0.911765
vt 0.516667 0.794118
vt 0.683333 0.794118
vt 0.683333 0.911765
vt 0.650000 0.911765
vt 0.650000 0.794118
vt 0.600000 0.911765
vt 0.600000 0.794118
vt 0.600000 0.911765
vt 0.633333 0.911765
vt 0.633333 1.000000
vt 0.600000 1.000000
vt 0.600000 1.000000
vt 0.566667 1.000000
vn -1.0000 0.0000 0.0000
vn 0.0000 0.0000 -1.0000
vn 1.0000 0.0000 0.0000
vn 0.0000 0.0000 1.0000
vn 0.0000 -1.0000 0.0000
vn 0.0000 1.0000 0.0000
s off
f 93/199/71 94/200/71 96/201/71 95/202/71
f 95/203/72 96/204/72 100/205/72 99/206/72
f 99/206/73 100/205/73 98/207/73 97/208/73
f 97/208/74 98/207/74 94/200/74 93/199/74
f 95/209/75 99/210/75 97/211/75 93/212/75
f 100/213/76 96/214/76 94/200/76 98/207/76
o foot.r_Cube.111
v 3.200000 0.000000 1.000000
v 3.200000 0.200000 0.900000
v 3.200000 0.000000 0.500000
v 3.200000 0.200000 0.600000
v 3.500000 0.000000 1.000000
v 3.500000 0.200000 0.900000
v 3.500000 0.000000 0.500000
v 3.500000 0.200000 0.600000
vt 0.550000 0.323529
vt 0.533333 0.382353
vt 0.483333 0.382353
vt 0.466667 0.323529
vt 0.733333 0.323529
vt 0.733333 0.382353
vt 0.683333 0.382353
vt 0.683333 0.323529
vt 0.666667 0.382353
vt 0.616667 0.382353
vt 0.600000 0.323529
vt 0.600000 0.382353
vt 0.550000 0.382353
vt 0.600000 0.382353
vt 0.650000 0.382353
vt 0.650000 0.529412
vt 0.600000 0.529412
vt 0.600000 0.470588
vt 0.550000 0.470588
vn -1.0000 0.0000 0.0000
vn 0.0000 0.4472 -0.8944
vn 1.0000 0.0000 0.0000
vn 0.0000 0.4472 0.8944
vn 0.0000 -1.0000 0.0000
vn 0.0000 1.0000 0.0000
s off
f 101/215/77 102/216/77 104/217/77 103/218/77
f 103/219/78 104/220/78 108/221/78 107/222/78
f 107/222/79 108/223/79 106/224/79 105/225/79
f 105/225/80 106/226/80 102/227/80 101/215/80
f 103/228/81 107/229/81 105/230/81 101/231/81
f 108/232/82 104/233/82 102/227/82 106/226/82
