# Blender v2.80 (sub 75) OBJ File: ''
# www.blender.org
mtllib t21model.mtl
o t21model.002
v -0.168299 -0.541526 -2.937800
v 0.168299 0.388283 -2.937800
v 0.168299 -0.541526 -2.937800
v -0.168299 0.626236 -1.078018
v 0.168299 0.626236 1.635131
v 0.168299 0.626236 -1.078018
v -0.168299 0.626236 1.635131
v 0.168299 0.082842 1.635131
v -0.168299 0.082842 1.635131
v 0.168299 0.082842 -1.078018
v -0.168299 0.082842 -1.078018
v 0.168299 -0.088450 -1.837375
v -0.168299 0.334191 -1.837375
v -0.168299 -0.088450 -1.837375
v 0.168299 0.334191 -1.837375
v -0.168299 0.388283 -2.937800
v -0.168299 0.403740 -2.007452
v 0.168299 0.403740 -2.007452
v -0.061303 0.563337 -1.063104
v 0.061303 0.685941 -1.063104
v 0.061303 0.563337 -1.063104
v -0.061303 0.685941 -1.063104
v 0.061303 0.685941 0.198570
v -0.061303 0.685941 0.198570
v 0.061303 0.563337 0.198570
v -0.061303 0.563337 0.198570
v -0.050588 0.685181 -1.028767
v 0.050588 0.685181 -0.927591
v 0.050588 0.685181 -1.028767
v 0.050588 0.775305 -1.028767
v -0.050588 0.775305 -0.927591
v -0.050588 0.685181 -0.927591
v -0.050588 0.685181 -0.443339
v 0.050588 0.685181 -0.342162
v 0.050588 0.685181 -0.443339
v 0.050588 0.775305 -0.443339
v -0.050588 0.775305 -0.342162
v -0.050588 0.685181 -0.342162
v -0.047541 0.711529 -1.053839
v 0.047541 0.806610 -1.053839
v 0.047541 0.711529 -1.053839
v -0.047541 0.806610 -1.053839
v 0.047541 0.806610 -0.269525
v -0.047541 0.806610 -0.269525
v 0.047541 0.711529 -0.269525
v -0.047541 0.711529 -0.269525
v -0.068608 0.605842 0.759555
v 0.068608 0.812600 0.759555
v 0.068608 0.605842 0.759555
v -0.068608 0.812600 0.759555
v 0.068608 0.812600 0.896773
v -0.068608 0.812600 0.896773
v 0.068608 0.605842 0.896773
v -0.068608 0.605842 0.896773
v -0.362042 0.075819 1.627364
v 0.362042 0.799903 1.627364
v 0.362042 0.075819 1.627364
v -0.362042 0.799903 1.627364
v 0.362042 0.799900 3.112809
v -0.268288 0.706147 6.655849
v 0.268288 0.169571 6.655849
v 0.268288 0.706147 6.655849
v -0.362042 0.075816 3.112809
v 0.362042 0.075816 3.112809
v -0.309957 0.747815 3.112809
v 0.309957 0.747815 3.112809
v 0.309957 0.747815 5.263676
v -0.309957 0.127902 3.112809
v -0.309957 0.747815 5.263676
v 0.309957 0.127902 3.112809
v -0.309957 0.127902 5.263676
v 0.309957 0.127902 5.263676
v 0.268288 0.706147 5.595146
v -0.268288 0.169571 5.595146
v -0.268288 0.706147 5.595146
v 0.268288 0.169571 5.595146
v -0.268288 0.169571 6.655849
v -0.160694 0.190649 1.294047
v 0.160694 0.301762 1.294047
v 0.160694 0.190649 1.294047
v -0.356463 0.301762 1.640345
v 0.356463 0.301762 1.640345
v 0.356463 0.190649 1.640345
v -0.356463 0.190649 1.640345
v -0.160694 0.301762 1.294047
v -0.050588 0.736714 5.129676
v 0.050588 0.736714 5.230853
v 0.050588 0.736714 5.129676
v 0.050588 0.941110 5.129676
v -0.050588 0.941110 5.230853
v -0.050588 0.736714 5.230853
v -0.060923 -0.252950 0.509077
v 0.060923 0.094373 0.429786
v 0.060923 -0.252950 0.509077
v -0.060923 0.094373 0.429786
v 0.060923 0.094373 0.983211
v -0.060923 0.094373 0.983211
v 0.060923 -0.252950 0.903919
v -0.060923 -0.252950 0.903919
v -0.060923 0.041295 -0.856353
v 0.060923 0.094373 -0.918735
v 0.060923 0.041295 -0.856353
v 0.060923 0.094373 -0.104886
v -0.060923 0.094373 -0.918735
v -0.060923 0.094373 -0.104886
v -0.048555 -0.700734 -0.287998
v 0.048555 -0.607754 -0.661363
v 0.048555 -0.700734 -0.287998
v 0.060923 0.041295 -0.505847
v 0.048555 -0.158729 -0.146045
v -0.060923 0.041295 -0.505847
v -0.060923 0.041295 -0.167267
v 0.060923 0.041295 -0.167267
v -0.048555 -0.607754 -0.661363
v -0.048555 -0.158729 -0.146045
v 0.048555 -0.158729 0.093305
v -0.048555 -0.158729 0.093305
v 0.048555 -0.077306 0.164662
v -0.048555 -0.078135 0.261436
v 0.048555 -0.077799 0.164434
v 0.048555 -0.078135 0.261436
v -0.048555 0.092252 0.285477
v 0.048555 0.090351 0.107872
v 0.048555 0.092252 0.285477
v -0.048555 -0.077799 0.164434
v -0.048555 0.090351 0.107872
v -0.024580 -0.014302 -0.043759
v 0.024580 0.102589 -0.036049
v 0.024580 -0.014302 -0.043759
v -0.024580 0.102589 -0.036049
v 0.024580 0.102589 0.013111
v -0.024580 0.102589 0.013111
v 0.024580 -0.014302 -0.010440
v -0.024580 -0.014302 -0.010440
v 0.024580 -0.097663 -0.005110
v -0.024580 -0.097663 -0.028248
v -0.024580 -0.097663 -0.005110
v 0.024580 -0.144554 0.011695
v 0.024580 -0.097663 -0.028248
v -0.024580 -0.144554 0.011695
v -0.117735 0.379121 -2.506100
v 0.117735 0.454908 -2.506100
v 0.117735 0.379121 -2.506100
v -0.117735 0.454908 -2.506100
v 0.117735 0.454908 -2.270631
v -0.117735 0.454908 -2.270631
v 0.117735 0.379121 -2.270631
v -0.117735 0.379121 -2.270631
v 0.050588 0.775305 -0.927591
v -0.050588 0.775305 -1.028767
v 0.050588 0.775305 -0.342162
v -0.050588 0.775305 -0.443339
v -0.362042 0.799900 3.112809
v 0.050588 0.941110 5.230853
v -0.050588 0.941110 5.129676
v -0.048555 -0.077306 0.164662
vt 0.015728 0.221581
vt 0.038929 0.288234
vt 0.038929 0.221581
vt 0.281098 0.265593
vt 0.476641 0.289138
vt 0.281098 0.289138
vt 0.281098 0.226265
vt 0.281098 0.226265
vt 0.281098 0.226265
vt 0.476641 0.351711
vt 0.281098 0.328085
vt 0.476641 0.328085
vt 0.476641 0.226265
vt 0.281098 0.226265
vt 0.273196 0.250265
vt 0.218707 0.226732
vt 0.273196 0.226732
vt 0.171097 0.352282
vt 0.117217 0.370117
vt 0.117217 0.340128
vt 0.273110 0.336004
vt 0.218569 0.312703
vt 0.273110 0.312703
vt 0.171060 0.265916
vt 0.117096 0.283778
vt 0.171060 0.304532
vt 0.218707 0.250265
vt 0.140829 0.226732
vt 0.039137 0.374503
vt 0.105149 0.374503
vt 0.218569 0.336004
vt 0.206976 0.312703
vt 0.117096 0.253743
vt 0.206976 0.336004
vt 0.140546 0.312703
vt 0.288984 0.359553
vt 0.281314 0.367315
vt 0.281314 0.359553
vt 0.288984 0.367315
vt 0.375096 0.375054
vt 0.288984 0.375054
vt 0.382779 0.375054
vt 0.375096 0.382841
vt 0.281098 0.226265
vt 0.281098 0.226265
vt 0.281098 0.226265
vt 0.375096 0.359553
vt 0.288984 0.382841
vt 0.296908 0.398546
vt 0.304649 0.406353
vt 0.296908 0.406353
vt 0.296908 0.414140
vt 0.304649 0.390778
vt 0.304649 0.398546
vt 0.328172 0.398549
vt 0.335972 0.406358
vt 0.328172 0.406358
vt 0.328172 0.414185
vt 0.335972 0.390751
vt 0.335972 0.398549
vt 0.289081 0.421975
vt 0.281289 0.429800
vt 0.281289 0.421975
vt 0.289081 0.429800
vt 0.343760 0.437553
vt 0.289081 0.437553
vt 0.351444 0.453233
vt 0.343760 0.445496
vt 0.351444 0.445496
vt 0.343760 0.453233
vt 0.289081 0.445496
vt 0.343760 0.421975
vt 0.460950 0.363302
vt 0.453065 0.375110
vt 0.453065 0.363302
vt 0.429760 0.375110
vt 0.437491 0.382828
vt 0.429760 0.382828
vt 0.437491 0.375110
vt 0.445277 0.363302
vt 0.445277 0.375110
vt 0.281098 0.226265
vt 0.281098 0.226265
vt 0.281098 0.226265
vt 0.437491 0.363302
vt 0.429760 0.363302
vt 0.492233 0.156438
vt 0.437312 0.210812
vt 0.437312 0.156438
vt 0.492233 0.210812
vt 0.601708 0.265660
vt 0.492233 0.265660
vt 0.981910 0.574860
vt 0.941454 0.534405
vt 0.981910 0.534405
vt 0.601708 0.375311
vt 0.492233 0.320521
vt 0.601708 0.320521
vt 0.601708 0.156438
vt 0.652318 0.371409
vt 0.652318 0.324692
vt 0.656243 0.320521
vt 0.679557 0.437542
vt 0.835863 0.484337
vt 0.679557 0.484337
vt 0.679557 0.390685
vt 0.835863 0.437542
vt 0.679557 0.531297
vt 0.835863 0.578027
vt 0.679557 0.578027
vt 0.835863 0.531297
vt 0.859429 0.480814
vt 0.859551 0.393895
vt 0.859551 0.434102
vt 0.859668 0.574969
vt 0.859443 0.528044
vt 0.859429 0.441142
vt 0.937525 0.480814
vt 0.937313 0.434102
vt 0.859668 0.534468
vt 0.937402 0.574969
vt 0.859443 0.487164
vt 0.937264 0.528044
vt 0.281098 0.226265
vt 0.281098 0.226265
vt 0.281098 0.226265
vt 0.366996 0.195226
vt 0.390386 0.156522
vt 0.390386 0.210957
vt 0.281098 0.226265
vt 0.281098 0.226265
vt 0.281098 0.226265
vt 0.421495 0.210862
vt 0.398062 0.172266
vt 0.421495 0.156642
vt 0.398159 0.156410
vt 0.421538 0.148639
vt 0.421538 0.156410
vt 0.398143 0.218697
vt 0.421569 0.210969
vt 0.421569 0.218697
vt 0.601494 0.406392
vt 0.609386 0.413773
vt 0.601494 0.413773
vt 0.601494 0.429353
vt 0.609386 0.391020
vt 0.609386 0.406392
vt 0.945421 0.039235
vt 0.952904 0.015662
vt 0.952904 0.039235
vt 0.281098 0.226265
vt 0.281098 0.226265
vt 0.281098 0.226265
vt 0.945368 0.093582
vt 0.953155 0.070221
vt 0.953155 0.093582
vt 0.945368 0.070221
vt 0.953155 0.043316
vt 0.955014 0.109438
vt 0.922096 0.132523
vt 0.927601 0.109438
vt 0.742733 0.109375
vt 0.709719 0.132570
vt 0.748255 0.132570
vt 0.585834 0.128691
vt 0.578101 0.132746
vt 0.578101 0.128691
vt 0.281098 0.226265
vt 0.281098 0.226265
vt 0.281098 0.226265
vt 0.862542 0.062466
vt 0.836059 0.054720
vt 0.862542 0.054720
vt 0.662774 0.132642
vt 0.638561 0.129049
vt 0.607683 0.132642
vt 0.659988 0.115509
vt 0.629292 0.085057
vt 0.585834 0.109308
vt 0.578101 0.109308
vt 0.984315 0.132908
vt 0.976608 0.129026
vt 0.984315 0.129026
vt 0.984315 0.115292
vt 0.585801 0.062700
vt 0.976517 0.078144
vt 0.984147 0.115256
vt 0.976525 0.115256
vt 0.819562 0.132695
vt 0.850378 0.129112
vt 0.874512 0.132695
vt 0.841129 0.085230
vt 0.863610 0.079010
vt 0.871733 0.115606
vt 0.718827 0.085770
vt 0.742100 0.093871
vt 0.718827 0.093871
vt 0.742100 0.085770
vt 0.749873 0.093871
vt 0.687428 0.093703
vt 0.695205 0.085894
vt 0.695205 0.093703
vt 0.281098 0.226265
vt 0.281098 0.226265
vt 0.281098 0.226265
vt 0.687428 0.109392
vt 0.695205 0.109392
vt 0.905396 0.132676
vt 0.895705 0.119123
vt 0.903471 0.119123
vt 0.695205 0.070475
vt 0.687428 0.085894
vt 0.687428 0.070475
vt 0.693426 0.132647
vt 0.683769 0.119144
vt 0.679257 0.132647
vt 0.781095 0.124164
vt 0.773474 0.132692
vt 0.773474 0.124164
vt 0.281098 0.226265
vt 0.281098 0.226265
vt 0.281098 0.226265
vt 0.788969 0.132764
vt 0.796713 0.124204
vt 0.796713 0.132764
vt 0.666285 0.132618
vt 0.670021 0.132618
vt 0.668549 0.124379
vt 0.788969 0.124204
vt 0.796713 0.121764
vt 0.781095 0.121839
vt 0.788969 0.121764
vt 0.796713 0.109251
vt 0.878251 0.132672
vt 0.878251 0.124523
vt 0.880491 0.124523
vt 0.773474 0.121839
vt 0.781095 0.109339
vt 0.065181 0.398601
vt 0.070303 0.414103
vt 0.065181 0.414103
vt 0.070303 0.398601
vt 0.085926 0.414103
vt 0.085926 0.398601
vt 0.090976 0.414103
vt 0.281098 0.226265
vt 0.281098 0.226265
vt 0.281098 0.226265
vt 0.085926 0.393590
vt 0.070303 0.393590
vt 0.070303 0.419131
vt 0.085926 0.419131
vt 0.015728 0.288234
vt 0.476641 0.265593
vt 0.281098 0.226265
vt 0.281098 0.351711
vt 0.171097 0.390839
vt 0.140829 0.250265
vt 0.039137 0.307980
vt 0.105010 0.288234
vt 0.140546 0.336004
vt 0.375096 0.367315
vt 0.382779 0.382841
vt 0.281098 0.226265
vt 0.304649 0.414140
vt 0.296908 0.390778
vt 0.335972 0.414185
vt 0.328172 0.390751
vt 0.343760 0.429800
vt 0.289081 0.453233
vt 0.460950 0.375110
vt 0.281098 0.226265
vt 0.601708 0.210812
vt 0.941454 0.574861
vt 0.492233 0.375311
vt 0.605601 0.324692
vt 0.656243 0.375311
vt 0.605601 0.371409
vt 0.835863 0.390685
vt 0.937525 0.441142
vt 0.937313 0.393895
vt 0.937402 0.534468
vt 0.937264 0.487164
vt 0.281098 0.226265
vt 0.366996 0.172253
vt 0.281098 0.226265
vt 0.398062 0.195238
vt 0.398159 0.148639
vt 0.398143 0.210968
vt 0.609386 0.429353
vt 0.601494 0.391020
vt 0.945421 0.015662
vt 0.281098 0.226265
vt 0.945368 0.043316
vt 0.960520 0.132523
vt 0.715240 0.109375
vt 0.585834 0.132746
vt 0.281098 0.226265
vt 0.836059 0.062466
vt 0.658551 0.129049
vt 0.611906 0.129049
vt 0.651840 0.078820
vt 0.976608 0.132908
vt 0.976608 0.115292
vt 0.578068 0.062700
vt 0.984140 0.078144
vt 0.823774 0.129112
vt 0.870300 0.129112
vt 0.749873 0.085770
vt 0.281098 0.226265
vt 0.891176 0.132676
vt 0.691508 0.119144
vt 0.781095 0.132692
vt 0.281098 0.226265
vt 0.669921 0.115199
vt 0.667106 0.118504
vt 0.668549 0.118504
vt 0.666285 0.124379
vt 0.788969 0.109251
vt 0.879064 0.118711
vt 0.881848 0.115442
vt 0.880491 0.118711
vt 0.881947 0.132672
vt 0.773474 0.109339
vt 0.090976 0.398601
vt 0.281098 0.226265
vn 0.0000 0.0000 -1.0000
vn 0.0000 1.0000 0.0000
vn 0.0000 -0.0000 1.0000
vn 0.0000 -1.0000 -0.0000
vn -1.0000 0.0000 0.0000
vn 1.0000 -0.0000 0.0000
vn 0.0000 -0.9755 0.2200
vn 0.0000 0.9334 -0.3590
vn 0.0000 -0.9247 0.3807
vn 0.0000 0.9256 0.3785
vn 0.0001 0.9988 0.0499
vn 0.0000 0.9988 0.0480
vn 0.0000 0.9999 -0.0166
vn 0.0000 0.9922 0.1247
vn -0.9922 0.0000 0.1247
vn 0.0000 -0.9922 0.1247
vn 0.9922 0.0000 0.1247
vn -0.8705 0.0000 -0.4921
vn 0.8705 0.0000 -0.4921
vn 0.0000 -0.2226 -0.9749
vn 0.0000 -0.2226 0.9749
vn 0.0000 -0.7616 -0.6480
vn 0.0000 -0.9704 -0.2417
vn 0.9997 -0.0210 0.0099
vn 0.9994 -0.0319 0.0092
vn 0.9999 -0.0094 0.0082
vn 0.0000 -0.7616 0.6480
vn 0.0000 -0.1928 0.9812
vn 0.0000 -0.1915 0.9815
vn 0.0000 0.1055 0.9944
vn 0.0000 0.2330 -0.9725
vn 0.0000 -0.2534 0.9674
vn -0.9997 -0.0210 0.0099
vn -0.9999 -0.0094 0.0082
vn -0.9994 -0.0319 0.0092
vn 0.0000 0.6591 -0.7521
vn 0.0000 -1.0000 -0.0035
vn 0.0000 -0.9999 0.0107
vn 0.0000 -0.1397 0.9902
vn 0.0000 -0.3188 -0.9478
vn 0.0000 0.0658 -0.9978
vn 0.0000 -0.1975 0.9803
vn 0.0000 0.0638 0.9980
vn 0.0000 -0.1829 -0.9831
vn 0.0000 0.3374 0.9414
vn 0.0000 -0.6485 -0.7613
vn 0.9994 -0.0332 0.0042
vn -0.9994 -0.0332 0.0042
usemtl MAT_DIFFUSE_CUTOUT
s 1
f 1/1/1 2/2/1 3/3/1
f 4/4/2 5/5/2 6/6/2
f 7/7/3 8/8/3 5/9/3
f 9/10/4 10/11/4 8/12/4
f 9/13/5 4/4/5 11/14/5
f 10/11/6 5/5/6 8/12/6
f 11/15/7 12/16/7 10/17/7
f 11/18/5 13/19/5 14/20/5
f 6/21/8 13/22/8 4/23/8
f 10/24/6 15/25/6 6/26/6
f 14/27/9 3/28/9 12/16/9
f 16/29/5 14/20/5 17/30/5
f 15/31/10 17/32/11 13/22/10
f 12/33/6 3/3/6 2/2/6
f 18/34/12 16/35/13 17/32/11
f 19/36/1 20/37/1 21/38/1
f 22/39/2 23/40/2 20/41/2
f 24/42/3 25/43/3 23/40/3
f 26/44/4 21/45/4 25/46/4
f 26/47/5 22/39/5 19/36/5
f 21/48/6 23/40/6 25/43/6
f 27/49/2 28/50/2 29/51/2
f 28/50/5 30/52/5 29/51/5
f 27/49/6 31/53/6 32/54/6
f 33/55/2 34/56/2 35/57/2
f 34/56/5 36/58/5 35/57/5
f 33/55/6 37/59/6 38/60/6
f 39/61/1 40/62/1 41/63/1
f 42/64/2 43/65/2 40/66/2
f 44/67/3 45/68/3 43/69/3
f 46/70/4 41/71/4 45/68/4
f 46/72/5 42/64/5 39/61/5
f 41/71/6 43/65/6 45/68/6
f 47/73/1 48/74/1 49/75/1
f 50/76/2 51/77/2 48/78/2
f 52/79/3 53/80/3 51/81/3
f 54/82/4 49/83/4 53/84/4
f 54/85/5 50/76/5 47/86/5
f 49/75/6 51/81/6 53/80/6
f 55/87/1 56/88/1 57/89/1
f 58/90/2 59/91/2 56/92/2
f 60/93/3 61/94/3 62/95/3
f 63/96/4 57/97/4 64/98/4
f 63/99/5 58/90/5 55/87/5
f 57/97/6 59/91/6 64/98/6
f 65/100/3 66/101/3 59/102/3
f 65/103/2 67/104/2 66/105/2
f 68/106/5 69/107/5 65/103/5
f 70/108/4 71/109/4 68/110/4
f 66/105/6 72/111/6 70/108/6
f 69/107/14 73/112/14 67/104/14
f 69/107/15 74/113/15 75/114/15
f 72/111/16 74/115/16 71/109/16
f 67/104/17 76/116/17 72/111/17
f 75/117/2 62/118/2 73/112/2
f 74/113/5 60/119/5 75/114/5
f 76/120/4 77/121/4 74/115/4
f 73/122/6 61/123/6 76/116/6
f 78/124/1 79/125/1 80/126/1
f 79/127/2 81/128/2 82/129/2
f 81/130/3 83/131/3 82/132/3
f 84/133/4 80/134/4 83/135/4
f 84/136/18 85/137/18 78/138/18
f 80/139/19 82/140/19 83/141/19
f 86/142/2 87/143/2 88/144/2
f 87/143/5 89/145/5 88/144/5
f 86/142/6 90/146/6 91/147/6
f 92/148/20 93/149/20 94/150/20
f 95/151/2 96/152/2 93/153/2
f 97/154/21 98/155/21 96/156/21
f 99/157/4 94/158/4 98/155/4
f 99/159/5 95/160/5 92/161/5
f 98/162/6 93/163/6 96/164/6
f 100/165/22 101/166/22 102/167/22
f 103/168/2 104/169/2 105/170/2
f 106/171/23 107/172/23 108/173/23
f 103/174/6 109/175/24 101/176/6
f 109/175/24 110/177/25 107/178/26
f 111/179/4 102/167/4 109/180/4
f 103/181/27 112/182/28 113/183/29
f 112/182/28 110/184/30 113/183/29
f 109/180/31 114/185/31 111/179/31
f 106/186/32 110/187/32 115/188/32
f 104/189/5 111/190/33 105/191/5
f 114/192/34 106/193/5 115/194/35
f 115/195/2 116/196/2 110/197/2
f 117/198/36 118/199/36 116/196/36
f 119/200/37 120/201/37 121/202/37
f 122/203/38 123/204/38 124/205/38
f 122/206/39 121/202/39 124/207/39
f 122/208/5 125/209/5 119/210/5
f 123/211/40 125/212/40 126/213/40
f 124/214/6 120/215/6 123/216/6
f 127/217/41 128/218/41 129/219/41
f 130/220/2 131/221/2 128/222/2
f 132/223/42 133/224/42 131/225/42
f 128/226/6 131/227/6 133/228/6
f 134/229/43 135/230/43 133/224/43
f 129/219/44 136/231/44 127/217/44
f 137/232/45 138/233/45 135/230/45
f 130/234/5 127/235/5 134/236/5
f 139/237/46 140/238/46 136/231/46
f 141/239/1 142/240/1 143/241/1
f 144/242/2 145/243/2 142/240/2
f 146/244/3 147/245/3 145/243/3
f 148/246/4 143/247/4 147/248/4
f 148/249/5 144/242/5 141/250/5
f 143/251/6 145/243/6 147/252/6
f 1/1/1 16/253/1 2/2/1
f 4/4/2 7/254/2 5/5/2
f 7/7/3 9/255/3 8/8/3
f 9/10/4 11/256/4 10/11/4
f 9/13/5 7/254/5 4/4/5
f 10/11/6 6/6/6 5/5/6
f 11/15/7 14/27/7 12/16/7
f 11/18/5 4/257/5 13/19/5
f 6/21/8 15/31/8 13/22/8
f 10/24/6 12/33/6 15/25/6
f 14/27/9 1/258/9 3/28/9
f 1/259/5 14/20/5 16/29/5
f 14/20/5 13/19/5 17/30/5
f 15/31/10 18/34/12 17/32/11
f 2/2/6 18/260/6 12/33/6
f 18/260/6 15/25/6 12/33/6
f 18/34/12 2/261/13 16/35/13
f 19/36/1 22/39/1 20/37/1
f 22/39/2 24/262/2 23/40/2
f 24/42/3 26/263/3 25/43/3
f 26/44/4 19/264/4 21/45/4
f 26/47/5 24/262/5 22/39/5
f 21/48/6 20/41/6 23/40/6
f 27/49/2 32/54/2 28/50/2
f 28/50/5 149/265/5 30/52/5
f 27/49/6 150/266/6 31/53/6
f 33/55/2 38/60/2 34/56/2
f 34/56/5 151/267/5 36/58/5
f 33/55/6 152/268/6 37/59/6
f 39/61/1 42/64/1 40/62/1
f 42/64/2 44/269/2 43/65/2
f 44/67/3 46/70/3 45/68/3
f 46/70/4 39/270/4 41/71/4
f 46/72/5 44/269/5 42/64/5
f 41/71/6 40/66/6 43/65/6
f 47/73/1 50/271/1 48/74/1
f 50/76/2 52/79/2 51/77/2
f 52/79/3 54/85/3 53/80/3
f 54/82/4 47/272/4 49/83/4
f 54/85/5 52/79/5 50/76/5
f 49/75/6 48/74/6 51/81/6
f 55/87/1 58/90/1 56/88/1
f 58/90/2 153/273/2 59/91/2
f 60/93/3 77/274/3 61/94/3
f 63/96/4 55/275/4 57/97/4
f 63/99/5 153/273/5 58/90/5
f 57/97/6 56/92/6 59/91/6
f 70/276/3 64/98/3 59/102/3
f 153/277/3 63/96/3 68/278/3
f 153/277/3 68/278/3 65/100/3
f 66/101/3 70/276/3 59/102/3
f 153/277/3 65/100/3 59/102/3
f 65/103/2 69/107/2 67/104/2
f 68/106/5 71/279/5 69/107/5
f 70/108/4 72/111/4 71/109/4
f 66/105/6 67/104/6 72/111/6
f 69/107/14 75/117/14 73/112/14
f 69/107/15 71/279/15 74/113/15
f 72/111/16 76/120/16 74/115/16
f 67/104/17 73/122/17 76/116/17
f 75/117/2 60/280/2 62/118/2
f 74/113/5 77/281/5 60/119/5
f 76/120/4 61/282/4 77/121/4
f 73/122/6 62/283/6 61/123/6
f 78/124/1 85/284/1 79/125/1
f 79/127/2 85/285/2 81/128/2
f 81/130/3 84/286/3 83/131/3
f 84/133/4 78/287/4 80/134/4
f 84/136/18 81/288/18 85/137/18
f 80/139/19 79/289/19 82/140/19
f 86/142/2 91/147/2 87/143/2
f 87/143/5 154/290/5 89/145/5
f 86/142/6 155/291/6 90/146/6
f 92/148/20 95/292/20 93/149/20
f 95/151/2 97/293/2 96/152/2
f 97/154/21 99/157/21 98/155/21
f 99/157/4 92/294/4 94/158/4
f 99/159/5 97/295/5 95/160/5
f 98/162/6 94/296/6 93/163/6
f 100/165/22 104/297/22 101/166/22
f 103/168/2 101/298/2 104/169/2
f 106/171/23 114/299/23 107/172/23
f 113/300/47 109/175/24 103/174/6
f 109/175/24 102/301/6 101/176/6
f 113/300/47 110/177/25 109/175/24
f 110/177/25 108/302/6 107/178/26
f 111/179/4 100/165/4 102/167/4
f 103/181/27 105/303/27 112/182/28
f 112/182/28 115/304/30 110/184/30
f 109/180/31 107/305/31 114/185/31
f 106/186/32 108/306/32 110/187/32
f 100/307/5 111/190/33 104/189/5
f 111/190/33 112/308/48 105/191/5
f 112/308/48 111/190/33 115/194/35
f 111/190/33 114/192/34 115/194/35
f 115/195/2 117/198/2 116/196/2
f 117/198/36 156/309/36 118/199/36
f 119/200/37 125/212/37 120/201/37
f 122/203/38 126/310/38 123/204/38
f 122/206/39 119/200/39 121/202/39
f 122/208/5 126/311/5 125/209/5
f 123/211/40 120/201/40 125/212/40
f 124/214/6 121/312/6 120/215/6
f 127/217/41 130/313/41 128/218/41
f 130/220/2 132/314/2 131/221/2
f 132/223/42 134/229/42 133/224/42
f 138/315/6 139/316/6 135/317/6
f 139/316/6 129/318/6 133/228/6
f 135/317/6 139/316/6 133/228/6
f 129/318/6 128/226/6 133/228/6
f 134/229/43 137/232/43 135/230/43
f 129/219/44 139/237/44 136/231/44
f 137/232/45 140/319/45 138/233/45
f 127/235/5 136/320/5 134/236/5
f 136/320/5 140/321/5 137/322/5
f 136/320/5 137/322/5 134/236/5
f 132/323/5 130/234/5 134/236/5
f 139/237/46 138/324/46 140/238/46
f 141/239/1 144/242/1 142/240/1
f 144/242/2 146/244/2 145/243/2
f 146/244/3 148/325/3 147/245/3
f 148/246/4 141/326/4 143/247/4
f 148/249/5 146/244/5 144/242/5
f 143/251/6 142/240/6 145/243/6
