# Blender v2.91.0 OBJ File: 'hoth_ceiling_light.blend'
# www.blender.org
mtllib hoth_ceiling_light.mtl
o Cube.001
v 0.375000 0.125000 0.875000
v -0.375000 0.125000 0.875000
v 0.375000 0.125000 -0.875000
v -0.375000 0.125000 -0.875000
v 0.437500 0.000000 0.937500
v -0.437500 0.000000 0.937500
v 0.437500 0.000000 -0.937500
v -0.437500 0.000000 -0.937500
v 0.312500 0.562500 0.812500
v -0.312500 0.562500 0.812500
v -0.312500 0.562500 -0.812500
v 0.312500 0.562500 -0.812500
v 0.375000 0.000000 0.875000
v -0.375000 0.000000 0.875000
v 0.375000 0.000000 -0.875000
v -0.375000 0.000000 -0.875000
v 0.187500 0.562500 0.687500
v -0.187500 0.562500 0.687500
v 0.187500 0.562500 0.625000
v 0.062500 1.000000 0.687500
v -0.062500 1.000000 0.687500
v 0.062500 1.000000 0.625000
v -0.062500 1.000000 0.625000
v -0.187500 0.562500 0.625000
v -0.062500 0.562500 0.687500
v -0.062500 0.562500 0.625000
v 0.062500 0.562500 0.687500
v 0.062500 0.562500 0.625000
v 0.000000 0.812500 0.687500
v 0.000000 0.812500 0.625000
v 0.187500 0.562500 -0.625000
v -0.187500 0.562500 -0.625000
v 0.187500 0.562500 -0.687500
v 0.062500 1.000000 -0.625000
v -0.062500 1.000000 -0.625000
v 0.062500 1.000000 -0.687500
v -0.062500 1.000000 -0.687500
v -0.187500 0.562500 -0.687500
v -0.062500 0.562500 -0.625000
v -0.062500 0.562500 -0.687500
v 0.062500 0.562500 -0.625000
v 0.062500 0.562500 -0.687500
v 0.000000 0.812500 -0.625000
v 0.000000 0.812500 -0.687500
v 0.375000 0.121094 0.875000
v -0.375000 0.121094 0.875000
v 0.375000 0.121094 -0.875000
v -0.375000 0.121094 -0.875000
vt 0.375000 0.882812
vt 0.140625 0.882812
vt 0.140625 0.804688
vt 0.375000 0.804688
vt 0.375000 0.734375
vt 0.484375 0.734375
vt 0.468750 0.804688
vt 0.390625 0.804688
vt 0.031250 0.734375
vt 0.140625 0.734375
vt 0.125000 0.804688
vt 0.046875 0.804688
vt 0.359375 0.804688
vt 0.156250 0.804688
vt 0.718750 0.734375
vt 0.703125 0.804688
vt 0.500000 0.804688
vt 0.132812 0.500000
vt 0.148438 0.500000
vt 0.148438 0.593750
vt 0.132812 0.593750
vt 0.148438 0.609375
vt 0.367188 0.593750
vt 0.367188 0.609375
vt 0.382812 0.593750
vt 0.367188 0.500000
vt 0.382812 0.500000
vt 0.367188 0.484375
vt 0.148438 0.484375
vt 0.375000 0.625000
vt 0.367188 0.726562
vt 0.367188 0.632812
vt 0.140625 0.625000
vt 0.148438 0.632812
vt 0.148438 0.726562
vt 0.375000 0.656250
vt 0.367188 0.664062
vt 0.148438 0.664062
vt 0.140625 0.656250
vt 0.187500 0.898438
vt 0.195312 0.898438
vt 0.195312 0.953125
vt 0.187500 0.953125
vt 0.195312 0.968750
vt 0.187500 0.968750
vt 0.242188 0.898438
vt 0.250000 0.898438
vt 0.250000 0.953125
vt 0.242188 0.953125
vt 0.125000 0.898438
vt 0.132812 0.898438
vt 0.132812 0.929688
vt 0.125000 0.929688
vt 0.109375 0.898438
vt 0.117188 0.898438
vt 0.117188 0.929688
vt 0.109375 0.929688
vt 0.210938 0.898438
vt 0.218750 0.929688
vt 0.210938 0.953125
vt 0.226562 0.953125
vt 0.226562 0.898438
vt 0.156250 0.953125
vt 0.140625 0.898438
vt 0.156250 0.898438
vt 0.164062 0.929688
vt 0.171875 0.953125
vt 0.171875 0.898438
vt 0.312500 0.898438
vt 0.320312 0.898438
vt 0.320312 0.953125
vt 0.312500 0.953125
vt 0.320312 0.968750
vt 0.312500 0.968750
vt 0.367188 0.898438
vt 0.375000 0.898438
vt 0.375000 0.953125
vt 0.367188 0.953125
vt 0.398438 0.898438
vt 0.406250 0.898438
vt 0.406250 0.929688
vt 0.398438 0.929688
vt 0.382812 0.898438
vt 0.390625 0.898438
vt 0.390625 0.929688
vt 0.382812 0.929688
vt 0.335938 0.898438
vt 0.343750 0.929688
vt 0.335938 0.953125
vt 0.351562 0.953125
vt 0.351562 0.898438
vt 0.281250 0.953125
vt 0.265625 0.898438
vt 0.281250 0.898438
vt 0.289062 0.929688
vt 0.296875 0.953125
vt 0.296875 0.898438
vt 0.148438 0.468750
vt 0.148438 0.375000
vt 0.367188 0.375000
vt 0.367188 0.468750
vn 0.0000 1.0000 0.0000
vn 0.0000 0.2169 -0.9762
vn 0.0000 0.2169 0.9762
vn 0.9762 0.2169 0.0000
vn -0.9762 0.2169 -0.0000
vn 0.0000 0.0000 -1.0000
vn -1.0000 0.0000 -0.0000
vn 0.0000 0.0000 1.0000
vn 1.0000 0.0000 0.0000
vn 0.0000 -1.0000 0.0000
vn 0.9615 0.2747 0.0000
vn -0.9615 0.2747 0.0000
vn -0.9701 -0.2425 0.0000
vn 0.9701 -0.2425 0.0000
usemtl MAT_DIFFUSE_CUTOUT
s off
f 11/1/1 10/2/1 9/3/1 12/4/1
f 7/5/2 8/6/2 11/7/2 12/8/2
f 6/9/3 5/10/3 9/11/3 10/12/3
f 5/10/4 7/5/4 12/13/4 9/14/4
f 8/6/5 6/15/5 10/16/5 11/17/5
f 14/18/6 2/19/6 1/20/6 13/21/6
f 13/22/7 1/20/7 3/23/7 15/24/7
f 15/25/8 3/23/8 4/26/8 16/27/8
f 16/28/9 4/26/9 2/19/9 14/29/9
f 2/19/10 4/26/10 3/23/10 1/20/10
f 8/30/10 7/5/10 15/31/10 16/32/10
f 6/33/10 14/34/10 13/35/10 5/10/10
f 5/10/10 13/35/10 15/31/10 7/5/10
f 8/36/10 16/37/10 14/38/10 6/39/10
f 17/40/11 19/41/11 22/42/11 20/43/11
f 23/44/1 21/45/1 20/43/1 22/42/1
f 24/46/12 18/47/12 21/48/12 23/49/12
f 28/50/13 27/51/13 29/52/13 30/53/13
f 25/54/14 26/55/14 30/56/14 29/57/14
f 19/41/6 28/58/6 30/59/6 22/60/6
f 22/60/6 30/59/6 23/61/6
f 23/61/6 30/59/6 26/62/6 24/46/6
f 21/63/8 18/64/8 25/65/8 29/66/8
f 20/67/8 29/66/8 27/68/8 17/40/8
f 21/63/8 29/66/8 20/67/8
f 31/69/11 33/70/11 36/71/11 34/72/11
f 37/73/1 35/74/1 34/72/1 36/71/1
f 38/75/12 32/76/12 35/77/12 37/78/12
f 42/79/13 41/80/13 43/81/13 44/82/13
f 39/83/14 40/84/14 44/85/14 43/86/14
f 33/70/6 42/87/6 44/88/6 36/89/6
f 36/89/6 44/88/6 37/90/6
f 37/90/6 44/88/6 40/91/6 38/75/6
f 35/92/8 32/93/8 39/94/8 43/95/8
f 34/96/8 43/95/8 41/97/8 31/69/8
f 35/92/8 43/95/8 34/96/8
usemtl MAT_EMISSIVE
f 45/98/10 46/99/10 48/100/10 47/101/10
