# Blender v2.81 (sub 16) OBJ File: 'power droids.blend'
# www.blender.org
o body.top_Plane.005
v 9.000000 1.400000 0.250000
v 9.000000 2.100000 0.350000
v 9.900000 2.100000 0.350000
v 9.900001 1.400000 1.750000
v 9.000000 1.400000 1.750000
v 9.900001 1.400000 0.250000
v 9.000000 2.100000 1.650000
v 9.900000 2.100000 1.650000
vt 0.272727 0.754098
vt 0.170455 0.754098
vt 0.170455 0.967213
vt 0.272727 0.967213
vt 0.284091 0.754098
vt 0.431818 0.754098
vt 0.443182 0.639344
vt 0.272727 0.639344
vt 0.170455 0.639344
vt 0.011364 0.754098
vt 0.159091 0.754098
vt 0.000000 0.639344
vt 0.375000 1.000000
vt 0.375000 0.754098
vt 0.272727 0.754098
vt 0.272727 1.000000
vt 0.545455 0.639344
vt 0.443182 0.754098
vt 0.545455 0.754098
vn 0.0000 -1.0000 -0.0000
vn -1.0000 -0.0000 -0.0000
vn 0.0000 -0.1414 -0.9899
vn 1.0000 -0.0000 0.0000
vn 0.0000 1.0000 0.0000
vn 0.0000 -0.1414 0.9899
s off
f 8/1/1 7/2/1 2/3/1 3/4/1
f 8/5/2 3/6/2 6/7/2 4/8/2
f 7/2/3 8/1/3 4/8/3 5/9/3
f 2/10/4 7/11/4 5/9/4 1/12/4
f 4/13/5 6/14/5 1/15/5 5/16/5
f 1/17/6 6/7/6 3/18/6 2/19/6
o leg.r_Cube.110
v 9.100000 0.200000 1.150000
v 9.100000 0.700000 1.150000
v 9.100000 0.200000 0.850000
v 9.100000 0.700000 0.850000
v 9.400002 0.200000 1.150000
v 9.400002 0.700000 1.150000
v 9.400002 0.200000 0.850000
v 9.400002 0.700000 0.850000
v 9.100000 0.200000 1.150000
v 9.100000 0.700000 1.150000
v 9.100000 0.200000 0.850000
v 9.100000 0.700000 0.850000
vt 0.727273 0.147541
vt 0.727273 0.229508
vt 0.693182 0.229508
vt 0.693182 0.147541
vt 0.659091 0.229508
vt 0.659091 0.147541
vt 0.625000 0.229508
vt 0.625000 0.147541
vt 0.659091 0.229508
vt 0.693182 0.229508
vt 0.693182 0.278689
vt 0.659091 0.278689
vt 0.659091 0.278689
vt 0.625000 0.278689
vt 0.625000 0.147541
vt 0.625000 0.229508
vt 0.590909 0.229508
vt 0.590909 0.147541
vn 0.0000 0.0000 -1.0000
vn 1.0000 0.0000 0.0000
vn 0.0000 0.0000 1.0000
vn 0.0000 -1.0000 0.0000
vn 0.0000 1.0000 0.0000
vn -1.0000 0.0000 0.0000
s off
f 11/20/7 12/21/7 16/22/7 15/23/7
f 15/23/8 16/22/8 14/24/8 13/25/8
f 13/25/9 14/24/9 10/26/9 9/27/9
f 11/28/10 15/29/10 13/30/10 9/31/10
f 16/32/11 12/33/11 10/26/11 14/24/11
f 17/34/12 18/35/12 20/36/12 19/37/12
o inside_Cube.112
v 9.100000 0.650000 1.550000
v 9.100000 2.050000 1.550000
v 9.100000 0.650000 0.450000
v 9.100000 2.050000 0.450000
v 9.800001 0.650000 1.550000
v 9.800001 2.050000 1.550000
v 9.800001 0.650000 0.450000
v 9.800001 2.050000 0.450000
vt 0.693182 0.590164
vt 0.693182 0.819672
vt 0.568182 0.819672
vt 0.568182 0.590164
vt 0.977273 0.590164
vt 0.977273 0.819672
vt 0.897727 0.819672
vt 0.897727 0.590164
vt 0.772727 0.819672
vt 0.772727 0.590164
vt 0.772727 0.819672
vt 0.852273 0.819672
vt 0.852273 1.000000
vt 0.772727 1.000000
vt 0.772727 1.000000
vt 0.693182 1.000000
vn -1.0000 0.0000 0.0000
vn 0.0000 0.0000 -1.0000
vn 1.0000 0.0000 0.0000
vn 0.0000 0.0000 1.0000
vn 0.0000 -1.0000 0.0000
vn 0.0000 1.0000 0.0000
s off
f 21/38/13 22/39/13 24/40/13 23/41/13
f 23/42/14 24/43/14 28/44/14 27/45/14
f 27/45/15 28/44/15 26/46/15 25/47/15
f 25/47/16 26/46/16 22/39/16 21/38/16
f 23/48/17 27/49/17 25/50/17 21/51/17
f 28/52/18 24/53/18 22/39/18 26/46/18
o skirt_Plane.000
v 8.950000 1.400000 1.800000
v 9.950001 1.400000 1.800000
v 8.950000 1.400000 0.200000
v 9.950001 1.400000 0.200000
v 8.950000 1.300000 1.800000
v 8.950000 1.300000 0.200000
v 9.950000 1.300000 1.800000
v 9.950000 1.300000 0.200000
vt 0.477273 0.377049
vt 0.590909 0.377049
vt 0.590909 0.360656
vt 0.477273 0.360656
vt -0.000000 0.377049
vt 0.181818 0.377049
vt 0.181818 0.360656
vt -0.000000 0.360656
vt 0.295455 0.377049
vt 0.295455 0.360656
vt 0.181818 0.639344
vt 0.295455 0.639344
vt 0.295455 0.377049
vt 0.295455 0.639344
vt 0.409091 0.639344
vt 0.409091 0.377049
vn 0.0000 -0.0000 1.0000
vn 1.0000 0.0000 0.0000
vn -1.0000 0.0000 0.0000
vn -0.0000 -0.0000 -1.0000
vn 0.0000 -1.0000 0.0000
vn 0.0000 1.0000 -0.0000
s off
f 32/54/19 31/55/19 34/56/19 36/57/19
f 31/58/20 29/59/20 33/60/20 34/61/20
f 30/62/21 32/54/21 36/57/21 35/63/21
f 29/59/22 30/62/22 35/63/22 33/60/22
f 30/62/23 29/59/23 31/64/23 32/65/23
f 34/66/24 33/67/24 35/68/24 36/69/24
o foot.r_Cube.006
v 9.049999 0.000000 1.350000
v 9.049999 0.000000 0.750000
v 9.050000 0.300000 1.350000
v 9.450000 0.000000 1.350000
v 9.450000 0.000000 0.750000
v 9.450001 0.300000 1.350000
v 9.450001 0.300000 0.750000
v 9.050000 0.300000 0.750000
vt 0.659091 0.049180
vt 0.704545 0.049180
vt 0.704545 0.147541
vt 0.659091 0.147541
vt 0.613636 0.000000
vt 0.613636 0.049180
vt 0.545455 0.049180
vt 0.545455 0.000000
vt 0.727273 -0.000000
vt 0.727273 0.049180
vt 0.659091 0.049180
vt 0.659091 -0.000000
vt 0.659091 0.147541
vt 0.613636 0.147541
vt 0.772727 0.000000
vt 0.772727 0.049180
vn 0.0000 -1.0000 0.0000
vn -1.0000 0.0000 0.0000
vn 1.0000 -0.0000 0.0000
vn 0.0000 1.0000 0.0000
vn 0.0000 0.0000 -1.0000
vn 0.0000 -0.0000 1.0000
s off
f 38/70/25 41/71/25 40/72/25 37/73/25
f 37/74/26 39/75/26 44/76/26 38/77/26
f 41/78/27 43/79/27 42/80/27 40/81/27
f 43/82/28 44/83/28 39/75/28 42/80/28
f 38/84/29 44/85/29 43/79/29 41/78/29
f 37/74/30 40/81/30 42/80/30 39/75/30
o body.bottom_Plane.007
v 9.900000 1.300000 0.250000
v 9.900000 0.600000 0.350000
v 9.000000 0.600000 0.350000
v 8.999999 1.300000 1.750000
v 9.900000 1.300000 1.750000
v 8.999999 1.300000 0.250000
v 9.900000 0.600000 1.650000
v 9.000000 0.600000 1.650000
vt 0.272727 0.327869
vt 0.375000 0.327869
vt 0.375000 0.114754
vt 0.272727 0.114754
vt 0.159091 0.000000
vt 0.011364 0.000000
vt 0.000000 0.114754
vt 0.170455 0.114754
vt 0.272727 0.000000
vt 0.170455 0.000000
vt 0.272727 0.114754
vt 0.431818 0.000000
vt 0.284091 0.000000
vt 0.443182 0.114754
vt 0.170455 0.360656
vt 0.272727 0.360656
vt 0.545455 0.114754
vt 0.545455 -0.000000
vt 0.443182 -0.000000
vn 0.0000 1.0000 -0.0000
vn 1.0000 0.0000 0.0000
vn 0.0000 0.1414 -0.9899
vn -1.0000 0.0000 0.0000
vn -0.0000 -1.0000 -0.0000
vn -0.0000 0.1414 0.9899
s off
f 52/86/31 51/87/31 46/88/31 47/89/31
f 52/90/32 47/91/32 50/92/32 48/93/32
f 51/94/33 52/95/33 48/93/33 49/96/33
f 46/97/34 51/98/34 49/96/34 45/99/34
f 48/93/35 50/100/35 45/101/35 49/96/35
f 45/99/36 50/102/36 47/103/36 46/104/36
o leg.l_Cube.010
v 9.500000 0.200000 1.150000
v 9.500000 0.700000 1.150000
v 9.500000 0.200000 0.850000
v 9.500000 0.700000 0.850000
v 9.800001 0.200000 1.150000
v 9.800001 0.700000 1.150000
v 9.800001 0.200000 0.850000
v 9.800001 0.700000 0.850000
v 9.500000 0.200000 1.150000
v 9.500000 0.700000 1.150000
v 9.500000 0.200000 0.850000
v 9.500000 0.700000 0.850000
vt 0.954545 0.147541
vt 0.954545 0.229508
vt 0.920455 0.229508
vt 0.920455 0.147541
vt 0.886364 0.229508
vt 0.886364 0.147541
vt 0.852273 0.229508
vt 0.852273 0.147541
vt 0.886364 0.229508
vt 0.920455 0.229508
vt 0.920455 0.278689
vt 0.886364 0.278689
vt 0.886364 0.278689
vt 0.852273 0.278689
vt 0.852273 0.147541
vt 0.852273 0.229508
vt 0.818182 0.229508
vt 0.818182 0.147541
vn 0.0000 0.0000 -1.0000
vn 1.0000 0.0000 0.0000
vn 0.0000 0.0000 1.0000
vn 0.0000 -1.0000 0.0000
vn 0.0000 1.0000 0.0000
vn -1.0000 0.0000 0.0000
s off
f 55/105/37 56/106/37 60/107/37 59/108/37
f 59/108/38 60/107/38 58/109/38 57/110/38
f 57/110/39 58/109/39 54/111/39 53/112/39
f 55/113/40 59/114/40 57/115/40 53/116/40
f 60/117/41 56/118/41 54/111/41 58/109/41
f 61/119/42 62/120/42 64/121/42 63/122/42
o foot.l_Cube.011
v 9.449999 0.000000 1.350000
v 9.449999 0.000000 0.750000
v 9.450000 0.300000 1.350000
v 9.849999 0.000000 1.350000
v 9.849999 0.000000 0.750000
v 9.850000 0.300000 1.350000
v 9.850000 0.300000 0.750000
v 9.450000 0.300000 0.750000
vt 0.886364 0.049180
vt 0.931818 0.049180
vt 0.931818 0.147541
vt 0.886364 0.147541
vt 0.840909 0.000000
vt 0.840909 0.049180
vt 0.772727 0.049180
vt 0.772727 0.000000
vt 0.954545 0.000000
vt 0.954545 0.049180
vt 0.886364 0.049180
vt 0.886364 0.000000
vt 0.886364 0.147541
vt 0.840909 0.147541
vt 1.000000 0.000000
vt 1.000000 0.049180
vn 0.0000 -1.0000 0.0000
vn -1.0000 0.0000 0.0000
vn 1.0000 -0.0000 0.0000
vn 0.0000 1.0000 0.0000
vn 0.0000 0.0000 -1.0000
vn 0.0000 -0.0000 1.0000
s off
f 66/123/43 69/124/43 68/125/43 65/126/43
f 65/127/44 67/128/44 72/129/44 66/130/44
f 69/131/45 71/132/45 70/133/45 68/134/45
f 71/135/46 72/136/46 67/128/46 70/133/46
f 66/137/47 72/138/47 71/132/47 69/131/47
f 65/127/48 68/134/48 70/133/48 67/128/48
o tube.l_Plane
v 9.799999 0.300000 1.000000
v 10.000000 0.300000 1.000000
v 9.799999 0.600000 1.000000
v 10.000000 0.600000 1.000000
vt 0.886364 0.311475
vt 0.909091 0.311475
vt 0.909091 0.360656
vt 0.886364 0.360656
vn 0.0000 0.0000 1.0000
s off
f 73/139/49 74/140/49 76/141/49 75/142/49
o tube.r_Plane.006
v 8.900000 0.300000 1.000000
v 9.100000 0.300000 1.000000
v 8.900000 0.600000 1.000000
v 9.100000 0.600000 1.000000
vt 0.636364 0.311475
vt 0.659091 0.311475
vt 0.659091 0.360656
vt 0.636364 0.360656
vn 0.0000 0.0000 1.0000
s off
f 77/143/50 78/144/50 80/145/50 79/146/50
