# Blender v3.4.1 OBJ File: 'casing.blend'
# www.blender.org
mtllib casing.mtl
o canister_Cube.007
v -0.150000 0.333333 0.150000
v -0.150000 0.533333 0.150000
v -0.150000 0.333333 -0.150000
v -0.150000 0.533333 -0.150000
v 0.150000 0.333333 0.150000
v 0.150000 0.533333 0.150000
v 0.150000 0.333333 -0.150000
v 0.150000 0.533333 -0.150000
v -0.100000 -0.166666 0.100000
v -0.100000 0.333333 0.100000
v -0.100000 -0.166666 -0.100000
v -0.100000 0.333333 -0.100000
v 0.100000 -0.166666 0.100000
v 0.100000 0.333333 0.100000
v 0.100000 -0.166666 -0.100000
v 0.100000 0.333333 -0.100000
v -0.150000 -0.366667 0.150000
v -0.150000 -0.166666 0.150000
v -0.150000 -0.366667 -0.150000
v -0.150000 -0.166666 -0.150000
v 0.150000 -0.366667 0.150000
v 0.150000 -0.166666 0.150000
v 0.150000 -0.366667 -0.150000
v 0.150000 -0.166666 -0.150000
v -0.100000 -0.466667 0.100000
v -0.100000 -0.366667 0.100000
v -0.100000 -0.466667 -0.100000
v -0.100000 -0.366667 -0.100000
v 0.100000 -0.466667 0.100000
v 0.100000 -0.366667 0.100000
v 0.100000 -0.466667 -0.100000
v 0.100000 -0.366667 -0.100000
v -0.000000 -0.166666 0.150000
v 0.000000 0.333333 0.150000
v -0.000000 -0.166666 0.100000
v 0.000000 0.333333 0.100000
v -0.000000 -0.166667 -0.100000
v 0.000000 0.333333 -0.100000
v -0.000000 -0.166667 -0.150000
v 0.000000 0.333333 -0.150000
v 0.100000 -0.166667 0.000000
v 0.100000 0.333333 0.000000
v 0.150000 -0.166667 0.000000
v 0.150000 0.333333 0.000000
v -0.150000 -0.166667 0.000000
v -0.150000 0.333333 0.000000
v -0.100000 -0.166667 0.000000
v -0.100000 0.333333 0.000000
vt -0.000000 0.843750
vt 0.062500 0.843750
vt 0.062500 0.937500
vt -0.000000 0.937500
vt 0.062500 1.000000
vt 0.156250 0.937500
vt 0.156250 1.000000
vt 0.218750 0.937500
vt 0.156250 0.843750
vt 0.218750 0.843750
vt 0.156250 0.781250
vt 0.062500 0.781250
vt 0.062500 0.687500
vt 0.156250 0.687500
vt 0.250000 0.500000
vt 0.250000 0.656250
vt 0.187500 0.656250
vt 0.187500 0.500000
vt 0.125000 0.656250
vt 0.125000 0.500000
vt 0.062500 0.656250
vt 0.062500 0.500000
vt 0.000000 0.656250
vt 0.000000 0.500000
vt 0.000000 0.031250
vt 0.000000 0.031250
vt 0.000000 0.031250
vt 0.000000 0.031250
vt 0.000000 0.031250
vt 0.000000 0.031250
vt 0.000000 0.031250
vt 0.000000 0.031250
vt 0.000000 0.312500
vt 0.062500 0.312500
vt 0.062500 0.406250
vt 0.000000 0.406250
vt 0.062500 0.468750
vt 0.156250 0.406250
vt 0.156250 0.468750
vt 0.218750 0.406250
vt 0.156250 0.312500
vt 0.218750 0.312500
vt 0.156250 0.250000
vt 0.062500 0.250000
vt 0.062500 0.156250
vt 0.156250 0.156250
vt 0.281250 0.312500
vt 0.250000 0.312500
vt 0.250000 0.375000
vt 0.281250 0.375000
vt 0.281250 0.406250
vt 0.343750 0.406250
vt 0.343750 0.375000
vt 0.375000 0.375000
vt 0.375000 0.312500
vt 0.343750 0.312500
vt 0.343750 0.281250
vt 0.281250 0.281250
vt 0.000000 0.031250
vt 0.000000 0.031250
vt 0.000000 0.031250
vt 0.000000 0.031250
vt 0.312500 0.656250
vt 0.312500 0.500000
vt 0.343750 0.500000
vt 0.343750 0.656250
vt 0.312500 0.656250
vt 0.312500 0.500000
vt 0.343750 0.500000
vt 0.343750 0.656250
vt 0.312500 0.656250
vt 0.312500 0.500000
vt 0.343750 0.500000
vt 0.343750 0.656250
vt 0.312500 0.656250
vt 0.312500 0.500000
vt 0.343750 0.500000
vt 0.343750 0.656250
vn -1.0000 0.0000 0.0000
vn 0.0000 0.0000 -1.0000
vn 1.0000 0.0000 0.0000
vn 0.0000 0.0000 1.0000
vn 0.0000 -1.0000 0.0000
vn 0.0000 1.0000 0.0000
usemtl Material.001
s off
f 1/1/1 2/2/1 4/3/1 3/4/1
f 3/5/2 4/3/2 8/6/2 7/7/2
f 7/8/3 8/6/3 6/9/3 5/10/3
f 5/11/4 6/9/4 2/2/4 1/12/4
f 3/13/5 7/14/5 5/11/5 1/12/5
f 8/6/6 4/3/6 2/2/6 6/9/6
f 9/15/1 10/16/1 12/17/1 11/18/1
f 11/18/2 12/17/2 16/19/2 15/20/2
f 15/20/3 16/19/3 14/21/3 13/22/3
f 13/22/4 14/21/4 10/23/4 9/24/4
f 11/25/5 15/26/5 13/27/5 9/28/5
f 16/29/6 12/30/6 10/31/6 14/32/6
f 17/33/1 18/34/1 20/35/1 19/36/1
f 19/37/2 20/35/2 24/38/2 23/39/2
f 23/40/3 24/38/3 22/41/3 21/42/3
f 21/43/4 22/41/4 18/34/4 17/44/4
f 19/45/5 23/46/5 21/43/5 17/44/5
f 24/38/6 20/35/6 18/34/6 22/41/6
f 25/47/1 26/48/1 28/49/1 27/50/1
f 27/50/2 28/51/2 32/52/2 31/53/2
f 31/53/3 32/54/3 30/55/3 29/56/3
f 29/56/4 30/57/4 26/58/4 25/47/4
f 27/50/5 31/53/5 29/56/5 25/47/5
f 32/59/6 28/60/6 26/61/6 30/62/6
f 33/63/1 34/64/1 36/65/1 35/66/1
f 37/67/1 38/68/1 40/69/1 39/70/1
f 41/71/2 42/72/2 44/73/2 43/74/2
f 45/75/2 46/76/2 48/77/2 47/78/2
