# Blender v2.80 (sub 75) OBJ File: 'Obiwan.blend'
# www.blender.org
mtllib Obiwan.mtl
o Plane.002
v 0.150000 -0.460000 -0.150000
v -0.150000 -0.460000 -0.150000
v 0.150000 -0.560000 -0.150000
v -0.150000 -0.560000 -0.150000
v -0.150000 -2.160000 0.150000
v -0.150000 -2.160000 -0.150000
v 0.150000 -2.160000 0.150000
v 0.150000 -2.160000 -0.150000
v 0.200000 -2.160000 -0.200000
v 0.200000 -2.160000 0.200000
v -0.200000 -2.160000 -0.200000
v -0.200000 -2.160000 0.200000
v 0.200000 -2.460000 -0.200000
v 0.200000 -2.460000 0.200000
v -0.200000 -2.460000 -0.200000
v -0.200000 -2.460000 0.200000
v -0.150000 -0.060000 0.150000
v -0.150000 -0.060000 -0.150000
v 0.150000 -0.336717 0.150000
v 0.150000 -0.336717 -0.150000
v 0.150000 -0.060000 0.150000
v 0.150000 -0.060000 -0.150000
v -0.150000 -0.336717 -0.150000
v -0.150000 -0.336717 0.150000
v 0.150000 -0.460000 0.150000
v 0.150000 -0.460000 -0.150000
v -0.150000 -0.460000 -0.150000
v -0.150000 -0.460000 0.150000
v 0.150000 -0.560000 -0.150000
v 0.150000 -0.560000 0.150000
v -0.150000 -0.560000 -0.150000
v -0.150000 -0.560000 0.150000
v 0.200000 0.000000 -0.200000
v 0.200000 -0.000000 0.200000
v -0.200000 0.000000 -0.200000
v -0.200000 -0.000000 0.200000
v 0.200000 -0.100000 -0.200000
v 0.200000 -0.100000 0.200000
v -0.200000 -0.100000 -0.200000
v -0.200000 -0.100000 0.200000
v 0.100000 -0.306717 0.093782
v 0.100000 -0.306717 -0.106281
v -0.100000 -0.306717 -0.106281
v -0.100000 -0.306717 0.093782
v 0.100000 -0.506717 -0.106281
v 0.100000 -0.506717 0.093782
v -0.100000 -0.506717 -0.106281
v -0.100000 -0.506717 0.093782
v 0.100000 -0.460000 -0.106282
v 0.100000 -0.460000 0.093782
v -0.100000 -0.460000 -0.106282
v -0.100000 -0.460000 0.093782
v 0.100000 -0.659908 -0.106282
v 0.100000 -0.659908 0.093782
v -0.100000 -0.659908 -0.106282
v -0.100000 -0.659908 0.093782
v 0.099944 -1.359908 0.150000
v -0.099944 -1.359908 0.150000
v 0.099944 -1.860000 0.150000
v -0.099944 -1.860000 0.150000
v 0.099944 -1.359908 0.250000
v -0.099944 -1.359908 0.250000
v 0.099944 -1.860000 0.250000
v -0.099944 -1.860000 0.250000
v 0.150000 -0.659908 -0.150000
v 0.150000 -0.659908 0.150000
v -0.150000 -0.659908 -0.150000
v -0.150000 -0.659908 0.150000
vt 0.843750 0.656250
vt 0.843750 0.750000
vt 0.812500 0.750000
vt 0.812500 0.656250
vt 0.125000 0.031250
vt 0.218750 0.031250
vt 0.218750 0.500000
vt 0.125000 0.500000
vt 0.031250 0.031250
vt 0.031250 0.500000
vt 0.562500 0.156250
vt 0.562500 0.031250
vt 0.687500 0.031250
vt 0.687500 0.156250
vt 0.562500 0.250000
vt 0.687500 0.250000
vt 0.687500 0.375000
vt 0.562500 0.375000
vt 0.468750 0.375000
vt 0.468750 0.250000
vt 0.687500 0.468750
vt 0.562500 0.468750
vt 0.781250 0.250000
vt 0.781250 0.375000
vt 0.187500 0.812500
vt 0.187500 0.718750
vt 0.250000 0.718750
vt 0.250000 0.812500
vt 0.093750 0.718750
vt 0.093750 0.812500
vt 0.031250 0.812500
vt 0.031250 0.718750
vt 0.093750 0.656250
vt 0.187500 0.656250
vt 0.187500 0.875000
vt 0.093750 0.875000
vt 0.718750 0.656250
vt 0.812500 0.656250
vt 0.812500 0.750000
vt 0.718750 0.750000
vt 0.718750 0.625000
vt 0.718750 0.531250
vt 0.812500 0.531250
vt 0.812500 0.625000
vt 0.812500 0.781250
vt 0.718750 0.781250
vt 0.687500 0.750000
vt 0.687500 0.656250
vt 0.625000 0.687500
vt 0.625000 0.812500
vt 0.500000 0.812500
vt 0.500000 0.687500
vt 0.625000 0.656250
vt 0.500000 0.656250
vt 0.500000 0.531250
vt 0.625000 0.531250
vt 0.468750 0.812500
vt 0.468750 0.687500
vt 0.656250 0.687500
vt 0.656250 0.812500
vt 0.625000 0.843750
vt 0.500000 0.843750
vt 0.687500 0.812500
vt 0.750000 0.812500
vt 0.750000 0.875000
vt 0.687500 0.875000
vt 0.375000 0.750000
vt 0.375000 0.812500
vt 0.312500 0.812500
vt 0.312500 0.750000
vt 0.875000 0.875000
vt 0.812500 0.875000
vt 0.812500 0.812500
vt 0.875000 0.812500
vt 0.375000 0.656250
vt 0.375000 0.718750
vt 0.312500 0.718750
vt 0.312500 0.656250
vt 0.968750 0.593750
vt 0.906250 0.593750
vt 0.906250 0.531250
vt 0.968750 0.531250
vt 0.468750 0.906250
vt 0.531250 0.906250
vt 0.531250 0.968750
vt 0.468750 0.968750
vt 0.562500 0.906250
vt 0.625000 0.906250
vt 0.625000 0.968750
vt 0.562500 0.968750
vt 0.375000 0.875000
vt 0.375000 0.937500
vt 0.312500 0.937500
vt 0.312500 0.875000
vt 0.937500 0.218750
vt 0.875000 0.218750
vt 0.875000 0.062500
vt 0.937500 0.062500
vt 0.812500 0.218750
vt 0.812500 0.062500
vt 0.937500 0.250000
vt 0.875000 0.250000
vt 0.968750 0.062500
vt 0.968750 0.218750
vt 0.875000 0.031250
vt 0.937500 0.031250
vt 0.218750 0.593750
vt 0.125000 0.593750
vt 0.312500 0.031250
vt 0.406250 0.031250
vt 0.406250 0.500000
vt 0.312500 0.500000
vn 0.0000 0.0000 -1.0000
vn 0.0000 -0.0000 1.0000
vn -1.0000 0.0000 0.0000
vn 0.0000 1.0000 0.0000
vn 0.0000 -1.0000 0.0000
vn 1.0000 0.0000 0.0000
usemtl MAT_DIFFUSE_CUTOUT
s off
f 2/1/1 1/2/1 3/3/1 4/4/1
f 5/5/2 7/6/2 66/7/2 68/8/2
f 6/9/3 5/5/3 68/8/3 67/10/3
f 10/11/4 9/12/4 11/13/4 12/14/4
f 14/15/5 16/16/5 15/17/5 13/18/5
f 9/19/6 10/20/6 14/15/6 13/18/6
f 11/21/1 9/22/1 13/18/1 15/17/1
f 12/23/3 11/24/3 15/17/3 16/16/3
f 10/11/2 12/14/2 16/16/2 14/15/2
f 24/25/2 19/26/2 21/27/2 17/28/2
f 20/29/1 23/30/1 18/31/1 22/32/1
f 19/26/6 20/29/6 22/33/6 21/34/6
f 19/26/5 24/25/5 23/30/5 20/29/5
f 23/30/3 24/25/3 17/35/3 18/36/3
f 25/37/4 26/38/4 27/39/4 28/40/4
f 30/41/5 32/42/5 31/43/5 29/44/5
f 28/40/3 27/39/3 31/45/3 32/46/3
f 25/37/2 28/40/2 32/47/2 30/48/2
f 26/38/6 25/37/6 30/41/6 29/44/6
f 33/49/4 35/50/4 36/51/4 34/52/4
f 37/53/5 38/54/5 40/55/5 39/56/5
f 34/52/2 36/51/2 40/57/2 38/58/2
f 33/49/6 34/52/6 38/54/6 37/53/6
f 35/50/1 33/49/1 37/59/1 39/60/1
f 36/51/3 35/50/3 39/61/3 40/62/3
f 41/63/2 44/64/2 48/65/2 46/66/2
f 42/67/6 41/68/6 46/69/6 45/70/6
f 43/71/1 42/72/1 45/73/1 47/74/1
f 44/75/3 43/76/3 47/77/3 48/78/3
f 51/79/1 49/80/1 53/81/1 55/82/1
f 52/83/3 51/84/3 55/85/3 56/86/3
f 50/87/2 52/88/2 56/89/2 54/90/2
f 49/91/6 50/92/6 54/93/6 53/94/6
f 61/95/2 62/96/2 64/97/2 63/98/2
f 58/99/3 60/100/3 64/97/3 62/96/3
f 57/101/4 58/102/4 62/96/4 61/95/4
f 59/103/6 57/104/6 61/95/6 63/98/6
f 60/105/5 59/106/5 63/98/5 64/97/5
f 66/7/4 65/107/4 67/108/4 68/8/4
f 8/109/1 6/110/1 67/111/1 65/112/1
f 8/109/6 65/112/6 66/7/6 7/6/6
