<?xml version="1.0" encoding="utf-8"?>
<!-- Generator: Adobe Illustrator 27.2.0, SVG Export Plug-In . SVG Version: 6.00 Build 0)  -->
<svg version="1.1" id="Layer_1" xmlns="http://www.w3.org/2000/svg" x="0px"
	 y="0px"
	 viewBox="0 0 120 120" style="enable-background:new 0 0 120 120;" xml:space="preserve">
<path d="M93.5,5.1L26.5,17c-8.5,1.5-15.4,9.6-15.4,18.2v67c0,8.5,6.9,14.2,15.4,12.7l67-11.8c8.5-1.5,15.4-9.7,15.4-18.2v-67
	C108.9,9.3,102,3.6,93.5,5.1z M102.1,86.1c0,4.7-3.8,9.2-8.6,10.1l-67,11.9c-4.7,0.8-8.6-2.3-8.6-7.1V34c0-4.7,3.8-9.3,8.6-10.1
	l67-11.9c4.7-0.8,8.6,2.3,8.6,7V86.1z M26.2,70.7l25.1-4.6l41.8,18.2L72.9,88L50.6,77.7L37.5,80v14.4l-11.3,2V70.7z M93.8,26.6
	 M49.9,45.9l-12.4,2.2V33.8l-11.3,2v25.8L52,56.9l41.8-33.3l-21.6,3.9L49.9,45.9z"/>
</svg>
