<?xml version="1.0" encoding="utf-8"?>
<!-- Generator: Adobe Illustrator 27.2.0, SVG Export Plug-In . SVG Version: 6.00 Build 0)  -->
<svg version="1.1" id="Layer_1" xmlns="http://www.w3.org/2000/svg" x="0px"
     y="0px"
     viewBox="0 0 120 120" style="enable-background:new 0 0 120 120;" xml:space="preserve">
<path d="M33.1,29.7l1.8,7.9c-9.2,0-31.7,0-31.7,0c4.8,15.7,25.6,16.6,39.3,17.7c0,0,5.8,15.6,5.8,15.6h3.2l1.8,5h-2.6l-4.5,14.5
	h44.1l-4.5-14.5h-2.6l1.8-5h3.2c0.8-12.4,12.6-31.2,28.5-31.9v-9.2H33.1z M77.4,69.5c-2.6,1.6-7,1.5-7.7,4.5
	c-3.3-6.4-6-1.8-12.4-7.4c-4.4-4.7-3.6-10.6,2.1-12.9c-3.3,3.7,3.6,11.4,6.6,4.2C68.1,53,60,50.6,63.7,46c0.1,2.5,5.4,2.8,4,1.1
	c-2.8-3.7-1.6-11.5,8.2-11.3c-2.1,0.3-4.5,1.6-5.3,3.7c-1.8,4.5,2.9,7.7,4.2,11.9c-2.4-0.8-3.5,3.6-1.1,4c1.2,0.3,2.2-1,1.8-2.1
	c1.1,1.2,0.5,3.6-0.3,4.7c-5.9,8.9,6.4,6,1.8-1.3C80.5,58.5,82.4,66.5,77.4,69.5z"/>
</svg>
