<?xml version="1.0" encoding="utf-8"?>
<!-- Generator: Adobe Illustrator 27.2.0, SVG Export Plug-In . SVG Version: 6.00 Build 0)  -->
<svg version="1.1" id="Layer_1" xmlns="http://www.w3.org/2000/svg" x="0px"
	 y="0px"
	 viewBox="0 0 30.7 23.2" style="enable-background:new 0 0 30.7 23.2;" xml:space="preserve">
<g>
	<path d="M23.1,4.6c-1.5-0.7-3-1.1-4.6-1.5c-0.2,0.3-0.4,0.9-0.6,1.2c-1.7-0.3-3.4-0.3-5.1,0c-0.2-0.3-0.4-0.9-0.6-1.2
		c-1.5,0.3-3.1,0.8-4.5,1.5c-2.9,4.3-3.7,8.5-3.3,12.7c2,1.4,3.8,2.2,5.7,2.8c0.4-0.6,0.9-1.3,1.2-2c-0.7-0.3-1.3-0.5-1.9-0.9
		c0.2-0.1,0.3-0.3,0.4-0.3c3.7,1.7,7.6,1.7,11.3,0c0.2,0.1,0.3,0.3,0.4,0.3c-0.6,0.3-1.2,0.7-1.9,0.9c0.3,0.7,0.8,1.4,1.2,2
		c1.8-0.6,3.7-1.5,5.7-2.8C26.9,12.5,25.6,8.3,23.1,4.6z M11.6,14.7c-1.1,0-2-1-2-2.2s0.9-2.2,2-2.2s2.1,1,2,2.2
		C13.7,13.7,12.8,14.7,11.6,14.7z M19.1,14.7c-1.1,0-2-1-2-2.2s0.9-2.2,2-2.2s2.1,1,2,2.2C21.1,13.7,20.2,14.7,19.1,14.7z"/>
</g>
</svg>
