<?xml version="1.0" encoding="utf-8"?>
<!-- Generator: Adobe Illustrator 27.2.0, SVG Export Plug-In . SVG Version: 6.00 Build 0)  -->
<svg version="1.1" id="Layer_3" xmlns="http://www.w3.org/2000/svg" x="0px"
     y="0px"
     viewBox="0 0 15 16" style="enable-background:new 0 0 15 16;" xml:space="preserve">
<g>
	<path d="M11.2,8L7.1,3.9L1.8,9.2c-0.4,0.4-0.5,1-0.2,1.3L6.2,15c0.3,0.3,0.9,0.2,1.3-0.2c0.4-0.4,0.5-1,0.2-1.3L7,12.9l4.7-4.7
		C11.5,8.2,11.3,8.2,11.2,8z M7.9,11c-0.1,0.1-0.2,0.1-0.4,0.1s-0.3,0-0.4-0.1L4.4,8.2C4.2,8,4.2,7.7,4.4,7.5s0.5-0.2,0.7,0l2.7,2.7
		C8.1,10.5,8.1,10.8,7.9,11z M10,8.8C9.9,8.9,9.8,9,9.7,9s-0.3,0-0.4-0.1L6.6,6.1c-0.2-0.2-0.2-0.5,0-0.7s0.5-0.2,0.7,0L10,8.1
		C10.2,8.3,10.2,8.6,10,8.8z"/>
    <path d="M13,5.8L8.5,1.3C8.2,1,7.6,1,7.2,1.4c-0.4,0.4-0.5,1-0.2,1.3l0.6,0.6l4.1,4.1c0.2,0.2,0.6,0.2,0.9-0.1
		c0-0.1,0.2-0.2,0.2-0.2C13.3,6.7,13.3,6.1,13,5.8z"/>
</g>
</svg>
