<?xml version="1.0" encoding="utf-8"?>
<!-- Generator: Adobe Illustrator 27.2.0, SVG Export Plug-In . SVG Version: 6.00 Build 0)  -->
<svg version="1.1" id="Layer_1" xmlns="http://www.w3.org/2000/svg" x="0px"
     y="0px"
     viewBox="0 0 120 120" style="enable-background:new 0 0 120 120;" xml:space="preserve">
<style type="text/css">
	.st0{fill-rule:evenodd;clip-rule:evenodd;}
</style>
    <path class="st0" d="M60,12c-27,0-48.9,22-48.9,49.2c0,21.8,14,40.2,33.4,46.7c2.4,0.5,3.3-1.1,3.3-2.4c0-1.1-0.1-5.1-0.1-9.1
	c-13.6,2.9-16.4-5.9-16.4-5.9c-2.2-5.7-5.4-7.2-5.4-7.2c-4.4-3,0.3-3,0.3-3c4.9,0.3,7.5,5.1,7.5,5.1c4.4,7.5,11.4,5.4,14.2,4.1
	c0.4-3.2,1.7-5.4,3.1-6.6c-10.8-1.1-22.2-5.4-22.2-24.3c0-5.4,1.9-9.8,5-13.2c-0.5-1.2-2.2-6.3,0.5-13c0,0,4.1-1.3,13.4,5.1
	c4-1.1,8.1-1.6,12.2-1.6c4.1,0,8.3,0.6,12.2,1.6c9.3-6.4,13.4-5.1,13.4-5.1c2.7,6.8,1,11.8,0.5,13c3.2,3.4,5,7.8,5,13.2
	c0,18.9-11.4,23.1-22.3,24.3c1.8,1.5,3.3,4.5,3.3,9.1c0,6.6-0.1,11.9-0.1,13.5c0,1.3,0.9,2.9,3.3,2.4c19.4-6.5,33.4-24.9,33.4-46.7
	C108.9,34,87,12,60,12z"/>
</svg>
