<?xml version="1.0" encoding="utf-8"?>
<!-- Generator: Adobe Illustrator 27.2.0, SVG Export Plug-In . SVG Version: 6.00 Build 0)  -->
<svg version="1.1" id="Layer_1" xmlns="http://www.w3.org/2000/svg" x="0px"
     y="0px"
     viewBox="0 0 120 120" style="enable-background:new 0 0 120 120;" xml:space="preserve">
<path d="M45.5,90.1c0,0-4.2,2.5,3,3.3c8.7,1,13.2,0.9,22.8-1c0,0,2.5,1.6,6.1,3C55.8,104.7,28.6,94.9,45.5,90.1 M42.9,78.1
	c0,0-4.7,3.5,2.5,4.2c9.3,1,16.7,1,29.5-1.4c0,0,1.8,1.8,4.5,2.8C53.3,91.3,24.2,84.3,42.9,78.1 M65.1,57.6
	c5.3,6.1-1.4,11.6-1.4,11.6s13.5-7,7.3-15.7c-5.8-8.1-10.2-12.2,13.8-26.1C84.9,27.4,47.1,36.8,65.1,57.6 M93.7,99.1
	c0,0,3.1,2.6-3.4,4.6c-12.5,3.8-51.9,4.9-62.8,0.2c-3.9-1.7,3.4-4.1,5.8-4.6c2.4-0.5,3.8-0.4,3.8-0.4c-4.4-3.1-28.3,6.1-12.1,8.7
	C68.9,114.6,105.1,104.2,93.7,99.1 M47.6,65.6c0,0-20,4.8-7.1,6.5c5.5,0.7,16.4,0.6,26.5-0.3c8.3-0.7,16.6-2.2,16.6-2.2
	s-2.9,1.3-5,2.7c-20.4,5.4-59.7,2.9-48.4-2.6C39.8,65,47.6,65.6,47.6,65.6 M83.5,85.7C104.2,74.9,94.6,64.6,88,66
	c-1.6,0.3-2.4,0.6-2.4,0.6s0.6-1,1.8-1.4c13.2-4.6,23.4,13.7-4.3,21C83.1,86.2,83.4,85.9,83.5,85.7 M71,4.9c0,0,11.5,11.5-10.9,29.1
	c-17.9,14.1-4.1,22.2,0,31.4c-10.5-9.4-18.1-17.7-13-25.5C54.7,28.6,75.7,23.1,71,4.9 M49.6,114.8c19.9,1.3,50.4-0.7,51.1-10.1
	c0,0-1.4,3.6-16.4,6.4c-17,3.2-37.9,2.8-50.3,0.8C34,111.9,36.5,114,49.6,114.8"/>
</svg>
