<?xml version="1.0" encoding="utf-8"?>
<!-- Generator: Adobe Illustrator 27.2.0, SVG Export Plug-In . SVG Version: 6.00 Build 0)  -->
<svg version="1.1" id="Layer_1" xmlns="http://www.w3.org/2000/svg" x="0px"
     y="0px"
     viewBox="0 0 120 120" style="enable-background:new 0 0 120 120;" xml:space="preserve">
<g>
	<path d="M69.2,71.02V59.55l17.76-3.14v28.37l-25.15,4.45c-6.16,1.09-11.72,0.98-16.7-0.33c-4.98-1.31-8.9-3.89-11.77-7.76
		c-2.87-3.87-4.3-8.97-4.3-15.31c0-4.45,0.86-8.58,2.57-12.38c1.72-3.8,4.09-7.13,7.13-9.99c3.04-2.86,6.53-5.2,10.47-7.04
		c3.94-1.84,8.14-3.15,12.6-3.94l15.56-2.75l9.59-1.7v16.9L69.2,48.07c-3.98,0.7-6.93,1.34-8.84,1.92
		c-1.91,0.58-3.62,1.27-5.11,2.08c-1.49,0.81-2.82,2-3.97,3.57c-1.15,1.57-1.82,4.09-2,7.59c0.13,3.33,0.8,5.61,2,6.84
		c1.21,1.23,2.67,1.92,4.4,2.09c1.73,0.17,3.51,0.18,5.34,0.04C62.86,72.05,65.58,71.66,69.2,71.02z"/>
</g>
    <path d="M93.5,5.14L26.5,17c-8.51,1.51-15.43,9.65-15.43,18.16v67c0,8.51,6.92,14.2,15.43,12.7l67-11.85
	c8.51-1.5,15.43-9.65,15.43-18.16v-67C108.93,9.34,102.01,3.64,93.5,5.14z M102.07,86.06c0,4.73-3.84,9.25-8.57,10.09L26.5,108
	c-4.73,0.84-8.57-2.33-8.57-7.05v-67c0-4.73,3.84-9.25,8.57-10.09L93.5,12c4.73-0.84,8.57,2.33,8.57,7.05V86.06z"/>
</svg>
