<?xml version="1.0" encoding="utf-8"?>
<!-- Generator: Adobe Illustrator 27.2.0, SVG Export Plug-In . SVG Version: 6.00 Build 0)  -->
<svg version="1.1" id="Layer_1" xmlns="http://www.w3.org/2000/svg" x="0px"
     y="0px"
     viewBox="0 0 120 120" style="enable-background:new 0 0 120 120;" xml:space="preserve">
<g>
	<path d="M104.6,32.8l-43.3-25c-0.8-0.4-1.7-0.4-2.5,0l-43.3,25c0,0,0,0-0.1,0.1c-0.1,0.1-0.3,0.2-0.4,0.3c0,0-0.1,0.1-0.1,0.1
		c-0.1,0.1-0.3,0.3-0.4,0.5c0,0,0,0,0,0c-0.1,0.2-0.2,0.4-0.2,0.6c-0.1,0.2-0.1,0.4-0.1,0.6c0,0,0,0,0,0v50c0,0.9,0.5,1.7,1.2,2.2
		l43.3,25c0.4,0.2,0.8,0.3,1.2,0.3s0.9-0.1,1.2-0.3l43.3-25c0.8-0.4,1.2-1.3,1.2-2.2V35C105.8,34.1,105.3,33.3,104.6,32.8z
		 M57.5,105.7L19.2,83.6V39.3l38.3,22.1V105.7z M60,57.1L21.7,35L60,12.9L98.3,35L60,57.1z M100.8,83.6l-38.3,22.1V61.4l38.3-22.1
		V83.6z"/>
    <path d="M33.5,75l6.4,3.7c6.5,3.8,12,3.6,12-3.6c0-6.3-4.8-13-11.8-17l-13.7-7.9v33.1l7.2,4.1V75z M33.5,59.9l5.6,3.2
		c3,1.7,5.5,4.4,5.5,7.9c0,3.4-2.3,3.3-5.6,1.4l-5.5-3.1V59.9z"/>
    <path d="M73.5,26.5c-7.9-4.5-14.8-3.6-18.6-1.9l6.5,3.7c1.7-0.6,4-1.1,7.2,0.8c2.7,1.6,2.7,3,0.8,4.1c-2.3,1.3-4.5,1.1-7.6-0.7
		l-2.5-1.4l-4.6,2.7l2.8,1.6c3.7,2.1,3.6,3.8,1.1,5.3c-2.4,1.4-5.8,1.5-8.9-0.3c-3.2-1.9-3.1-3.6-1.6-5l-6.6-3.8
		c-3.3,2.3-4.9,6.5,3.5,11.3c9,5.2,16.5,4,20.5,1.7c4.3-2.5,2.9-5.2,1.5-6.8l0.1-0.1c2.4,0.6,6.2,0.9,9.5-1
		C80.4,34.7,80.8,30.7,73.5,26.5z"/>
    <path d="M97.9,62.8c0-9.8-6.3-12.5-15.9-6.9l-13.1,7.6v33.1l12.8-7.4C91.8,83.2,97.9,72.4,97.9,62.8z M76,86.6V65l5.4-3.1
		c6.5-3.7,9.1-0.3,9.1,5.1c0,6.4-2.8,12.8-9.1,16.4L76,86.6z"/>
</g>
</svg>
