# Blender 3.3.1
# www.blender.org
mtllib cal_kestis.mtl
o body
v -0.150000 -2.200000 0.150000
v -0.150000 -1.000000 0.150000
v -0.150000 -2.200000 -0.150000
v -0.150000 -1.000000 -0.150000
v 0.150000 -2.200000 0.150000
v 0.150000 -1.000000 0.150000
v 0.150000 -2.200000 -0.150000
v 0.150000 -1.000000 -0.150000
vn -0.0000 -0.0000 -1.0000
vn 1.0000 -0.0000 -0.0000
vn -0.0000 -0.0000 1.0000
vn -0.0000 -1.0000 -0.0000
vn -1.0000 -0.0000 -0.0000
vt 0.375000 0.531250
vt 0.562500 0.531250
vt 0.375000 0.718750
vt 0.562500 0.718750
vt 0.515625 0.531250
vt 0.515625 0.718750
vt 0.421875 0.531250
vt 0.562500 0.484375
vt 0.421875 0.718750
vt 0.468750 0.531250
vt 0.515625 0.484375
vt 0.468750 0.718750
s 0
usemtl MAT_DIFFUSE_CUTOUT
f 4/6/1 8/12/1 7/10/1 3/5/1
f 8/12/2 6/9/2 5/7/2 7/10/2
f 6/9/3 2/3/3 1/1/3 5/7/3
f 7/11/4 5/8/4 1/2/4 3/5/4
f 2/4/5 4/6/5 3/5/5 1/2/5
o emitter
v -0.150000 -0.400000 0.150000
v -0.150000 0.000000 0.150000
v -0.150000 -0.400000 -0.150000
v -0.150000 0.000000 -0.150000
v 0.150000 -0.400000 0.150000
v 0.150000 0.000000 0.150000
v 0.150000 -0.400000 -0.150000
v 0.150000 0.000000 -0.150000
v 0.200000 0.600000 0.200000
v 0.200000 -0.400000 0.200000
v 0.200000 0.600000 -0.200000
v 0.200000 -0.400000 -0.200000
v -0.200000 -0.400000 0.200000
v -0.200000 0.600000 0.200000
v -0.200000 -0.400000 -0.200000
v -0.200000 0.600000 -0.200000
v 0.100000 0.600000 0.200000
v 0.100000 -0.400000 0.200000
v 0.100000 0.600000 -0.200000
v 0.100000 -0.400000 -0.200000
v -0.100000 -0.400000 0.200000
v -0.100000 0.600000 0.200000
v -0.100000 -0.400000 -0.200000
v -0.100000 0.600000 -0.200000
v 0.100000 0.100000 -0.200000
v 0.100000 0.100000 0.200000
v -0.100000 0.100000 -0.200000
v -0.100000 0.100000 0.200000
v -0.025000 0.100000 -0.200000
v -0.025000 0.100000 0.200000
v -0.025000 -0.400000 -0.200000
v -0.025000 -0.400000 0.200000
v 0.025000 0.100000 -0.200000
v 0.025000 0.100000 0.200000
v 0.025000 -0.400000 0.200000
v 0.025000 -0.400000 -0.200000
vn -0.0000 -0.0000 -1.0000
vn 1.0000 -0.0000 -0.0000
vn -0.0000 -0.0000 1.0000
vn -0.0000 1.0000 -0.0000
vn -1.0000 -0.0000 -0.0000
vt 0.343750 0.843750
vt 0.531250 0.843750
vt 0.343750 0.906250
vt 0.531250 0.906250
vt 0.484375 0.843750
vt 0.343750 0.953125
vt 0.484375 0.906250
vt 0.390625 0.843750
vt 0.390625 0.906250
vt 0.437500 0.843750
vt 0.437500 0.906250
vt 0.390625 0.953125
vt 0.187500 1.000000
vt 0.187500 0.843750
vt 0.250000 1.000000
vt 0.250000 0.843750
vt 0.093750 0.843750
vt 0.093750 1.000000
vt 0.031250 0.843750
vt 0.031250 1.000000
vt 0.171875 1.000000
vt 0.171875 0.843750
vt 0.265625 1.000000
vt 0.265625 0.843750
vt 0.109375 0.843750
vt 0.109375 1.000000
vt 0.015625 0.843750
vt 0.015625 1.000000
vt 0.265625 0.921875
vt 0.171875 0.921875
vt 0.015625 0.921875
vt 0.109375 0.921875
vt 0.000000 0.921875
vt 0.125000 0.921875
vt 0.000000 0.843750
vt 0.125000 0.843750
vt 0.281250 0.921875
vt 0.156250 0.921875
vt 0.156250 0.843750
vt 0.281250 0.843750
s 0
usemtl MAT_DIFFUSE_CUTOUT
f 12/19/6 16/23/6 15/22/6 11/17/6
f 16/23/7 14/21/7 13/20/7 15/22/7
f 14/21/8 10/15/8 9/13/8 13/20/8
f 12/18/9 10/15/9 14/21/9 16/24/9
f 18/26/7 20/28/7 19/27/7 17/25/7
f 21/29/8 29/37/8 36/44/8
f 22/30/10 24/32/10 23/31/10 21/29/10
f 22/30/8 21/29/8 36/44/8 30/38/8
f 24/32/6 32/40/6 35/43/6
f 20/28/6 28/36/6 33/41/6
f 29/37/8 40/48/8 38/46/8 36/44/8
f 34/42/8 42/50/8 43/51/8 26/34/8
f 33/41/6 28/36/6 44/52/6 41/49/6
f 18/26/8 17/25/8 25/33/8 34/42/8
f 35/43/6 37/45/6 39/47/6 31/39/6
f 23/31/6 24/32/6 35/43/6 31/39/6
f 26/34/8 18/26/8 34/42/8
f 19/27/6 20/28/6 33/41/6 27/35/6
f 10/16/10 12/19/10 11/17/10 9/14/10
o pommel
v -0.100000 -2.500000 0.100000
v -0.100000 -2.200000 0.100000
v -0.100000 -2.500000 -0.100000
v -0.100000 -2.200000 -0.100000
v 0.100000 -2.500000 0.100000
v 0.100000 -2.200000 0.100000
v 0.100000 -2.500000 -0.100000
v 0.100000 -2.200000 -0.100000
v -0.050000 -2.600000 0.047515
v -0.050000 -2.500000 0.047515
v -0.050000 -2.600000 -0.047515
v -0.050000 -2.500000 -0.047515
v 0.050000 -2.600000 0.047515
v 0.050000 -2.500000 0.047515
v 0.050000 -2.600000 -0.047515
v 0.050000 -2.500000 -0.047515
vn -0.0000 -0.0000 -1.0000
vn 1.0000 -0.0000 -0.0000
vn -0.0000 -0.0000 1.0000
vn -0.0000 -1.0000 -0.0000
vn -1.0000 -0.0000 -0.0000
vt 0.375000 0.406250
vt 0.500000 0.406250
vt 0.375000 0.453125
vt 0.500000 0.453125
vt 0.468750 0.406250
vt 0.468750 0.453125
vt 0.406250 0.406250
vt 0.500000 0.375000
vt 0.406250 0.453125
vt 0.437500 0.406250
vt 0.468750 0.375000
vt 0.437500 0.453125
vt 0.437500 0.328125
vt 0.375000 0.328125
vt 0.437500 0.343750
vt 0.375000 0.343750
vt 0.375000 0.312500
vt 0.421875 0.328125
vt 0.421875 0.343750
vt 0.390625 0.328125
vt 0.390625 0.343750
vt 0.390625 0.312500
vt 0.406250 0.328125
vt 0.406250 0.343750
s 0
usemtl MAT_DIFFUSE_CUTOUT
f 48/58/11 52/64/11 51/62/11 47/57/11
f 52/64/12 50/61/12 49/59/12 51/62/12
f 50/61/13 46/55/13 45/53/13 49/59/13
f 51/63/14 49/60/14 45/54/14 47/57/14
f 54/67/15 56/71/15 55/70/15 53/65/15
f 60/76/12 58/73/12 57/72/12 59/75/12
f 58/73/13 54/68/13 53/66/13 57/72/13
f 59/74/14 57/72/14 53/66/14 55/69/14
f 55/70/11 56/71/11 60/76/11 59/75/11
f 46/56/15 48/58/15 47/57/15 45/54/15
o switch
v -0.200000 -1.000000 0.200000
v -0.200000 -0.500000 0.200000
v -0.200000 -1.000000 -0.200000
v -0.200000 -0.500000 -0.200000
v 0.200000 -1.000000 0.200000
v 0.200000 -0.500000 0.200000
v 0.200000 -1.000000 -0.200000
v 0.200000 -0.500000 -0.200000
v -0.150000 -0.500000 0.150000
v -0.150000 -0.500000 -0.150000
v 0.150000 -0.500000 0.150000
v 0.150000 -0.500000 -0.150000
v -0.150000 -1.000000 0.150000
v -0.150000 -1.000000 -0.150000
v 0.150000 -1.000000 0.150000
v 0.150000 -1.000000 -0.150000
v -0.150000 -0.400000 0.150000
v -0.150000 -0.400000 -0.150000
v 0.150000 -0.400000 0.150000
v 0.150000 -0.400000 -0.150000
vn -0.0000 -0.0000 -1.0000
vn 1.0000 -0.0000 -0.0000
vn -0.0000 -0.0000 1.0000
vn -0.0000 -1.0000 -0.0000
vn -0.0000 1.0000 -0.0000
vn -1.0000 -0.0000 -0.0000
vt -0.000000 0.531250
vt 0.250000 0.531250
vt -0.000000 0.609375
vt 0.250000 0.609375
vt 0.187500 0.531250
vt -0.000000 0.671875
vt 0.187500 0.609375
vt 0.062500 0.531250
vt 0.250000 0.468750
vt 0.062500 0.609375
vt 0.125000 0.531250
vt 0.187500 0.468750
vt 0.125000 0.609375
vt 0.062500 0.671875
vt 0.000000 0.703125
vt 0.007812 0.617188
vt 0.187500 0.703125
vt 0.007812 0.664062
vt 0.140625 0.703125
vt 0.046875 0.703125
vt 0.054688 0.617188
vt 0.093750 0.703125
vt 0.054688 0.664062
vt 0.242188 0.523438
vt 0.195312 0.523438
vt 0.242188 0.476562
vt 0.195312 0.476562
vt 0.000000 0.718750
vt 0.187500 0.718750
vt 0.140625 0.718750
vt 0.046875 0.718750
vt 0.093750 0.718750
s 0
usemtl MAT_DIFFUSE_CUTOUT
f 64/83/16 68/89/16 67/87/16 63/81/16
f 68/89/17 66/86/17 65/84/17 67/87/17
f 65/84/18 66/86/18 62/79/18 61/77/18
f 71/96/18 79/107/18 77/104/18 69/91/18
f 63/81/19 74/101/19 73/100/19 61/78/19
f 62/79/20 69/92/20 70/94/20 64/82/20
f 70/95/16 78/106/16 80/108/16 72/98/16
f 66/86/20 71/97/20 69/92/20 62/79/20
f 67/88/19 76/103/19 74/101/19 63/81/19
f 65/85/19 75/102/19 76/103/19 67/88/19
f 64/82/20 70/94/20 72/99/20 68/90/20
f 61/78/19 73/100/19 75/102/19 65/85/19
f 72/98/17 80/108/17 79/107/17 71/96/17
f 69/93/21 77/105/21 78/106/21 70/95/21
f 68/90/20 72/99/20 71/97/20 66/86/20
f 62/80/21 64/83/21 63/81/21 61/78/21
