# Blender v2.80 (sub 75) OBJ File: 'crate_octagon.blend'
# www.blender.org
mtllib crate_octagon.mtl
o crate_octagon
v -0.250000 -0.002275 1.500172
v -0.500000 0.247725 1.500172
v -0.250000 0.997725 1.500172
v -0.500000 0.747725 1.500172
v -0.250000 -0.002275 -1.499828
v -0.500000 0.247725 -1.499828
v -0.250000 0.997725 -1.499828
v -0.500000 0.747725 -1.499828
v 0.250000 -0.002275 1.500172
v 0.500000 0.247725 1.500172
v 0.250000 0.997725 1.500172
v 0.500000 0.747725 1.500172
v 0.250000 -0.002275 -1.499828
v 0.500000 0.247725 -1.499828
v 0.250000 0.997725 -1.499828
v 0.500000 0.747725 -1.499828
v 0.430810 0.715167 -0.372041
v 0.430810 0.935359 -0.248888
v 0.210618 0.935359 0.251888
v 0.430810 0.715167 0.375041
v 0.430810 0.935359 0.251888
v 0.210618 0.935359 -0.248888
v -0.430810 0.715167 -0.372041
v -0.430810 0.935359 -0.248888
v -0.210618 0.935359 0.251888
v -0.430810 0.715167 0.375041
v -0.430810 0.935359 0.251888
v -0.210618 0.935359 -0.248888
v -0.250000 -0.002275 -1.373143
v -0.250000 -0.002275 1.373487
v -0.500000 0.247725 1.373487
v -0.500000 0.247725 -1.373143
v -0.250000 0.997725 1.373487
v -0.250000 0.997725 -1.373143
v -0.500000 0.747725 -1.373143
v -0.500000 0.747725 1.373487
v 0.250000 -0.002275 1.373487
v 0.250000 -0.002275 -1.373143
v 0.500000 0.247725 -1.373143
v 0.500000 0.247725 1.373487
v 0.250000 0.997725 -1.373143
v 0.250000 0.997725 1.373487
v 0.500000 0.747725 1.373487
v 0.500000 0.747725 -1.373143
v -0.210618 0.073739 -1.373143
v -0.210618 0.073739 1.373487
v -0.430810 0.293930 1.373487
v -0.430810 0.293930 -1.373143
v -0.210618 0.935359 1.373487
v -0.210618 0.935359 -1.373143
v -0.430810 0.715167 -1.373143
v -0.430810 0.715167 1.373487
v 0.210618 0.073739 1.373487
v 0.210618 0.073739 -1.373143
v 0.430810 0.293931 -1.373143
v 0.430810 0.293931 1.373487
v 0.210618 0.935359 -1.373143
v 0.210618 0.935359 1.373487
v 0.430810 0.715167 1.373487
v 0.430810 0.715167 -1.373143
vt 0.953125 0.015536
vt 0.984375 0.015536
vt 0.984375 0.124911
vt 0.953125 0.124911
vt 0.859375 0.093661
vt 0.890625 0.093661
vt 0.890625 0.218661
vt 0.859375 0.218661
vt 0.765625 0.984375
vt 0.578125 0.921875
vt 0.640625 0.734375
vt 0.828125 0.796875
vt 0.984375 0.531161
vt 0.984375 0.624911
vt 0.953125 0.624911
vt 0.953125 0.531161
vt 0.890625 0.015536
vt 0.859375 0.015536
vt 0.375000 0.734375
vt 0.562500 0.796875
vt 0.500000 0.984375
vt 0.312500 0.921875
vt 0.890625 0.421786
vt 0.890625 0.499911
vt 0.859375 0.499911
vt 0.859375 0.421786
vt 0.953125 0.421786
vt 0.984375 0.421786
vt 0.265625 0.921875
vt 0.218750 0.921875
vt 0.218750 0.796875
vt 0.265625 0.796875
vt 0.218750 0.968750
vt 0.703125 0.359375
vt 0.015625 0.359375
vt 0.015625 0.265625
vt 0.703125 0.265625
vt 0.140625 0.765625
vt 0.140625 0.953125
vt 0.078125 0.921875
vt 0.078125 0.796875
vt 0.218750 0.750000
vt 0.031250 0.921875
vt 0.031250 0.796875
vt 0.078125 0.968750
vt 0.703125 0.437500
vt 0.015625 0.437500
vt 0.937500 0.023161
vt 0.937500 0.116911
vt 0.078125 0.750000
vt 0.703125 0.015625
vt 0.703125 0.093750
vt 0.015625 0.093750
vt 0.015625 0.015625
vt 0.953125 0.828036
vt 0.937500 0.820036
vt 0.937500 0.741911
vt 0.953125 0.734286
vt 0.015625 0.187500
vt 0.703125 0.187500
vt 0.843750 0.413786
vt 0.843750 0.304411
vt 0.859375 0.296786
vt 0.843750 0.288786
vt 0.843750 0.226286
vt 0.703125 0.531250
vt 0.703125 0.609375
vt 0.015625 0.609375
vt 0.015625 0.531250
vt 0.937500 0.210661
vt 0.937500 0.132536
vt 0.953125 0.218661
vt 0.703125 0.718750
vt 0.015625 0.718750
vt 0.843750 0.429411
vt 0.843750 0.491911
vt 0.890625 0.828036
vt 0.859375 0.828036
vt 0.859375 0.703036
vt 0.890625 0.703036
vt 0.859375 0.624911
vt 0.843750 0.616911
vt 0.843750 0.507536
vt 0.843750 0.820036
vt 0.843750 0.710661
vt 0.937500 0.413786
vt 0.937500 0.335661
vt 0.953125 0.328036
vt 0.937500 0.726286
vt 0.937500 0.632536
vt 0.937500 0.320036
vt 0.937500 0.226286
vt 0.890625 0.624911
vt 0.984375 0.734286
vt 0.984375 0.828036
vt 0.937500 0.429411
vt 0.937500 0.523161
vt 0.984375 0.328036
vt 0.156250 0.953125
vt 0.156250 0.765625
vt 0.890625 0.296786
vt 0.937500 0.538786
vt 0.937500 0.616911
vt 0.984375 0.218661
vt 0.843750 0.085661
vt 0.843750 0.023161
vt 0.843750 0.632536
vt 0.843750 0.695036
vt 0.640625 0.984375
vt 0.578125 0.796875
vt 0.765625 0.734375
vt 0.828125 0.921875
vt 0.500000 0.734375
vt 0.562500 0.921875
vt 0.375000 0.984375
vt 0.312500 0.796875
vt 0.843750 0.210661
vt 0.843750 0.101286
vn 0.0000 1.0000 0.0000
vn -1.0000 0.0000 0.0000
vn 0.0000 0.0000 -1.0000
vn -0.7071 -0.7071 0.0000
vn -0.7071 0.7071 0.0000
vn 0.0000 0.0000 1.0000
vn 0.7071 -0.7071 0.0000
vn 0.0000 -1.0000 0.0000
vn -0.0000 0.4881 0.8728
vn -0.0000 0.4881 -0.8728
vn 0.7071 0.7071 0.0000
vn 1.0000 0.0000 0.0000
usemtl MAT_DIFFUSE_CUTOUT
s off
f 33/1/1 3/2/1 11/3/1 42/4/1
f 35/5/2 8/6/2 6/7/2 32/8/2
f 13/9/3 6/10/3 7/11/3 16/12/3
f 1/13/4 2/14/4 31/15/4 30/16/4
f 7/17/5 8/6/5 35/5/5 34/18/5
f 4/19/6 1/20/6 10/21/6 11/22/6
f 13/23/7 14/24/7 39/25/7 38/26/7
f 37/27/8 9/28/8 1/13/8 30/16/8
f 19/29/1 21/30/1 18/31/1 22/32/1
f 19/29/9 20/33/9 21/30/9
f 54/34/8 53/35/8 46/36/8 45/37/8
f 23/38/2 26/39/2 27/40/2 24/41/2
f 17/42/10 22/32/10 18/31/10
f 24/41/1 27/40/1 25/43/1 28/44/1
f 25/43/9 27/40/9 26/45/9
f 54/34/7 55/46/7 56/47/7 53/35/7
f 49/48/3 33/1/3 42/4/3 58/49/3
f 23/50/10 24/41/10 28/44/10
f 50/51/5 51/52/5 52/53/5 49/54/5
f 33/55/3 49/56/3 52/57/3 36/58/3
f 46/36/4 47/59/4 48/60/4 45/37/4
f 38/26/6 54/61/6 45/62/6 29/63/6
f 52/53/2 51/52/2 48/60/2 47/59/2
f 45/64/6 48/65/6 32/8/6 29/63/6
f 60/66/11 57/67/11 58/68/11 59/69/11
f 59/70/3 58/71/3 42/4/3 43/72/3
f 50/73/1 49/74/1 58/68/1 57/67/1
f 54/75/6 38/26/6 39/25/6 55/76/6
f 7/77/1 34/78/1 41/79/1 15/80/1
f 44/81/6 60/82/6 55/83/6 39/25/6
f 60/66/12 59/69/12 56/47/12 55/46/12
f 34/78/6 50/84/6 57/85/6 41/79/6
f 53/86/3 56/87/3 40/88/3 37/27/3
f 36/58/3 52/89/3 47/90/3 31/15/3
f 56/91/3 59/92/3 43/72/3 40/88/3
f 16/93/12 44/81/12 39/25/12 14/24/12
f 4/94/2 36/58/2 31/15/2 2/14/2
f 33/55/5 36/58/5 4/94/5 3/95/5
f 53/96/3 37/27/3 30/16/3 46/97/3
f 37/27/7 40/88/7 10/98/7 9/28/7
f 21/30/12 20/99/12 17/100/12 18/31/12
f 13/23/8 38/26/8 29/63/8 5/101/8
f 46/102/3 30/16/3 31/15/3 47/103/3
f 43/72/11 42/4/11 11/3/11 12/104/11
f 34/18/6 35/5/6 51/105/6 50/106/6
f 16/93/11 15/80/11 41/79/11 44/81/11
f 60/107/6 44/81/6 41/79/6 57/108/6
f 29/63/4 32/8/4 6/7/4 5/101/4
f 13/9/3 5/109/3 6/10/3
f 6/10/3 8/110/3 7/11/3
f 7/11/3 15/111/3 16/12/3
f 16/12/3 14/112/3 13/9/3
f 4/19/6 2/113/6 1/20/6
f 1/20/6 9/114/6 10/21/6
f 10/21/6 12/115/6 11/22/6
f 11/22/6 3/116/6 4/19/6
f 43/72/12 12/104/12 10/98/12 40/88/12
f 48/117/6 51/118/6 35/5/6 32/8/6
