# Blender v2.80 (sub 75) OBJ File: 'crate_octagon.blend'
# www.blender.org
mtllib crate_octagon.mtl
o crate_octagon
v -0.250000 -0.002275 1.225000
v -0.500000 0.247725 1.225000
v -0.250000 0.997725 1.225000
v -0.500000 0.747725 1.225000
v -0.250000 -0.002275 -1.225000
v -0.500000 0.247725 -1.225000
v -0.250000 0.997725 -1.225000
v -0.500000 0.747725 -1.225000
v 0.250000 -0.002275 1.225000
v 0.500000 0.247725 1.225000
v 0.250000 0.997725 1.225000
v 0.500000 0.747725 1.225000
v 0.250000 -0.002275 -1.225000
v 0.500000 0.247725 -1.225000
v 0.250000 0.997725 -1.225000
v 0.500000 0.747725 -1.225000
v 0.430810 0.715167 -0.304689
v 0.430810 0.935359 -0.182642
v 0.210618 0.935359 0.182642
v 0.430810 0.715167 0.304689
v 0.430810 0.935359 0.182642
v 0.210618 0.935359 -0.182642
v -0.430810 0.715167 -0.304689
v -0.430810 0.935359 -0.182642
v -0.210618 0.935359 0.182642
v -0.430810 0.715167 0.304689
v -0.430810 0.935359 0.182642
v -0.210618 0.935359 -0.182642
v -0.250000 -0.002275 -1.100000
v -0.250000 -0.002275 1.100000
v -0.500000 0.247725 1.100000
v -0.500000 0.247725 -1.100000
v -0.250000 0.997725 1.100000
v -0.250000 0.997725 -1.100000
v -0.500000 0.747725 -1.100000
v -0.500000 0.747725 1.100000
v 0.250000 -0.002275 1.100000
v 0.250000 -0.002275 -1.100000
v 0.500000 0.247725 -1.100000
v 0.500000 0.247725 1.100000
v 0.250000 0.997725 -1.100000
v 0.250000 0.997725 1.100000
v 0.500000 0.747725 1.100000
v 0.500000 0.747725 -1.100000
v -0.210618 0.073739 -1.100000
v -0.210618 0.073739 1.100000
v -0.430810 0.293930 1.100000
v -0.430810 0.293930 -1.100000
v -0.210618 0.935359 1.100000
v -0.210618 0.935359 -1.100000
v -0.430810 0.715167 -1.100000
v -0.430810 0.715167 1.100000
v 0.210618 0.073739 1.100000
v 0.210618 0.073739 -1.100000
v 0.430810 0.293931 -1.100000
v 0.430810 0.293931 1.100000
v 0.210618 0.935359 -1.100000
v 0.210618 0.935359 1.100000
v 0.430810 0.715167 1.100000
v 0.430810 0.715167 -1.100000
vt 0.343750 0.945312
vt 0.328125 0.945312
vt 0.328125 0.882812
vt 0.343750 0.882812
vt 0.367188 0.570312
vt 0.382812 0.570312
vt 0.382812 0.632812
vt 0.367188 0.632812
vt 0.507812 0.882812
vt 0.476562 0.976562
vt 0.382812 0.945312
vt 0.414062 0.851562
vt 0.328125 0.671875
vt 0.328125 0.632812
vt 0.343750 0.632812
vt 0.343750 0.671875
vt 0.382812 0.523438
vt 0.367188 0.523438
vt 0.296875 0.976562
vt 0.203125 0.945312
vt 0.234375 0.851562
vt 0.382812 0.734375
vt 0.382812 0.781250
vt 0.367188 0.781250
vt 0.367188 0.734375
vt 0.343750 0.734375
vt 0.328125 0.734375
vt 0.179688 0.937500
vt 0.148438 0.937500
vt 0.148438 0.890625
vt 0.179688 0.890625
vt 0.148438 0.976562
vt 0.023438 0.617188
vt 0.304688 0.617188
vt 0.304688 0.671875
vt 0.023438 0.671875
vt 0.039062 0.953125
vt 0.039062 0.875000
vt 0.070312 0.890625
vt 0.070312 0.937500
vt 0.148438 0.851562
vt 0.101562 0.890625
vt 0.101562 0.937500
vt 0.070312 0.851562
vt 0.023438 0.578125
vt 0.304688 0.578125
vt 0.343750 0.945312
vt 0.343750 0.882812
vt 0.070312 0.976562
vt 0.023438 0.804688
vt 0.023438 0.765625
vt 0.304688 0.765625
vt 0.304688 0.804688
vt 0.343750 0.523438
vt 0.343750 0.523438
vt 0.343750 0.570312
vt 0.343750 0.570312
vt 0.304688 0.710938
vt 0.023438 0.710938
vt 0.367188 0.734375
vt 0.367188 0.671875
vt 0.367188 0.671875
vt 0.367188 0.632812
vt 0.023438 0.523438
vt 0.023438 0.484375
vt 0.304688 0.484375
vt 0.304688 0.523438
vt 0.343750 0.843750
vt 0.343750 0.843750
vt 0.023438 0.429688
vt 0.304688 0.429688
vt 0.367188 0.781250
vt 0.367188 0.945312
vt 0.367188 0.882812
vt 0.382812 0.882812
vt 0.367188 0.843750
vt 0.367188 0.843750
vt 0.367188 0.945312
vt 0.367188 0.882812
vt 0.343750 0.734375
vt 0.343750 0.781250
vt 0.343750 0.781250
vt 0.343750 0.632812
vt 0.382812 0.843750
vt 0.328125 0.570312
vt 0.328125 0.523438
vt 0.343750 0.671875
vt 0.328125 0.781250
vt 0.117188 0.953125
vt 0.117188 0.875000
vt 0.382812 0.671875
vt 0.328125 0.843750
vt 0.367188 0.570312
vt 0.367188 0.523438
vt 0.507812 0.945312
vt 0.414062 0.976562
vt 0.476562 0.851562
vt 0.234375 0.976562
vt 0.203125 0.882812
vt 0.296875 0.851562
vn 0.0000 1.0000 0.0000
vn -1.0000 0.0000 0.0000
vn 0.0000 0.0000 -1.0000
vn -0.7071 -0.7071 0.0000
vn -0.7071 0.7071 0.0000
vn 0.0000 0.0000 1.0000
vn 0.7071 -0.7071 0.0000
vn 0.0000 -1.0000 0.0000
vn -0.0000 0.4848 0.8746
vn -0.0000 0.4848 -0.8746
vn 0.7071 0.7071 0.0000
vn 1.0000 0.0000 0.0000
usemtl MAT_DIFFUSE_CUTOUT
s off
f 33/1/1 3/2/1 11/3/1 42/4/1
f 35/5/2 8/6/2 6/7/2 32/8/2
f 13/9/3 6/10/3 7/11/3 16/12/3
f 1/13/4 2/14/4 31/15/4 30/16/4
f 7/17/5 8/6/5 35/5/5 34/18/5
f 4/19/6 1/20/6 10/21/6 11/3/6
f 13/22/7 14/23/7 39/24/7 38/25/7
f 37/26/8 9/27/8 1/13/8 30/16/8
f 19/28/1 21/29/1 18/30/1 22/31/1
f 19/28/9 20/32/9 21/29/9
f 54/33/8 53/34/8 46/35/8 45/36/8
f 23/37/2 26/38/2 27/39/2 24/40/2
f 17/41/10 22/31/10 18/30/10
f 24/40/1 27/39/1 25/42/1 28/43/1
f 25/42/9 27/39/9 26/44/9
f 54/33/7 55/45/7 56/46/7 53/34/7
f 49/47/3 33/1/3 42/4/3 58/48/3
f 23/49/10 24/40/10 28/43/10
f 50/50/5 51/51/5 52/52/5 49/53/5
f 33/54/3 49/55/3 52/56/3 36/57/3
f 46/35/4 47/58/4 48/59/4 45/36/4
f 38/25/6 54/60/6 45/61/6 29/62/6
f 52/52/2 51/51/2 48/59/2 47/58/2
f 45/61/6 48/63/6 32/8/6 29/62/6
f 60/64/11 57/65/11 58/66/11 59/67/11
f 59/68/3 58/48/3 42/4/3 43/69/3
f 50/70/1 49/71/1 58/66/1 57/65/1
f 54/60/6 38/25/6 39/24/6 55/72/6
f 7/11/1 34/73/1 41/74/1 15/75/1
f 44/76/6 60/77/6 55/72/6 39/24/6
f 60/64/12 59/67/12 56/46/12 55/45/12
f 34/73/6 50/78/6 57/79/6 41/74/6
f 53/80/3 56/81/3 40/82/3 37/26/3
f 36/57/3 52/56/3 47/83/3 31/15/3
f 56/81/3 59/68/3 43/69/3 40/82/3
f 16/84/12 44/76/12 39/24/12 14/23/12
f 4/85/2 36/57/2 31/15/2 2/14/2
f 33/54/5 36/57/5 4/85/5 3/86/5
f 53/80/3 37/26/3 30/16/3 46/87/3
f 37/26/7 40/82/7 10/88/7 9/27/7
f 21/29/12 20/89/12 17/90/12 18/30/12
f 13/22/8 38/25/8 29/62/8 5/91/8
f 46/87/3 30/16/3 31/15/3 47/83/3
f 43/69/11 42/4/11 11/3/11 12/92/11
f 34/18/6 35/5/6 51/93/6 50/94/6
f 16/84/11 15/75/11 41/74/11 44/76/11
f 60/77/6 44/76/6 41/74/6 57/79/6
f 29/62/4 32/8/4 6/7/4 5/91/4
f 13/9/3 5/95/3 6/10/3
f 6/10/3 8/96/3 7/11/3
f 7/11/3 15/75/3 16/12/3
f 16/12/3 14/97/3 13/9/3
f 4/19/6 2/98/6 1/20/6
f 1/20/6 9/99/6 10/21/6
f 10/21/6 12/100/6 11/3/6
f 11/3/6 3/2/6 4/19/6
f 43/69/12 12/92/12 10/88/12 40/82/12
f 48/63/6 51/93/6 35/5/6 32/8/6
