# Blender v2.80 (sub 75) OBJ File: 'segmented_crate.blend'
# www.blender.org
mtllib segmented_crate.mtl
o Cube.002
v -0.875000 0.125000 0.312500
v -0.875000 0.750000 0.312500
v -0.875000 0.125000 -0.312500
v -0.875000 0.750000 -0.312500
v 0.875000 0.125000 0.312500
v 0.875000 0.750000 0.312500
v 0.875000 0.125000 -0.312500
v 0.875000 0.750000 -0.312500
v -0.875000 0.000000 -0.437500
v -0.875000 0.000000 0.437500
v -0.875000 0.875000 0.437500
v -0.875000 0.875000 -0.437500
v 0.875000 0.875000 -0.437500
v 0.875000 0.000000 -0.437500
v 0.875000 0.000000 0.437500
v 0.875000 0.875000 0.437500
v 0.812500 0.750000 -0.312500
v 0.812500 0.125000 -0.312500
v 0.812500 0.125000 0.312500
v 0.812500 0.750000 0.312500
v -0.812500 0.125000 -0.312500
v -0.812500 0.125000 0.312500
v -0.812500 0.750000 0.312500
v -0.812500 0.750000 -0.312500
v 0.437500 0.875000 0.375000
v 0.437500 0.875000 -0.375000
v 0.750000 0.875000 0.375000
v 0.750000 0.875000 -0.375000
v 0.437500 0.937500 0.375000
v 0.437500 0.937500 -0.375000
v 0.750000 0.937500 -0.375000
v 0.750000 0.937500 0.375000
v 0.437500 0.062500 -0.500000
v 0.437500 0.812500 -0.500000
v 0.750000 0.062500 -0.500000
v 0.750000 0.812500 -0.500000
v 0.437500 0.062500 -0.437500
v 0.437500 0.812500 -0.437500
v 0.750000 0.812500 -0.437500
v 0.750000 0.062500 -0.437500
v 0.437500 0.062500 0.437500
v 0.437500 0.812500 0.437500
v 0.750000 0.062500 0.437500
v 0.750000 0.812500 0.437500
v 0.437500 0.062500 0.500000
v 0.437500 0.812500 0.500000
v 0.750000 0.812500 0.500000
v 0.750000 0.062500 0.500000
v -0.750000 0.875000 0.375000
v -0.750000 0.875000 -0.375000
v -0.437500 0.875000 0.375000
v -0.437500 0.875000 -0.375000
v -0.750000 0.937500 0.375000
v -0.750000 0.937500 -0.375000
v -0.437500 0.937500 -0.375000
v -0.437500 0.937500 0.375000
v -0.375000 0.875000 0.375000
v -0.375000 0.875000 -0.375000
v -0.062500 0.875000 0.375000
v -0.062500 0.875000 -0.375000
v -0.375000 0.937500 0.375000
v -0.375000 0.937500 -0.375000
v -0.062500 0.937500 -0.375000
v -0.062500 0.937500 0.375000
v 0.062500 0.875000 0.375000
v 0.062500 0.875000 -0.375000
v 0.375000 0.875000 0.375000
v 0.375000 0.875000 -0.375000
v 0.062500 0.937500 0.375000
v 0.062500 0.937500 -0.375000
v 0.375000 0.937500 -0.375000
v 0.375000 0.937500 0.375000
v 0.062500 0.062500 0.437500
v 0.062500 0.812500 0.437500
v 0.375000 0.062500 0.437500
v 0.375000 0.812500 0.437500
v 0.062500 0.062500 0.500000
v 0.062500 0.812500 0.500000
v 0.375000 0.812500 0.500000
v 0.375000 0.062500 0.500000
v -0.375000 0.062500 0.437500
v -0.375000 0.812500 0.437500
v -0.062500 0.062500 0.437500
v -0.062500 0.812500 0.437500
v -0.375000 0.062500 0.500000
v -0.375000 0.812500 0.500000
v -0.062500 0.812500 0.500000
v -0.062500 0.062500 0.500000
v -0.750000 0.062500 0.437500
v -0.750000 0.812500 0.437500
v -0.437500 0.062500 0.437500
v -0.437500 0.812500 0.437500
v -0.750000 0.062500 0.500000
v -0.750000 0.812500 0.500000
v -0.437500 0.812500 0.500000
v -0.437500 0.062500 0.500000
v 0.062500 0.062500 -0.500000
v 0.062500 0.812500 -0.500000
v 0.375000 0.062500 -0.500000
v 0.375000 0.812500 -0.500000
v 0.062500 0.062500 -0.437500
v 0.062500 0.812500 -0.437500
v 0.375000 0.812500 -0.437500
v 0.375000 0.062500 -0.437500
v -0.375000 0.062500 -0.500000
v -0.375000 0.812500 -0.500000
v -0.062500 0.062500 -0.500000
v -0.062500 0.812500 -0.500000
v -0.375000 0.062500 -0.437500
v -0.375000 0.812500 -0.437500
v -0.062500 0.812500 -0.437500
v -0.062500 0.062500 -0.437500
v -0.750000 0.062500 -0.500000
v -0.750000 0.812500 -0.500000
v -0.437500 0.062500 -0.500000
v -0.437500 0.812500 -0.500000
v -0.750000 0.062500 -0.437500
v -0.750000 0.812500 -0.437500
v -0.437500 0.812500 -0.437500
v -0.437500 0.062500 -0.437500
vt 0.343750 0.531250
vt 0.453125 0.531250
vt 0.437500 0.546875
vt 0.359375 0.546875
vt 0.015625 0.640625
vt 0.031250 0.625000
vt 0.109375 0.625000
vt 0.125000 0.640625
vt 0.359375 0.625000
vt 0.343750 0.640625
vt 0.671875 0.531250
vt 0.671875 0.640625
vt 0.453125 0.640625
vt 0.429688 0.289062
vt 0.437500 0.289062
vt 0.437500 0.367188
vt 0.429688 0.367188
vt 0.125000 0.531250
vt 0.125000 0.421875
vt 0.343750 0.421875
vt 0.343750 0.750000
vt 0.125000 0.750000
vt 0.351562 0.367188
vt 0.429688 0.367188
vt 0.429688 0.445312
vt 0.351562 0.445312
vt 0.437500 0.625000
vt 0.109375 0.546875
vt 0.031250 0.546875
vt 0.015625 0.531250
vt 0.437500 0.367188
vt 0.437500 0.445312
vt 0.523438 0.445312
vt 0.515625 0.445312
vt 0.515625 0.367188
vt 0.523438 0.367188
vt 0.429688 0.445312
vt 0.437500 0.445312
vt 0.437500 0.523438
vt 0.429688 0.523438
vt 0.031250 0.367188
vt 0.109375 0.367188
vt 0.109375 0.445312
vt 0.031250 0.445312
vt 0.031250 0.523438
vt 0.023438 0.523438
vt 0.023438 0.445312
vt 0.031250 0.445312
vt 0.023438 0.445312
vt 0.023438 0.367188
vt 0.117188 0.367188
vt 0.117188 0.445312
vt 0.632812 0.781250
vt 0.632812 0.875000
vt 0.593750 0.875000
vt 0.593750 0.781250
vt 0.632812 0.773438
vt 0.726562 0.773438
vt 0.726562 0.781250
vt 0.593750 0.773438
vt 0.500000 0.781250
vt 0.500000 0.773438
vt 0.765625 0.773438
vt 0.765625 0.781250
vt 0.125000 0.203125
vt 0.085938 0.203125
vt 0.085938 0.109375
vt 0.125000 0.109375
vt 0.078125 0.109375
vt 0.078125 0.203125
vt 0.039062 0.109375
vt 0.039062 0.101562
vt 0.078125 0.101562
vt 0.039062 0.203125
vt 0.031250 0.203125
vt 0.031250 0.109375
vt 0.078125 0.210938
vt 0.039062 0.210938
vt 0.351562 0.242188
vt 0.351562 0.335938
vt 0.312500 0.335938
vt 0.312500 0.242188
vt 0.359375 0.242188
vt 0.359375 0.335938
vt 0.312500 0.234375
vt 0.351562 0.234375
vt 0.304688 0.335938
vt 0.304688 0.242188
vt 0.351562 0.343750
vt 0.312500 0.343750
vt 0.031250 0.367188
vt 0.023438 0.367188
vt 0.023438 0.289062
vt 0.031250 0.289062
vt 0.148438 0.890625
vt 0.148438 0.984375
vt 0.109375 0.984375
vt 0.109375 0.890625
vt 0.148438 0.882812
vt 0.242188 0.882812
vt 0.242188 0.890625
vt 0.109375 0.882812
vt 0.015625 0.890625
vt 0.015625 0.882812
vt 0.281250 0.882812
vt 0.281250 0.890625
vt 0.281250 0.781250
vt 0.281250 0.875000
vt 0.242188 0.875000
vt 0.242188 0.781250
vt 0.281250 0.773438
vt 0.375000 0.773438
vt 0.375000 0.781250
vt 0.242188 0.773438
vt 0.148438 0.781250
vt 0.148438 0.773438
vt 0.414062 0.773438
vt 0.414062 0.781250
vt 0.500000 0.890625
vt 0.500000 0.984375
vt 0.460938 0.984375
vt 0.460938 0.890625
vt 0.500000 0.882812
vt 0.593750 0.882812
vt 0.593750 0.890625
vt 0.460938 0.882812
vt 0.367188 0.890625
vt 0.367188 0.882812
vt 0.632812 0.882812
vt 0.632812 0.890625
vt 0.289062 0.242188
vt 0.289062 0.335938
vt 0.250000 0.335938
vt 0.250000 0.242188
vt 0.296875 0.242188
vt 0.296875 0.335938
vt 0.250000 0.234375
vt 0.289062 0.234375
vt 0.242188 0.335938
vt 0.242188 0.242188
vt 0.289062 0.343750
vt 0.250000 0.343750
vt 0.218750 0.242188
vt 0.218750 0.335938
vt 0.179688 0.335938
vt 0.179688 0.242188
vt 0.226562 0.242188
vt 0.226562 0.335938
vt 0.179688 0.234375
vt 0.218750 0.234375
vt 0.171875 0.335938
vt 0.171875 0.242188
vt 0.218750 0.343750
vt 0.179688 0.343750
vt 0.156250 0.242188
vt 0.156250 0.335938
vt 0.117188 0.335938
vt 0.117188 0.242188
vt 0.164062 0.242188
vt 0.164062 0.335938
vt 0.117188 0.234375
vt 0.156250 0.234375
vt 0.109375 0.335938
vt 0.109375 0.242188
vt 0.156250 0.343750
vt 0.117188 0.343750
vt 0.226562 0.203125
vt 0.187500 0.203125
vt 0.187500 0.109375
vt 0.226562 0.109375
vt 0.179688 0.109375
vt 0.179688 0.203125
vt 0.140625 0.109375
vt 0.140625 0.101562
vt 0.179688 0.101562
vt 0.140625 0.203125
vt 0.132812 0.203125
vt 0.132812 0.109375
vt 0.179688 0.210938
vt 0.140625 0.210938
vt 0.335938 0.203125
vt 0.296875 0.203125
vt 0.296875 0.109375
vt 0.335938 0.109375
vt 0.289062 0.109375
vt 0.289062 0.203125
vt 0.250000 0.109375
vt 0.250000 0.101562
vt 0.289062 0.101562
vt 0.250000 0.203125
vt 0.242188 0.203125
vt 0.242188 0.109375
vt 0.289062 0.210938
vt 0.250000 0.210938
vt 0.437500 0.203125
vt 0.398438 0.203125
vt 0.398438 0.109375
vt 0.437500 0.109375
vt 0.390625 0.109375
vt 0.390625 0.203125
vt 0.351562 0.109375
vt 0.351562 0.101562
vt 0.390625 0.101562
vt 0.351562 0.203125
vt 0.343750 0.203125
vt 0.343750 0.109375
vt 0.390625 0.210938
vt 0.351562 0.210938
vn 1.0000 0.0000 0.0000
vn -1.0000 0.0000 0.0000
vn 0.0000 0.0000 -1.0000
vn 0.0000 -1.0000 0.0000
vn 0.0000 0.0000 1.0000
vn 0.0000 1.0000 0.0000
usemtl MAT_DIFFUSE_CUTOUT
s off
f 15/1/1 14/2/1 7/3/1 5/4/1
f 12/5/2 4/6/2 2/7/2 11/8/2
f 6/9/1 16/10/1 15/1/1 5/4/1
f 14/2/3 9/11/3 12/12/3 13/13/3
f 17/14/4 8/15/4 6/16/4 20/17/4
f 10/18/5 15/1/5 16/10/5 11/8/5
f 10/18/4 9/19/4 14/20/4 15/1/4
f 16/10/6 13/21/6 12/22/6 11/8/6
f 19/23/1 18/24/1 17/25/1 20/26/1
f 13/13/1 8/27/1 7/3/1 14/2/1
f 1/28/2 3/29/2 9/30/2 10/18/2
f 1/28/2 10/18/2 11/8/2 2/7/2
f 9/30/2 3/29/2 4/6/2 12/5/2
f 18/24/5 7/31/5 8/32/5 17/25/5
f 20/33/3 6/34/3 5/35/3 19/36/3
f 19/37/6 5/38/6 7/39/6 18/40/6
f 21/41/2 22/42/2 23/43/2 24/44/2
f 21/45/6 3/46/6 1/47/6 22/48/6
f 24/44/5 4/49/5 3/50/5 21/41/5
f 22/42/3 1/51/3 2/52/3 23/43/3
f 32/53/6 31/54/6 30/55/6 29/56/6
f 32/53/1 27/57/1 28/58/1 31/59/1
f 29/56/5 25/60/5 27/57/5 32/53/5
f 30/61/2 26/62/2 25/60/2 29/56/2
f 31/59/3 28/58/3 26/63/3 30/64/3
f 34/65/3 36/66/3 35/67/3 33/68/3
f 40/69/1 35/67/1 36/66/1 39/70/1
f 37/71/4 33/72/4 35/73/4 40/69/4
f 38/74/2 34/75/2 33/76/2 37/71/2
f 39/70/6 36/77/6 34/78/6 38/74/6
f 48/79/5 47/80/5 46/81/5 45/82/5
f 48/79/1 43/83/1 44/84/1 47/80/1
f 45/82/4 41/85/4 43/86/4 48/79/4
f 46/81/2 42/87/2 41/88/2 45/82/2
f 47/80/6 44/89/6 42/90/6 46/81/6
f 23/91/4 2/92/4 4/93/4 24/94/4
f 6/9/1 8/27/1 13/13/1 16/10/1
f 56/95/6 55/96/6 54/97/6 53/98/6
f 56/95/1 51/99/1 52/100/1 55/101/1
f 53/98/5 49/102/5 51/99/5 56/95/5
f 54/103/2 50/104/2 49/102/2 53/98/2
f 55/101/3 52/100/3 50/105/3 54/106/3
f 64/107/6 63/108/6 62/109/6 61/110/6
f 64/107/1 59/111/1 60/112/1 63/113/1
f 61/110/5 57/114/5 59/111/5 64/107/5
f 62/115/2 58/116/2 57/114/2 61/110/2
f 63/113/3 60/112/3 58/117/3 62/118/3
f 72/119/6 71/120/6 70/121/6 69/122/6
f 72/119/1 67/123/1 68/124/1 71/125/1
f 69/122/5 65/126/5 67/123/5 72/119/5
f 70/127/2 66/128/2 65/126/2 69/122/2
f 71/125/3 68/124/3 66/129/3 70/130/3
f 80/131/5 79/132/5 78/133/5 77/134/5
f 80/131/1 75/135/1 76/136/1 79/132/1
f 77/134/4 73/137/4 75/138/4 80/131/4
f 78/133/2 74/139/2 73/140/2 77/134/2
f 79/132/6 76/141/6 74/142/6 78/133/6
f 88/143/5 87/144/5 86/145/5 85/146/5
f 88/143/1 83/147/1 84/148/1 87/144/1
f 85/146/4 81/149/4 83/150/4 88/143/4
f 86/145/2 82/151/2 81/152/2 85/146/2
f 87/144/6 84/153/6 82/154/6 86/145/6
f 96/155/5 95/156/5 94/157/5 93/158/5
f 96/155/1 91/159/1 92/160/1 95/156/1
f 93/158/4 89/161/4 91/162/4 96/155/4
f 94/157/2 90/163/2 89/164/2 93/158/2
f 95/156/6 92/165/6 90/166/6 94/157/6
f 98/167/3 100/168/3 99/169/3 97/170/3
f 104/171/1 99/169/1 100/168/1 103/172/1
f 101/173/4 97/174/4 99/175/4 104/171/4
f 102/176/2 98/177/2 97/178/2 101/173/2
f 103/172/6 100/179/6 98/180/6 102/176/6
f 106/181/3 108/182/3 107/183/3 105/184/3
f 112/185/1 107/183/1 108/182/1 111/186/1
f 109/187/4 105/188/4 107/189/4 112/185/4
f 110/190/2 106/191/2 105/192/2 109/187/2
f 111/186/6 108/193/6 106/194/6 110/190/6
f 114/195/3 116/196/3 115/197/3 113/198/3
f 120/199/1 115/197/1 116/196/1 119/200/1
f 117/201/4 113/202/4 115/203/4 120/199/4
f 118/204/2 114/205/2 113/206/2 117/201/2
f 119/200/6 116/207/6 114/208/6 118/204/6
