# Blender 3.3.1
# www.blender.org
mtllib Dume.mtl
o Plane.005
v 0.248505 -0.551637 0.249917
v 0.248505 -0.451168 0.249917
v -0.251800 -0.551637 0.249917
v -0.251800 -0.451168 0.249917
v 0.200180 -0.651168 0.199949
v 0.200180 -0.651168 -0.199949
v 0.200180 -0.851168 0.199949
v 0.200180 -0.851168 -0.199949
v -0.150000 -0.451168 -0.150000
v -0.150000 -0.451168 0.150000
v -0.150000 0.148832 0.150000
v -0.150000 0.148832 -0.150000
v -0.250270 -0.451168 -0.250388
v 0.150000 -0.800000 -0.050000
v 0.150000 -0.800000 0.050000
v 0.150000 -0.700000 -0.050000
v 0.150000 -0.700000 0.050000
v -0.150000 -0.451168 -0.150000
v 0.150000 -0.451168 -0.150000
v -0.150000 -0.451168 0.150000
v 0.150000 -0.451168 0.150000
v 0.150000 -0.251168 0.150000
v 0.150000 -0.251168 -0.150000
v -0.050000 -0.251168 0.150000
v -0.050000 -0.251168 -0.150000
v -0.150000 0.148832 0.150000
v -0.050000 0.148832 0.150000
v -0.050000 0.148832 -0.150000
v -0.150000 0.148832 -0.150000
v 0.248505 -0.551252 0.249917
v 0.248505 -0.451168 0.249917
v -0.251800 -0.551252 0.249917
v 0.250035 -0.551252 -0.250388
v 0.250035 -0.451168 -0.250388
v -0.251800 -0.451168 0.249917
v -0.250270 -0.551252 -0.250388
v 0.100000 -0.001168 -0.100000
v 0.100000 -0.001168 0.100000
v -0.100000 -0.001168 -0.100000
v -0.100000 -0.001168 0.100000
v 0.100000 -0.301168 -0.100000
v 0.100000 -0.301168 0.100000
v -0.100000 -0.301168 0.100000
v -0.100000 -0.301168 -0.100000
v -0.150000 -0.501168 -0.150000
v 0.150000 -0.501168 -0.150000
v -0.150000 -0.501168 0.150000
v 0.150000 -0.501168 0.150000
v 0.150000 -2.100000 0.150000
v -0.150000 -2.100000 0.150000
v 0.150000 -2.100000 -0.150000
v -0.150000 -2.100000 -0.150000
v 0.200180 -0.651168 0.199949
v -0.200180 -0.651168 0.199949
v 0.200180 -0.651168 -0.199949
v -0.200180 -0.651168 -0.199949
v 0.200180 -0.851168 0.199949
v -0.200180 -0.851168 0.199949
v 0.200180 -0.851168 -0.199949
v -0.200180 -0.851168 -0.199949
v 0.199913 -2.100000 0.199949
v -0.200180 -2.100000 0.199949
v 0.199913 -2.100000 -0.199949
v -0.200180 -2.100000 -0.199949
v 0.199913 -2.300000 0.199949
v -0.200180 -2.300000 0.199949
v 0.199913 -2.300000 -0.199949
v -0.200180 -2.300000 -0.199949
v 0.150000 -2.300000 0.150000
v -0.150000 -2.300000 0.150000
v 0.150000 -2.300000 -0.150000
v -0.150000 -2.300000 -0.150000
v 0.150000 -2.400000 0.150000
v -0.150000 -2.400000 0.150000
v 0.150000 -2.400000 -0.150000
v -0.150000 -2.400000 -0.150000
v 0.250000 -0.800000 0.050000
v 0.250000 -0.700000 0.050000
v 0.250000 -0.800000 -0.050000
v 0.250000 -0.700000 -0.050000
v 0.110000 -1.290000 -0.050000
v 0.110000 -1.290000 0.050000
v 0.110000 -0.990000 -0.050000
v 0.110000 -0.990000 0.050000
v 0.210000 -1.290000 0.050000
v 0.210000 -0.990000 0.050000
v 0.210000 -1.290000 -0.050000
v 0.210000 -0.990000 -0.050000
v -0.250270 -0.451168 -0.250388
v -0.251800 -0.551637 0.249917
v -0.251800 -0.451168 0.249917
v -0.250270 -0.551637 -0.250388
vn -0.0000 -0.0000 1.0000
vn 1.0000 -0.0000 -0.0000
vn -1.0000 -0.0000 -0.0000
vn -0.0000 -0.0000 -1.0000
vn -0.0000 1.0000 -0.0000
vn -0.0000 -1.0000 -0.0000
vn 1.0000 -0.0000 0.0031
vn -1.0000 -0.0000 -0.0031
vt 0.906250 0.375000
vt 0.906250 0.343750
vt 0.750000 0.375000
vt 0.750000 0.343750
vt 0.468750 0.343750
vt 0.593750 0.343750
vt 0.468750 0.406250
vt 0.593750 0.406250
vt 0.093750 0.812500
vt 0.093750 0.906250
vt 0.281250 0.906250
vt 0.281250 0.812500
vt 0.906250 0.156250
vt 0.750000 0.437500
vt 0.781250 0.468750
vt 0.781250 0.437500
vt 0.750000 0.406250
vt 0.781250 0.500000
vt 0.781250 0.531250
vt 0.781250 0.406250
vt 0.093750 0.812500
vt 0.093750 0.718750
vt 0.000000 0.812500
vt 0.562500 0.812500
vt 0.093750 0.906250
vt 0.000000 0.906250
vt 0.093750 1.000000
vt 0.562500 0.906250
vt 0.437500 0.812500
vt 0.156250 1.000000
vt 0.500000 0.906250
vt 0.156250 0.718750
vt 0.437500 0.906250
vt 0.500000 0.812500
vt 0.500000 0.812500
vt 0.156250 0.937500
vt 0.437500 0.906250
vt 0.156250 0.781250
vt 0.500000 0.906250
vt 0.437500 0.812500
vt 0.281250 0.906250
vt 0.281250 0.937500
vt 0.312500 0.906250
vt 0.281250 0.781250
vt 0.312500 0.812500
vt 0.281250 0.812500
vt 0.750000 0.343750
vt 0.750000 0.000000
vt 0.718750 0.343750
vt 0.906250 0.343750
vt 0.750000 0.187500
vt 0.750000 0.156250
vt 0.718750 0.187500
vt 0.906250 0.000000
vt 0.906250 0.187500
vt 0.906250 0.937500
vt 0.906250 1.000000
vt 0.906250 0.718750
vt 0.843750 0.937500
vt 0.906250 0.875000
vt 0.843750 1.000000
vt 0.906250 0.781250
vt 1.000000 0.937500
vt 1.000000 1.000000
vt 1.000000 0.718750
vt 1.000000 0.781250
vt 1.000000 0.875000
vt 0.187500 0.093750
vt 0.093750 0.093750
vt 0.187500 0.000000
vt 0.281250 0.093750
vt 0.093750 0.000000
vt 0.000000 0.093750
vt 0.375000 0.093750
vt 0.093750 0.687500
vt 0.000000 0.593750
vt 0.375000 0.593750
vt 0.187500 0.687500
vt 0.281250 0.593750
vt 0.093750 0.593750
vt 0.187500 0.593750
vt 0.593750 0.031250
vt 0.656250 0.343750
vt 0.593750 0.156250
vt 0.656250 0.218750
vt 0.468750 0.031250
vt 0.406250 0.343750
vt 0.468750 0.156250
vt 0.406250 0.218750
vt 0.593750 0.343750
vt 0.593750 0.218750
vt 0.468750 0.343750
vt 0.468750 0.218750
vt 0.625000 0.968750
vt 0.625000 0.593750
vt 0.562500 0.656250
vt 0.562500 0.781250
vt 0.625000 0.843750
vt 0.750000 0.968750
vt 0.750000 0.593750
vt 0.812500 0.656250
vt 0.750000 0.843750
vt 0.812500 0.781250
vt 0.750000 0.656250
vt 0.625000 0.656250
vt 0.625000 0.656250
vt 0.625000 0.781250
vt 0.750000 0.781250
vt 0.750000 0.656250
vt 0.625000 0.781250
vt 0.750000 0.781250
vt 0.531250 0.593750
vt 0.562500 0.562500
vt 0.562500 0.468750
vt 0.531250 0.437500
vt 0.406250 0.562500
vt 0.437500 0.593750
vt 0.406250 0.468750
vt 0.437500 0.437500
vt 0.531250 0.562500
vt 0.531250 0.468750
vt 0.437500 0.562500
vt 0.437500 0.468750
vt 0.812500 0.437500
vt 0.812500 0.531250
vt 0.812500 0.406250
vt 0.843750 0.437500
vt 0.812500 0.468750
vt 0.843750 0.406250
vt 0.812500 0.500000
vt 0.625000 0.531250
vt 0.718750 0.562500
vt 0.687500 0.562500
vt 0.656250 0.531250
vt 0.718750 0.406250
vt 0.625000 0.437500
vt 0.687500 0.406250
vt 0.656250 0.437500
vt 0.687500 0.531250
vt 0.687500 0.437500
vt 0.593750 0.531250
vt 0.718750 0.531250
vt 0.718750 0.437500
vt 0.593750 0.437500
vt 0.937500 0.187500
vt 0.906250 0.343750
vt 0.937500 0.343750
vt 0.906250 0.187500
s 0
usemtl Material.003
f 4/4/1 3/3/1 1/1/1 2/2/1
f 5/5/2 7/7/2 8/8/2 6/6/2
f 9/9/3 10/10/3 11/11/3 12/12/3
f 25/38/4 23/32/4 19/22/4 18/21/4 29/46/4 28/44/4
f 34/52/5 13/13/5 35/54/5 31/48/5
f 34/52/4 33/51/4 36/55/4 13/13/4
f 23/33/5 25/39/5 24/35/5 22/29/5
f 19/23/6 21/26/6 20/25/6 18/21/6
f 26/41/1 20/25/1 21/27/1 22/30/1 24/36/1 27/42/1
f 19/24/2 23/34/2 22/31/2 21/28/2
f 33/51/6 30/47/6 32/50/6 36/55/6
f 26/41/5 27/43/5 28/45/5 29/46/5
f 31/49/7 30/47/7 33/51/7 34/53/7
f 28/45/2 27/43/2 24/37/2 25/40/2
f 17/20/3 16/17/3 14/14/3 15/16/3
f 39/59/5 40/61/5 38/57/5 37/56/5
f 38/57/2 42/64/2 41/63/2 37/56/2
f 37/56/4 41/63/4 44/67/4 39/60/4
f 39/60/3 44/67/3 43/66/3 40/62/3
f 40/62/1 43/66/1 42/65/1 38/58/1
f 46/69/5 45/68/5 47/70/5 48/72/5
f 51/80/6 49/75/6 50/78/6 52/81/6
f 45/68/3 52/81/3 50/79/3 47/71/3
f 46/69/4 51/80/4 52/81/4 45/68/4
f 48/73/2 49/76/2 51/80/2 46/69/2
f 47/71/1 50/79/1 49/77/1 48/74/1
f 55/86/5 56/88/5 54/84/5 53/82/5
f 59/92/6 57/90/6 58/91/6 60/93/6
f 56/88/3 60/93/3 58/91/3 54/84/3
f 55/87/4 59/92/4 60/93/4 56/89/4
f 54/85/1 58/91/1 57/90/1 53/83/1
f 63/99/5 64/102/5 62/98/5 61/94/5
f 67/108/6 65/104/6 66/106/6 68/110/6
f 61/95/2 65/105/2 67/109/2 63/100/2
f 62/97/1 66/107/1 65/105/1 61/96/1
f 64/102/3 68/111/3 66/107/3 62/98/3
f 63/101/4 67/109/4 68/111/4 64/103/4
f 75/122/6 73/120/6 74/121/6 76/123/6
f 71/116/4 75/122/4 76/123/4 72/118/4
f 69/112/2 73/120/2 75/122/2 71/117/2
f 70/114/1 74/121/1 73/120/1 69/113/1
f 72/119/3 76/123/3 74/121/3 70/115/3
f 78/126/2 77/124/2 79/127/2 80/129/2
f 17/19/5 78/125/5 80/130/5 16/18/5
f 16/18/4 80/130/4 79/128/4 14/15/4
f 14/15/6 79/128/6 77/124/6 15/16/6
f 15/16/1 77/124/1 78/126/1 17/20/1
f 84/138/3 83/136/3 81/131/3 82/134/3
f 86/140/2 85/139/2 87/142/2 88/143/2
f 84/137/5 86/140/5 88/143/5 83/135/5
f 83/136/4 88/144/4 87/141/4 81/131/4
f 81/132/6 87/142/6 85/139/6 82/133/6
f 82/134/1 85/139/1 86/140/1 84/138/1
f 89/145/8 92/148/8 90/146/8 91/147/8
