# Blender 3.4.1
# www.blender.org
mtllib imperial_door.mtl
o frame
v -0.800000 -0.000000 0.800000
v -0.800000 3.200000 0.800000
v -0.800000 -0.000000 -0.800000
v -0.800000 3.200000 -0.800000
v 0.800000 -0.000000 0.800000
v 0.800000 3.200000 0.800000
v 0.800000 -0.000000 -0.800000
v 0.800000 3.200000 -0.800000
v -0.700000 0.100000 0.800000
v -0.700000 3.100000 0.800000
v 0.700000 3.100000 0.800000
v 0.700000 0.100000 0.800000
v -0.700000 3.100000 -0.800000
v -0.700000 0.100000 -0.800000
v 0.700000 0.100000 -0.800000
v 0.700000 3.100000 -0.800000
vn -1.0000 -0.0000 -0.0000
vn -0.0000 -0.0000 -1.0000
vn 1.0000 -0.0000 -0.0000
vn -0.0000 -0.0000 1.0000
vn -0.0000 -1.0000 -0.0000
vn -0.0000 1.0000 -0.0000
vt 0.500000 -0.000000
vt 0.250000 0.250000
vt 0.250000 0.750000
vt 0.000000 0.250000
vt 0.500000 0.250000
vt 0.000000 0.750000
vt 0.250000 1.000000
vt 0.500000 0.750000
vt 0.250000 0.250000
vt 0.250000 0.000000
vt 0.500000 0.250000
vt 0.250000 0.750000
vt 0.500000 0.750000
vt 0.000000 0.250000
vt 0.250000 0.250000
vt 0.000000 0.750000
vt 0.500000 1.000000
vt 0.250000 0.750000
vt 0.500000 0.265625
vt 0.265625 0.265625
vt 0.734375 0.265625
vt 0.500000 0.734375
vt 0.265625 0.734375
vt 0.734375 0.734375
vt 0.484375 0.734375
vt 0.750000 0.734375
vt 0.515625 0.734375
vt 0.484375 0.265625
vt 0.515625 0.265625
vt 0.750000 0.265625
vt 0.750000 0.734375
vt 0.484375 0.734375
vt 0.734375 0.984375
vt 0.750000 0.265625
vt 0.734375 0.015625
vt 0.484375 0.265625
vt 0.515625 0.015625
vt 0.265625 0.265625
vt 0.500000 0.265625
vt 0.265625 0.734375
vt 0.500000 0.734375
vt 0.515625 0.984375
s 0
usemtl Material
f 1/2/1 2/3/1 4/6/1 3/4/1
f 8/18/2 7/15/2 15/38/2 16/40/2
f 7/14/3 8/16/3 6/12/3 5/9/3
f 6/13/4 2/3/4 10/23/4 11/25/4
f 3/5/5 7/15/5 5/10/5 1/1/5
f 8/17/6 4/7/6 2/3/6 6/13/6
f 10/22/3 9/19/3 14/34/3 13/31/3
f 5/11/4 6/13/4 11/25/4 12/28/4
f 2/3/4 1/2/4 9/20/4 10/23/4
f 1/2/4 5/11/4 12/28/4 9/20/4
f 9/21/6 12/29/6 15/37/6 14/35/6
f 7/15/2 3/5/2 14/36/2 15/38/2
f 4/8/2 8/18/2 16/40/2 13/32/2
f 3/5/2 4/8/2 13/32/2 14/36/2
f 12/30/1 11/26/1 16/41/1 15/39/1
f 11/27/5 10/24/5 13/33/5 16/42/5
o door
v -0.700000 0.100000 0.200000
v -0.700000 3.100000 0.200000
v -0.700000 0.100000 -0.200000
v -0.700000 3.100000 -0.200000
v 0.700000 0.100000 0.200000
v 0.700000 3.100000 0.200000
v 0.700000 0.100000 -0.200000
v 0.700000 3.100000 -0.200000
vn -1.0000 -0.0000 -0.0000
vn -0.0000 -0.0000 -1.0000
vn 1.0000 -0.0000 -0.0000
vn -0.0000 -0.0000 1.0000
vn -0.0000 -1.0000 -0.0000
vn -0.0000 1.0000 -0.0000
vt 0.843750 0.000000
vt 0.781250 0.531250
vt 0.843750 0.468750
vt 0.781250 1.000000
vt 0.781250 0.468750
vt 0.781250 0.000000
vt 1.000000 0.531250
vt 0.781250 0.468750
vt 0.781250 0.468750
vt 1.000000 1.000000
vt 0.781250 0.531250
vt 0.781250 0.000000
vt 1.000000 0.531250
vt 0.781250 0.468750
vt 1.000000 1.000000
vt 1.000000 0.468750
vt 0.781250 0.531250
vt 0.843750 0.000000
vt 1.000000 0.468750
vt 0.781250 1.000000
vt 0.843750 0.468750
vt 1.000000 0.531250
s 0
usemtl Material
f 17/43/7 18/45/7 20/51/7 19/48/7
f 19/49/8 20/52/8 24/62/8 23/59/8
f 23/60/9 24/63/9 22/56/9 21/54/9
f 21/55/10 22/57/10 18/46/10 17/44/10
f 19/50/11 23/61/11 21/55/11 17/44/11
f 24/64/12 20/53/12 18/47/12 22/58/12
