# Blender v2.92.0 OBJ File: ''
# www.blender.org
mtllib dc15model2.mtl
o dc15model
v 0.087005 -0.391026 -0.918882
v -0.087005 -0.391026 -0.918882
v -0.087005 0.026027 -0.636037
v 0.087005 0.026027 -0.636037
v 0.087005 0.026731 -0.309899
v -0.087005 0.026731 -0.309899
v -0.087005 -0.619856 -0.647506
v 0.087005 -0.619856 -0.647506
v -0.087005 0.200709 -1.034672
v -0.087005 0.299914 -1.034671
v 0.087005 0.299914 -1.034671
v 0.087005 0.200709 -1.034672
v 0.087005 0.144722 -1.034672
v -0.087005 0.144722 -1.034672
v -0.087005 0.299914 -0.636036
v -0.087005 0.026731 -0.147560
v -0.087005 0.300618 -0.147559
v 0.087005 0.026731 -0.147560
v 0.087005 0.300618 -0.147559
v 0.087005 0.299914 -0.636036
v -0.087005 0.200710 -0.705462
v 0.087005 0.200710 -0.705462
v -0.087005 0.299914 -0.705462
v 0.087005 0.299914 -0.705462
v -0.087005 0.200710 -0.848791
v 0.087005 0.200710 -0.848791
v -0.087005 0.299914 -0.848790
v 0.087005 0.299914 -0.848790
v 0.087005 0.144722 -0.848791
v -0.087005 0.144722 -0.848791
v 0.156051 0.287780 -1.389404
v -0.156051 0.287780 -1.389404
v -0.156051 0.599882 -1.195409
v 0.156051 0.599882 -1.195409
v -0.156051 0.599881 3.973049
v 0.156051 0.599881 3.973049
v -0.156051 0.287779 3.973049
v 0.156051 0.287779 3.973049
v 0.061334 -0.109766 -2.728427
v -0.061334 -0.109766 -2.728427
v -0.061334 0.180382 -2.669063
v 0.061334 0.180382 -2.669063
v 0.061334 0.547742 -2.023275
v -0.061334 0.547742 -2.023275
v -0.061334 0.547742 -1.138098
v 0.061334 0.547742 -1.138098
v -0.061334 0.309512 -1.369052
v 0.061334 0.309512 -1.369052
v -0.061334 0.245985 -1.896221
v 0.061334 0.245985 -1.896221
v -0.061334 0.146097 -2.185939
v 0.061334 0.146097 -2.185939
v -0.061334 0.850917 -2.531159
v 0.061334 0.850917 -2.531159
v -0.061334 0.865377 -2.919008
v -0.061334 0.522294 -2.694070
v 0.061334 0.522294 -2.694070
v 0.061334 0.865377 -2.919008
v 0.028725 0.033668 -0.271472
v -0.028725 0.033668 -0.271472
v -0.028725 0.106065 -0.202716
v 0.028725 0.106065 -0.202716
v -0.028725 0.017632 -0.109600
v 0.028725 0.017632 -0.109600
v 0.028725 0.293092 0.034117
v -0.028725 0.293092 0.034117
v -0.028725 0.293883 0.232835
v 0.028725 0.293883 0.232835
v 0.028725 -0.054765 -0.178357
v -0.028725 -0.054765 -0.178357
v -0.028725 0.017633 0.066054
v 0.028725 0.017633 0.066054
v -0.028725 -0.054765 0.109078
v 0.028725 -0.054765 0.109078
v -0.028725 0.054893 0.109968
v 0.028725 0.054893 0.109968
v -0.028725 0.022417 0.164968
v 0.028725 0.022417 0.164968
v -0.028725 0.241194 0.109968
v 0.028725 0.241194 0.109968
v -0.028725 0.241986 0.164968
v 0.028725 0.241986 0.164968
v -0.011591 0.082824 -0.170691
v -0.011591 0.292598 -0.170691
v 0.011591 0.292598 -0.170691
v 0.011591 0.082824 -0.170691
v 0.011591 0.009944 -0.170691
v -0.011591 0.009944 -0.170691
v -0.011591 0.292598 0.009838
v 0.011591 0.292598 0.009838
v -0.011591 0.082824 -0.058245
v 0.011591 0.082824 -0.058245
v 0.011591 0.009944 -0.024203
v -0.011591 0.009944 -0.024203
v 0.168181 0.273751 0.834082
v -0.168181 0.273751 0.834082
v -0.168181 0.618009 0.834082
v 0.168181 0.618009 0.834082
v -0.168181 0.618009 0.921164
v 0.168181 0.618009 0.921164
v -0.168181 0.273751 0.921164
v 0.168181 0.273751 0.921164
v 0.101342 0.569251 0.913820
v -0.101342 0.574114 0.913820
v -0.101342 0.748406 1.039369
v 0.101342 0.748406 1.039369
v -0.101342 0.748406 1.288954
v 0.101342 0.748406 1.288954
v -0.101342 0.667011 1.359485
v 0.101342 0.667011 1.359485
v 0.101342 0.667011 1.668662
v -0.101342 0.667011 1.668662
v -0.101342 0.574114 1.679361
v 0.101342 0.569251 1.679361
v 0.130322 0.682278 1.951532
v -0.130322 0.682278 1.951532
v -0.130322 0.911003 2.251624
v 0.130322 0.911003 2.251624
v -0.130322 0.911003 2.449119
v 0.130322 0.911003 2.449119
v -0.130322 0.581227 2.868635
v 0.130322 0.581227 2.868635
v -0.130322 0.581227 1.951532
v 0.130322 0.581227 1.951532
v 0.131208 0.120615 1.047689
v -0.131208 0.120615 1.047689
v -0.131208 0.298180 1.047689
v 0.131208 0.298180 1.047689
v -0.131208 0.298179 3.903870
v 0.131208 0.298179 3.903870
v -0.131208 0.120614 3.903870
v 0.131208 0.120614 3.903870
v 0.105671 -0.064417 3.129968
v -0.105671 -0.064417 3.129968
v -0.105671 0.130429 3.057115
v 0.105671 0.130429 3.057115
v -0.105671 0.130428 3.783441
v 0.105671 0.130428 3.783441
v -0.105671 -0.064417 3.710588
v 0.105671 -0.064417 3.710588
v 0.092675 -0.213631 3.577055
v -0.092675 -0.213631 3.577055
v -0.092675 -0.213631 3.319455
v 0.092675 -0.213631 3.319455
v -0.092675 -0.064417 3.655852
v 0.092675 -0.064417 3.655852
v -0.092675 -0.064417 3.240660
v 0.092675 -0.064417 3.240660
v 0.177291 -0.286517 1.731073
v -0.177291 -0.286517 1.731073
v -0.177291 0.068065 1.731073
v 0.177291 0.068065 1.731073
v 0.210773 0.135585 2.466071
v -0.210773 0.135585 2.466071
v -0.210773 0.135585 2.569594
v 0.210773 0.135585 2.569594
v 0.163132 0.087945 2.931154
v -0.163132 0.087945 2.931154
v -0.163132 -0.238320 2.931154
v 0.163132 -0.238320 2.931154
v 0.210773 -0.285961 2.569594
v -0.210773 -0.285961 2.569594
v -0.210773 -0.285961 2.466071
v 0.210773 -0.285961 2.466071
v -0.163132 0.087945 2.569594
v 0.163132 0.087945 2.569594
v -0.163132 -0.238320 2.569594
v 0.163132 -0.238320 2.569594
v -0.114763 -0.189951 2.466071
v 0.114763 -0.189951 2.466071
v -0.114763 0.039576 2.466071
v 0.114763 0.039576 2.466071
v -0.177291 -0.286517 2.119030
v 0.177291 -0.286517 2.119030
v -0.177291 0.068065 2.119030
v 0.177291 0.068065 2.119030
v 0.231253 0.214801 3.945404
v -0.231253 0.214801 3.945404
v -0.231253 0.677306 3.945404
v 0.231253 0.677306 3.945404
v -0.231253 0.677306 6.166943
v 0.231253 0.677306 6.166943
v 0.213624 0.659677 6.312881
v -0.213624 0.659677 6.312881
v -0.213624 0.232430 6.312881
v 0.213624 0.232430 6.312881
v 0.231253 0.214801 6.166943
v -0.231253 0.214801 6.166943
v -0.213624 0.659677 6.166943
v 0.213624 0.659677 6.166943
v -0.213624 0.232430 6.166943
v 0.213624 0.232430 6.166943
v 0.090392 0.584706 3.444517
v -0.090392 0.584706 3.444517
v -0.090392 0.753481 3.444517
v 0.090392 0.753481 3.444517
v -0.090392 0.753481 4.027462
v 0.090392 0.753481 4.027462
v -0.090392 0.584706 6.127872
v 0.090392 0.584706 6.127872
v 0.090392 0.835363 6.127872
v -0.090392 0.835363 6.127872
v 0.090392 0.835363 4.027462
v -0.090392 0.835363 4.027462
v 0.099898 0.806794 5.620242
v -0.099898 0.806794 5.620242
v -0.099898 0.939104 5.620242
v 0.099898 0.939104 5.620242
v -0.099898 0.939104 6.411899
v 0.099898 0.939104 6.411899
v -0.099898 0.806794 6.411899
v 0.099898 0.806794 6.411899
vt 0.343750 0.062500
vt 0.359375 0.062500
vt 0.359375 0.101562
vt 0.343750 0.101562
vt 0.265625 0.117188
vt 0.250000 0.117188
vt 0.250000 0.062500
vt 0.265625 0.062500
vt 0.296875 0.101562
vt 0.296875 0.085938
vt 0.328125 0.085938
vt 0.328125 0.101562
vt 0.028758 0.136710
vt 0.051699 0.117365
vt 0.080239 0.171996
vt 0.052668 0.171996
vt 0.300184 0.117233
vt 0.323130 0.136581
vt 0.299214 0.171874
vt 0.271638 0.171874
vt 0.359375 0.156250
vt 0.359375 0.164062
vt 0.343750 0.164062
vt 0.343750 0.156250
vt 0.343750 0.148438
vt 0.359375 0.148438
vt 0.052668 0.195165
vt 0.093962 0.171996
vt 0.093962 0.195165
vt 0.250000 0.132812
vt 0.265625 0.132812
vt 0.265625 0.156250
vt 0.250000 0.156250
vt 0.299214 0.195032
vt 0.257912 0.195032
vt 0.257912 0.171874
vt 0.028758 0.136710
vt 0.028758 0.136710
vt 0.028758 0.136710
vt 0.028758 0.136710
vt 0.359375 0.117188
vt 0.343750 0.117188
vt 0.046910 0.195165
vt 0.046910 0.187130
vt 0.028758 0.136710
vt 0.028758 0.136710
vt 0.305154 0.187069
vt 0.305154 0.195032
vt 0.359219 0.128716
vt 0.343870 0.128716
vt 0.028758 0.136710
vt 0.028758 0.136710
vt 0.028758 0.136710
vt 0.028758 0.136710
vt 0.316544 0.195032
vt 0.316544 0.187069
vt 0.316544 0.182798
vt 0.331226 0.182798
vt 0.331226 0.187221
vt 0.331226 0.195032
vt 0.343870 0.132777
vt 0.359219 0.132777
vt 0.035578 0.195165
vt 0.020737 0.195165
vt 0.020737 0.187262
vt 0.020737 0.182792
vt 0.035578 0.182792
vt 0.035578 0.187130
vt 0.453049 0.273370
vt 0.453049 0.242282
vt 0.484704 0.242282
vt 0.484704 0.273370
vt 0.984785 0.242282
vt 0.984785 0.273370
vt 0.028758 0.136710
vt 0.028758 0.136710
vt 0.028758 0.136710
vt 0.028758 0.136710
vt 0.984785 0.304733
vt 0.984785 0.336114
vt 0.465265 0.336114
vt 0.465265 0.304733
vt 0.465656 0.210895
vt 0.984785 0.210895
vt 0.203125 0.242188
vt 0.218750 0.242188
vt 0.218627 0.268114
vt 0.203148 0.268114
vt 0.320312 0.367188
vt 0.320312 0.351562
vt 0.406250 0.351562
vt 0.406250 0.367188
vt 0.028758 0.136710
vt 0.028758 0.136710
vt 0.028758 0.136710
vt 0.028758 0.136710
vt 0.406250 0.210938
vt 0.406250 0.226562
vt 0.356233 0.226506
vt 0.356233 0.210790
vt 0.333282 0.275049
vt 0.384124 0.281175
vt 0.406398 0.304151
vt 0.321029 0.304151
vt 0.016120 0.303924
vt 0.038266 0.281081
vt 0.088815 0.274990
vt 0.100998 0.303925
vt 0.328125 0.226562
vt 0.328125 0.210938
vt 0.272047 0.333390
vt 0.305341 0.265415
vt 0.273438 0.367188
vt 0.273438 0.351562
vt 0.116595 0.265412
vt 0.149698 0.332995
vt 0.258748 0.268722
vt 0.253022 0.240739
vt 0.234642 0.334784
vt 0.256336 0.301697
vt 0.277619 0.226506
vt 0.277619 0.210790
vt 0.168613 0.240878
vt 0.162921 0.268699
vt 0.165319 0.301484
vt 0.186888 0.334382
vt 0.234375 0.367188
vt 0.234375 0.351562
vt 0.203148 0.301999
vt 0.218627 0.301999
vt 0.218750 0.335938
vt 0.203125 0.335938
vt 0.028758 0.136710
vt 0.028758 0.136710
vt 0.028758 0.136710
vt 0.028758 0.136710
vt 0.156250 0.125000
vt 0.164062 0.125000
vt 0.164062 0.132812
vt 0.156250 0.132812
vt 0.028758 0.136710
vt 0.028758 0.136710
vt 0.028758 0.136710
vt 0.028758 0.136710
vt 0.179688 0.132812
vt 0.171875 0.132812
vt 0.171875 0.125000
vt 0.179688 0.125000
vt 0.109598 0.172934
vt 0.117273 0.165644
vt 0.122941 0.171612
vt 0.115266 0.178901
vt 0.234352 0.165509
vt 0.242035 0.172806
vt 0.236362 0.178780
vt 0.228678 0.171483
vt 0.164062 0.148438
vt 0.156250 0.148438
vt 0.140965 0.165644
vt 0.137419 0.171612
vt 0.179688 0.156250
vt 0.171875 0.156250
vt 0.214184 0.171483
vt 0.210633 0.165509
vt 0.164062 0.156250
vt 0.156250 0.156250
vt 0.145572 0.172006
vt 0.141039 0.174683
vt 0.179688 0.164062
vt 0.171875 0.164062
vt 0.210560 0.174558
vt 0.206022 0.171878
vt 0.164062 0.171875
vt 0.156250 0.171875
vt 0.145572 0.190104
vt 0.141039 0.190039
vt 0.179688 0.179688
vt 0.171875 0.179688
vt 0.210560 0.189963
vt 0.206022 0.189963
vt 0.164062 0.179688
vt 0.156250 0.179688
vt 0.151166 0.194382
vt 0.134787 0.194317
vt 0.179688 0.187500
vt 0.171875 0.187500
vt 0.216819 0.194246
vt 0.200421 0.194246
vt 0.028758 0.136710
vt 0.028758 0.136710
vt 0.028758 0.136710
vt 0.028758 0.136710
vt 0.028758 0.136710
vt 0.028758 0.136710
vt 0.028758 0.136710
vt 0.028758 0.136710
vt 0.195312 0.171875
vt 0.187500 0.171875
vt 0.187500 0.156250
vt 0.195312 0.156250
vt 0.028758 0.136710
vt 0.028758 0.136710
vt 0.103320 0.177960
vt 0.108891 0.195125
vt 0.094119 0.195125
vt 0.094119 0.177960
vt 0.094119 0.171996
vt 0.106105 0.171996
vt 0.257379 0.177843
vt 0.257379 0.194953
vt 0.242655 0.194953
vt 0.248208 0.177843
vt 0.245431 0.171898
vt 0.257379 0.171898
vt 0.187500 0.148438
vt 0.195312 0.148438
vt 0.515625 0.359375
vt 0.546875 0.359375
vt 0.546875 0.390625
vt 0.515625 0.390625
vt 0.585938 0.398438
vt 0.554688 0.398438
vt 0.554688 0.390625
vt 0.585938 0.390625
vt 0.554688 0.359375
vt 0.585938 0.359375
vt 0.554688 0.351562
vt 0.585938 0.351562
vt 0.593750 0.359375
vt 0.593750 0.390625
vt 0.609375 0.382812
vt 0.609375 0.367188
vt 0.625000 0.367188
vt 0.625000 0.382812
vt 0.648438 0.367188
vt 0.648438 0.382812
vt 0.654004 0.367214
vt 0.654004 0.382756
vt 0.679688 0.382812
vt 0.679688 0.367188
vt 0.687500 0.367188
vt 0.687500 0.382812
vt 0.613746 0.398082
vt 0.654282 0.390601
vt 0.682403 0.390723
vt 0.683376 0.398082
vt 0.613772 0.351572
vt 0.683239 0.351572
vt 0.682269 0.359375
vt 0.653947 0.359375
vt 0.028758 0.136710
vt 0.028758 0.136710
vt 0.028758 0.136710
vt 0.028758 0.136710
vt 0.742188 0.406250
vt 0.742188 0.382812
vt 0.777781 0.382893
vt 0.777781 0.406300
vt 0.796875 0.382812
vt 0.796875 0.406250
vt 0.851162 0.382893
vt 0.851562 0.406250
vt 0.028758 0.136710
vt 0.028758 0.136710
vt 0.028758 0.136710
vt 0.028758 0.136710
vt 0.750000 0.429688
vt 0.835938 0.437500
vt 0.750000 0.437500
vt 0.750000 0.359375
vt 0.750000 0.351562
vt 0.835938 0.351562
vt 0.734375 0.406250
vt 0.734375 0.382812
vt 0.390625 0.179688
vt 0.390625 0.156250
vt 0.375000 0.156250
vt 0.375000 0.179688
vt 0.028758 0.136710
vt 0.028758 0.136710
vt 0.028758 0.136710
vt 0.028758 0.136710
vt 0.656250 0.179688
vt 0.656250 0.156250
vt 0.640625 0.156250
vt 0.640625 0.179688
vt 0.640625 0.140625
vt 0.390625 0.140625
vt 0.390625 0.195312
vt 0.640625 0.195312
vt 0.421875 0.039062
vt 0.398438 0.039062
vt 0.398528 0.020190
vt 0.421782 0.020190
vt 0.028758 0.136710
vt 0.028758 0.136710
vt 0.028758 0.136710
vt 0.028758 0.136710
vt 0.421782 0.121390
vt 0.398528 0.121390
vt 0.398438 0.101562
vt 0.421875 0.101562
vt 0.492188 0.109375
vt 0.476562 0.109375
vt 0.476562 0.085938
vt 0.492188 0.085938
vt 0.379197 0.108939
vt 0.379197 0.031108
vt 0.441707 0.031065
vt 0.441707 0.108783
vt 0.400109 0.095179
vt 0.420244 0.095179
vt 0.400109 0.050690
vt 0.420244 0.050690
vt 0.492188 0.125000
vt 0.476562 0.125000
vt 0.460938 0.117188
vt 0.460938 0.078125
vt 0.476562 0.070312
vt 0.492188 0.070312
vt 0.507812 0.078125
vt 0.507812 0.117188
vt 0.671875 0.164062
vt 0.703125 0.164062
vt 0.703125 0.195312
vt 0.671875 0.195312
vt 0.820312 0.187500
vt 0.820312 0.148438
vt 0.828125 0.148438
vt 0.828125 0.187500
vt 0.945312 0.195312
vt 0.914062 0.195312
vt 0.914062 0.164062
vt 0.945312 0.164062
vt 0.828125 0.070312
vt 0.828125 0.109375
vt 0.820312 0.109375
vt 0.820312 0.070312
vt 0.867188 0.187500
vt 0.867188 0.195312
vt 0.828125 0.195312
vt 0.832715 0.152684
vt 0.832715 0.182852
vt 0.867188 0.148438
vt 0.862884 0.152684
vt 0.862884 0.182852
vt 0.882812 0.101562
vt 0.882812 0.070312
vt 0.914062 0.070312
vt 0.914062 0.101562
vt 0.882812 0.195312
vt 0.882812 0.164062
vt 0.882812 0.132812
vt 0.914062 0.132812
vt 0.781250 0.187500
vt 0.781250 0.148438
vt 0.790112 0.157285
vt 0.790112 0.178393
vt 0.811326 0.157285
vt 0.811326 0.178393
vt 0.765380 0.138312
vt 0.765380 0.158495
vt 0.734375 0.164062
vt 0.734375 0.132812
vt 0.765481 0.172527
vt 0.765481 0.192870
vt 0.734375 0.195312
vt 0.765419 0.075834
vt 0.765419 0.096056
vt 0.734375 0.101562
vt 0.734375 0.070312
vt 0.765371 0.104099
vt 0.765371 0.124373
vt 0.703125 0.132812
vt 0.703125 0.101562
vt 0.703125 0.070312
vt 0.515625 0.453125
vt 0.562500 0.453125
vt 0.562500 0.500000
vt 0.515625 0.500000
vt 0.562500 0.546875
vt 0.781250 0.500000
vt 0.781250 0.546875
vt 0.906250 0.500000
vt 0.859375 0.500000
vt 0.859375 0.453125
vt 0.906250 0.453125
vt 0.781250 0.593750
vt 0.781250 0.640625
vt 0.562500 0.640625
vt 0.562500 0.593750
vt 0.781250 0.453125
vt 0.828125 0.593750
vt 0.828125 0.640625
vt 0.824219 0.636719
vt 0.824219 0.597656
vt 0.785156 0.636719
vt 0.785156 0.597656
vt 0.843750 0.546875
vt 0.843750 0.500000
vt 0.859375 0.546875
vt 0.843750 0.453125
vt 0.843750 0.640625
vt 0.843750 0.593750
vt 0.859375 0.593750
vt 0.859375 0.640625
vt 0.500000 0.695312
vt 0.500000 0.679688
vt 0.515625 0.679688
vt 0.515625 0.695312
vt 0.570312 0.679688
vt 0.570312 0.695312
vt 0.796875 0.679688
vt 0.796875 0.695312
vt 0.773438 0.695312
vt 0.773438 0.679688
vt 0.028758 0.136710
vt 0.028758 0.136710
vt 0.028758 0.136710
vt 0.028758 0.136710
vt 0.773438 0.718750
vt 0.523438 0.718750
vt 0.523438 0.703125
vt 0.578125 0.703125
vt 0.578125 0.695312
vt 0.578125 0.679688
vt 0.773438 0.656250
vt 0.578125 0.671875
vt 0.523438 0.671875
vt 0.523438 0.656250
vt 0.726562 0.789062
vt 0.726562 0.812500
vt 0.710938 0.812500
vt 0.710938 0.789062
vt 0.726562 0.773438
vt 0.726562 0.750000
vt 0.812500 0.750000
vt 0.812500 0.773438
vt 0.828125 0.750000
vt 0.828125 0.773438
vt 0.812500 0.789062
vt 0.812500 0.812500
vt 0.726562 0.734375
vt 0.812500 0.734375
vn 0.0000 0.5613 -0.8276
vn 0.0000 -0.4628 0.8864
vn 0.0000 -0.7645 -0.6446
vn -1.0000 -0.0000 0.0000
vn 1.0000 -0.0000 0.0000
vn 0.0000 0.0000 -1.0000
vn 0.0000 -0.0000 1.0000
vn 0.0000 -1.0000 -0.0000
vn 0.0000 1.0000 -0.0007
vn 0.0000 1.0000 -0.0014
vn 0.0000 -0.3693 -0.9293
vn 0.0000 1.0000 0.0000
vn 0.0000 0.5279 -0.8493
vn 0.0000 0.2004 -0.9797
vn -0.0000 0.0543 -0.9985
vn 0.0000 -0.6961 0.7180
vn 0.0000 -0.9928 0.1196
vn 0.0000 -0.9454 0.3259
vn 0.0000 -0.9195 0.3931
vn 0.0000 0.8587 0.5126
vn 0.0000 0.9425 0.3342
vn 0.0000 -0.9044 0.4266
vn 0.0000 0.9993 0.0373
vn 0.0000 -0.3428 -0.9394
vn 0.0000 -0.5483 -0.8363
vn 0.0000 0.6886 -0.7251
vn 0.0000 0.7251 0.6886
vn 0.0000 1.0000 -0.0040
vn 0.0000 -0.7251 -0.6886
vn 0.0000 0.7625 -0.6470
vn 0.0000 -0.5865 0.8099
vn 0.0000 -0.8253 -0.5647
vn 0.0000 -0.7944 0.6074
vn 0.0000 -0.3087 0.9512
vn 0.0000 -0.1196 0.9928
vn 0.0000 0.4232 0.9060
vn 0.0069 0.5791 -0.8152
vn 0.0000 0.6549 0.7557
vn 0.0013 0.1115 0.9938
vn -0.0240 -0.9997 -0.0000
vn 0.0000 0.7953 -0.6062
vn 0.0000 0.7862 0.6180
vn 0.0000 -0.3502 -0.9367
vn 0.0000 -0.3502 0.9367
vn 0.0000 -0.4670 0.8843
vn 0.0000 -0.4670 -0.8843
vn 0.0000 -0.9634 0.2681
vn -0.9842 0.0000 0.1773
vn 0.0000 0.9966 0.0818
vn 0.9842 0.0000 0.1773
usemtl dc15model_initialShadingGroup
s 1
f 1/1/1 2/2/1 3/3/1 4/4/1
f 5/5/2 6/6/2 7/7/2 8/8/2
f 8/9/3 7/10/3 2/11/3 1/12/3
f 2/13/4 7/14/4 6/15/4 3/16/4
f 8/17/5 1/18/5 4/19/5 5/20/5
f 9/21/6 10/22/6 11/23/6 12/24/6 13/25/6 14/26/6
f 15/27/4 3/16/4 6/15/4 16/28/4 17/29/4
f 16/30/7 18/31/7 19/32/7 17/33/7
f 6/6/8 5/5/8 18/31/8 16/30/8
f 20/34/5 19/35/5 18/36/5 5/20/5 4/19/5
f 15/37/9 17/38/10 19/39/10 20/40/9
f 4/4/11 3/3/11 21/41/11 22/42/11
f 3/16/4 15/27/4 23/43/4 21/44/4
f 15/37/9 20/40/9 24/45/12 23/46/12
f 20/34/5 4/19/5 22/47/5 24/48/5
f 22/42/8 21/41/8 25/49/8 26/50/8
f 27/51/12 23/46/12 24/45/12 28/52/12 11/53/12 10/54/12
f 28/55/5 24/48/5 22/47/5 26/56/5 29/57/5 13/58/5 12/59/5 11/60/5
f 29/61/8 30/62/8 14/26/8 13/25/8
f 26/50/7 25/49/7 30/62/7 29/61/7
f 27/63/4 10/64/4 9/65/4 14/66/4 30/67/4 25/68/4 21/44/4 23/43/4
f 31/69/13 32/70/13 33/71/13 34/72/13
f 34/72/12 33/71/12 35/73/12 36/74/12
f 36/75/7 35/76/7 37/77/7 38/78/7
f 38/79/8 37/80/8 32/81/8 31/82/8
f 32/83/4 37/84/4 35/73/4 33/71/4
f 38/79/5 31/82/5 34/72/5 36/74/5
f 39/85/14 40/86/14 41/87/15 42/88/15
f 43/89/12 44/90/12 45/91/12 46/92/12
f 45/93/16 47/94/16 48/95/16 46/96/16
f 48/97/17 47/98/17 49/99/17 50/100/17
f 49/101/4 47/102/4 45/103/4 44/104/4
f 46/105/5 48/106/5 50/107/5 43/108/5
f 50/100/18 49/99/18 51/109/19 52/110/19
f 53/111/4 51/112/4 49/101/4 44/104/4
f 44/90/20 43/89/20 54/113/21 53/114/21
f 50/107/5 52/115/5 54/116/5 43/108/5
f 41/117/4 40/118/4 51/112/4 53/111/4 55/119/4 56/120/4
f 52/110/19 51/109/19 40/121/22 39/122/22
f 52/115/5 39/123/5 42/124/5 57/125/5 58/126/5 54/116/5
f 53/114/21 54/113/21 58/127/23 55/128/23
f 57/129/24 56/130/24 55/131/25 58/132/25
f 42/88/15 41/87/15 56/130/24 57/129/24
f 59/133/26 60/134/26 61/135/26 62/136/26
f 62/137/27 61/138/27 63/139/27 64/140/27
f 65/141/28 66/142/28 67/143/28 68/144/28
f 69/145/29 70/146/29 60/147/29 59/148/29
f 60/149/4 70/150/4 63/151/4 61/152/4
f 69/153/5 59/154/5 62/155/5 64/156/5
f 64/140/12 63/139/12 71/157/12 72/158/12
f 63/151/4 70/150/4 73/159/4 71/160/4
f 70/146/8 69/145/8 74/161/8 73/162/8
f 69/153/5 64/156/5 72/163/5 74/164/5
f 72/158/30 71/157/30 75/165/30 76/166/30
f 71/160/4 73/159/4 77/167/4 75/168/4
f 73/162/31 74/161/31 78/169/31 77/170/31
f 74/164/5 72/163/5 76/171/5 78/172/5
f 76/166/6 75/165/6 79/173/6 80/174/6
f 75/168/4 77/167/4 81/175/4 79/176/4
f 77/170/7 78/169/7 82/177/7 81/178/7
f 78/172/5 76/171/5 80/179/5 82/180/5
f 80/174/32 79/173/32 66/181/32 65/182/32
f 79/176/4 81/175/4 67/183/4 66/184/4
f 81/178/33 82/177/33 68/185/33 67/186/33
f 82/180/5 80/179/5 65/187/5 68/188/5
f 83/189/6 84/190/6 85/191/6 86/192/6 87/193/6 88/194/6
f 85/191/12 84/190/12 89/195/12 90/196/12
f 90/197/34 89/198/34 91/199/35 92/200/35
f 93/201/8 94/202/8 88/194/8 87/193/8
f 91/203/4 89/204/4 84/205/4 83/206/4 88/207/4 94/208/4
f 86/209/5 85/210/5 90/211/5 92/212/5 93/213/5 87/214/5
f 92/200/35 91/199/35 94/215/36 93/216/36
f 95/217/6 96/218/6 97/219/6 98/220/6
f 98/221/12 97/222/12 99/223/12 100/224/12
f 100/224/7 99/223/7 101/225/7 102/226/7
f 102/226/8 101/225/8 96/227/8 95/228/8
f 96/218/4 101/225/4 99/223/4 97/219/4
f 102/226/5 95/229/5 98/230/5 100/224/5
f 103/231/37 104/232/37 105/233/37 106/234/37
f 106/234/12 105/233/12 107/235/12 108/236/12
f 108/236/38 107/235/38 109/237/38 110/238/38
f 111/239/39 112/240/39 113/241/39 114/242/39
f 103/243/5 106/234/5 108/236/5 110/244/5 111/245/5 114/246/5
f 110/238/12 109/237/12 112/240/12 111/239/12
f 104/247/4 113/248/4 112/249/4 109/250/4 107/235/4 105/233/4
f 104/251/40 103/252/40 114/253/40 113/254/40
f 115/255/41 116/256/41 117/257/41 118/258/41
f 118/258/12 117/257/12 119/259/12 120/260/12
f 120/260/42 119/259/42 121/261/42 122/262/42
f 122/263/8 121/264/8 123/265/8 124/266/8
f 115/267/5 118/258/5 120/260/5 122/268/5 124/269/5
f 116/270/4 123/271/4 121/272/4 119/259/4 117/257/4
f 116/256/6 115/255/6 124/273/6 123/274/6
f 125/275/6 126/276/6 127/277/6 128/278/6
f 128/279/12 127/280/12 129/281/12 130/282/12
f 130/283/7 129/284/7 131/285/7 132/286/7
f 132/286/8 131/285/8 126/276/8 125/275/8
f 126/276/4 131/285/4 129/287/4 127/288/4
f 132/286/5 125/275/5 128/289/5 130/290/5
f 133/291/43 134/292/43 135/293/43 136/294/43
f 136/295/12 135/296/12 137/297/12 138/298/12
f 138/299/44 137/300/44 139/301/44 140/302/44
f 141/303/8 142/304/8 143/305/8 144/306/8
f 134/292/4 139/301/4 137/307/4 135/308/4
f 140/302/5 133/291/5 136/309/5 138/310/5
f 140/302/8 139/301/8 145/311/8 146/312/8
f 139/301/8 134/292/8 147/313/8 145/311/8
f 134/292/8 133/291/8 148/314/8 147/313/8
f 133/291/8 140/302/8 146/312/8 148/314/8
f 146/315/45 145/316/45 142/304/45 141/303/45
f 145/317/4 147/318/4 143/305/4 142/304/4
f 147/319/46 148/320/46 144/306/46 143/305/46
f 148/321/5 146/322/5 141/303/5 144/306/5
f 149/323/6 150/324/6 151/325/6 152/326/6
f 153/327/12 154/328/12 155/329/12 156/330/12
f 157/331/7 158/332/7 159/333/7 160/334/7
f 161/335/8 162/336/8 163/337/8 164/338/8
f 163/337/4 162/336/4 155/329/4 154/328/4
f 161/339/5 164/340/5 153/341/5 156/330/5
f 156/330/7 155/329/7 165/342/7 166/343/7
f 155/329/7 162/344/7 167/345/7 165/342/7
f 162/344/7 161/339/7 168/346/7 167/345/7
f 161/339/7 156/330/7 166/343/7 168/346/7
f 166/347/12 165/348/12 158/349/12 157/350/12
f 165/351/4 167/352/4 159/333/4 158/332/4
f 167/352/8 168/353/8 160/354/8 159/333/8
f 168/353/5 166/347/5 157/350/5 160/354/5
f 164/355/6 163/356/6 169/357/6 170/358/6
f 163/356/6 154/328/6 171/359/6 169/357/6
f 154/328/6 153/327/6 172/360/6 171/359/6
f 153/327/6 164/355/6 170/358/6 172/360/6
f 170/361/47 169/362/47 173/363/47 174/364/47
f 169/365/48 171/366/48 175/367/48 173/363/48
f 171/368/49 172/369/49 176/370/49 175/371/49
f 172/372/50 170/373/50 174/364/50 176/370/50
f 174/364/8 173/363/8 150/324/8 149/374/8
f 173/363/4 175/367/4 151/325/4 150/324/4
f 175/371/12 176/370/12 152/375/12 151/376/12
f 176/370/5 174/364/5 149/374/5 152/375/5
f 177/377/6 178/378/6 179/379/6 180/380/6
f 180/381/12 179/379/12 181/382/12 182/383/12
f 183/384/7 184/385/7 185/386/7 186/387/7
f 187/388/8 188/389/8 178/390/8 177/391/8
f 178/378/4 188/392/4 181/382/4 179/379/4
f 187/388/5 177/391/5 180/381/5 182/383/5
f 182/393/7 181/394/7 189/395/7 190/396/7
f 181/394/7 188/389/7 191/397/7 189/395/7
f 188/389/7 187/388/7 192/398/7 191/397/7
f 187/388/7 182/393/7 190/396/7 192/398/7
f 190/399/12 189/400/12 184/385/12 183/401/12
f 189/400/4 191/402/4 185/386/4 184/385/4
f 191/403/8 192/404/8 186/405/8 185/406/8
f 192/404/5 190/399/5 183/401/5 186/405/5
f 193/407/6 194/408/6 195/409/6 196/410/6
f 196/410/12 195/409/12 197/411/12 198/412/12
f 199/413/7 200/414/7 201/415/7 202/416/7
f 194/417/8 193/418/8 200/419/8 199/420/8
f 200/421/5 193/422/5 196/423/5 198/424/5 203/425/5 201/415/5
f 203/425/12 204/426/12 202/416/12 201/415/12
f 198/412/6 197/411/6 204/426/6 203/425/6
f 199/427/4 202/416/4 204/426/4 197/428/4 195/429/4 194/430/4
f 205/431/6 206/432/6 207/433/6 208/434/6
f 208/435/12 207/436/12 209/437/12 210/438/12
f 210/438/7 209/437/7 211/439/7 212/440/7
f 212/441/8 211/442/8 206/432/8 205/431/8
f 206/443/4 211/444/4 209/437/4 207/436/4
f 212/441/5 205/431/5 208/435/5 210/438/5
